<?xml version="1.0" encoding="utf-8"?>
<!-- Generator: Adobe Illustrator 21.0.2, SVG Export Plug-In . SVG Version: 6.00 Build 0)  -->
<svg version="1.1" id="Layer_1" xmlns="http://www.w3.org/2000/svg" xmlns:xlink="http://www.w3.org/1999/xlink" x="0px" y="0px"
	 viewBox="0 0 300 184" style="enable-background:new 0 0 300 184;" xml:space="preserve">
<style type="text/css">
	.st0{fill:none;stroke:#000000;stroke-miterlimit:10;}
	.st1{fill:none;stroke:#3FA9F5;stroke-miterlimit:10;}
	.st2{fill:none;stroke:#3FA9F5;stroke-miterlimit:10;stroke-dasharray:2.0127,2.0127;}
	.st3{clip-path:url(#SVGID_2_);}
	.st4{clip-path:url(#SVGID_4_);}
	.st5{clip-path:url(#SVGID_6_);}
	.st6{clip-path:url(#SVGID_8_);}
	.st7{fill:none;stroke:#000000;stroke-miterlimit:10;stroke-dasharray:3,3,1;}
	.st8{fill:none;stroke:#C1272D;stroke-miterlimit:10;}
	.st9{fill:#C1272D;}
	.st10{clip-path:url(#SVGID_10_);}
	.st11{clip-path:url(#SVGID_12_);}
	.st12{clip-path:url(#SVGID_14_);}
	.st13{clip-path:url(#SVGID_16_);}
	.st14{clip-path:url(#SVGID_18_);}
</style>
<polyline class="st0" points="26,9 26,166 196,166 "/>
<g>
	<g>
		<line class="st1" x1="31.5" y1="161.5" x2="32.2" y2="160.8"/>
		<line class="st2" x1="33.6" y1="159.4" x2="178.1" y2="14.9"/>
		<line class="st1" x1="178.8" y1="14.2" x2="179.5" y2="13.5"/>
	</g>
</g>
<line class="st0" x1="26.5" y1="131.5" x2="187.5" y2="31.5"/>
<g>
	<defs>
		<rect id="SVGID_1_" x="29.9" y="9.2" width="44" height="14"/>
	</defs>
	<clipPath id="SVGID_2_">
		<use xlink:href="#SVGID_1_"  style="overflow:visible;"/>
	</clipPath>
	<path class="st3" d="M34.8,15.3c0.1-0.3,0.4-1.5,1.3-1.5c0.1,0,0.4,0,0.6,0.2c-0.3,0.1-0.6,0.4-0.6,0.7c0,0.2,0.1,0.5,0.5,0.5
		c0.3,0,0.7-0.2,0.7-0.8c0-0.7-0.8-0.9-1.2-0.9c-0.7,0-1.2,0.7-1.4,1c-0.3-0.9-1-1-1.4-1c-1.3,0-2.1,1.7-2.1,2
		c0,0.1,0.1,0.1,0.2,0.1c0.1,0,0.1,0,0.2-0.1c0.5-1.4,1.3-1.7,1.7-1.7c0.3,0,0.7,0.1,0.7,0.9c0,0.4-0.2,1.3-0.7,3.1
		c-0.2,0.8-0.6,1.3-1.2,1.3c-0.1,0-0.4,0-0.6-0.2c0.3-0.1,0.6-0.3,0.6-0.7s-0.3-0.5-0.5-0.5c-0.4,0-0.7,0.3-0.7,0.7
		c0,0.6,0.6,0.9,1.2,0.9c0.9,0,1.3-0.9,1.4-1c0.2,0.5,0.6,1,1.4,1c1.4,0,2.1-1.7,2.1-2c0-0.1-0.1-0.1-0.2-0.1
		c-0.1,0-0.2,0.1-0.2,0.1c-0.4,1.4-1.3,1.7-1.7,1.7c-0.5,0-0.7-0.4-0.7-0.9c0-0.3,0.1-0.6,0.2-1.1L34.8,15.3"/>
	<path class="st3" d="M42.2,22.3c0-0.1,0-0.1-0.2-0.3c-1.6-1.6-2.1-4.1-2.1-6.1c0-2.3,0.5-4.5,2.1-6.2c0.2-0.2,0.2-0.2,0.2-0.2
		c0-0.1-0.1-0.1-0.1-0.1c-0.1,0-1.3,0.9-2.1,2.5c-0.6,1.4-0.8,2.9-0.8,4c0,1,0.1,2.6,0.9,4c0.8,1.6,1.9,2.4,2,2.4
		C42.1,22.5,42.2,22.4,42.2,22.3"/>
	<path class="st3" d="M45.7,14h1.2c0.3,0,0.4,0,0.4-0.3c0-0.1-0.1-0.1-0.4-0.1h-1.1c0.5-1.9,0.5-2.1,0.5-2.2c0-0.2-0.1-0.4-0.4-0.4
		c0,0-0.4,0-0.5,0.5l-0.5,2.1h-1.2c-0.3,0-0.4,0-0.4,0.2c0,0.2,0.1,0.2,0.4,0.2h1.1c-0.9,3.7-1,3.9-1,4.1c0,0.7,0.5,1.2,1.2,1.2
		c1.3,0,2.1-1.9,2.1-2c0-0.1-0.1-0.1-0.2-0.1c-0.1,0-0.1,0.1-0.2,0.2c-0.6,1.4-1.3,1.7-1.7,1.7c-0.3,0-0.4-0.2-0.4-0.6
		c0-0.3,0-0.4,0.1-0.6L45.7,14"/>
	<path class="st3" d="M55.8,16.2h3.6c0.2,0,0.4,0,0.4-0.3s-0.2-0.3-0.4-0.3h-3.6v-3.6c0-0.2,0-0.4-0.3-0.4c-0.2,0-0.2,0.3-0.2,0.4
		v3.6h-3.6c-0.2,0-0.4,0-0.4,0.3s0.2,0.3,0.4,0.3h3.6v3.6c0,0.2,0,0.4,0.2,0.4c0.3,0,0.3-0.2,0.3-0.4V16.2"/>
	<path class="st3" d="M67.3,10.9c0-0.3,0-0.3-0.3-0.3c-0.8,0.8-1.9,0.8-2.4,0.8v0.4c0.3,0,1,0,1.7-0.3v6.7c0,0.5,0,0.6-1.2,0.6h-0.4
		v0.4c0.5-0.1,1.6-0.1,2.1-0.1c0.5,0,1.7,0,2.1,0.1v-0.4h-0.4c-1.2,0-1.2-0.2-1.2-0.6V10.9"/>
	<path class="st3" d="M73.6,16c0-1-0.1-2.6-0.9-4c-0.8-1.6-1.9-2.4-2-2.4c-0.1,0-0.1,0.1-0.1,0.1c0,0,0,0.1,0.2,0.3
		c1.3,1.3,2,3.4,2,6.1c0,2.2-0.5,4.5-2.1,6.2c-0.2,0.1-0.2,0.2-0.2,0.2c0,0.1,0.1,0.1,0.1,0.1c0.1,0,1.3-0.9,2.1-2.5
		C73.5,18.5,73.6,17.1,73.6,16"/>
</g>
<g>
	<defs>
		<rect id="SVGID_3_" x="176.3" y="149.2" width="21" height="14"/>
	</defs>
	<clipPath id="SVGID_4_">
		<use xlink:href="#SVGID_3_"  style="overflow:visible;"/>
	</clipPath>
	<path class="st4" d="M180.8,155.3c0.1-0.3,0.4-1.5,1.3-1.5c0.1,0,0.4,0,0.6,0.2c-0.3,0.1-0.6,0.4-0.6,0.7c0,0.2,0.1,0.5,0.5,0.5
		c0.3,0,0.7-0.2,0.7-0.8c0-0.7-0.8-0.9-1.2-0.9c-0.7,0-1.2,0.7-1.4,1c-0.3-0.9-1-1-1.4-1c-1.4,0-2.1,1.7-2.1,2
		c0,0.1,0.1,0.1,0.2,0.1c0.1,0,0.1,0,0.2-0.1c0.5-1.4,1.3-1.7,1.8-1.7c0.2,0,0.7,0.1,0.7,0.9c0,0.4-0.2,1.3-0.7,3.1
		c-0.2,0.8-0.7,1.3-1.3,1.3c-0.1,0-0.4,0-0.6-0.2c0.3-0.1,0.6-0.3,0.6-0.7c0-0.3-0.3-0.5-0.5-0.5c-0.4,0-0.7,0.3-0.7,0.7
		c0,0.6,0.6,0.9,1.2,0.9c0.9,0,1.3-0.9,1.4-1c0.2,0.5,0.6,1,1.4,1c1.3,0,2.1-1.7,2.1-2c0-0.1-0.1-0.1-0.2-0.1
		c-0.1,0-0.2,0.1-0.2,0.1c-0.5,1.4-1.3,1.7-1.7,1.7c-0.5,0-0.7-0.4-0.7-0.9c0-0.3,0.1-0.6,0.2-1.1L180.8,155.3"/>
	<path class="st4" d="M188.1,162.3c0-0.1,0-0.1-0.2-0.3c-1.6-1.6-2.1-4.1-2.1-6.1c0-2.3,0.5-4.5,2.1-6.2c0.2-0.2,0.2-0.2,0.2-0.2
		c0-0.1-0.1-0.1-0.1-0.1c-0.1,0-1.3,0.9-2.1,2.5c-0.7,1.4-0.8,2.9-0.8,4c0,1,0.1,2.6,0.9,4c0.8,1.6,1.9,2.4,2,2.4
		C188.1,162.5,188.1,162.4,188.1,162.3"/>
	<path class="st4" d="M191.5,154h1.2c0.3,0,0.4,0,0.4-0.3c0-0.1-0.1-0.1-0.3-0.1h-1.1c0.5-1.9,0.5-2.1,0.5-2.2
		c0-0.2-0.2-0.4-0.4-0.4c-0.1,0-0.4,0-0.5,0.5l-0.5,2.1h-1.2c-0.2,0-0.4,0-0.4,0.2c0,0.2,0.1,0.2,0.3,0.2h1.1c-0.9,3.7-1,3.9-1,4.1
		c0,0.7,0.5,1.2,1.2,1.2c1.3,0,2.1-1.9,2.1-2c0-0.1-0.1-0.1-0.2-0.1c-0.1,0-0.1,0.1-0.2,0.2c-0.5,1.4-1.2,1.7-1.7,1.7
		c-0.3,0-0.4-0.2-0.4-0.6c0-0.3,0-0.4,0.1-0.6L191.5,154"/>
	<path class="st4" d="M197.3,156c0-1-0.1-2.6-0.9-4c-0.8-1.6-1.9-2.4-2-2.4c-0.1,0-0.1,0.1-0.1,0.1c0,0,0,0.1,0.2,0.3
		c1.3,1.3,2,3.4,2,6.1c0,2.2-0.5,4.5-2.1,6.2c-0.2,0.1-0.2,0.2-0.2,0.2c0,0.1,0.1,0.1,0.1,0.1c0.1,0,1.3-0.9,2.1-2.5
		C197.1,158.5,197.3,157.1,197.3,156"/>
</g>
<g>
	<defs>
		<rect id="SVGID_5_" x="106.1" y="168.3" width="17" height="10.8"/>
	</defs>
	<clipPath id="SVGID_6_">
		<use xlink:href="#SVGID_5_"  style="overflow:visible;"/>
	</clipPath>
	<path class="st5" d="M110.4,170.9c0.1-0.3,0.4-1.5,1.3-1.5c0.1,0,0.4,0,0.7,0.2c-0.4,0.1-0.6,0.4-0.6,0.7c0,0.2,0.2,0.5,0.5,0.5
		c0.3,0,0.7-0.2,0.7-0.8c0-0.7-0.7-0.9-1.2-0.9c-0.7,0-1.2,0.7-1.4,1c-0.3-0.9-1-1-1.4-1c-1.4,0-2.1,1.7-2.1,2
		c0,0.1,0.1,0.1,0.1,0.1c0.1,0,0.2,0,0.2-0.1c0.4-1.4,1.3-1.7,1.7-1.7c0.2,0,0.7,0.1,0.7,0.9c0,0.4-0.2,1.3-0.7,3.1
		c-0.2,0.8-0.7,1.3-1.2,1.3c-0.1,0-0.4,0-0.7-0.2c0.3-0.1,0.6-0.3,0.6-0.7c0-0.3-0.3-0.5-0.5-0.5c-0.4,0-0.7,0.3-0.7,0.7
		c0,0.6,0.7,0.9,1.2,0.9c0.9,0,1.3-0.9,1.4-1c0.1,0.5,0.6,1,1.4,1c1.3,0,2.1-1.7,2.1-2c0-0.1-0.1-0.1-0.2-0.1
		c-0.1,0-0.1,0.1-0.2,0.1c-0.4,1.4-1.3,1.7-1.7,1.7c-0.5,0-0.7-0.4-0.7-0.9c0-0.3,0.1-0.6,0.2-1.1L110.4,170.9"/>
	<path class="st5" d="M115,174.5c0.4-1.3,1.4-1.4,1.6-1.4c0.4,0,0.7,0.2,0.7,0.6c0,0.9-1.5,0.9-1.9,0.9H115 M115.5,174.7
		c0.2,0,1,0,1.5-0.2c0.7-0.2,0.8-0.7,0.8-0.9c0-0.5-0.5-0.8-1.1-0.8c-1.1,0-2.5,0.8-2.5,2.4c0,0.9,0.6,1.7,1.6,1.7
		c1.5,0,2.2-0.9,2.2-1c0-0.1-0.1-0.1-0.2-0.1c-0.1,0-0.1,0-0.1,0.1c-0.7,0.8-1.8,0.8-1.9,0.8c-0.5,0-0.9-0.4-0.9-1.1
		c0-0.1,0-0.3,0.1-0.8H115.5z"/>
	<path class="st5" d="M121.6,175.6c0,0.2,0,0.2-0.2,0.3c-0.3,0.4-0.8,0.7-1.1,0.7c-0.3,0-0.7-0.2-0.7-0.9c0-0.5,0.3-1.5,0.5-1.8
		c0.4-0.7,0.9-0.9,1.1-0.9c0.6,0,0.8,0.7,0.8,0.8c0,0,0,0.1,0,0.1L121.6,175.6 M122.9,173.1c0-0.1,0-0.1,0-0.1c0-0.1,0-0.1-0.1-0.1
		c-0.1,0-0.5,0.3-0.7,0.6c-0.1-0.2-0.4-0.6-1-0.6c-1.1,0-2.3,1.3-2.3,2.6c0,0.9,0.6,1.5,1.4,1.5c0.5,0,0.9-0.3,1.1-0.5
		c0,0-0.3,1.2-0.3,1.3c-0.1,0.5-0.1,0.5-0.7,0.5c-0.1,0-0.2,0-0.2,0.2c0,0.1,0,0.1,0.1,0.1c0.3,0,0.6-0.1,0.9-0.1
		c0.3,0,0.7,0.1,1,0.1c0.1,0,0.2,0,0.2-0.2c0-0.1-0.1-0.1-0.2-0.1c-0.2,0-0.5,0-0.5-0.1c0,0,0-0.1,0.1-0.2L122.9,173.1z"/>
</g>
<g>
	<defs>
		<rect id="SVGID_7_" x="6.1" y="71.3" width="17" height="10.8"/>
	</defs>
	<clipPath id="SVGID_8_">
		<use xlink:href="#SVGID_7_"  style="overflow:visible;"/>
	</clipPath>
	<path class="st6" d="M10.4,73.9c0.1-0.3,0.4-1.5,1.3-1.5c0.1,0,0.4,0,0.7,0.2c-0.4,0.1-0.6,0.4-0.6,0.7c0,0.2,0.2,0.5,0.5,0.5
		c0.3,0,0.7-0.2,0.7-0.8c0-0.7-0.7-0.9-1.2-0.9c-0.7,0-1.2,0.7-1.4,1c-0.3-0.9-1-1-1.4-1c-1.4,0-2.1,1.7-2.1,2
		c0,0.1,0.1,0.1,0.1,0.1c0.1,0,0.2,0,0.2-0.1c0.4-1.4,1.3-1.7,1.7-1.7c0.2,0,0.7,0.1,0.7,0.9c0,0.4-0.2,1.3-0.7,3.1
		c-0.2,0.8-0.7,1.3-1.2,1.3c-0.1,0-0.4,0-0.7-0.2c0.3-0.1,0.6-0.3,0.6-0.7c0-0.3-0.3-0.5-0.5-0.5c-0.4,0-0.7,0.3-0.7,0.7
		c0,0.6,0.7,0.9,1.2,0.9C8.5,78,9,77.1,9,77c0.1,0.5,0.6,1,1.4,1c1.3,0,2.1-1.7,2.1-2c0-0.1-0.1-0.1-0.2-0.1c-0.1,0-0.1,0.1-0.2,0.1
		c-0.4,1.4-1.3,1.7-1.7,1.7c-0.5,0-0.7-0.4-0.7-0.9c0-0.3,0.1-0.6,0.2-1.1L10.4,73.9"/>
	<path class="st6" d="M15,77.5c0.4-1.3,1.4-1.4,1.6-1.4c0.4,0,0.7,0.2,0.7,0.6c0,0.9-1.5,0.9-1.9,0.9H15 M15.5,77.7
		c0.2,0,1,0,1.5-0.2c0.7-0.2,0.8-0.7,0.8-0.9c0-0.5-0.5-0.8-1.1-0.8c-1.1,0-2.5,0.8-2.5,2.4c0,0.9,0.6,1.7,1.6,1.7
		c1.5,0,2.2-0.9,2.2-1c0-0.1-0.1-0.1-0.2-0.1c-0.1,0-0.1,0-0.1,0.1c-0.7,0.8-1.8,0.8-1.9,0.8c-0.5,0-0.9-0.4-0.9-1.1
		c0-0.1,0-0.3,0.1-0.8H15.5z"/>
	<path class="st6" d="M21.6,78.6c0,0.2,0,0.2-0.2,0.3c-0.3,0.4-0.8,0.7-1.1,0.7c-0.3,0-0.7-0.2-0.7-0.9c0-0.5,0.3-1.5,0.5-1.8
		c0.4-0.7,0.9-0.9,1.1-0.9c0.6,0,0.8,0.7,0.8,0.8c0,0,0,0.1,0,0.1L21.6,78.6 M22.9,76.1c0-0.1,0-0.1,0-0.1c0-0.1,0-0.1-0.1-0.1
		c-0.1,0-0.5,0.3-0.7,0.6c-0.1-0.2-0.4-0.6-1-0.6c-1.1,0-2.3,1.3-2.3,2.6c0,0.9,0.6,1.5,1.4,1.5c0.5,0,0.9-0.3,1.1-0.5
		c0,0-0.3,1.2-0.3,1.3c-0.1,0.5-0.1,0.5-0.7,0.5c-0.1,0-0.2,0-0.2,0.2c0,0.1,0,0.1,0.1,0.1c0.3,0,0.6-0.1,0.9-0.1
		c0.3,0,0.7,0.1,1,0.1c0.1,0,0.2,0,0.2-0.2c0-0.1-0.1-0.1-0.2-0.1c-0.2,0-0.5,0-0.5-0.1c0,0,0-0.1,0.1-0.2L22.9,76.1z"/>
</g>
<polyline class="st7" points="27,75 117,75 117,166 "/>
<g>
	<g>
		<line class="st8" x1="45.8" y1="147.2" x2="45.8" y2="122.8"/>
		<g>
			<path class="st9" d="M45.8,119.7c0.5,1.4,1.4,3.2,2.4,4.3l-2.4-0.9l-2.4,0.9C44.4,122.9,45.3,121.2,45.8,119.7z"/>
		</g>
	</g>
</g>
<g>
	<g>
		<line class="st8" x1="170.8" y1="23" x2="170.8" y2="38.1"/>
		<g>
			<path class="st9" d="M170.8,41.2c-0.5-1.4-1.4-3.2-2.4-4.3l2.4,0.9l2.4-0.9C172.3,38,171.4,39.7,170.8,41.2z"/>
		</g>
	</g>
</g>
<g>
	<g>
		<line class="st8" x1="170.9" y1="41.1" x2="155.8" y2="41.1"/>
		<g>
			<path class="st9" d="M152.7,41.1c1.4-0.5,3.2-1.4,4.3-2.4l-0.9,2.4l0.9,2.4C155.9,42.5,154.2,41.6,152.7,41.1z"/>
		</g>
	</g>
</g>
<g>
	<g>
		<line class="st8" x1="152.8" y1="41" x2="152.8" y2="50"/>
		<g>
			<path class="st9" d="M152.8,53c-0.5-1.4-1.4-3.2-2.4-4.3l2.4,0.9l2.4-0.9C154.3,49.8,153.4,51.6,152.8,53z"/>
		</g>
	</g>
</g>
<g>
	<g>
		<line class="st8" x1="153" y1="52.5" x2="144" y2="52.5"/>
		<g>
			<path class="st9" d="M141,52.5c1.4-0.5,3.2-1.4,4.3-2.4l-0.9,2.4l0.9,2.4C144.2,53.9,142.4,53,141,52.5z"/>
		</g>
	</g>
</g>
<g>
	<g>
		<line class="st8" x1="46.1" y1="119.5" x2="70.5" y2="119.5"/>
		<g>
			<path class="st9" d="M73.5,119.5c-1.4,0.5-3.2,1.4-4.3,2.4l0.9-2.4l-0.9-2.4C70.4,118,72.1,118.9,73.5,119.5z"/>
		</g>
	</g>
</g>
<g>
	<g>
		<line class="st8" x1="72.8" y1="119.2" x2="72.8" y2="105.5"/>
		<g>
			<path class="st9" d="M72.8,102.5c0.5,1.4,1.4,3.2,2.4,4.3l-2.4-0.9l-2.4,0.9C71.4,105.7,72.3,103.9,72.8,102.5z"/>
		</g>
	</g>
</g>
<g>
	<g>
		<line class="st8" x1="73.5" y1="102.8" x2="87.1" y2="102.8"/>
		<g>
			<path class="st9" d="M90.2,102.8c-1.4,0.5-3.2,1.4-4.3,2.4l0.9-2.4l-0.9-2.4C87,101.4,88.7,102.3,90.2,102.8z"/>
		</g>
	</g>
</g>
<g>
	<g>
		<line class="st8" x1="89.8" y1="103.2" x2="89.8" y2="95"/>
		<g>
			<path class="st9" d="M89.8,92c0.5,1.4,1.4,3.2,2.4,4.3l-2.4-0.9l-2.4,0.9C88.4,95.2,89.3,93.4,89.8,92z"/>
		</g>
	</g>
</g>
<circle class="st1" cx="116.5" cy="75.5" r="3"/>
<g>
	<defs>
		<rect id="SVGID_9_" x="132.1" y="85.2" width="145.8" height="13.9"/>
	</defs>
	<clipPath id="SVGID_10_">
		<use xlink:href="#SVGID_9_"  style="overflow:visible;"/>
	</clipPath>
	<path class="st10" d="M136.4,91.2c0.1-0.3,0.4-1.5,1.3-1.5c0.1,0,0.4,0,0.7,0.2c-0.4,0.1-0.6,0.4-0.6,0.7c0,0.2,0.2,0.5,0.5,0.5
		c0.3,0,0.7-0.2,0.7-0.7c0-0.7-0.7-0.9-1.2-0.9c-0.7,0-1.2,0.7-1.4,1c-0.3-0.9-1-1-1.4-1c-1.4,0-2.1,1.7-2.1,2
		c0,0.1,0.1,0.1,0.1,0.1c0.1,0,0.2,0,0.2-0.1c0.4-1.4,1.3-1.7,1.7-1.7c0.2,0,0.7,0.1,0.7,0.9c0,0.4-0.2,1.3-0.7,3.1
		c-0.2,0.8-0.7,1.4-1.2,1.4c-0.1,0-0.4,0-0.7-0.2c0.3-0.1,0.6-0.3,0.6-0.7c0-0.3-0.3-0.5-0.5-0.5c-0.4,0-0.7,0.3-0.7,0.7
		c0,0.6,0.7,0.9,1.2,0.9c0.9,0,1.3-0.9,1.4-1c0.1,0.5,0.6,1,1.4,1c1.3,0,2.1-1.7,2.1-2c0-0.1-0.1-0.1-0.2-0.1
		c-0.1,0-0.1,0.1-0.2,0.2c-0.4,1.4-1.3,1.7-1.7,1.7c-0.5,0-0.7-0.4-0.7-0.9c0-0.3,0.1-0.6,0.2-1.1L136.4,91.2"/>
	<path class="st10" d="M143.8,98.2c0,0,0-0.1-0.2-0.3c-1.6-1.6-2-4.1-2-6.1c0-2.3,0.5-4.5,2.1-6.2c0.2-0.2,0.2-0.2,0.2-0.2
		c0-0.1-0.1-0.1-0.1-0.1c-0.1,0-1.3,0.9-2.1,2.5c-0.7,1.4-0.8,2.9-0.8,4c0,1,0.2,2.6,0.9,4c0.8,1.6,1.9,2.4,2,2.4
		C143.7,98.3,143.8,98.3,143.8,98.2"/>
	<path class="st10" d="M147.1,89.9h1.2c0.3,0,0.4,0,0.4-0.3c0-0.1-0.1-0.1-0.4-0.1h-1.1c0.5-1.9,0.5-2.1,0.5-2.2
		c0-0.2-0.2-0.3-0.4-0.3c0,0-0.4,0-0.5,0.5l-0.5,2.1h-1.2c-0.3,0-0.4,0-0.4,0.2c0,0.2,0.1,0.2,0.4,0.2h1.1c-0.9,3.7-1,3.9-1,4.2
		c0,0.7,0.5,1.2,1.2,1.2c1.3,0,2.1-1.9,2.1-2c0-0.1-0.1-0.1-0.2-0.1c-0.1,0-0.1,0.1-0.2,0.2c-0.6,1.4-1.3,1.7-1.7,1.7
		c-0.3,0-0.4-0.2-0.4-0.6c0-0.3,0-0.4,0.1-0.6L147.1,89.9"/>
	<path class="st10" d="M157.4,92.1h3.6c0.2,0,0.4,0,0.4-0.3c0-0.3-0.2-0.3-0.4-0.3h-3.6v-3.6c0-0.2,0-0.4-0.3-0.4
		c-0.3,0-0.3,0.2-0.3,0.4v3.6h-3.6c-0.2,0-0.4,0-0.4,0.3c0,0.3,0.2,0.3,0.4,0.3h3.6v3.6c0,0.2,0,0.5,0.3,0.5c0.3,0,0.3-0.3,0.3-0.5
		V92.1"/>
	<path class="st10" d="M168.8,86.8c0-0.3,0-0.3-0.3-0.3c-0.8,0.8-1.9,0.8-2.4,0.8v0.4c0.3,0,1,0,1.7-0.3V94c0,0.5,0,0.6-1.2,0.6
		h-0.4v0.4c0.5,0,1.6,0,2.1,0c0.5,0,1.7,0,2.1,0v-0.4H170c-1.2,0-1.2-0.1-1.2-0.6V86.8"/>
	<path class="st10" d="M175.2,91.8c0-1-0.1-2.6-0.9-4c-0.8-1.6-1.9-2.4-2-2.4c-0.1,0-0.1,0.1-0.1,0.1c0,0,0,0.1,0.2,0.3
		c1.3,1.3,2,3.4,2,6.1c0,2.2-0.5,4.5-2.1,6.2c-0.2,0.2-0.2,0.2-0.2,0.2c0,0.1,0.1,0.1,0.1,0.1c0.1,0,1.3-0.9,2.1-2.5
		C175,94.4,175.2,92.9,175.2,91.8"/>
	<path class="st10" d="M189,93.3c0.2,0,0.4,0,0.4-0.3c0-0.2-0.3-0.2-0.5-0.2h-7.7c-0.2,0-0.5,0-0.5,0.2c0,0.3,0.3,0.3,0.4,0.3H189
		 M189,90.8c0.2,0,0.5,0,0.5-0.2c0-0.3-0.3-0.3-0.4-0.3h-7.8c-0.2,0-0.4,0-0.4,0.3c0,0.2,0.3,0.2,0.5,0.2H189z"/>
	<path class="st10" d="M198.1,91.2c0.1-0.3,0.4-1.5,1.3-1.5c0.1,0,0.4,0,0.6,0.2c-0.4,0.1-0.6,0.4-0.6,0.7c0,0.2,0.1,0.5,0.5,0.5
		c0.3,0,0.7-0.2,0.7-0.7c0-0.7-0.7-0.9-1.2-0.9c-0.7,0-1.2,0.7-1.4,1c-0.3-0.9-1-1-1.4-1c-1.4,0-2.1,1.7-2.1,2
		c0,0.1,0.1,0.1,0.2,0.1c0.1,0,0.1,0,0.2-0.1c0.4-1.4,1.3-1.7,1.7-1.7c0.3,0,0.7,0.1,0.7,0.9c0,0.4-0.2,1.3-0.7,3.1
		c-0.2,0.8-0.7,1.4-1.2,1.4c-0.1,0-0.4,0-0.7-0.2c0.3-0.1,0.6-0.3,0.6-0.7c0-0.3-0.3-0.5-0.5-0.5c-0.4,0-0.7,0.3-0.7,0.7
		c0,0.6,0.6,0.9,1.2,0.9c0.9,0,1.3-0.9,1.4-1c0.1,0.5,0.6,1,1.4,1c1.4,0,2.1-1.7,2.1-2c0-0.1-0.1-0.1-0.1-0.1
		c-0.1,0-0.2,0.1-0.2,0.2c-0.4,1.4-1.3,1.7-1.7,1.7c-0.5,0-0.7-0.4-0.7-0.9c0-0.3,0.1-0.6,0.2-1.1L198.1,91.2"/>
	<path class="st10" d="M205.4,98.2c0,0,0-0.1-0.2-0.3c-1.7-1.6-2.1-4.1-2.1-6.1c0-2.3,0.5-4.5,2.1-6.2c0.2-0.2,0.2-0.2,0.2-0.2
		c0-0.1-0.1-0.1-0.1-0.1c-0.1,0-1.3,0.9-2.1,2.5c-0.7,1.4-0.8,2.9-0.8,4c0,1,0.1,2.6,0.9,4c0.8,1.6,1.9,2.4,2,2.4
		C205.4,98.3,205.4,98.3,205.4,98.2"/>
	<path class="st10" d="M208.8,89.9h1.2c0.3,0,0.4,0,0.4-0.3c0-0.1-0.1-0.1-0.4-0.1h-1.1c0.5-1.9,0.5-2.1,0.5-2.2
		c0-0.2-0.1-0.3-0.4-0.3c0,0-0.4,0-0.5,0.5l-0.5,2.1h-1.2c-0.3,0-0.4,0-0.4,0.2c0,0.2,0.1,0.2,0.4,0.2h1.1c-0.9,3.7-1,3.9-1,4.2
		c0,0.7,0.5,1.2,1.2,1.2c1.3,0,2.1-1.9,2.1-2c0-0.1-0.1-0.1-0.2-0.1c-0.1,0-0.1,0.1-0.2,0.2c-0.6,1.4-1.3,1.7-1.7,1.7
		c-0.3,0-0.4-0.2-0.4-0.6c0-0.3,0-0.4,0.1-0.6L208.8,89.9"/>
	<path class="st10" d="M214.6,91.8c0-1-0.2-2.6-0.9-4c-0.8-1.6-1.9-2.4-2-2.4c-0.1,0-0.1,0.1-0.1,0.1c0,0,0,0.1,0.3,0.3
		c1.3,1.3,2,3.4,2,6.1c0,2.2-0.5,4.5-2.1,6.2c-0.2,0.2-0.2,0.2-0.2,0.2c0,0.1,0.1,0.1,0.1,0.1c0.1,0,1.3-0.9,2.1-2.5
		C214.4,94.4,214.6,92.9,214.6,91.8"/>
	<path class="st10" d="M220.1,98.2c0,0,0-0.1-0.2-0.3c-1.6-1.6-2.1-4.1-2.1-6.1c0-2.3,0.5-4.5,2.1-6.2c0.2-0.2,0.2-0.2,0.2-0.2
		c0-0.1-0.1-0.1-0.1-0.1c-0.1,0-1.3,0.9-2.1,2.5c-0.6,1.4-0.8,2.9-0.8,4c0,1,0.1,2.6,0.9,4c0.8,1.6,1.9,2.4,2,2.4
		C220.1,98.3,220.1,98.3,220.1,98.2"/>
	<path class="st10" d="M224.8,86.8c0-0.3,0-0.3-0.3-0.3c-0.8,0.8-1.9,0.8-2.4,0.8v0.4c0.3,0,1,0,1.7-0.3V94c0,0.5,0,0.6-1.2,0.6
		h-0.4v0.4c0.5,0,1.6,0,2.1,0c0.5,0,1.7,0,2.1,0v-0.4H226c-1.2,0-1.2-0.1-1.2-0.6V86.8"/>
	<path class="st10" d="M238.8,92.1c0.2,0,0.5,0,0.5-0.3c0-0.3-0.2-0.3-0.5-0.3h-7c-0.2,0-0.5,0-0.5,0.3c0,0.3,0.2,0.3,0.5,0.3H238.8
		"/>
	<path class="st10" d="M246.6,94.9c-0.9,0-1.1-1-1.1-1.2c0-0.1,0.1-0.3,0.1-0.5c0.3-1.4,0.5-1.9,0.8-2.4c0.6-0.9,1.2-1.2,1.6-1.2
		c0.5,0,0.9,0.4,0.9,1.3c0,0.7-0.4,2.2-0.7,2.8C247.7,94.5,247,94.9,246.6,94.9 M243.7,97.3c0,0.2,0,0.2,0,0.2
		c0,0.2,0.1,0.3,0.4,0.3c0.3,0,0.4-0.2,0.5-0.3c0.1-0.1,0.5-1.9,0.8-3.2c0.3,0.5,0.7,0.9,1.3,0.9c1.5,0,3.2-1.8,3.2-3.8
		c0-1.4-0.9-2.1-1.8-2.1c-1.3,0-2.6,1.3-3,2.9L243.7,97.3z"/>
	<path class="st10" d="M253.7,91.8c0-1-0.1-2.6-0.9-4c-0.8-1.6-1.9-2.4-2-2.4c-0.1,0-0.1,0.1-0.1,0.1c0,0,0,0.1,0.2,0.3
		c1.3,1.3,2,3.4,2,6.1c0,2.2-0.5,4.5-2.1,6.2c-0.2,0.2-0.2,0.2-0.2,0.2c0,0.1,0.1,0.1,0.1,0.1c0.1,0,1.3-0.9,2-2.5
		C253.5,94.4,253.7,92.9,253.7,91.8"/>
	<path class="st10" d="M263.2,92.1h3.6c0.2,0,0.4,0,0.4-0.3c0-0.3-0.2-0.3-0.4-0.3h-3.6v-3.6c0-0.2,0-0.4-0.3-0.4
		c-0.2,0-0.2,0.2-0.2,0.4v3.6H259c-0.2,0-0.4,0-0.4,0.3c0,0.3,0.2,0.3,0.4,0.3h3.6v3.6c0,0.2,0,0.5,0.2,0.5c0.3,0,0.3-0.3,0.3-0.5
		V92.1"/>
	<path class="st10" d="M275.5,91.3c0.5,1.4,1.2,3.3,1.4,3.6c0.2,0.3,0.3,0.3,0.7,0.3h0.3c0.1,0,0.1-0.1,0.1-0.1c0,0,0-0.1-0.1-0.1
		c-0.1-0.1-0.2-0.3-0.3-0.6l-2.7-7.4c-0.3-0.7-1-0.9-1.6-0.9c-0.1,0-0.2,0-0.2,0.2c0,0.1,0.1,0.1,0.1,0.1c0.4,0.1,0.5,0.2,0.9,1
		l1.3,3.5l-3.6,3.6c-0.2,0.2-0.2,0.2-0.2,0.4c0,0.2,0.2,0.4,0.4,0.4c0.2,0,0.3-0.1,0.4-0.3L275.5,91.3"/>
</g>
<g>
	<g>
		<path class="st0" d="M159.6,83.3c6.1-9.1-4.5-17.8-9.6-21.2"/>
		<g>
			<path d="M147.5,60.5c1.5,0.3,3.5,0.5,4.9,0.3l-2,1.5l-0.5,2.5C149.4,63.4,148.4,61.7,147.5,60.5z"/>
		</g>
	</g>
</g>
<g>
	<g>
		<path class="st0" d="M129,19.8c-3.5,10.4,8.9,16,14.7,18"/>
		<g>
			<path d="M146.6,38.7c-1.5,0.1-3.5,0.4-4.8,1l1.5-2l-0.1-2.5C144,36.4,145.4,37.8,146.6,38.7z"/>
		</g>
	</g>
</g>
<g>
	<defs>
		<rect id="SVGID_11_" x="9.1" y="144.3" width="6.8" height="9.4"/>
	</defs>
	<clipPath id="SVGID_12_">
		<use xlink:href="#SVGID_11_"  style="overflow:visible;"/>
	</clipPath>
	<path class="st11" d="M13.4,149.6c0.5,1.4,1.2,3.4,1.4,3.6c0.2,0.3,0.3,0.3,0.7,0.3h0.3c0.1,0,0.1-0.1,0.1-0.1c0-0.1,0-0.1-0.1-0.1
		c-0.1-0.1-0.2-0.3-0.3-0.6l-2.7-7.4c-0.3-0.7-1-0.9-1.6-0.9c-0.1,0-0.2,0-0.2,0.1c0,0.1,0.1,0.1,0.1,0.1c0.4,0.1,0.5,0.2,0.9,1
		l1.3,3.5l-3.6,3.5c-0.2,0.2-0.2,0.2-0.2,0.4c0,0.2,0.2,0.4,0.4,0.4c0.2,0,0.3-0.2,0.5-0.3L13.4,149.6"/>
</g>
<g>
	<g>
		<line class="st0" x1="22.8" y1="163.1" x2="22.8" y2="137"/>
		<g>
			<path d="M22.8,166.2c0.5-1.4,1.4-3.2,2.4-4.3l-2.4,0.9l-2.4-0.9C21.4,163,22.3,164.7,22.8,166.2z"/>
		</g>
		<g>
			<path d="M22.8,134c0.5,1.4,1.4,3.2,2.4,4.3l-2.4-0.9l-2.4,0.9C21.4,137.2,22.3,135.4,22.8,134z"/>
		</g>
	</g>
</g>
<g>
	<defs>
		<rect id="SVGID_13_" x="23" y="170" width="6" height="9"/>
	</defs>
	<clipPath id="SVGID_14_">
		<use xlink:href="#SVGID_13_"  style="overflow:visible;"/>
	</clipPath>
	<path class="st12" d="M25.9,178.7c-0.5,0-1.3-0.3-1.5-1.6c-0.2-0.8-0.2-2-0.2-2.7c0-0.8,0-1.7,0.1-2.4c0.3-1.5,1.2-1.7,1.5-1.7
		c0.5,0,1.3,0.2,1.5,1.5c0.1,0.7,0.1,1.7,0.1,2.5c0,1,0,1.9-0.1,2.7C27.2,178.3,26.4,178.7,25.9,178.7 M28.6,174.5
		c0-1-0.1-2.1-0.5-3c-0.6-1.3-1.7-1.5-2.2-1.5c-0.8,0-1.7,0.3-2.3,1.5c-0.4,0.9-0.5,1.9-0.5,3c0,1,0.1,2.2,0.6,3.1
		c0.6,1,1.5,1.3,2.1,1.3c0.7,0,1.7-0.3,2.3-1.5C28.5,176.6,28.6,175.6,28.6,174.5z"/>
</g>
<g>
	<defs>
		<rect id="SVGID_15_" x="10" y="161" width="6" height="9"/>
	</defs>
	<clipPath id="SVGID_16_">
		<use xlink:href="#SVGID_15_"  style="overflow:visible;"/>
	</clipPath>
	<path class="st13" d="M12.8,169.7c-0.5,0-1.3-0.3-1.5-1.6c-0.2-0.8-0.2-2-0.2-2.7c0-0.8,0-1.7,0.1-2.4c0.3-1.5,1.2-1.7,1.5-1.7
		c0.5,0,1.3,0.2,1.5,1.5c0.1,0.7,0.1,1.7,0.1,2.5c0,1,0,1.9-0.1,2.7C14.2,169.3,13.4,169.7,12.8,169.7 M15.6,165.5
		c0-1-0.1-2.1-0.5-3c-0.6-1.3-1.7-1.5-2.2-1.5c-0.8,0-1.7,0.3-2.3,1.5c-0.4,0.9-0.5,1.9-0.5,3c0,1,0.1,2.2,0.6,3.1
		c0.6,1,1.5,1.3,2.1,1.3c0.7,0,1.7-0.3,2.3-1.5C15.5,167.6,15.6,166.6,15.6,165.5z"/>
</g>
<g>
	<defs>
		<rect id="SVGID_17_" x="91.1" y="4.2" width="83" height="14"/>
	</defs>
	<clipPath id="SVGID_18_">
		<use xlink:href="#SVGID_17_"  style="overflow:visible;"/>
	</clipPath>
	<path class="st14" d="M95.4,10.2c0.1-0.3,0.4-1.5,1.3-1.5c0.1,0,0.4,0,0.7,0.2c-0.4,0.1-0.6,0.4-0.6,0.7c0,0.2,0.2,0.5,0.5,0.5
		c0.3,0,0.7-0.2,0.7-0.7c0-0.7-0.7-0.9-1.2-0.9c-0.7,0-1.2,0.7-1.4,1c-0.3-0.9-1-1-1.4-1c-1.4,0-2.1,1.7-2.1,2
		c0,0.1,0.1,0.1,0.1,0.1c0.1,0,0.2,0,0.2-0.1c0.4-1.4,1.3-1.7,1.7-1.7c0.2,0,0.7,0.1,0.7,0.9c0,0.4-0.2,1.3-0.7,3.1
		c-0.2,0.8-0.7,1.4-1.2,1.4c-0.1,0-0.4,0-0.7-0.2c0.3-0.1,0.6-0.3,0.6-0.7c0-0.3-0.3-0.5-0.5-0.5c-0.4,0-0.7,0.3-0.7,0.7
		c0,0.6,0.7,0.9,1.2,0.9c0.9,0,1.3-0.9,1.4-1c0.1,0.5,0.6,1,1.4,1c1.3,0,2.1-1.7,2.1-2c0-0.1-0.1-0.1-0.2-0.1
		c-0.1,0-0.1,0.1-0.2,0.2c-0.4,1.4-1.3,1.7-1.7,1.7c-0.5,0-0.7-0.4-0.7-0.9c0-0.3,0.1-0.6,0.2-1.1L95.4,10.2"/>
	<path class="st14" d="M102.8,17.2c0,0,0-0.1-0.2-0.3c-1.6-1.6-2-4.1-2-6.1c0-2.3,0.5-4.5,2.1-6.2c0.2-0.2,0.2-0.2,0.2-0.2
		c0-0.1-0.1-0.1-0.1-0.1c-0.1,0-1.3,0.9-2.1,2.5c-0.7,1.4-0.8,2.9-0.8,4c0,1,0.2,2.6,0.9,4c0.8,1.6,1.9,2.4,2,2.4
		C102.7,17.3,102.8,17.3,102.8,17.2"/>
	<path class="st14" d="M106.1,8.9h1.2c0.3,0,0.4,0,0.4-0.3c0-0.1-0.1-0.1-0.4-0.1h-1.1c0.5-1.9,0.5-2.1,0.5-2.2
		c0-0.2-0.2-0.3-0.4-0.3c0,0-0.4,0-0.5,0.5l-0.5,2.1h-1.2c-0.3,0-0.4,0-0.4,0.2c0,0.2,0.1,0.2,0.4,0.2h1.1c-0.9,3.7-1,3.9-1,4.2
		c0,0.7,0.5,1.2,1.2,1.2c1.3,0,2.1-1.9,2.1-2c0-0.1-0.1-0.1-0.2-0.1c-0.1,0-0.1,0.1-0.2,0.2c-0.6,1.4-1.3,1.7-1.7,1.7
		c-0.3,0-0.4-0.2-0.4-0.6c0-0.3,0-0.4,0.1-0.6L106.1,8.9"/>
	<path class="st14" d="M116.4,11.1h3.6c0.2,0,0.4,0,0.4-0.3c0-0.3-0.2-0.3-0.4-0.3h-3.6V6.9c0-0.2,0-0.4-0.3-0.4
		c-0.3,0-0.3,0.2-0.3,0.4v3.6h-3.6c-0.2,0-0.4,0-0.4,0.3c0,0.3,0.2,0.3,0.4,0.3h3.6v3.6c0,0.2,0,0.5,0.3,0.5c0.3,0,0.3-0.3,0.3-0.5
		V11.1"/>
	<path class="st14" d="M127.8,5.8c0-0.3,0-0.3-0.3-0.3c-0.8,0.8-1.9,0.8-2.4,0.8v0.4c0.3,0,1,0,1.7-0.3V13c0,0.5,0,0.6-1.2,0.6h-0.4
		v0.4c0.5,0,1.6,0,2.1,0c0.5,0,1.7,0,2.1,0v-0.4H129c-1.2,0-1.2-0.1-1.2-0.6V5.8"/>
	<path class="st14" d="M134.2,10.8c0-1-0.1-2.6-0.9-4c-0.8-1.6-1.9-2.4-2-2.4c-0.1,0-0.1,0.1-0.1,0.1c0,0,0,0.1,0.2,0.3
		c1.3,1.3,2,3.4,2,6.1c0,2.2-0.5,4.5-2.1,6.2c-0.2,0.2-0.2,0.2-0.2,0.2c0,0.1,0.1,0.1,0.1,0.1c0.1,0,1.3-0.9,2.1-2.5
		C134,13.4,134.2,11.9,134.2,10.8"/>
	<path class="st14" d="M148,12.3c0.2,0,0.4,0,0.4-0.3c0-0.2-0.3-0.2-0.5-0.2h-7.7c-0.2,0-0.5,0-0.5,0.2c0,0.3,0.3,0.3,0.4,0.3H148
		 M148,9.8c0.2,0,0.5,0,0.5-0.2c0-0.3-0.3-0.3-0.4-0.3h-7.8c-0.2,0-0.4,0-0.4,0.3c0,0.2,0.3,0.2,0.5,0.2H148z"/>
	<path class="st14" d="M157.1,10.2c0.1-0.3,0.4-1.5,1.3-1.5c0.1,0,0.4,0,0.6,0.2c-0.4,0.1-0.6,0.4-0.6,0.7c0,0.2,0.1,0.5,0.5,0.5
		c0.3,0,0.7-0.2,0.7-0.7c0-0.7-0.7-0.9-1.2-0.9c-0.7,0-1.2,0.7-1.4,1c-0.3-0.9-1-1-1.4-1c-1.4,0-2.1,1.7-2.1,2
		c0,0.1,0.1,0.1,0.2,0.1c0.1,0,0.1,0,0.2-0.1c0.4-1.4,1.3-1.7,1.7-1.7c0.3,0,0.7,0.1,0.7,0.9c0,0.4-0.2,1.3-0.7,3.1
		c-0.2,0.8-0.7,1.4-1.2,1.4c-0.1,0-0.4,0-0.7-0.2c0.3-0.1,0.6-0.3,0.6-0.7c0-0.3-0.3-0.5-0.5-0.5c-0.4,0-0.7,0.3-0.7,0.7
		c0,0.6,0.6,0.9,1.2,0.9c0.9,0,1.3-0.9,1.4-1c0.1,0.5,0.6,1,1.4,1c1.4,0,2.1-1.7,2.1-2c0-0.1-0.1-0.1-0.1-0.1
		c-0.1,0-0.2,0.1-0.2,0.2c-0.4,1.4-1.3,1.7-1.7,1.7c-0.5,0-0.7-0.4-0.7-0.9c0-0.3,0.1-0.6,0.2-1.1L157.1,10.2"/>
	<path class="st14" d="M164.4,17.2c0,0,0-0.1-0.2-0.3c-1.7-1.6-2.1-4.1-2.1-6.1c0-2.3,0.5-4.5,2.1-6.2c0.2-0.2,0.2-0.2,0.2-0.2
		c0-0.1-0.1-0.1-0.1-0.1c-0.1,0-1.3,0.9-2.1,2.5c-0.7,1.4-0.8,2.9-0.8,4c0,1,0.1,2.6,0.9,4c0.8,1.6,1.9,2.4,2,2.4
		C164.4,17.3,164.4,17.3,164.4,17.2"/>
	<path class="st14" d="M167.8,8.9h1.2c0.3,0,0.4,0,0.4-0.3c0-0.1-0.1-0.1-0.4-0.1h-1.1c0.5-1.9,0.5-2.1,0.5-2.2
		c0-0.2-0.1-0.3-0.4-0.3c0,0-0.4,0-0.5,0.5l-0.5,2.1h-1.2c-0.3,0-0.4,0-0.4,0.2c0,0.2,0.1,0.2,0.4,0.2h1.1c-0.9,3.7-1,3.9-1,4.2
		c0,0.7,0.5,1.2,1.2,1.2c1.3,0,2.1-1.9,2.1-2c0-0.1-0.1-0.1-0.2-0.1c-0.1,0-0.1,0.1-0.2,0.2c-0.6,1.4-1.3,1.7-1.7,1.7
		c-0.3,0-0.4-0.2-0.4-0.6c0-0.3,0-0.4,0.1-0.6L167.8,8.9"/>
	<path class="st14" d="M173.6,10.8c0-1-0.2-2.6-0.9-4c-0.8-1.6-1.9-2.4-2-2.4c-0.1,0-0.1,0.1-0.1,0.1c0,0,0,0.1,0.3,0.3
		c1.3,1.3,2,3.4,2,6.1c0,2.2-0.5,4.5-2.1,6.2c-0.2,0.2-0.2,0.2-0.2,0.2c0,0.1,0.1,0.1,0.1,0.1c0.1,0,1.3-0.9,2.1-2.5
		C173.4,13.4,173.6,11.9,173.6,10.8"/>
</g>
</svg>
