<?xml version="1.0" encoding="utf-8"?>
<!-- Generator: Adobe Illustrator 21.0.1, SVG Export Plug-In . SVG Version: 6.00 Build 0)  -->
<svg version="1.1" id="Layer_1" xmlns="http://www.w3.org/2000/svg" xmlns:xlink="http://www.w3.org/1999/xlink" x="0px" y="0px"
	 viewBox="0 0 218 179" style="enable-background:new 0 0 218 179;" xml:space="preserve">
<style type="text/css">
	.st0{fill:none;stroke:#000000;stroke-miterlimit:10;}
	.st1{clip-path:url(#SVGID_2_);}
	.st2{clip-path:url(#SVGID_4_);}
	.st3{clip-path:url(#SVGID_6_);}
	.st4{clip-path:url(#SVGID_8_);}
	.st5{clip-path:url(#SVGID_10_);}
	.st6{clip-path:url(#SVGID_12_);}
	.st7{clip-path:url(#SVGID_14_);}
	.st8{clip-path:url(#SVGID_16_);}
	.st9{fill:none;stroke:#000000;stroke-miterlimit:10;stroke-dasharray:2,2;}
	.st10{clip-path:url(#SVGID_18_);}
</style>
<polyline class="st0" points="22.5,12.5 22.5,159.5 198.5,159.5 "/>
<line class="st0" x1="23" y1="143.5" x2="185.5" y2="30.5"/>
<line class="st0" x1="179.5" y1="60.5" x2="22.5" y2="113.5"/>
<g>
	<defs>
		<rect id="SVGID_1_" x="11.7" y="15" width="6" height="11"/>
	</defs>
	<clipPath id="SVGID_2_">
		<use xlink:href="#SVGID_1_"  style="overflow:visible;"/>
	</clipPath>
	<path class="st1" d="M14.9,20c-1.6-0.3-1.7-1.4-1.7-1.7c0-0.8,0.6-1.6,1.7-1.7V20 M14.9,21.2V25c-1.1-0.1-1.8-0.7-1.9-1.5
		c0.1,0,0.2,0,0.2,0c0.3,0,0.6-0.2,0.6-0.6c0-0.3-0.3-0.6-0.6-0.6c-0.1,0-0.6,0-0.6,0.7c0,1.1,0.7,2.3,2.3,2.4V26h0.4v-0.6
		c1.4-0.1,2.3-1.3,2.3-2.7c0-1.1-0.6-1.8-0.7-1.9c-0.5-0.6-1-0.7-1.6-0.9v-3.5c1.1,0.1,1.7,0.6,1.9,1.4c-0.1,0-0.1,0-0.2,0
		c-0.3,0-0.6,0.2-0.6,0.6c0,0.4,0.3,0.6,0.6,0.6c0.1,0,0.6,0,0.6-0.6c0-1.3-0.9-2.2-2.3-2.3v-0.6h-0.4v0.6c-1.4,0.1-2.3,1.3-2.3,2.5
		c0,0.9,0.5,1.5,0.7,1.8C13.8,20.9,14.2,21,14.9,21.2z M15.3,21.3c1.6,0.3,1.7,1.6,1.7,1.9c0,0.9-0.6,1.8-1.7,1.9V21.3z"/>
</g>
<g>
	<defs>
		<rect id="SVGID_3_" x="5.2" y="140.9" width="14" height="12"/>
	</defs>
	<clipPath id="SVGID_4_">
		<use xlink:href="#SVGID_3_"  style="overflow:visible;"/>
	</clipPath>
	<path class="st2" d="M8.9,147.5l2.6-4.3l0.4,4.3H8.9 M7.3,149.4c-0.5,0.9-1,1-1.6,1.1c-0.2,0-0.3,0-0.3,0.3c0,0.1,0.1,0.1,0.2,0.1
		c0.3,0,0.7-0.1,1.1-0.1c0.4,0,0.9,0.1,1.3,0.1c0.1,0,0.2,0,0.2-0.2c0-0.2-0.1-0.2-0.2-0.2c-0.3,0-0.6-0.1-0.6-0.5
		c0-0.2,0.1-0.3,0.2-0.5l1-1.7h3.3c0,0.3,0.2,2.1,0.2,2.2c0,0.4-0.7,0.4-0.9,0.4c-0.2,0-0.3,0-0.3,0.3c0,0.1,0.1,0.1,0.2,0.1
		c0.5,0,1.1-0.1,1.6-0.1c0.3,0,1.1,0.1,1.5,0.1c0.1,0,0.2,0,0.2-0.3c0-0.1-0.1-0.1-0.3-0.1c-0.8,0-0.8-0.1-0.9-0.5l-0.8-8.1
		c0-0.2,0-0.3-0.3-0.3c-0.2,0-0.2,0.1-0.3,0.2L7.3,149.4z"/>
	<path class="st2" d="M17.7,147.1c0-0.2,0-0.3-0.3-0.3c-0.6,0.6-1.4,0.6-1.8,0.6v0.3c0.2,0,0.8,0,1.3-0.2v4.6c0,0.3,0,0.4-0.9,0.4
		h-0.3v0.3c0.2,0,1.3,0,1.6,0c0.3,0,1.4,0,1.6,0v-0.3h-0.3c-0.9,0-0.9-0.1-0.9-0.4V147.1"/>
</g>
<g>
	<defs>
		<rect id="SVGID_5_" x="4.2" y="107.9" width="14.5" height="12"/>
	</defs>
	<clipPath id="SVGID_6_">
		<use xlink:href="#SVGID_5_"  style="overflow:visible;"/>
	</clipPath>
	<path class="st3" d="M7.9,114.5l2.6-4.3l0.4,4.3H7.9 M6.3,116.4c-0.5,0.9-1,1-1.6,1.1c-0.2,0-0.3,0-0.3,0.3c0,0.1,0.1,0.1,0.2,0.1
		c0.3,0,0.7-0.1,1.1-0.1c0.4,0,0.9,0.1,1.3,0.1c0.1,0,0.2,0,0.2-0.2c0-0.2-0.1-0.2-0.2-0.2c-0.3,0-0.6-0.1-0.6-0.5
		c0-0.2,0.1-0.3,0.2-0.5l1-1.7h3.3c0,0.3,0.2,2.1,0.2,2.2c0,0.4-0.7,0.4-0.9,0.4c-0.2,0-0.3,0-0.3,0.3c0,0.1,0.1,0.1,0.2,0.1
		c0.5,0,1.1-0.1,1.6-0.1c0.3,0,1.1,0.1,1.5,0.1c0.1,0,0.2,0,0.2-0.3c0-0.1-0.1-0.1-0.3-0.1c-0.8,0-0.8-0.1-0.9-0.5l-0.8-8.1
		c0-0.2,0-0.3-0.3-0.3c-0.2,0-0.2,0.1-0.3,0.2L6.3,116.4z"/>
	<path class="st3" d="M18.3,118.2H18c0,0.2-0.1,0.7-0.2,0.8c-0.1,0.1-0.7,0.1-0.9,0.1h-1.7c0.9-0.8,1.3-1.1,1.8-1.5
		c0.7-0.5,1.3-1.1,1.3-2c0-1.1-1-1.8-2.1-1.8c-1.1,0-1.9,0.8-1.9,1.6c0,0.5,0.4,0.5,0.5,0.5c0.2,0,0.5-0.2,0.5-0.5
		c0-0.2-0.1-0.5-0.5-0.5c0.3-0.6,0.9-0.8,1.3-0.8c0.9,0,1.4,0.7,1.4,1.4c0,0.8-0.6,1.4-0.9,1.7l-2.2,2.2c-0.1,0.1-0.1,0.1-0.1,0.3
		H18L18.3,118.2"/>
</g>
<g>
	<defs>
		<rect id="SVGID_7_" x="189.6" y="165.9" width="7" height="9"/>
	</defs>
	<clipPath id="SVGID_8_">
		<use xlink:href="#SVGID_7_"  style="overflow:visible;"/>
	</clipPath>
	<path class="st4" d="M192.1,172.2c-0.8,0-0.8-1-0.8-1.2c0-0.6,0.4-2,0.6-2.6c0.4-1,1.1-1.5,1.6-1.5c0.8,0,1,1.1,1,1.1
		c0,0.1-0.7,2.9-0.7,3C193.6,171.3,192.8,172.2,192.1,172.2 M195.7,166.7c0-0.1,0-0.1-0.1-0.1c-0.1,0-0.7,0.5-0.9,0.9
		c-0.3-0.7-0.8-0.9-1.2-0.9c-1.5,0-3.1,1.9-3.1,3.8c0,1.3,0.8,2.1,1.7,2.1c0.6,0,1.1-0.3,1.5-0.8c-0.1,0.5-0.5,2.2-0.6,2.3
		c-0.1,0.3-0.2,0.4-0.9,0.4c-0.2,0-0.3,0-0.3,0.3c0,0,0,0.1,0.2,0.1c0.4,0,0.9,0,1.3,0s0.9,0,1.3,0c0.1,0,0.2,0,0.2-0.3
		c0-0.1-0.1-0.1-0.3-0.1c-0.6,0-0.6-0.1-0.6-0.2c0-0.1,0-0.2,0.1-0.3L195.7,166.7z"/>
</g>
<g>
	<defs>
		<rect id="SVGID_9_" x="179.5" y="15.2" width="29" height="14"/>
	</defs>
	<clipPath id="SVGID_10_">
		<use xlink:href="#SVGID_9_"  style="overflow:visible;"/>
	</clipPath>
	<path class="st5" d="M185.2,17.4c0.1-0.4,0.1-0.5,0.3-0.5c0.1,0,0.6,0,0.8,0c1.3,0,1.9,0.1,1.9,1.1c0,0.2-0.1,0.7-0.1,1
		c0,0.1,0,0.2,0,0.2c0,0.1,0,0.2,0.1,0.2c0.2,0,0.2-0.1,0.2-0.3l0.3-2.3c0-0.1,0-0.2,0-0.2c0-0.1-0.1-0.1-0.3-0.1h-7.2
		c-0.3,0-0.3,0-0.4,0.2l-0.8,2.3c0,0-0.1,0.2-0.1,0.2c0,0.1,0.1,0.1,0.2,0.1c0.1,0,0.1-0.1,0.2-0.3c0.7-2,1-2.2,3-2.2h0.5
		c0.3,0,0.3,0.1,0.3,0.1c0,0.1,0,0.2-0.1,0.3l-1.7,6.9c-0.1,0.5-0.2,0.6-1.5,0.6c-0.5,0-0.6,0-0.6,0.2c0,0.2,0.2,0.2,0.2,0.2
		c0.3,0,0.7,0,1.1,0c0.3,0,0.7,0,1.1,0c0.4,0,0.7,0,1.1,0c0.4,0,0.7,0,1.1,0c0.1,0,0.3,0,0.3-0.3c0-0.1-0.1-0.1-0.5-0.1
		c-0.3,0-0.5,0-0.8,0c-0.4-0.1-0.5-0.1-0.5-0.3c0,0,0-0.1,0.1-0.3L185.2,17.4"/>
	<path class="st5" d="M190.3,21.4c0-0.2,0-0.3-0.3-0.3c-0.6,0.6-1.4,0.6-1.8,0.6V22c0.2,0,0.8,0,1.3-0.2v4.6c0,0.3,0,0.4-0.9,0.4
		h-0.3v0.3c0.2,0,1.3,0,1.6,0c0.3,0,1.4,0,1.6,0v-0.3h-0.3c-0.9,0-0.9-0.1-0.9-0.4V21.4"/>
	<path class="st5" d="M197.4,28.3c0-0.1,0-0.1-0.2-0.3c-1.6-1.6-2.1-4.1-2.1-6.1c0-2.3,0.5-4.5,2.1-6.2c0.2-0.2,0.2-0.2,0.2-0.2
		c0-0.1-0.1-0.1-0.1-0.1c-0.1,0-1.3,0.9-2.1,2.5c-0.7,1.4-0.8,2.9-0.8,4c0,1,0.1,2.6,0.9,4c0.8,1.6,1.9,2.4,2,2.4
		C197.3,28.5,197.4,28.4,197.4,28.3"/>
	<path class="st5" d="M200.3,25.1c-0.8,0-0.8-1-0.8-1.2c0-0.6,0.4-2.1,0.6-2.6c0.4-1,1.1-1.5,1.6-1.5c0.8,0,1,1,1,1.1
		c0,0.1-0.7,2.9-0.7,3C201.8,24.2,201.1,25.1,200.3,25.1 M203.9,19.6c0-0.1,0-0.1-0.1-0.1c-0.1,0-0.7,0.5-0.9,0.9
		c-0.3-0.7-0.8-0.9-1.2-0.9c-1.5,0-3.1,1.9-3.1,3.8c0,1.3,0.8,2.1,1.7,2.1c0.6,0,1.1-0.3,1.5-0.8c-0.1,0.5-0.5,2.2-0.6,2.3
		c-0.1,0.4-0.2,0.4-0.9,0.4c-0.2,0-0.3,0-0.3,0.3c0,0,0,0.1,0.2,0.1c0.4,0,0.9,0,1.3,0s0.9,0,1.3,0c0.1,0,0.2,0,0.2-0.2
		c0-0.2-0.1-0.2-0.3-0.2c-0.6,0-0.6-0.1-0.6-0.2c0-0.1,0-0.2,0.1-0.3L203.9,19.6z"/>
	<path class="st5" d="M208.1,22c0-1-0.1-2.6-0.9-4c-0.8-1.6-1.9-2.4-2-2.4c-0.1,0-0.1,0.1-0.1,0.1c0,0,0,0.1,0.2,0.3
		c1.3,1.3,2,3.4,2,6.1c0,2.2-0.5,4.5-2.1,6.2c-0.2,0.1-0.2,0.2-0.2,0.2c0,0.1,0.1,0.1,0.1,0.1c0.1,0,1.3-0.9,2.1-2.5
		C208,24.5,208.1,23.1,208.1,22"/>
</g>
<g>
	<defs>
		<rect id="SVGID_11_" x="177.5" y="47.2" width="29" height="14"/>
	</defs>
	<clipPath id="SVGID_12_">
		<use xlink:href="#SVGID_11_"  style="overflow:visible;"/>
	</clipPath>
	<path class="st6" d="M183.2,49.4c0.1-0.4,0.1-0.5,0.3-0.5c0.1,0,0.6,0,0.8,0c1.3,0,1.9,0.1,1.9,1.1c0,0.2-0.1,0.7-0.1,1
		c0,0.1,0,0.2,0,0.2c0,0.1,0,0.2,0.1,0.2c0.2,0,0.2-0.1,0.2-0.3l0.3-2.3c0-0.1,0-0.2,0-0.2c0-0.1-0.1-0.1-0.3-0.1h-7.2
		c-0.3,0-0.3,0-0.4,0.2l-0.8,2.3c0,0-0.1,0.2-0.1,0.2c0,0.1,0.1,0.1,0.2,0.1c0.1,0,0.1-0.1,0.2-0.3c0.7-2,1-2.2,3-2.2h0.5
		c0.3,0,0.3,0.1,0.3,0.1c0,0.1,0,0.2-0.1,0.3l-1.7,6.9c-0.1,0.5-0.2,0.6-1.5,0.6c-0.5,0-0.6,0-0.6,0.2c0,0.2,0.2,0.2,0.2,0.2
		c0.3,0,0.7,0,1.1,0c0.3,0,0.7,0,1.1,0c0.4,0,0.7,0,1.1,0c0.4,0,0.7,0,1.1,0c0.1,0,0.3,0,0.3-0.3c0-0.1-0.1-0.1-0.5-0.1
		c-0.3,0-0.5,0-0.8,0c-0.4-0.1-0.5-0.1-0.5-0.3c0,0,0-0.1,0.1-0.3L183.2,49.4"/>
	<path class="st6" d="M189.8,57.5h-0.3c0,0.2-0.1,0.7-0.2,0.8c-0.1,0.1-0.8,0.1-0.9,0.1h-1.7c0.9-0.8,1.3-1.1,1.8-1.5
		c0.7-0.5,1.3-1.1,1.3-1.9c0-1.1-1-1.8-2.1-1.8c-1.1,0-1.9,0.8-1.9,1.6c0,0.5,0.4,0.5,0.5,0.5c0.2,0,0.5-0.2,0.5-0.5
		c0-0.2-0.1-0.5-0.5-0.5c0.3-0.6,0.9-0.9,1.3-0.9c0.9,0,1.4,0.7,1.4,1.4c0,0.8-0.6,1.4-0.9,1.7l-2.2,2.2c-0.1,0.1-0.1,0.1-0.1,0.3
		h3.7L189.8,57.5"/>
	<path class="st6" d="M195.4,60.3c0-0.1,0-0.1-0.2-0.3c-1.6-1.6-2.1-4.1-2.1-6.1c0-2.3,0.5-4.5,2.1-6.2c0.2-0.2,0.2-0.2,0.2-0.2
		c0-0.1-0.1-0.1-0.1-0.1c-0.1,0-1.3,0.9-2.1,2.5c-0.7,1.4-0.8,2.9-0.8,4c0,1,0.1,2.6,0.9,4c0.8,1.6,1.9,2.4,2,2.4
		C195.3,60.5,195.4,60.4,195.4,60.3"/>
	<path class="st6" d="M198.3,57.1c-0.8,0-0.8-1-0.8-1.2c0-0.6,0.4-2.1,0.6-2.6c0.4-1,1.1-1.5,1.6-1.5c0.8,0,1,1,1,1.1
		c0,0.1-0.7,2.9-0.7,3C199.8,56.2,199.1,57.1,198.3,57.1 M201.9,51.6c0-0.1,0-0.1-0.1-0.1c-0.1,0-0.7,0.5-0.9,0.9
		c-0.3-0.7-0.8-0.9-1.2-0.9c-1.5,0-3.1,1.9-3.1,3.8c0,1.3,0.8,2.1,1.7,2.1c0.6,0,1.1-0.3,1.5-0.8c-0.1,0.5-0.5,2.2-0.6,2.3
		c-0.1,0.4-0.2,0.4-0.9,0.4c-0.2,0-0.3,0-0.3,0.3c0,0,0,0.1,0.2,0.1c0.4,0,0.9,0,1.3,0s0.9,0,1.3,0c0.1,0,0.2,0,0.2-0.2
		c0-0.2-0.1-0.2-0.3-0.2c-0.6,0-0.6-0.1-0.6-0.2c0-0.1,0-0.2,0.1-0.3L201.9,51.6z"/>
	<path class="st6" d="M206.1,54c0-1-0.1-2.6-0.9-4c-0.8-1.6-1.9-2.4-2-2.4c-0.1,0-0.1,0.1-0.1,0.1c0,0,0,0.1,0.2,0.3
		c1.3,1.3,2,3.4,2,6.1c0,2.2-0.5,4.5-2.1,6.2c-0.2,0.1-0.2,0.2-0.2,0.2c0,0.1,0.1,0.1,0.1,0.1c0.1,0,1.3-0.9,2.1-2.5
		C206,56.5,206.1,55.1,206.1,54"/>
</g>
<g>
	<defs>
		<rect id="SVGID_13_" x="99.9" y="163.9" width="12" height="9"/>
	</defs>
	<clipPath id="SVGID_14_">
		<use xlink:href="#SVGID_13_"  style="overflow:visible;"/>
	</clipPath>
	<path class="st7" d="M101.7,170.2c-0.8,0-0.8-1-0.8-1.2c0-0.6,0.4-2,0.6-2.6c0.4-1,1.1-1.5,1.6-1.5c0.9,0,1,1.1,1,1.1
		c0,0.1-0.7,2.9-0.7,3C103.1,169.3,102.4,170.2,101.7,170.2 M105.3,164.7c0-0.1,0-0.1-0.1-0.1c-0.1,0-0.6,0.5-0.9,0.9
		c-0.3-0.7-0.8-0.9-1.2-0.9c-1.5,0-3.1,1.9-3.1,3.8c0,1.3,0.8,2.1,1.7,2.1c0.6,0,1.1-0.3,1.5-0.8c-0.1,0.5-0.5,2.2-0.6,2.3
		c-0.1,0.3-0.2,0.4-0.9,0.4c-0.2,0-0.3,0-0.3,0.3c0,0,0,0.1,0.2,0.1c0.4,0,0.9,0,1.3,0c0.5,0,0.9,0,1.3,0c0.1,0,0.2,0,0.2-0.3
		c0-0.1-0.1-0.1-0.3-0.1c-0.6,0-0.6-0.1-0.6-0.2c0-0.1,0-0.2,0.1-0.3L105.3,164.7z"/>
	<path class="st7" d="M108.9,166.8c0.1-0.3,0.1-0.4,0.9-0.4c0.3,0,0.4,0,0.4-0.2c0,0,0-0.1-0.2-0.1c-0.2,0-0.4,0-0.7,0
		c-0.2,0-0.5,0-0.7,0c-0.2,0-0.4,0-0.6,0c-0.2,0-0.4,0-0.6,0c-0.1,0-0.2,0-0.2,0.2c0,0.1,0.1,0.1,0.3,0.1c0,0,0.2,0,0.3,0
		c0.2,0,0.2,0.1,0.2,0.1c0,0,0,0.1,0,0.2l-1.2,4.8c-0.1,0.3-0.1,0.4-0.8,0.4c-0.2,0-0.3,0-0.3,0.2c0,0.1,0.1,0.1,0.3,0.1h4.5
		c0.2,0,0.2,0,0.3-0.2c0.1-0.2,0.8-2,0.8-2.1c0,0,0-0.1-0.2-0.1c-0.1,0-0.1,0-0.2,0.2c-0.3,0.9-0.7,1.9-2.4,1.9h-1
		c-0.3,0-0.3,0-0.3-0.1c0,0,0-0.1,0.1-0.2L108.9,166.8"/>
</g>
<g>
	<defs>
		<rect id="SVGID_15_" x="153.9" y="165.9" width="14" height="9"/>
	</defs>
	<clipPath id="SVGID_16_">
		<use xlink:href="#SVGID_15_"  style="overflow:visible;"/>
	</clipPath>
	<path class="st8" d="M155.7,172.2c-0.8,0-0.8-1-0.8-1.2c0-0.6,0.4-2,0.6-2.6c0.4-1,1.1-1.5,1.6-1.5c0.9,0,1,1.1,1,1.1
		c0,0.1-0.7,2.9-0.7,3C157.2,171.3,156.4,172.2,155.7,172.2 M159.3,166.7c0-0.1,0-0.1-0.1-0.1c-0.1,0-0.6,0.5-0.9,0.9
		c-0.3-0.7-0.8-0.9-1.2-0.9c-1.5,0-3.1,1.9-3.1,3.8c0,1.3,0.8,2.1,1.7,2.1c0.6,0,1.1-0.3,1.5-0.8c-0.1,0.5-0.5,2.2-0.6,2.3
		c-0.1,0.3-0.2,0.4-0.9,0.4c-0.2,0-0.3,0-0.3,0.3c0,0,0,0.1,0.2,0.1c0.4,0,0.9,0,1.3,0c0.5,0,0.9,0,1.3,0c0.1,0,0.2,0,0.2-0.3
		c0-0.1-0.1-0.1-0.3-0.1c-0.6,0-0.6-0.1-0.6-0.2c0-0.1,0-0.2,0.1-0.3L159.3,166.7z"/>
	<path class="st8" d="M166.7,168.8c0.1-0.3,0.1-0.4,0.7-0.4c0.2,0,0.3,0,0.3-0.2c0,0,0-0.1-0.1-0.1c-0.3,0-0.9,0.1-1.2,0.1
		c-0.2,0-0.5,0-0.6,0c-0.2,0-0.4,0-0.6,0c-0.1,0-0.2,0-0.2,0.2c0,0.1,0.1,0.1,0.3,0.1c0,0,0.2,0,0.3,0c0.2,0,0.2,0.1,0.2,0.1
		c0,0,0,0.1-0.1,0.2l-0.5,2.1h-3l0.5-2.1c0.1-0.3,0.1-0.4,0.8-0.4c0.2,0,0.3,0,0.3-0.2c0,0,0-0.1-0.2-0.1c-0.3,0-0.9,0.1-1.2,0.1
		c-0.2,0-0.5,0-0.6,0c-0.2,0-0.4,0-0.6,0c-0.1,0-0.2,0-0.2,0.2c0,0.1,0.1,0.1,0.3,0.1c0,0,0.2,0,0.3,0c0.2,0,0.2,0.1,0.2,0.1
		c0,0,0,0.1-0.1,0.2l-1.2,4.8c-0.1,0.3-0.1,0.4-0.8,0.4c-0.1,0-0.3,0-0.3,0.2c0,0.1,0.1,0.1,0.2,0.1c0.2,0,0.9-0.1,1.2-0.1
		c0.1,0,0.5,0,0.6,0c0.2,0,0.4,0,0.6,0c0,0,0.2,0,0.2-0.2c0-0.1-0.1-0.1-0.3-0.1c-0.2,0-0.2,0-0.3,0c-0.2,0-0.2-0.1-0.2-0.1
		c0,0,0-0.1,0.1-0.2l0.6-2.3h3l-0.6,2.3c-0.1,0.3-0.1,0.4-0.8,0.4c-0.2,0-0.3,0-0.3,0.2c0,0.1,0.1,0.1,0.2,0.1
		c0.3,0,0.9-0.1,1.2-0.1c0.2,0,0.5,0,0.6,0c0.2,0,0.4,0,0.6,0c0.1,0,0.2,0,0.2-0.2c0-0.1-0.1-0.1-0.3-0.1c-0.2,0-0.2,0-0.3,0
		c-0.2,0-0.2-0.1-0.2-0.1c0-0.1,0-0.2,0-0.2L166.7,168.8"/>
</g>
<g>
	<line x1="106.5" y1="86" x2="106.5" y2="158"/>
	<g>
		<line class="st0" x1="106.5" y1="86" x2="106.5" y2="87"/>
		<line class="st9" x1="106.5" y1="89" x2="106.5" y2="156"/>
		<line class="st0" x1="106.5" y1="157" x2="106.5" y2="158"/>
	</g>
</g>
<g>
	<line x1="160.5" y1="67" x2="160.5" y2="159"/>
	<g>
		<line class="st0" x1="160.5" y1="67" x2="160.5" y2="68"/>
		<line class="st9" x1="160.5" y1="70" x2="160.5" y2="157"/>
		<line class="st0" x1="160.5" y1="158" x2="160.5" y2="159"/>
	</g>
</g>
<g>
	<defs>
		<rect id="SVGID_17_" x="30.2" y="14.6" width="67" height="12"/>
	</defs>
	<clipPath id="SVGID_18_">
		<use xlink:href="#SVGID_17_"  style="overflow:visible;"/>
	</clipPath>
	<path class="st10" d="M31.5,20.7h3.6c0.3,0,0.3,0,0.3-0.3c0-1.3-0.7-2.5-2.3-2.5c-1.5,0-2.7,1.3-2.7,3c0,1.7,1.4,3,2.8,3
		c1.6,0,2.2-1.4,2.2-1.7c0-0.1-0.1-0.2-0.2-0.2c-0.1,0-0.1,0.1-0.2,0.2c-0.5,1.3-1.6,1.3-1.8,1.3c-0.6,0-1.2-0.4-1.5-0.9
		C31.5,22,31.5,21.2,31.5,20.7 M31.6,20.4c0.1-1.9,1.2-2.3,1.6-2.3c1.4,0,1.5,1.8,1.5,2.3H31.6z"/>
	<path class="st10" d="M39.5,20.6c0.4-0.5,0.9-1.1,1.2-1.5c0.4-0.5,0.9-0.7,1.5-0.7v-0.4c-0.3,0-0.7,0-1.1,0c-0.4,0-1.1,0-1.3,0v0.4
		c0.3,0,0.4,0.2,0.4,0.4s-0.1,0.4-0.2,0.5l-0.8,1l-1-1.3c-0.1-0.1-0.1-0.2-0.1-0.2c0-0.2,0.2-0.3,0.5-0.3v-0.4c-0.3,0-1.2,0-1.4,0
		c-0.3,0-0.9,0-1.2,0v0.4c0.9,0,0.9,0,1.5,0.8l1.3,1.7l-1.2,1.5c-0.6,0.7-1.4,0.8-1.7,0.8v0.4c0.3,0,0.7,0,1.1,0c0.4,0,0.9,0,1.2,0
		v-0.4c-0.3-0.1-0.4-0.2-0.4-0.4c0-0.3,0.4-0.7,1.2-1.7l1,1.3c0.1,0.1,0.3,0.3,0.3,0.4c0,0.1-0.1,0.3-0.5,0.3v0.4c0.4,0,1.1,0,1.4,0
		c0.3,0,0.9,0,1.3,0v-0.4c-0.7,0-0.9,0-1.2-0.4L39.5,20.6"/>
	<path class="st10" d="M45,22.2v-2.9c0.4-0.7,1-1,1.7-1c0.9,0,1.7,1.1,1.7,2.6c0,1.6-0.9,2.7-1.9,2.7c-0.5,0-1-0.3-1.4-0.8
		C45,22.5,45,22.5,45,22.2 M44.9,18.8V18l-1.9,0.2v0.4c0.9,0,1,0.1,1,0.6v6.1c0,0.6-0.1,0.6-1,0.6v0.4c0.5,0,1.1-0.1,1.5-0.1
		s1,0,1.5,0.1v-0.4c-0.9,0-1,0-1-0.6v-2.3c0.1,0.2,0.6,0.9,1.6,0.9c1.5,0,2.9-1.3,2.9-2.9c0-1.7-1.3-3-2.7-3
		C45.7,18,45.2,18.5,44.9,18.8z"/>
	<path class="st10" d="M51.6,20.7h3.6c0.3,0,0.3,0,0.3-0.3c0-1.3-0.7-2.5-2.3-2.5c-1.5,0-2.7,1.3-2.7,3c0,1.7,1.4,3,2.8,3
		c1.6,0,2.2-1.4,2.2-1.7c0-0.1-0.1-0.2-0.2-0.2c-0.1,0-0.1,0.1-0.2,0.2c-0.5,1.3-1.6,1.3-1.8,1.3c-0.6,0-1.2-0.4-1.5-0.9
		C51.6,22,51.6,21.2,51.6,20.7 M51.7,20.4c0.1-1.9,1.2-2.3,1.6-2.3c1.3,0,1.5,1.8,1.5,2.3H51.7z"/>
	<path class="st10" d="M57.4,19.2v3.5c0,0.6-0.2,0.6-1,0.6v0.4c0.5,0,1.1,0,1.5,0c0.3,0,1,0,1.4,0v-0.4c-0.9,0-1,0-1-0.6v-2.4
		c0-1.3,0.9-2.1,1.8-2.1c0.8,0,1,0.7,1,1.4v3c0,0.6-0.1,0.6-1,0.6v0.4c0.5,0,1.1,0,1.5,0c0.3,0,1,0,1.5,0v-0.4c-0.7,0-1,0-1-0.4
		v-2.5c0-1.1,0-1.5-0.4-2c-0.2-0.2-0.6-0.5-1.4-0.5c-1,0-1.6,0.6-1.9,1.4V18l-1.8,0.2v0.4C57.3,18.5,57.4,18.6,57.4,19.2"/>
	<path class="st10" d="M68.1,19.5v2.7c0,0.2,0,0.2-0.2,0.5c-0.4,0.6-1,0.9-1.5,0.9c-0.6,0-1.1-0.3-1.4-0.9c-0.3-0.5-0.4-1.3-0.4-1.8
		c0-0.5,0-1.3,0.4-1.9c0.3-0.4,0.8-0.8,1.5-0.8c0.5,0,1,0.2,1.4,0.8C68.1,19.3,68.1,19.3,68.1,19.5 M68.1,23v0.9l1.9-0.1v-0.4
		c-0.9,0-1-0.1-1-0.7v-7.9l-1.9,0.1v0.4c0.9,0,1,0.1,1,0.7v2.8c-0.4-0.5-0.9-0.8-1.6-0.8c-1.5,0-2.9,1.3-2.9,3
		c0,1.7,1.3,2.9,2.7,2.9C67.2,23.8,67.8,23.4,68.1,23z"/>
	<path class="st10" d="M72.7,15.7c0-0.4-0.3-0.7-0.7-0.7c-0.4,0-0.7,0.3-0.7,0.7c0,0.3,0.3,0.7,0.7,0.7
		C72.4,16.4,72.7,16.1,72.7,15.7 M72.7,18l-1.8,0.2v0.4c0.8,0,1,0.1,1,0.7v3.5c0,0.6-0.2,0.6-1,0.6v0.4c0.4,0,1.1,0,1.4,0
		c0.5,0,0.9,0,1.4,0v-0.4c-0.9,0-0.9-0.1-0.9-0.6V18z"/>
	<path class="st10" d="M76.2,18.5H78v-0.4h-1.8v-2.4h-0.3c0,1.1-0.4,2.4-1.7,2.5v0.3h1.1v3.6c0,1.6,1.2,1.7,1.7,1.7
		c0.9,0,1.3-0.9,1.3-1.7v-0.7h-0.3v0.7c0,1-0.4,1.4-0.9,1.4c-0.9,0-0.9-1.2-0.9-1.4V18.5"/>
	<path class="st10" d="M84.1,22.7v1.1l1.9-0.1v-0.4c-0.9,0-1-0.1-1-0.7V18L83,18.1v0.4c0.9,0,1,0.1,1,0.7v2.3c0,1.1-0.6,2-1.6,2
		c-1.1,0-1.1-0.6-1.1-1.3V18l-1.9,0.2v0.4c1,0,1,0,1,1.2v1.9c0,1,0,2.2,2,2.2C83.1,23.8,83.7,23.5,84.1,22.7"/>
	<path class="st10" d="M88.4,19.4V18l-1.8,0.2v0.4c0.9,0,1,0.1,1,0.7v3.5c0,0.6-0.2,0.6-1,0.6v0.4c0.5,0,1.1,0,1.5,0
		c0.5,0,1.1,0,1.7,0v-0.4h-0.3c-1,0-1-0.1-1-0.6v-2c0-1.3,0.5-2.4,1.5-2.4c0.1,0,0.1,0,0.1,0c-0.1,0-0.3,0.2-0.3,0.5
		c0,0.3,0.3,0.6,0.6,0.6c0.2,0,0.6-0.2,0.6-0.6c0-0.4-0.4-0.8-1-0.8C89,18,88.5,18.8,88.4,19.4"/>
	<path class="st10" d="M92.6,20.7h3.6c0.3,0,0.3,0,0.3-0.3c0-1.3-0.7-2.5-2.3-2.5c-1.5,0-2.7,1.3-2.7,3c0,1.7,1.4,3,2.8,3
		c1.6,0,2.2-1.4,2.2-1.7c0-0.1-0.1-0.2-0.2-0.2c-0.1,0-0.1,0.1-0.2,0.2c-0.5,1.3-1.6,1.3-1.8,1.3c-0.7,0-1.2-0.4-1.5-0.9
		C92.6,22,92.6,21.2,92.6,20.7 M92.6,20.4c0.1-1.9,1.2-2.3,1.6-2.3c1.3,0,1.5,1.8,1.5,2.3H92.6z"/>
</g>
</svg>
