<?xml version="1.0" encoding="utf-8"?>
<!-- Generator: Adobe Illustrator 21.0.1, SVG Export Plug-In . SVG Version: 6.00 Build 0)  -->
<svg version="1.1" id="Layer_1" xmlns="http://www.w3.org/2000/svg" xmlns:xlink="http://www.w3.org/1999/xlink" x="0px" y="0px"
	 viewBox="0 0 293 221" style="enable-background:new 0 0 293 221;" xml:space="preserve">
<style type="text/css">
	.st0{fill:none;stroke:#000000;stroke-miterlimit:10;}
	.st1{clip-path:url(#SVGID_2_);}
	.st2{clip-path:url(#SVGID_4_);}
	.st3{clip-path:url(#SVGID_6_);}
	.st4{fill:none;stroke:#000000;stroke-miterlimit:10;stroke-dasharray:2,2;}
	.st5{clip-path:url(#SVGID_8_);}
	.st6{clip-path:url(#SVGID_10_);}
	.st7{fill:none;stroke:#000000;stroke-miterlimit:10;stroke-dasharray:2.0185,2.0185;}
	.st8{clip-path:url(#SVGID_12_);}
	.st9{opacity:0.33;fill:#ED1E79;enable-background:new    ;}
	.st10{fill:none;}
	.st11{clip-path:url(#SVGID_14_);}
	.st12{clip-path:url(#SVGID_16_);}
	.st13{clip-path:url(#SVGID_18_);}
	.st14{clip-path:url(#SVGID_20_);}
	.st15{clip-path:url(#SVGID_22_);}
	.st16{clip-path:url(#SVGID_24_);}
	.st17{clip-path:url(#SVGID_26_);}
	.st18{clip-path:url(#SVGID_28_);}
	.st19{clip-path:url(#SVGID_30_);}
	.st20{clip-path:url(#SVGID_32_);}
	.st21{clip-path:url(#SVGID_34_);}
	.st22{clip-path:url(#SVGID_36_);}
	.st23{clip-path:url(#SVGID_38_);}
	.st24{clip-path:url(#SVGID_40_);}
	.st25{clip-path:url(#SVGID_42_);}
	.st26{clip-path:url(#SVGID_44_);}
	.st27{clip-path:url(#SVGID_46_);}
	.st28{clip-path:url(#SVGID_48_);}
	.st29{clip-path:url(#SVGID_50_);}
	.st30{clip-path:url(#SVGID_52_);}
	.st31{clip-path:url(#SVGID_54_);}
	.st32{clip-path:url(#SVGID_56_);}
</style>
<polyline class="st0" points="42.5,14.5 42.5,196.5 285,196.5 "/>
<g>
	<g>
		<g>
			<g>
				<defs>
					<rect id="SVGID_1_" x="28.3" y="14.5" width="5.8" height="11.9"/>
				</defs>
				<clipPath id="SVGID_2_">
					<use xlink:href="#SVGID_1_"  style="overflow:visible;"/>
				</clipPath>
				<path class="st1" d="M31,19.5c-1.7-0.4-1.8-1.6-1.8-1.8c0-0.9,0.7-1.7,1.8-1.8V19.5 M31,20.7v4.1c-1.2-0.1-1.9-0.8-2.1-1.6
					c0.1,0,0.2,0,0.2,0c0.4,0,0.6-0.3,0.6-0.6c0-0.4-0.3-0.6-0.6-0.6c-0.1,0-0.7,0-0.7,0.7c0,1.3,0.7,2.5,2.5,2.6v0.6h0.5v-0.6
					c1.4-0.1,2.5-1.4,2.5-2.8c0-1.1-0.6-1.9-0.8-2c-0.6-0.6-1-0.7-1.7-0.9v-3.8c1.2,0.1,1.8,0.7,2.1,1.4c-0.1,0-0.1,0-0.2,0
					c-0.4,0-0.6,0.2-0.6,0.6s0.3,0.6,0.6,0.6c0,0,0.6,0,0.6-0.7c0-1.4-0.9-2.4-2.5-2.4v-0.6H31v0.6c-1.5,0.2-2.5,1.4-2.5,2.7
					c0,1,0.5,1.6,0.8,1.9C29.8,20.4,30.3,20.5,31,20.7z M31.4,20.8c1.7,0.3,1.8,1.7,1.8,2c0,0.9-0.7,1.9-1.8,2V20.8z"/>
			</g>
		</g>
	</g>
</g>
<g>
	<g>
		<g>
			<g>
				<defs>
					<rect id="SVGID_3_" x="276" y="202" width="6" height="10"/>
				</defs>
				<clipPath id="SVGID_4_">
					<use xlink:href="#SVGID_3_"  style="overflow:visible;"/>
				</clipPath>
				<path class="st2" d="M277.9,208.8c-0.9,0-0.9-1.1-0.9-1.3c0-0.7,0.4-2.2,0.6-2.7c0.4-1,1.2-1.6,1.7-1.6c0.9,0,1.1,1.1,1.1,1.2
					c0,0.1-0.7,3.1-0.8,3.2C279.5,207.9,278.7,208.8,277.9,208.8 M281.8,203c0-0.1,0-0.1-0.1-0.1c-0.2,0-0.7,0.6-0.9,1
					c-0.3-0.7-0.9-1-1.3-1c-1.7,0-3.4,2.1-3.4,4.1c0,1.4,0.8,2.2,1.8,2.2c0.6,0,1.1-0.3,1.7-0.8c-0.1,0.5-0.6,2.4-0.6,2.5
					c-0.1,0.4-0.2,0.5-1,0.5c-0.2,0-0.3,0-0.3,0.3c0,0,0,0.2,0.2,0.2c0.5,0,0.9-0.1,1.4-0.1s1,0.1,1.4,0.1c0.1,0,0.3,0,0.3-0.3
					c0-0.2-0.1-0.2-0.4-0.2c-0.7,0-0.7-0.1-0.7-0.2c0-0.1,0-0.2,0.1-0.3L281.8,203z"/>
			</g>
		</g>
	</g>
</g>
<line class="st0" x1="42.5" y1="48.5" x2="248.5" y2="196.5"/>
<line class="st0" x1="42.5" y1="131.5" x2="133.5" y2="196.5"/>
<g>
	<defs>
		<rect id="SVGID_5_" x="29" y="168.7" width="5.4" height="7"/>
	</defs>
	<clipPath id="SVGID_6_">
		<use xlink:href="#SVGID_5_"  style="overflow:visible;"/>
	</clipPath>
	<path class="st3" d="M33.7,170.3c-0.2,0-0.4,0-0.6,0.2c-0.2,0.2-0.2,0.4-0.2,0.5c0,0.3,0.2,0.5,0.5,0.5c0.4,0,0.7-0.3,0.7-0.8
		c0-0.6-0.6-1.1-1.5-1.1c-1.8,0-3.5,1.8-3.5,3.7c0,1.2,0.7,2.2,2.1,2.2c1.8,0,2.9-1.4,2.9-1.5c0-0.1-0.1-0.2-0.2-0.2
		c-0.1,0-0.1,0-0.2,0.1c-1,1.3-2.4,1.3-2.6,1.3c-0.8,0-1.2-0.6-1.2-1.4c0-0.5,0.2-1.8,0.7-2.6c0.4-0.7,1.1-1.3,1.8-1.3
		C33,169.7,33.5,169.9,33.7,170.3"/>
</g>
<g>
	<g>
		<line class="st0" x1="42" y1="172.5" x2="43" y2="172.5"/>
		<line class="st4" x1="45" y1="172.5" x2="252" y2="172.5"/>
		<line class="st0" x1="253" y1="172.5" x2="254" y2="172.5"/>
	</g>
</g>
<g>
	<g>
		<line class="st0" x1="42" y1="138.5" x2="43" y2="138.5"/>
		<line class="st4" x1="45" y1="138.5" x2="252" y2="138.5"/>
		<line class="st0" x1="253" y1="138.5" x2="254" y2="138.5"/>
	</g>
</g>
<g>
	<defs>
		<rect id="SVGID_7_" x="6.6" y="133.5" width="30" height="13"/>
	</defs>
	<clipPath id="SVGID_8_">
		<use xlink:href="#SVGID_7_"  style="overflow:visible;"/>
	</clipPath>
	<path class="st5" d="M13.6,135.8c0,0.9-0.5,1.8-1.1,2.2c-0.4-0.1-0.6-0.2-1-0.2c-0.3,0-1,0-1,0.4c0,0.3,0.7,0.3,0.9,0.3
		c0.5,0,0.7,0,1.1-0.2c0.5,0.5,0.6,0.9,0.6,1.5c0,0.7-0.3,1.7-0.7,2.2c-0.5,0.7-1.4,1.1-2.1,1.1c-1,0-1.5-0.7-1.5-1.7
		c0-0.1,0-0.3,0.1-0.6l0.9-3.3c0.3-1.1,1.2-3.2,2.8-3.2C13.2,134.6,13.6,135,13.6,135.8 M12,138.3c-0.2,0.1-0.3,0.1-0.6,0.1
		c-0.2,0-0.5,0-0.6-0.1c0-0.1,0.5-0.1,0.6-0.1C11.8,138.2,11.9,138.2,12,138.3z M14.4,136.1c0-1-0.7-1.8-1.8-1.8
		c-0.7,0-1.1,0.2-1.6,0.5c-0.7,0.5-1.4,1.8-1.7,2.8l-2.1,8.3c0,0.1,0.1,0.1,0.2,0.1s0.1,0,0.2-0.1l0.9-3.6c0.2,0.8,0.8,1.3,1.8,1.3
		c1,0,1.9-0.5,2.5-1c0.6-0.6,1-1.4,1-2.4c0-0.9-0.5-1.6-0.9-1.9C13.6,137.8,14.4,137,14.4,136.1z"/>
	<path class="st5" d="M23.1,140.5h3.6c0.2,0,0.4,0,0.4-0.3c0-0.2-0.2-0.2-0.4-0.2h-3.6v-3.6c0-0.2,0-0.4-0.3-0.4
		c-0.2,0-0.2,0.2-0.2,0.4v3.6H19c-0.2,0-0.4,0-0.4,0.2c0,0.3,0.2,0.3,0.4,0.3h3.6v3.6c0,0.2,0,0.4,0.2,0.4c0.3,0,0.3-0.2,0.3-0.4
		V140.5"/>
	<path class="st5" d="M36,138.6c-0.2,0-0.4,0-0.6,0.2c-0.2,0.2-0.2,0.4-0.2,0.5c0,0.3,0.2,0.5,0.5,0.5c0.4,0,0.7-0.3,0.7-0.8
		c0-0.6-0.6-1.1-1.5-1.1c-1.8,0-3.5,1.8-3.5,3.7c0,1.2,0.7,2.2,2.1,2.2c1.9,0,3-1.4,3-1.5c0-0.1-0.1-0.2-0.2-0.2s-0.1,0-0.2,0.1
		c-1,1.3-2.4,1.3-2.6,1.3c-0.8,0-1.2-0.6-1.2-1.4c0-0.5,0.3-1.8,0.7-2.6c0.4-0.7,1.1-1.3,1.8-1.3C35.3,138,35.8,138.2,36,138.6"/>
</g>
<g>
	<defs>
		<rect id="SVGID_9_" x="151.5" y="200.2" width="50" height="14"/>
	</defs>
	<clipPath id="SVGID_10_">
		<use xlink:href="#SVGID_9_"  style="overflow:visible;"/>
	</clipPath>
	<path class="st6" d="M158.2,205c0-0.1-0.1-0.2-0.1-0.2c0,0,0.2-0.2,0.4-0.3l2.3-1.8c1.2-0.9,1.7-1,2.1-1c0.1,0,0.2,0,0.2-0.3
		c0-0.1,0-0.1-0.1-0.1c-0.3,0-0.6,0-0.9,0c-0.5,0-1,0-1.4,0c-0.1,0-0.2,0-0.2,0.2c0,0.1,0.1,0.1,0.2,0.2c0.3,0,0.4,0.1,0.4,0.3
		c0,0.2-0.4,0.5-0.5,0.6l-5.1,3.9l1-4.2c0.1-0.5,0.2-0.6,1.1-0.6c0.3,0,0.5,0,0.5-0.3c0-0.1-0.1-0.1-0.2-0.1c-0.4,0-1.3,0-1.7,0
		c-0.4,0-1.3,0-1.7,0c-0.1,0-0.3,0-0.3,0.2c0,0.2,0.1,0.2,0.4,0.2c0.2,0,0.4,0,0.6,0c0.2,0,0.3,0.1,0.3,0.2c0,0.1,0,0.1-0.1,0.3
		l-1.8,7c-0.1,0.5-0.2,0.6-1.2,0.6c-0.2,0-0.4,0-0.4,0.2c0,0.2,0.2,0.2,0.2,0.2c0.3,0,1.3-0.1,1.7-0.1c0.3,0,0.6,0,0.8,0
		c0.3,0,0.6,0,0.9,0c0.1,0,0.2,0,0.2-0.3c0-0.1-0.1-0.1-0.3-0.1c-0.5,0-0.9,0-0.9-0.2c0-0.1,0.1-0.4,0.1-0.6c0.2-0.7,0.3-1.4,0.5-2
		l1.9-1.5l1.5,3.5c0.2,0.4,0.2,0.4,0.2,0.5c0,0.4-0.6,0.4-0.7,0.4c-0.2,0-0.3,0-0.3,0.2c0,0.2,0.2,0.2,0.2,0.2
		c0.5,0,1.1-0.1,1.6-0.1c0.3,0,1,0.1,1.3,0.1c0.1,0,0.2,0,0.2-0.3c0-0.1-0.2-0.1-0.3-0.1c-0.5,0-0.7-0.1-0.9-0.6L158.2,205"/>
	<path class="st6" d="M166.4,202.6c0.7-0.3,1.1-0.5,1.3-0.6c0.2-0.1,0.2-0.1,0.2-0.3c0-0.2-0.1-0.3-0.3-0.3c-0.1,0-0.1,0-0.2,0.1
		l-1.2,0.8l0.1-1.3c0-0.2,0-0.4-0.3-0.4c-0.1,0-0.3,0.1-0.3,0.3c0,0.1,0,0.3,0.1,0.4c0,0.2,0.1,0.8,0.1,1l-1.2-0.8
		c-0.1-0.1-0.1-0.1-0.2-0.1c-0.2,0-0.3,0.1-0.3,0.3c0,0.2,0.1,0.2,0.2,0.3l1.4,0.6c-0.7,0.3-1.1,0.5-1.3,0.6
		c-0.2,0.1-0.2,0.1-0.2,0.3c0,0.2,0.1,0.3,0.3,0.3c0.1,0,0.1,0,0.2-0.1l1.2-0.8l-0.1,1.4c0,0.2,0.2,0.3,0.3,0.3
		c0.1,0,0.3-0.1,0.3-0.3c0-0.1,0-0.3-0.1-0.4c0-0.2-0.1-0.8-0.1-1l1.1,0.7c0.2,0.2,0.3,0.2,0.3,0.2c0.2,0,0.3-0.1,0.3-0.3
		c0-0.2-0.1-0.2-0.2-0.3L166.4,202.6"/>
	<path class="st6" d="M182,208.5c0.2,0,0.4,0,0.4-0.3c0-0.3-0.2-0.3-0.5-0.3h-7.7c-0.2,0-0.4,0-0.4,0.3c0,0.3,0.2,0.3,0.4,0.3H182
		 M182,205.9c0.2,0,0.5,0,0.5-0.3c0-0.2-0.2-0.2-0.4-0.2h-7.8c-0.2,0-0.4,0-0.4,0.2c0,0.3,0.2,0.3,0.4,0.3H182z"/>
	<path class="st6" d="M189,210c-0.8,0-0.8-1-0.8-1.2c0-0.6,0.4-2.1,0.6-2.6c0.4-1,1.1-1.5,1.6-1.5c0.9,0,1,1,1,1.1
		c0,0.1-0.7,2.9-0.8,3C190.4,209.2,189.7,210,189,210 M192.5,204.6c0-0.1,0-0.1-0.1-0.1c-0.2,0-0.7,0.5-0.9,0.9
		c-0.3-0.7-0.8-0.9-1.2-0.9c-1.5,0-3.1,1.9-3.1,3.8c0,1.3,0.8,2.1,1.7,2.1c0.6,0,1.1-0.3,1.5-0.8c-0.1,0.5-0.5,2.2-0.6,2.3
		c-0.1,0.4-0.2,0.4-0.9,0.4c-0.2,0-0.3,0-0.3,0.3c0,0,0,0.1,0.2,0.1c0.4,0,0.9,0,1.3,0c0.5,0,0.9,0,1.4,0c0.1,0,0.2,0,0.2-0.2
		c0-0.2-0.1-0.2-0.3-0.2c-0.6,0-0.6-0.1-0.6-0.2c0-0.1,0-0.2,0.1-0.3L192.5,204.6z"/>
	<path class="st6" d="M195.9,202.6c0.7-0.3,1.1-0.5,1.3-0.6c0.2-0.1,0.2-0.1,0.2-0.3c0-0.2-0.1-0.3-0.3-0.3c-0.1,0-0.1,0-0.2,0.1
		l-1.2,0.8l0.1-1.3c0-0.2,0-0.4-0.3-0.4c-0.1,0-0.3,0.1-0.3,0.3c0,0.1,0,0.3,0.1,0.4c0,0.2,0.1,0.8,0.1,1l-1.2-0.8
		c-0.1-0.1-0.1-0.1-0.2-0.1c-0.2,0-0.3,0.1-0.3,0.3c0,0.2,0.1,0.2,0.2,0.3l1.4,0.6c-0.7,0.3-1.1,0.5-1.3,0.6
		c-0.2,0.1-0.2,0.1-0.2,0.3c0,0.2,0.1,0.3,0.3,0.3c0.1,0,0.1,0,0.2-0.1l1.2-0.8l-0.1,1.4c0,0.2,0.2,0.3,0.3,0.3
		c0.1,0,0.3-0.1,0.3-0.3c0-0.1,0-0.3-0.1-0.4c0-0.2-0.1-0.8-0.1-1l1.1,0.7c0.2,0.2,0.3,0.2,0.3,0.2c0.2,0,0.3-0.1,0.3-0.3
		c0-0.2-0.1-0.2-0.2-0.3L195.9,202.6"/>
	<path class="st6" d="M200.1,208c0.1-0.3,0.1-0.4,0.7-0.4c0.2,0,0.3,0,0.3-0.2c0,0,0-0.1-0.2-0.1c-0.2,0-0.9,0-1.2,0
		c-0.2,0-0.5,0-0.6,0c-0.2,0-0.4,0-0.6,0c-0.1,0-0.2,0-0.2,0.2c0,0.1,0.1,0.1,0.3,0.1c0,0,0.2,0,0.3,0c0.2,0,0.2,0,0.2,0.1
		c0,0,0,0.1-0.1,0.2l-0.5,2.1h-3l0.5-2.1c0.1-0.3,0.1-0.4,0.8-0.4c0.2,0,0.3,0,0.3-0.2c0,0,0-0.1-0.2-0.1c-0.3,0-0.9,0-1.2,0
		c-0.2,0-0.5,0-0.6,0c-0.2,0-0.4,0-0.6,0c-0.1,0-0.2,0-0.2,0.2c0,0.1,0.1,0.1,0.3,0.1c0,0,0.2,0,0.3,0c0.2,0,0.2,0,0.2,0.1
		c0,0,0,0.1,0,0.2l-1.2,4.8c-0.1,0.3-0.1,0.4-0.8,0.4c-0.1,0-0.3,0-0.3,0.2c0,0.1,0.1,0.1,0.2,0.1c0.2,0,0.9,0,1.2,0
		c0.1,0,0.5,0,0.6,0c0.2,0,0.4,0,0.6,0c0,0,0.2,0,0.2-0.2c0-0.1-0.1-0.1-0.3-0.1c-0.2,0-0.2,0-0.3,0c-0.2,0-0.2-0.1-0.2-0.1
		c0,0,0-0.1,0.1-0.2l0.6-2.4h3l-0.6,2.3c-0.1,0.3-0.1,0.4-0.8,0.4c-0.2,0-0.3,0-0.3,0.2c0,0.1,0.1,0.1,0.2,0.1c0.3,0,0.9,0,1.2,0
		c0.2,0,0.5,0,0.6,0c0.2,0,0.4,0,0.6,0c0.1,0,0.2,0,0.2-0.2c0-0.1-0.1-0.1-0.3-0.1c-0.2,0-0.2,0-0.3,0c-0.2,0-0.2-0.1-0.2-0.1
		c0-0.1,0.1-0.1,0.1-0.2L200.1,208"/>
</g>
<g>
	<g>
		<line class="st0" x1="168" y1="140" x2="168" y2="141"/>
		<line class="st7" x1="168" y1="143" x2="168" y2="194.5"/>
		<line class="st0" x1="168" y1="195.5" x2="168" y2="196.5"/>
	</g>
</g>
<g>
	<g>
		<line class="st0" x1="100" y1="172.5" x2="100" y2="173.5"/>
		<line class="st4" x1="100" y1="175.5" x2="100" y2="194.5"/>
		<line class="st0" x1="100" y1="195.5" x2="100" y2="196.5"/>
	</g>
</g>
<g>
	<defs>
		<rect id="SVGID_11_" x="92.9" y="199.2" width="12" height="14"/>
	</defs>
	<clipPath id="SVGID_12_">
		<use xlink:href="#SVGID_11_"  style="overflow:visible;"/>
	</clipPath>
	<path class="st8" d="M94.7,209c-0.8,0-0.8-1-0.8-1.2c0-0.6,0.4-2.1,0.6-2.6c0.4-1,1.1-1.5,1.6-1.5c0.9,0,1,1,1,1.1
		c0,0.1-0.7,2.9-0.7,3C96.1,208.2,95.4,209,94.7,209 M98.3,203.6c0-0.1,0-0.1-0.1-0.1c-0.1,0-0.6,0.5-0.9,0.9
		c-0.3-0.7-0.8-0.9-1.2-0.9c-1.5,0-3.1,1.9-3.1,3.8c0,1.3,0.8,2.1,1.7,2.1c0.6,0,1.1-0.3,1.5-0.8c-0.1,0.5-0.5,2.2-0.6,2.3
		c-0.1,0.4-0.2,0.4-0.9,0.4c-0.2,0-0.3,0-0.3,0.3c0,0,0,0.1,0.2,0.1c0.4,0,0.9,0,1.3,0c0.5,0,0.9,0,1.3,0c0.1,0,0.2,0,0.2-0.2
		c0-0.2-0.1-0.2-0.3-0.2c-0.6,0-0.6-0.1-0.6-0.2c0-0.1,0-0.2,0.1-0.3L98.3,203.6z"/>
	<path class="st8" d="M101.5,201.6c0.7-0.3,1.1-0.5,1.3-0.6c0.2-0.1,0.2-0.1,0.2-0.3c0-0.2-0.1-0.3-0.3-0.3c-0.1,0-0.1,0-0.2,0.1
		l-1.2,0.8l0.1-1.3c0-0.2,0-0.4-0.3-0.4c-0.1,0-0.3,0.1-0.3,0.3c0,0.1,0,0.3,0.1,0.4c0,0.2,0.1,0.8,0.1,1l-1.2-0.8
		c-0.1-0.1-0.1-0.1-0.2-0.1c-0.2,0-0.3,0.1-0.3,0.3c0,0.2,0.1,0.2,0.2,0.3l1.4,0.6c-0.7,0.3-1.1,0.5-1.3,0.6
		c-0.2,0.1-0.2,0.1-0.2,0.3c0,0.2,0.1,0.3,0.3,0.3c0.1,0,0.1,0,0.2-0.1l1.2-0.8l-0.1,1.4c0,0.2,0.2,0.3,0.3,0.3
		c0.1,0,0.3-0.1,0.3-0.3c0-0.1,0-0.3-0.1-0.4c0-0.2-0.1-0.8-0.1-1l1.1,0.7c0.2,0.2,0.3,0.2,0.3,0.2c0.2,0,0.3-0.1,0.3-0.3
		c0-0.2-0.1-0.2-0.2-0.3L101.5,201.6"/>
	<path class="st8" d="M101.9,207c0.1-0.3,0.1-0.4,0.9-0.4c0.3,0,0.4,0,0.4-0.2c0,0,0-0.1-0.2-0.1c-0.2,0-0.4,0-0.7,0
		c-0.2,0-0.5,0-0.7,0c-0.2,0-0.4,0-0.6,0c-0.2,0-0.4,0-0.6,0c-0.1,0-0.2,0-0.2,0.2c0,0.1,0.1,0.1,0.3,0.1c0,0,0.2,0,0.3,0
		c0.2,0,0.2,0,0.2,0.1c0,0,0,0.1,0,0.2l-1.2,4.8c-0.1,0.3-0.1,0.4-0.8,0.4c-0.2,0-0.3,0-0.3,0.2c0,0.1,0.1,0.1,0.3,0.1h4.5
		c0.2,0,0.2,0,0.3-0.2c0.1-0.2,0.8-2,0.8-2.1c0,0,0-0.1-0.2-0.1c-0.1,0-0.1,0.1-0.2,0.2c-0.3,0.9-0.7,1.9-2.4,1.9h-1
		c-0.3,0-0.3,0-0.3-0.1c0,0,0-0.1,0.1-0.2L101.9,207"/>
</g>
<rect x="42.6" y="138.5" class="st9" width="125.4" height="33.5"/>
<g>
	<line class="st10" x1="173.5" y1="92.5" x2="154.5" y2="158.4"/>
	<g>
		<line class="st0" x1="173.5" y1="92.5" x2="155.4" y2="155.5"/>
		<g>
			<path d="M154.5,158.4c-0.1-1.5-0.5-3.5-1.1-4.8l2,1.5l2.5-0.2C156.8,155.8,155.4,157.2,154.5,158.4z"/>
		</g>
	</g>
</g>
<g>
	<g>
		<defs>
			<rect id="SVGID_13_" x="115.2" y="74.5" width="126" height="9.7"/>
		</defs>
		<clipPath id="SVGID_14_">
			<use xlink:href="#SVGID_13_"  style="overflow:visible;"/>
		</clipPath>
		<path class="st11" d="M117.3,79.6v-1.4l-1.8,0.1v0.4c0.9,0,1,0.1,1,0.7v3.5c0,0.6-0.1,0.6-1,0.6v0.4c0.5,0,1.1,0,1.5,0
			c0.5,0,1.1,0,1.6,0v-0.4h-0.3c-1,0-1-0.1-1-0.6v-2c0-1.3,0.6-2.4,1.5-2.4c0.1,0,0.1,0,0.1,0s-0.3,0.2-0.3,0.5
			c0,0.4,0.3,0.6,0.6,0.6c0.2,0,0.6-0.2,0.6-0.6c0-0.4-0.4-0.8-1-0.8C117.9,78.2,117.5,79.1,117.3,79.6"/>
	</g>
	<g>
		<defs>
			<rect id="SVGID_15_" x="115.2" y="74.5" width="126" height="9.7"/>
		</defs>
		<clipPath id="SVGID_16_">
			<use xlink:href="#SVGID_15_"  style="overflow:visible;"/>
		</clipPath>
		<path class="st12" d="M121.5,80.9h3.6c0.3,0,0.3,0,0.3-0.3c0-1.3-0.7-2.6-2.3-2.6c-1.5,0-2.7,1.3-2.7,3c0,1.8,1.4,3,2.8,3
			c1.6,0,2.2-1.4,2.2-1.7c0-0.1-0.1-0.1-0.2-0.1s-0.1,0.1-0.2,0.2c-0.5,1.4-1.6,1.4-1.8,1.4c-0.6,0-1.2-0.4-1.5-0.9
			C121.5,82.3,121.5,81.4,121.5,80.9 M121.6,80.7c0.1-1.9,1.2-2.3,1.6-2.3c1.3,0,1.5,1.8,1.5,2.3H121.6z"/>
	</g>
	<g>
		<defs>
			<rect id="SVGID_17_" x="115.2" y="74.5" width="126" height="9.7"/>
		</defs>
		<clipPath id="SVGID_18_">
			<use xlink:href="#SVGID_17_"  style="overflow:visible;"/>
		</clipPath>
		<path class="st13" d="M131.3,79.6c0.1-0.3,0.3-0.9,1.2-0.9v-0.4c-0.3,0-0.7,0.1-1,0.1s-0.9,0-1.1-0.1v0.4c0.5,0,0.6,0.3,0.6,0.6
			c0,0.1,0,0.2-0.1,0.3l-1.3,3.3l-1.4-3.6c-0.1-0.2-0.1-0.2-0.1-0.2c0-0.3,0.5-0.3,0.7-0.3v-0.4c-0.4,0-1.1,0.1-1.4,0.1
			s-0.9,0-1.3-0.1v0.4c0.8,0,0.9,0.1,1,0.5l1.9,4.6c0.1,0.2,0.1,0.2,0.3,0.2c0.2,0,0.2-0.1,0.3-0.2L131.3,79.6"/>
	</g>
	<g>
		<defs>
			<rect id="SVGID_19_" x="115.2" y="74.5" width="126" height="9.7"/>
		</defs>
		<clipPath id="SVGID_20_">
			<use xlink:href="#SVGID_19_"  style="overflow:visible;"/>
		</clipPath>
		<path class="st14" d="M133.8,80.9h3.6c0.3,0,0.3,0,0.3-0.3c0-1.3-0.7-2.6-2.3-2.6c-1.5,0-2.7,1.3-2.7,3c0,1.8,1.4,3,2.8,3
			c1.6,0,2.2-1.4,2.2-1.7c0-0.1-0.1-0.1-0.2-0.1c-0.1,0-0.1,0.1-0.2,0.2c-0.5,1.4-1.6,1.4-1.8,1.4c-0.7,0-1.2-0.4-1.5-0.9
			C133.8,82.3,133.8,81.4,133.8,80.9 M133.9,80.7c0.1-1.9,1.1-2.3,1.6-2.3c1.3,0,1.5,1.8,1.5,2.3H133.9z"/>
	</g>
	<g>
		<defs>
			<rect id="SVGID_21_" x="115.2" y="74.5" width="126" height="9.7"/>
		</defs>
		<clipPath id="SVGID_22_">
			<use xlink:href="#SVGID_21_"  style="overflow:visible;"/>
		</clipPath>
		<path class="st15" d="M139.5,79.5V83c0,0.6-0.2,0.6-1,0.6V84c0.5,0,1.1,0,1.5,0c0.3,0,1,0,1.4,0v-0.4c-0.9,0-1,0-1-0.6v-2.4
			c0-1.4,0.9-2.1,1.8-2.1c0.8,0,1,0.7,1,1.4v3c0,0.6-0.1,0.6-1,0.6v0.4c0.5,0,1.1,0,1.5,0c0.3,0,1,0,1.5,0v-0.4c-0.7,0-1,0-1-0.4
			v-2.5c0-1.1,0-1.5-0.4-2c-0.2-0.2-0.6-0.5-1.4-0.5c-1,0-1.6,0.6-1.9,1.4v-1.4l-1.8,0.1v0.4C139.4,78.7,139.5,78.8,139.5,79.5"/>
	</g>
	<g>
		<defs>
			<rect id="SVGID_23_" x="115.2" y="74.5" width="126" height="9.7"/>
		</defs>
		<clipPath id="SVGID_24_">
			<use xlink:href="#SVGID_23_"  style="overflow:visible;"/>
		</clipPath>
		<path class="st16" d="M150.1,82.9v1.2l1.9-0.2v-0.4c-0.9,0-1-0.1-1-0.7v-4.6l-1.9,0.1v0.4c0.9,0,1,0.1,1,0.7v2.3
			c0,1.1-0.6,2-1.6,2c-1.1,0-1.1-0.6-1.1-1.3v-4.3l-1.9,0.1v0.4c1,0,1,0.1,1,1.2v1.9c0,1,0,2.2,2,2.2
			C149.1,84.1,149.7,83.7,150.1,82.9"/>
	</g>
	<g>
		<defs>
			<rect id="SVGID_25_" x="115.2" y="74.5" width="126" height="9.7"/>
		</defs>
		<clipPath id="SVGID_26_">
			<use xlink:href="#SVGID_25_"  style="overflow:visible;"/>
		</clipPath>
		<path class="st17" d="M153.6,80.9h3.6c0.3,0,0.3,0,0.3-0.3c0-1.3-0.7-2.6-2.3-2.6c-1.5,0-2.7,1.3-2.7,3c0,1.8,1.4,3,2.9,3
			c1.6,0,2.2-1.4,2.2-1.7c0-0.1-0.1-0.1-0.2-0.1c-0.1,0-0.2,0.1-0.2,0.2c-0.5,1.4-1.6,1.4-1.8,1.4c-0.6,0-1.1-0.4-1.5-0.9
			C153.6,82.3,153.6,81.4,153.6,80.9 M153.6,80.7c0.1-1.9,1.2-2.3,1.6-2.3c1.3,0,1.5,1.8,1.5,2.3H153.6z"/>
	</g>
	<g>
		<defs>
			<rect id="SVGID_27_" x="115.2" y="74.5" width="126" height="9.7"/>
		</defs>
		<clipPath id="SVGID_28_">
			<use xlink:href="#SVGID_27_"  style="overflow:visible;"/>
		</clipPath>
		<path class="st18" d="M164.5,78.3v-1.5c0-1.1,0.6-1.8,1.2-1.8c0.1,0,0.2,0,0.4,0.1c-0.1,0.1-0.4,0.2-0.4,0.5s0.2,0.6,0.6,0.6
			c0.4,0,0.6-0.3,0.6-0.6c0-0.5-0.5-0.9-1.2-0.9c-0.9,0-2,0.7-2,2.1v1.5h-1v0.4h1v4.2c0,0.6-0.2,0.6-1,0.6v0.4c0.5,0,1.1,0,1.5,0
			c0.5,0,1.1,0,1.7,0v-0.4h-0.3c-1,0-1-0.1-1-0.6v-4.2h1.5v-0.4L164.5,78.3"/>
	</g>
	<g>
		<defs>
			<rect id="SVGID_29_" x="115.2" y="74.5" width="126" height="9.7"/>
		</defs>
		<clipPath id="SVGID_30_">
			<use xlink:href="#SVGID_29_"  style="overflow:visible;"/>
		</clipPath>
		<path class="st19" d="M169.4,83.8c-0.6,0-1.1-0.3-1.5-0.9c-0.3-0.6-0.3-1.4-0.3-1.8c0-0.5,0-1.2,0.3-1.8c0.3-0.6,1-0.9,1.5-0.9
			c0.6,0,1.1,0.3,1.5,0.8c0.3,0.6,0.3,1.3,0.3,1.8s0,1.2-0.3,1.8C170.7,83.4,170.1,83.8,169.4,83.8 M172.3,81.2c0-1.7-1.3-3-2.9-3
			c-1.6,0-2.9,1.4-2.9,3c0,1.7,1.4,2.9,2.9,2.9C171,84.1,172.3,82.8,172.3,81.2z"/>
	</g>
	<g>
		<defs>
			<rect id="SVGID_31_" x="115.2" y="74.5" width="126" height="9.7"/>
		</defs>
		<clipPath id="SVGID_32_">
			<use xlink:href="#SVGID_31_"  style="overflow:visible;"/>
		</clipPath>
		<path class="st20" d="M174.9,79.6v-1.4l-1.8,0.1v0.4c0.9,0,1,0.1,1,0.7v3.5c0,0.6-0.1,0.6-1,0.6v0.4c0.5,0,1.1,0,1.5,0
			c0.5,0,1.1,0,1.7,0v-0.4H176c-1,0-1-0.1-1-0.6v-2c0-1.3,0.6-2.4,1.5-2.4c0.1,0,0.1,0,0.1,0s-0.3,0.2-0.3,0.5
			c0,0.4,0.3,0.6,0.6,0.6c0.2,0,0.6-0.2,0.6-0.6c0-0.4-0.4-0.8-1-0.8C175.5,78.2,175.1,79.1,174.9,79.6"/>
	</g>
	<g>
		<defs>
			<rect id="SVGID_33_" x="115.2" y="74.5" width="126" height="9.7"/>
		</defs>
		<clipPath id="SVGID_34_">
			<use xlink:href="#SVGID_33_"  style="overflow:visible;"/>
		</clipPath>
		<path class="st21" d="M186.4,78.7c0.6,0,0.7,0.2,0.7,0.7v3.5c0,0.6-0.1,0.6-1,0.6v0.4c0.4,0,1.1,0,1.4,0c0.3,0,1,0,1.5,0v-0.4
			c-0.9,0-1,0-1-0.6v-4.8l-1.6,0.1c-0.2,0-0.2,0-0.2,0s-0.1,0-0.2,0h-1.5v-1.5c0-1.3,1.1-1.8,1.9-1.8c0.4,0,0.9,0.1,1.1,0.4
			c-0.5,0-0.6,0.4-0.6,0.6c0,0.4,0.3,0.6,0.6,0.6s0.6-0.2,0.6-0.6c0-0.8-0.7-1.3-1.7-1.3c-1.2,0-2.8,0.6-2.8,2.1v1.5h-1v0.4h1v4.2
			c0,0.6-0.1,0.6-1,0.6v0.4c0.4,0,1.1,0,1.4,0c0.3,0,1,0,1.4,0v-0.4c-0.9,0-1,0-1-0.6v-4.2L186.4,78.7"/>
	</g>
	<g>
		<defs>
			<rect id="SVGID_35_" x="115.2" y="74.5" width="126" height="9.7"/>
		</defs>
		<clipPath id="SVGID_36_">
			<use xlink:href="#SVGID_35_"  style="overflow:visible;"/>
		</clipPath>
		<path class="st22" d="M193,80.9c0.4-0.5,0.9-1.1,1.2-1.5c0.4-0.5,0.9-0.7,1.5-0.7v-0.4c-0.3,0-0.7,0.1-1.1,0.1
			c-0.4,0-1.1,0-1.3-0.1v0.4c0.3,0,0.4,0.2,0.4,0.4c0,0.2-0.1,0.4-0.2,0.5l-0.8,1l-1-1.3c-0.1-0.1-0.1-0.2-0.1-0.2
			c0-0.2,0.2-0.3,0.5-0.3v-0.4c-0.3,0-1.2,0.1-1.4,0.1c-0.3,0-0.9,0-1.2-0.1v0.4c0.9,0,0.9,0,1.5,0.8l1.3,1.7l-1.2,1.5
			c-0.6,0.7-1.4,0.8-1.7,0.8V84c0.3,0,0.7,0,1.1,0c0.4,0,0.9,0,1.3,0v-0.4c-0.3,0-0.4-0.2-0.4-0.4c0-0.3,0.4-0.7,1.2-1.7l1,1.3
			c0.1,0.1,0.3,0.3,0.3,0.4c0,0.1-0.1,0.3-0.5,0.3v0.4c0.4,0,1.1,0,1.4,0c0.3,0,0.9,0,1.3,0v-0.4c-0.7,0-1,0-1.3-0.4L193,80.9"/>
	</g>
	<g>
		<defs>
			<rect id="SVGID_37_" x="115.2" y="74.5" width="126" height="9.7"/>
		</defs>
		<clipPath id="SVGID_38_">
			<use xlink:href="#SVGID_37_"  style="overflow:visible;"/>
		</clipPath>
		<path class="st23" d="M197.5,80.9h3.6c0.3,0,0.3,0,0.3-0.3c0-1.3-0.7-2.6-2.3-2.6c-1.5,0-2.7,1.3-2.7,3c0,1.8,1.4,3,2.8,3
			c1.6,0,2.2-1.4,2.2-1.7c0-0.1-0.1-0.1-0.2-0.1c-0.1,0-0.1,0.1-0.2,0.2c-0.5,1.4-1.6,1.4-1.8,1.4c-0.6,0-1.2-0.4-1.5-0.9
			C197.5,82.3,197.5,81.4,197.5,80.9 M197.6,80.7c0.1-1.9,1.2-2.3,1.6-2.3c1.4,0,1.5,1.8,1.5,2.3H197.6z"/>
	</g>
	<g>
		<defs>
			<rect id="SVGID_39_" x="115.2" y="74.5" width="126" height="9.7"/>
		</defs>
		<clipPath id="SVGID_40_">
			<use xlink:href="#SVGID_39_"  style="overflow:visible;"/>
		</clipPath>
		<path class="st24" d="M206.7,79.7v2.7c0,0.2,0,0.3-0.2,0.5c-0.4,0.6-1,0.9-1.5,0.9c-0.6,0-1.1-0.3-1.4-0.8
			c-0.3-0.5-0.4-1.3-0.4-1.8s0-1.3,0.4-1.8c0.3-0.4,0.8-0.8,1.5-0.8c0.5,0,1,0.2,1.4,0.8C206.7,79.5,206.7,79.5,206.7,79.7
			 M206.7,83.2v0.9l1.9-0.2v-0.4c-0.9,0-1-0.1-1-0.7v-7.9l-1.9,0.1v0.4c0.9,0,1,0.1,1,0.7V79c-0.4-0.5-0.9-0.8-1.6-0.8
			c-1.5,0-2.9,1.3-2.9,3c0,1.7,1.3,2.9,2.7,2.9C205.8,84.1,206.4,83.6,206.7,83.2z"/>
	</g>
	<g>
		<defs>
			<rect id="SVGID_41_" x="115.2" y="74.5" width="126" height="9.7"/>
		</defs>
		<clipPath id="SVGID_42_">
			<use xlink:href="#SVGID_41_"  style="overflow:visible;"/>
		</clipPath>
		<path class="st25" d="M214.9,81.1c0-2.1,1.1-2.7,1.8-2.7c0.1,0,0.9,0,1.4,0.5c-0.5,0.1-0.6,0.4-0.6,0.6c0,0.3,0.2,0.6,0.6,0.6
			c0.3,0,0.6-0.2,0.6-0.6c0-0.9-1-1.4-2-1.4c-1.6,0-2.8,1.4-2.8,3c0,1.7,1.3,3,2.8,3c1.8,0,2.2-1.6,2.2-1.7c0-0.1-0.1-0.1-0.2-0.1
			c-0.1,0-0.1,0-0.2,0.1c-0.4,1.2-1.2,1.4-1.7,1.4C216.1,83.8,214.9,83.2,214.9,81.1"/>
	</g>
	<g>
		<defs>
			<rect id="SVGID_43_" x="115.2" y="74.5" width="126" height="9.7"/>
		</defs>
		<clipPath id="SVGID_44_">
			<use xlink:href="#SVGID_43_"  style="overflow:visible;"/>
		</clipPath>
		<path class="st26" d="M222.3,83.8c-0.6,0-1.1-0.3-1.5-0.9c-0.3-0.6-0.3-1.4-0.3-1.8c0-0.5,0-1.2,0.3-1.8c0.3-0.6,1-0.9,1.5-0.9
			c0.6,0,1.1,0.3,1.5,0.8c0.3,0.6,0.3,1.3,0.3,1.8s0,1.2-0.3,1.8C223.6,83.4,223,83.8,222.3,83.8 M225.2,81.2c0-1.7-1.3-3-2.9-3
			c-1.6,0-2.9,1.4-2.9,3c0,1.7,1.3,2.9,2.8,2.9C223.9,84.1,225.2,82.8,225.2,81.2z"/>
	</g>
	<g>
		<defs>
			<rect id="SVGID_45_" x="115.2" y="74.5" width="126" height="9.7"/>
		</defs>
		<clipPath id="SVGID_46_">
			<use xlink:href="#SVGID_45_"  style="overflow:visible;"/>
		</clipPath>
		<path class="st27" d="M228.3,81.4c0.3,0.1,1.3,0.3,1.3,1.2c0,0.7-0.5,1.2-1.5,1.2c-1.1,0-1.5-0.7-1.8-1.8c0-0.2-0.1-0.2-0.2-0.2
			c-0.2,0-0.2,0.1-0.2,0.3v1.7c0,0.2,0,0.3,0.2,0.3c0.1,0,0.1,0,0.3-0.3c0,0,0-0.1,0.3-0.3c0.6,0.5,1.1,0.6,1.4,0.6
			c1.5,0,2.1-0.9,2.1-1.8c0-0.7-0.4-1.1-0.6-1.2c-0.4-0.4-0.9-0.5-1.5-0.6c-0.7-0.1-1.6-0.3-1.6-1.1c0-0.5,0.3-1,1.4-1
			c1.4,0,1.5,1.2,1.5,1.6c0,0.1,0.1,0.1,0.2,0.1c0.2,0,0.2-0.1,0.2-0.3v-1.3c0-0.2,0-0.3-0.2-0.3c-0.1,0-0.1,0-0.3,0.2
			c0,0.1-0.2,0.2-0.2,0.2c-0.5-0.4-1-0.4-1.2-0.4c-1.6,0-2.1,0.9-2.1,1.6c0,0.5,0.2,0.8,0.6,1.1C227,81.2,227.4,81.2,228.3,81.4"/>
	</g>
	<g>
		<defs>
			<rect id="SVGID_47_" x="115.2" y="74.5" width="126" height="9.7"/>
		</defs>
		<clipPath id="SVGID_48_">
			<use xlink:href="#SVGID_47_"  style="overflow:visible;"/>
		</clipPath>
		<path class="st28" d="M232.9,78.7h1.9v-0.4h-1.9v-2.4h-0.3c0,1.1-0.4,2.5-1.7,2.5v0.3h1.1v3.6c0,1.6,1.2,1.8,1.7,1.8
			c0.9,0,1.3-0.9,1.3-1.8v-0.7h-0.3v0.7c0,1-0.4,1.5-0.9,1.5c-0.9,0-0.9-1.2-0.9-1.4L232.9,78.7"/>
	</g>
	<g>
		<defs>
			<rect id="SVGID_49_" x="115.2" y="74.5" width="126" height="9.7"/>
		</defs>
		<clipPath id="SVGID_50_">
			<use xlink:href="#SVGID_49_"  style="overflow:visible;"/>
		</clipPath>
		<path class="st29" d="M238.4,81.4c0.3,0.1,1.4,0.3,1.4,1.2c0,0.7-0.5,1.2-1.5,1.2c-1.1,0-1.5-0.7-1.8-1.8
			c-0.1-0.2-0.1-0.2-0.2-0.2c-0.2,0-0.2,0.1-0.2,0.3v1.7c0,0.2,0,0.3,0.2,0.3c0.1,0,0.1,0,0.3-0.3c0,0,0-0.1,0.3-0.3
			c0.6,0.5,1.1,0.6,1.4,0.6c1.5,0,2.1-0.9,2.1-1.8c0-0.7-0.4-1.1-0.5-1.2c-0.5-0.4-1-0.5-1.5-0.6c-0.7-0.1-1.6-0.3-1.6-1.1
			c0-0.5,0.3-1,1.5-1c1.4,0,1.5,1.2,1.5,1.6c0,0.1,0.1,0.1,0.1,0.1c0.2,0,0.2-0.1,0.2-0.3v-1.3c0-0.2,0-0.3-0.2-0.3
			c-0.1,0-0.1,0-0.2,0.2c-0.1,0.1-0.2,0.2-0.2,0.2c-0.5-0.4-1-0.4-1.2-0.4c-1.6,0-2.1,0.9-2.1,1.6c0,0.5,0.2,0.8,0.6,1.1
			C237.1,81.2,237.5,81.2,238.4,81.4"/>
	</g>
</g>
<g>
	<defs>
		<rect id="SVGID_51_" x="60.9" y="48.2" width="33" height="14"/>
	</defs>
	<clipPath id="SVGID_52_">
		<use xlink:href="#SVGID_51_"  style="overflow:visible;"/>
	</clipPath>
	<path class="st30" d="M65.1,54.2c0.1-0.4,0.4-0.7,0.7-0.9c0.5-0.4,0.8-0.5,1.1-0.5c0.5,0,0.8,0.5,0.8,1.2s-0.4,2.3-0.7,2.7
		c-0.5,0.9-1.1,1.3-1.5,1.3c-0.9,0-1-1.1-1-1.1c0,0,0-0.1,0.1-0.2L65.1,54.2 M62.8,59.8c-0.1,0.5-0.1,0.5-0.7,0.5
		c-0.1,0-0.3,0-0.3,0.3c0,0.1,0.1,0.1,0.2,0.1c0.3,0,0.7,0,1.1,0c0.4,0,0.9,0,1.3,0c0.1,0,0.2,0,0.2-0.2c0-0.2-0.1-0.2-0.3-0.2
		c-0.6,0-0.6-0.1-0.6-0.2s0.5-2.3,0.6-2.6c0.2,0.4,0.5,0.8,1.2,0.8c1.5,0,3.1-1.9,3.1-3.8c0-1.2-0.7-2.1-1.7-2.1
		c-0.6,0-1.3,0.5-1.7,1c-0.1-0.7-0.7-1-1.2-1c-0.6,0-0.9,0.5-1,0.7c-0.2,0.5-0.4,1.2-0.4,1.3c0,0.1,0.1,0.1,0.2,0.1
		c0.1,0,0.1,0,0.2-0.3c0.2-0.9,0.5-1.5,1-1.5c0.2,0,0.4,0.1,0.4,0.6c0,0.3-0.1,0.5-0.1,0.7L62.8,59.8z"/>
	<path class="st30" d="M76.3,54.7c0.1-0.3,0.1-0.4,0.8-0.4c0.2,0,0.3,0,0.3-0.2c0-0.1,0-0.1-0.1-0.1c-0.3,0-0.9,0-1.2,0
		c-0.2,0-0.5,0-0.6,0c-0.2,0-0.4,0-0.6,0c-0.1,0-0.2,0-0.2,0.2c0,0.1,0.1,0.1,0.3,0.1c0,0,0.2,0,0.3,0c0.2,0,0.2,0,0.2,0.1
		c0,0,0,0.1,0,0.2l-0.5,2.1h-3l0.5-2.1c0.1-0.3,0.1-0.4,0.8-0.4c0.1,0,0.3,0,0.3-0.2c0-0.1,0-0.1-0.2-0.1c-0.2,0-0.9,0-1.2,0
		c-0.2,0-0.5,0-0.6,0c-0.2,0-0.4,0-0.6,0c-0.1,0-0.2,0-0.2,0.2c0,0.1,0.1,0.1,0.3,0.1c0,0,0.2,0,0.3,0c0.2,0,0.2,0,0.2,0.1
		c0,0,0,0.1-0.1,0.2l-1.2,4.8c-0.1,0.3-0.1,0.4-0.8,0.4c-0.1,0-0.3,0-0.3,0.2c0,0.1,0.1,0.1,0.2,0.1c0.3,0,0.9,0,1.2,0
		c0.2,0,0.5,0,0.6,0c0.2,0,0.4,0,0.6,0c0,0,0.2,0,0.2-0.2c0-0.1-0.1-0.1-0.3-0.1c-0.2,0-0.2,0-0.3,0c-0.2,0-0.2,0-0.2-0.1
		c0,0,0-0.1,0.1-0.2l0.6-2.4h3l-0.6,2.3c-0.1,0.3-0.1,0.4-0.8,0.4c-0.2,0-0.3,0-0.3,0.2c0,0.1,0.1,0.1,0.1,0.1c0.3,0,0.9,0,1.2,0
		c0.2,0,0.5,0,0.6,0c0.2,0,0.4,0,0.6,0c0.1,0,0.2,0,0.2-0.2c0-0.1-0.1-0.1-0.3-0.1c-0.1,0-0.2,0-0.3,0c-0.2,0-0.2,0-0.2-0.1
		c0-0.1,0-0.1,0-0.2L76.3,54.7"/>
	<path class="st30" d="M82.9,61.3c0-0.1,0-0.1-0.2-0.3C81,59.4,80.6,57,80.6,55c0-2.3,0.5-4.5,2.1-6.2c0.2-0.2,0.2-0.2,0.2-0.2
		c0-0.1-0.1-0.1-0.1-0.1c-0.1,0-1.3,0.9-2.1,2.5c-0.7,1.4-0.8,2.9-0.8,4c0,1,0.1,2.6,0.9,4c0.8,1.6,1.9,2.4,2,2.4
		C82.8,61.5,82.9,61.4,82.9,61.3"/>
	<path class="st30" d="M85.9,58.1c-0.8,0-0.8-1-0.8-1.2c0-0.6,0.4-2.1,0.6-2.6c0.4-1,1.1-1.5,1.6-1.5c0.8,0,1,1,1,1.1
		c0,0.1-0.7,2.9-0.7,3C87.3,57.2,86.6,58.1,85.9,58.1 M89.5,52.6c0-0.1,0-0.1-0.1-0.1c-0.1,0-0.7,0.5-0.9,0.9
		c-0.3-0.7-0.8-0.9-1.2-0.9c-1.5,0-3.1,1.9-3.1,3.8c0,1.3,0.8,2.1,1.7,2.1c0.6,0,1.1-0.3,1.5-0.8c-0.1,0.5-0.5,2.2-0.6,2.3
		c-0.1,0.4-0.2,0.4-0.9,0.4c-0.2,0-0.3,0-0.3,0.3c0,0,0,0.1,0.2,0.1c0.4,0,0.9,0,1.3,0c0.4,0,0.9,0,1.3,0c0.1,0,0.2,0,0.2-0.2
		c0-0.2-0.1-0.2-0.3-0.2c-0.6,0-0.6-0.1-0.6-0.2c0-0.1,0-0.2,0.1-0.3L89.5,52.6z"/>
	<path class="st30" d="M93.5,55c0-1-0.1-2.6-0.9-4c-0.8-1.6-1.9-2.4-2-2.4c-0.1,0-0.1,0.1-0.1,0.1c0,0,0,0.1,0.2,0.3
		c1.3,1.3,2,3.4,2,6.1c0,2.2-0.5,4.5-2.1,6.2c-0.2,0.1-0.2,0.2-0.2,0.2c0,0.1,0.1,0.1,0.1,0.1c0.1,0,1.3-0.9,2.1-2.5
		C93.4,57.5,93.5,56.1,93.5,55"/>
</g>
<g>
	<defs>
		<rect id="SVGID_53_" x="46.6" y="118.2" width="31" height="14"/>
	</defs>
	<clipPath id="SVGID_54_">
		<use xlink:href="#SVGID_53_"  style="overflow:visible;"/>
	</clipPath>
	<path class="st31" d="M50.6,124.2c0.1-0.4,0.5-0.7,0.7-0.9c0.5-0.4,0.8-0.5,1-0.5c0.5,0,0.8,0.5,0.8,1.2s-0.4,2.3-0.7,2.7
		c-0.4,0.9-1.1,1.3-1.5,1.3c-0.9,0-1-1.1-1-1.1c0,0,0-0.1,0-0.2L50.6,124.2 M48.3,129.8c-0.1,0.5-0.1,0.5-0.7,0.5
		c-0.2,0-0.3,0-0.3,0.3c0,0.1,0.1,0.1,0.2,0.1c0.3,0,0.7,0,1.1,0c0.4,0,0.9,0,1.3,0c0.1,0,0.2,0,0.2-0.2c0-0.2-0.1-0.2-0.3-0.2
		c-0.6,0-0.6-0.1-0.6-0.2c0-0.1,0.5-2.3,0.6-2.6c0.2,0.4,0.5,0.8,1.2,0.8c1.5,0,3.1-1.9,3.1-3.8c0-1.2-0.7-2.1-1.7-2.1
		c-0.6,0-1.3,0.5-1.7,1c-0.1-0.7-0.7-1-1.2-1c-0.6,0-0.9,0.5-1,0.7c-0.2,0.5-0.4,1.2-0.4,1.3c0,0.1,0.1,0.1,0.2,0.1
		c0.1,0,0.2,0,0.2-0.3c0.2-0.9,0.5-1.5,0.9-1.5c0.2,0,0.4,0.1,0.4,0.6c0,0.3,0,0.5-0.1,0.7L48.3,129.8z"/>
	<path class="st31" d="M57.9,124.7c0.1-0.3,0.1-0.4,0.9-0.4c0.3,0,0.4,0,0.4-0.2c0,0,0-0.1-0.2-0.1c-0.2,0-0.5,0-0.7,0s-0.5,0-0.7,0
		c-0.2,0-0.4,0-0.6,0c-0.2,0-0.4,0-0.6,0c-0.1,0-0.2,0-0.2,0.2c0,0.1,0.1,0.1,0.3,0.1c0,0,0.2,0,0.3,0c0.2,0,0.2,0,0.2,0.1
		c0,0,0,0.1,0,0.2l-1.2,4.8c-0.1,0.3-0.1,0.4-0.8,0.4c-0.2,0-0.3,0-0.3,0.2c0,0.1,0.1,0.1,0.3,0.1h4.5c0.2,0,0.2,0,0.3-0.2
		c0.1-0.2,0.8-2,0.8-2.1c0,0,0-0.1-0.2-0.1c-0.1,0-0.1,0.1-0.2,0.2c-0.3,0.9-0.7,1.9-2.4,1.9h-1c-0.3,0-0.3,0-0.3-0.1
		c0,0,0-0.1,0.1-0.2L57.9,124.7"/>
	<path class="st31" d="M66.2,131.3c0-0.1,0-0.1-0.2-0.3c-1.6-1.6-2.1-4.1-2.1-6.1c0-2.3,0.5-4.5,2.1-6.2c0.2-0.2,0.2-0.2,0.2-0.2
		c0-0.1-0.1-0.1-0.1-0.1c-0.1,0-1.3,0.9-2.1,2.5c-0.7,1.4-0.8,2.9-0.8,4c0,1,0.1,2.6,0.9,4c0.8,1.6,1.9,2.4,2,2.4
		C66.2,131.5,66.2,131.4,66.2,131.3"/>
	<path class="st31" d="M69.3,128.1c-0.8,0-0.9-1-0.9-1.2c0-0.6,0.4-2.1,0.6-2.6c0.4-1,1.1-1.5,1.6-1.5c0.9,0,1,1,1,1.1
		c0,0.1-0.7,2.9-0.8,3C70.7,127.2,70,128.1,69.3,128.1 M72.9,122.6c0-0.1-0.1-0.1-0.1-0.1c-0.2,0-0.7,0.5-0.9,0.9
		c-0.3-0.7-0.8-0.9-1.2-0.9c-1.5,0-3.1,1.9-3.1,3.8c0,1.3,0.7,2.1,1.7,2.1c0.6,0,1.1-0.3,1.5-0.8c-0.1,0.5-0.6,2.2-0.6,2.3
		c-0.1,0.4-0.2,0.4-0.9,0.4c-0.2,0-0.3,0-0.3,0.3c0,0,0,0.1,0.2,0.1c0.4,0,0.9,0,1.3,0c0.5,0,0.9,0,1.4,0c0.1,0,0.2,0,0.2-0.2
		c0-0.2-0.1-0.2-0.3-0.2c-0.6,0-0.6-0.1-0.6-0.2c0-0.1,0-0.2,0.1-0.3L72.9,122.6z"/>
	<path class="st31" d="M77,125c0-1-0.1-2.6-0.9-4c-0.8-1.6-1.9-2.4-2-2.4c-0.1,0-0.1,0.1-0.1,0.1c0,0,0,0.1,0.2,0.3
		c1.3,1.3,2,3.4,2,6.1c0,2.2-0.5,4.5-2.1,6.2c-0.2,0.1-0.2,0.2-0.2,0.2c0,0.1,0.1,0.1,0.1,0.1c0.1,0,1.3-0.9,2.1-2.5
		C76.8,127.5,77,126.1,77,125"/>
</g>
<g>
	<defs>
		<rect id="SVGID_55_" x="108.2" y="1.6" width="81" height="13"/>
	</defs>
	<clipPath id="SVGID_56_">
		<use xlink:href="#SVGID_55_"  style="overflow:visible;"/>
	</clipPath>
	<path class="st32" d="M112.4,6.5c0.6,0,0.7,0.2,0.7,0.7v3.5c0,0.6-0.1,0.6-1,0.6v0.4c0.4,0,1.1,0,1.4,0c0.3,0,1,0,1.4,0v-0.4
		c-0.9,0-1,0-1-0.6V6l-1.6,0.1c-0.2,0-0.2,0-0.2,0c0,0-0.1,0-0.2,0h-1.5V4.6c0-1.3,1.1-1.8,1.9-1.8c0.4,0,0.9,0.1,1.1,0.4
		c-0.5,0-0.6,0.4-0.6,0.6c0,0.5,0.3,0.6,0.6,0.6c0.3,0,0.6-0.2,0.6-0.6c0-0.7-0.7-1.3-1.7-1.3c-1.2,0-2.7,0.7-2.7,2.1v1.5h-1v0.4h1
		v4.2c0,0.6-0.1,0.6-1,0.6v0.4c0.4,0,1.1,0,1.4,0c0.3,0,1,0,1.4,0v-0.4c-0.9,0-1,0-1-0.6V6.5H112.4"/>
	<path class="st32" d="M117.5,7.4V6l-1.8,0.2v0.4c0.9,0,1,0.1,1,0.7v3.5c0,0.6-0.1,0.6-1,0.6v0.4c0.5,0,1.1,0,1.5,0
		c0.5,0,1.1,0,1.7,0v-0.4h-0.3c-1,0-1-0.1-1-0.6v-2c0-1.3,0.5-2.4,1.5-2.4c0.1,0,0.1,0,0.1,0c0,0-0.3,0.2-0.3,0.5
		c0,0.3,0.3,0.6,0.6,0.6c0.2,0,0.6-0.2,0.6-0.6c0-0.4-0.4-0.8-1-0.8C118.1,6,117.7,6.8,117.5,7.4"/>
	<path class="st32" d="M121.7,7.2v3.5c0,0.6-0.1,0.6-1,0.6v0.4c0.5,0,1.1,0,1.5,0c0.3,0,1,0,1.5,0v-0.4c-0.9,0-1,0-1-0.6V8.3
		c0-1.3,0.9-2.1,1.8-2.1c0.8,0,1,0.7,1,1.4v3c0,0.6-0.2,0.6-1,0.6v0.4c0.5,0,1.1,0,1.5,0c0.3,0,1,0,1.4,0v-0.4c-0.9,0-1,0-1-0.6V8.3
		c0-1.3,0.9-2.1,1.8-2.1c0.8,0,1,0.7,1,1.4v3c0,0.6-0.1,0.6-1,0.6v0.4c0.5,0,1.1,0,1.5,0c0.3,0,1,0,1.5,0v-0.4c-0.7,0-1,0-1-0.4V8.4
		c0-1.1,0-1.5-0.4-2c-0.2-0.2-0.6-0.5-1.4-0.5c-1.1,0-1.7,0.8-1.9,1.3C126,6.1,125.1,6,124.5,6c-1,0-1.6,0.6-1.9,1.4V6l-1.8,0.2v0.4
		C121.6,6.5,121.7,6.6,121.7,7.2"/>
	<path class="st32" d="M137.7,10.2V7.3c0.4-0.7,1-1,1.7-1c0.9,0,1.7,1.1,1.7,2.6c0,1.6-0.9,2.7-1.9,2.7c-0.5,0-1-0.3-1.4-0.8
		C137.7,10.5,137.7,10.5,137.7,10.2 M137.6,6.8V6l-1.9,0.2v0.4c0.9,0,1,0.1,1,0.6v6.1c0,0.6-0.1,0.6-1,0.6v0.4
		c0.5,0,1.1-0.1,1.5-0.1c0.3,0,1,0,1.5,0.1v-0.4c-0.9,0-1,0-1-0.6v-2.3c0.1,0.2,0.6,0.9,1.6,0.9c1.5,0,2.9-1.3,2.9-2.9
		c0-1.7-1.3-3-2.7-3C138.4,6,137.9,6.5,137.6,6.8z"/>
	<path class="st32" d="M144.4,8.7h3.6c0.3,0,0.3,0,0.3-0.3c0-1.3-0.7-2.5-2.3-2.5c-1.5,0-2.7,1.3-2.7,3c0,1.7,1.4,3,2.8,3
		c1.6,0,2.2-1.4,2.2-1.7c0-0.1-0.1-0.2-0.2-0.2c-0.1,0-0.1,0.1-0.2,0.2c-0.5,1.3-1.6,1.3-1.8,1.3c-0.7,0-1.2-0.4-1.5-0.9
		C144.4,10,144.4,9.2,144.4,8.7 M144.5,8.4c0.1-1.9,1.1-2.3,1.6-2.3c1.3,0,1.5,1.8,1.5,2.3H144.5z"/>
	<path class="st32" d="M153,8.6v1.3c0,1.2-0.9,1.7-1.5,1.7c-0.6,0-1.2-0.5-1.2-1.1C150.3,9.7,150.9,8.7,153,8.6 M153.1,10.7
		c0.1,0.5,0.4,1.1,1,1.1c0.3,0,1.1-0.2,1.1-1.2V9.8h-0.3v0.7c0,0.7-0.3,0.8-0.5,0.8c-0.5,0-0.5-0.6-0.5-0.7V8.1c0-0.6,0-1.1-0.5-1.5
		c-0.5-0.5-1.2-0.7-1.8-0.7c-1.1,0-2,0.6-2,1.5c0,0.4,0.3,0.6,0.6,0.6c0.3,0,0.6-0.3,0.6-0.6c0-0.2-0.1-0.6-0.7-0.6
		c0.4-0.5,1-0.6,1.4-0.6c0.6,0,1.4,0.5,1.4,1.7v0.5c-0.7,0-1.6,0.1-2.4,0.5c-1,0.5-1.3,1.1-1.3,1.7c0,1,1.3,1.4,2.1,1.4
		C152.3,11.8,152.9,11.3,153.1,10.7z"/>
	<path class="st32" d="M156.6,10.7c0,0.6-0.2,0.6-1,0.6v0.4c0.4,0,1,0,1.4,0c0.4,0,0.9,0,1.4,0v-0.4c-0.9,0-1,0-1-0.6V9.4l0.8-0.7
		c1,1.4,1.5,2.1,1.5,2.3c0,0.2-0.2,0.3-0.5,0.3v0.4c0.4,0,1.1,0,1.4,0c0.4,0,0.7,0,1.1,0v-0.4c-0.5,0-0.7,0-1.3-0.7l-1.7-2.3
		c0,0-0.1-0.1-0.1-0.2c0-0.1,0.9-0.8,1.1-0.9c0.8-0.7,1.4-0.7,1.6-0.7V6.1c-0.4,0-0.5,0-0.9,0c-0.5,0-1.3,0-1.5,0v0.4
		c0.3,0,0.4,0.2,0.4,0.3c0,0.3-0.2,0.4-0.3,0.5l-1.8,1.6V2.7l-1.9,0.1v0.4c0.9,0,1,0.1,1,0.7V10.7"/>
	<path class="st32" d="M167.9,8.9c0-2.1,1.1-2.7,1.8-2.7c0.1,0,0.9,0,1.4,0.5c-0.5,0-0.6,0.4-0.6,0.6c0,0.3,0.2,0.6,0.6,0.6
		c0.3,0,0.6-0.2,0.6-0.6c0-0.9-1-1.4-2-1.4c-1.6,0-2.8,1.4-2.8,3c0,1.7,1.3,2.9,2.8,2.9c1.8,0,2.2-1.5,2.2-1.7
		c0-0.1-0.1-0.1-0.2-0.1c-0.1,0-0.2,0.1-0.2,0.1c-0.4,1.2-1.2,1.4-1.7,1.4C169.1,11.5,167.9,11,167.9,8.9"/>
	<path class="st32" d="M176.3,8.6v1.3c0,1.2-0.9,1.7-1.5,1.7c-0.6,0-1.2-0.5-1.2-1.1C173.6,9.7,174.2,8.7,176.3,8.6 M176.4,10.7
		c0.1,0.5,0.4,1.1,1,1.1c0.3,0,1.1-0.2,1.1-1.2V9.8h-0.3v0.7c0,0.7-0.3,0.8-0.5,0.8c-0.5,0-0.5-0.6-0.5-0.7V8.1c0-0.6,0-1.1-0.5-1.5
		c-0.5-0.5-1.1-0.7-1.8-0.7c-1.1,0-2,0.6-2,1.5c0,0.4,0.3,0.6,0.6,0.6c0.3,0,0.6-0.3,0.6-0.6c0-0.2-0.1-0.6-0.7-0.6
		c0.4-0.5,1-0.6,1.4-0.6c0.6,0,1.4,0.5,1.4,1.7v0.5c-0.7,0-1.6,0.1-2.4,0.5c-1,0.5-1.3,1.1-1.3,1.7c0,1,1.3,1.4,2.1,1.4
		C175.6,11.8,176.2,11.3,176.4,10.7z"/>
	<path class="st32" d="M181.3,9.2c0.3,0.1,1.4,0.3,1.4,1.2c0,0.7-0.5,1.2-1.5,1.2c-1.1,0-1.6-0.7-1.8-1.9c0-0.2-0.1-0.2-0.2-0.2
		c-0.2,0-0.2,0.1-0.2,0.3v1.7c0,0.2,0,0.3,0.1,0.3c0.1,0,0.1,0,0.3-0.2c0,0,0-0.1,0.2-0.3c0.6,0.6,1.2,0.6,1.4,0.6
		c1.5,0,2.1-0.9,2.1-1.8c0-0.7-0.4-1.1-0.6-1.3c-0.4-0.4-0.9-0.5-1.5-0.6c-0.7-0.1-1.6-0.3-1.6-1.1c0-0.5,0.3-1,1.5-1
		c1.4,0,1.5,1.2,1.5,1.6c0,0.1,0.1,0.1,0.2,0.1c0.2,0,0.2-0.1,0.2-0.3V6.2c0-0.2,0-0.3-0.1-0.3c-0.1,0-0.1,0-0.3,0.1
		c0,0.1-0.2,0.2-0.2,0.2c-0.5-0.3-1-0.3-1.2-0.3c-1.6,0-2.1,0.9-2.1,1.6c0,0.5,0.2,0.8,0.6,1.1C180,8.9,180.4,9,181.3,9.2"/>
	<path class="st32" d="M185.2,8.7h3.6c0.3,0,0.3,0,0.3-0.3c0-1.3-0.7-2.5-2.3-2.5c-1.5,0-2.7,1.3-2.7,3c0,1.7,1.4,3,2.8,3
		c1.6,0,2.2-1.4,2.2-1.7c0-0.1-0.1-0.2-0.2-0.2c-0.1,0-0.2,0.1-0.2,0.2c-0.5,1.3-1.6,1.3-1.8,1.3c-0.6,0-1.2-0.4-1.5-0.9
		C185.2,10,185.2,9.2,185.2,8.7 M185.2,8.4c0.1-1.9,1.2-2.3,1.6-2.3c1.3,0,1.5,1.8,1.5,2.3H185.2z"/>
</g>
</svg>
