<?xml version="1.0" encoding="utf-8"?>
<!-- Generator: Adobe Illustrator 21.0.1, SVG Export Plug-In . SVG Version: 6.00 Build 0)  -->
<svg version="1.1" id="Layer_1" xmlns="http://www.w3.org/2000/svg" xmlns:xlink="http://www.w3.org/1999/xlink" x="0px" y="0px"
	 viewBox="0 0 290 188" style="enable-background:new 0 0 290 188;" xml:space="preserve">
<style type="text/css">
	.st0{fill:none;stroke:#000000;stroke-width:2;stroke-miterlimit:10;}
	.st1{clip-path:url(#SVGID_2_);}
	.st2{clip-path:url(#SVGID_4_);}
	.st3{clip-path:url(#SVGID_6_);}
	.st4{clip-path:url(#SVGID_8_);}
	.st5{fill:none;stroke:#000000;stroke-miterlimit:10;}
	.st6{clip-path:url(#SVGID_10_);}
	.st7{clip-path:url(#SVGID_12_);}
	.st8{clip-path:url(#SVGID_14_);}
	.st9{clip-path:url(#SVGID_16_);}
	.st10{clip-path:url(#SVGID_18_);}
	.st11{clip-path:url(#SVGID_20_);}
	.st12{clip-path:url(#SVGID_22_);}
	.st13{clip-path:url(#SVGID_24_);}
	.st14{fill:none;stroke:#000000;stroke-width:2;stroke-miterlimit:10;stroke-dasharray:2;}
	.st15{clip-path:url(#SVGID_26_);}
</style>
<polyline class="st0" points="61.5,14 61.5,161.5 281,161.5 "/>
<path class="st0" d="M110.8,15.8c21.6,39.7,76.6,87.9,171.2,100.1"/>
<line class="st0" x1="61.5" y1="85" x2="275" y2="154.7"/>
<line class="st0" x1="61" y1="125" x2="280.9" y2="125"/>
<g>
	<g>
		<defs>
			<rect id="SVGID_1_" x="65" y="60.3" width="10" height="10.4"/>
		</defs>
		<clipPath id="SVGID_2_">
			<use xlink:href="#SVGID_1_"  style="overflow:visible;"/>
		</clipPath>
		<path class="st1" d="M69.1,66.8l2.7-4.6l0.5,4.6H69.1 M67.4,68.8c-0.6,0.9-1.1,1.1-1.7,1.2c-0.2,0-0.3,0-0.3,0.3
			c0,0.1,0.1,0.2,0.2,0.2c0.4,0,0.8,0,1.2,0c0.5,0,1,0,1.4,0c0.1,0,0.3,0,0.3-0.3c0-0.1-0.1-0.2-0.2-0.2c-0.3,0-0.7-0.1-0.7-0.5
			c0-0.2,0.1-0.3,0.2-0.5l1-1.8h3.5c0,0.3,0.2,2.2,0.2,2.3c0,0.4-0.7,0.5-1,0.5c-0.2,0-0.3,0-0.3,0.3c0,0.2,0.2,0.2,0.2,0.2
			c0.6,0,1.2,0,1.7,0c0.3,0,1.2,0,1.6,0c0.1,0,0.3,0,0.3-0.3c0-0.2-0.1-0.2-0.3-0.2c-0.9,0-0.9-0.1-0.9-0.5l-0.9-8.7
			c0-0.3,0-0.3-0.3-0.3c-0.2,0-0.3,0.1-0.3,0.2L67.4,68.8z"/>
	</g>
</g>
<g>
	<g>
		<defs>
			<rect id="SVGID_3_" x="190.9" y="110.8" width="11" height="10"/>
		</defs>
		<clipPath id="SVGID_4_">
			<use xlink:href="#SVGID_3_"  style="overflow:visible;"/>
		</clipPath>
		<path class="st2" d="M194.1,120c-0.2,0-0.2,0-0.3,0c-0.2,0-0.2,0-0.2-0.1s0-0.1,0.1-0.3l1-3.9h2.6c1.3,0,1.6,1,1.6,1.6
			c0,1.4-1.2,2.7-2.9,2.7H194.1 M194.7,115.4l0.9-3.5c0.1-0.5,0.2-0.5,0.7-0.5h1.8c1.2,0,1.5,0.8,1.5,1.4c0,1.2-1.2,2.6-2.9,2.6
			H194.7z M192.6,119.4c-0.1,0.5-0.2,0.7-1.3,0.7c-0.2,0-0.4,0-0.4,0.3c0,0.2,0.1,0.2,0.4,0.2h5c2.2,0,3.8-1.7,3.8-3
			c0-1-0.8-1.8-2.2-2c1.4-0.3,2.9-1.3,2.9-2.6c0-1-0.9-1.9-2.6-1.9h-4.7c-0.2,0-0.4,0-0.4,0.3c0,0.2,0.1,0.2,0.4,0.2
			c0,0,0.3,0,0.5,0s0.4,0.1,0.4,0.2c0,0.1,0,0.1-0.1,0.3L192.6,119.4z"/>
	</g>
</g>
<g>
	<g>
		<defs>
			<rect id="SVGID_5_" x="180.2" y="168.1" width="11" height="12"/>
		</defs>
		<clipPath id="SVGID_6_">
			<use xlink:href="#SVGID_5_"  style="overflow:visible;"/>
		</clipPath>
		<path class="st3" d="M190.3,169.2c0-0.1,0-0.1-0.2-0.1c0,0-0.1,0-0.2,0.2l-1,1.1c-0.1-0.2-0.8-1.2-2.3-1.2c-3.1,0-6.2,3.1-6.2,6.3
			c0,2.3,1.7,3.8,3.8,3.8c1.2,0,2.3-0.5,3-1.2c1.3-1.1,1.5-2.4,1.5-2.4c0-0.2-0.1-0.2-0.2-0.2s-0.2,0-0.2,0.2
			c-0.1,0.4-0.5,1.4-1.4,2.2c-1,0.8-1.8,1-2.6,1c-1.3,0-2.7-0.7-2.7-2.9c0-0.8,0.3-3.1,1.7-4.7c0.9-1,2.2-1.7,3.4-1.7
			c1.4,0,2.2,1.1,2.2,2.7c0,0.6-0.1,0.6-0.1,0.7c0,0.2,0.2,0.2,0.2,0.2c0.2,0,0.2,0,0.2-0.3L190.3,169.2"/>
	</g>
</g>
<g>
	<g>
		<defs>
			<rect id="SVGID_7_" x="42.2" y="165.1" width="9.9" height="11.9"/>
		</defs>
		<clipPath id="SVGID_8_">
			<use xlink:href="#SVGID_7_"  style="overflow:visible;"/>
		</clipPath>
		<path class="st4" d="M46.1,175.8c-1.4,0-2.4-1.1-2.4-3c0-0.6,0.2-2.7,1.3-4.3c1-1.4,2.3-2.2,3.4-2.2c1.1,0,2.4,0.8,2.4,2.8
			c0,1-0.4,3.2-1.8,4.9C48.3,175,47.2,175.8,46.1,175.8 M52,169.8c0-2.2-1.5-3.7-3.5-3.7c-3,0-6.1,3.1-6.1,6.4
			c0,2.3,1.5,3.7,3.6,3.7C48.9,176.2,52,173.1,52,169.8z"/>
	</g>
</g>
<circle class="st5" cx="61" cy="85" r="3.5"/>
<circle class="st5" cx="185.7" cy="125" r="3.5"/>
<circle class="st5" cx="186" cy="162" r="3.5"/>
<circle class="st5" cx="62" cy="162" r="3.5"/>
<circle class="st5" cx="62" cy="125" r="3.2"/>
<circle class="st5" cx="185.7" cy="85.8" r="3.2"/>
<g>
	<g>
		<defs>
			<rect id="SVGID_9_" x="188.1" y="67.7" width="11" height="10"/>
		</defs>
		<clipPath id="SVGID_10_">
			<use xlink:href="#SVGID_9_"  style="overflow:visible;"/>
		</clipPath>
		<path class="st6" d="M197.4,74.1c0-0.1,0.1-0.2,0.1-0.2s0-0.2-0.2-0.2c-0.1,0-0.1,0.1-0.2,0.2c-0.9,2.1-1.4,3-3.8,3h-2
			c-0.2,0-0.2,0-0.3,0c-0.1,0-0.2,0-0.2-0.1s0-0.1,0.1-0.3l1-3.8h1.4c1.2,0,1.2,0.3,1.2,0.6c0,0.1,0,0.3-0.1,0.7
			c0,0.1-0.1,0.1-0.1,0.2s0.1,0.1,0.2,0.1s0.2-0.1,0.2-0.3l0.8-3.2c0-0.1-0.1-0.2-0.2-0.2s-0.2,0.1-0.2,0.2
			c-0.3,1.1-0.5,1.4-1.8,1.4H192l0.8-3.4c0.1-0.5,0.1-0.5,0.7-0.5h2c1.7,0,2.1,0.4,2.1,1.5c0,0.3,0,0.3-0.1,0.7c0,0.1,0,0.2,0,0.3
			s0,0.2,0.2,0.2s0.2-0.1,0.2-0.3l0.3-2.4c0-0.4,0-0.4-0.4-0.4h-7c-0.3,0-0.4,0-0.4,0.3c0,0.2,0.1,0.2,0.4,0.2c0.5,0,0.9,0,0.9,0.2
			c0,0.1,0,0.1-0.1,0.3l-1.8,7.3c-0.1,0.5-0.2,0.7-1.3,0.7c-0.2,0-0.4,0-0.4,0.2s0.1,0.2,0.4,0.2h7.2c0.3,0,0.3,0,0.4-0.2
			L197.4,74.1"/>
	</g>
</g>
<g>
	<g>
		<defs>
			<rect id="SVGID_11_" x="274.1" y="167.7" width="6" height="10"/>
		</defs>
		<clipPath id="SVGID_12_">
			<use xlink:href="#SVGID_11_"  style="overflow:visible;"/>
		</clipPath>
		<path class="st7" d="M276,174.5c-0.9,0-0.9-1.1-0.9-1.3c0-0.7,0.4-2.2,0.6-2.7c0.4-1,1.2-1.6,1.7-1.6c0.9,0,1.1,1.1,1.1,1.2
			c0,0.1-0.7,3.1-0.8,3.2C277.6,173.6,276.8,174.5,276,174.5 M279.9,168.7c0-0.1,0-0.1-0.1-0.1c-0.2,0-0.7,0.6-0.9,1
			c-0.3-0.7-0.9-1-1.3-1c-1.7,0-3.4,2.1-3.4,4.1c0,1.4,0.8,2.2,1.8,2.2c0.6,0,1.1-0.3,1.7-0.8c-0.1,0.5-0.6,2.4-0.6,2.5
			c-0.1,0.4-0.2,0.5-1,0.5c-0.2,0-0.3,0-0.3,0.3c0,0,0,0.2,0.2,0.2c0.5,0,0.9-0.1,1.4-0.1s1,0.1,1.4,0.1c0.1,0,0.3,0,0.3-0.3
			c0-0.2-0.1-0.2-0.4-0.2c-0.7,0-0.7-0.1-0.7-0.2c0-0.1,0-0.2,0.1-0.3L279.9,168.7z"/>
	</g>
</g>
<g>
	<g>
		<defs>
			<rect id="SVGID_13_" x="47.3" y="17.5" width="5.8" height="11.9"/>
		</defs>
		<clipPath id="SVGID_14_">
			<use xlink:href="#SVGID_13_"  style="overflow:visible;"/>
		</clipPath>
		<path class="st8" d="M50,22.5c-1.7-0.4-1.8-1.6-1.8-1.8c0-0.9,0.7-1.7,1.8-1.8V22.5 M50,23.7v4.1c-1.2-0.1-1.9-0.8-2.1-1.6
			c0.1,0,0.2,0,0.2,0c0.4,0,0.6-0.3,0.6-0.6c0-0.4-0.3-0.6-0.6-0.6c-0.1,0-0.7,0-0.7,0.7c0,1.3,0.7,2.5,2.5,2.6v0.6h0.5v-0.6
			c1.4-0.1,2.5-1.4,2.5-2.8c0-1.1-0.6-1.9-0.8-2c-0.6-0.6-1-0.7-1.7-0.9v-3.8c1.2,0.1,1.8,0.7,2.1,1.4c-0.1,0-0.1,0-0.2,0
			c-0.4,0-0.6,0.2-0.6,0.6s0.3,0.6,0.6,0.6c0,0,0.6,0,0.6-0.7c0-1.4-0.9-2.4-2.5-2.4v-0.6H50v0.6c-1.5,0.2-2.5,1.4-2.5,2.7
			c0,1,0.5,1.6,0.8,1.9C48.8,23.4,49.3,23.5,50,23.7z M50.4,23.8c1.7,0.3,1.8,1.7,1.8,2c0,0.9-0.7,1.9-1.8,2V23.8z"/>
	</g>
</g>
<g>
	<g>
		<defs>
			<rect id="SVGID_15_" x="252.4" y="134.3" width="24.3" height="14.9"/>
		</defs>
		<clipPath id="SVGID_16_">
			<use xlink:href="#SVGID_15_"  style="overflow:visible;"/>
		</clipPath>
		<path class="st9" d="M256.3,140.7c0.1-0.4,0.5-0.7,0.7-1c0.5-0.4,0.9-0.5,1.1-0.5c0.6,0,0.9,0.5,0.9,1.3s-0.5,2.4-0.7,3
			c-0.5,1-1.1,1.4-1.7,1.4c-0.9,0-1.1-1.2-1.1-1.3c0,0,0-0.1,0.1-0.2L256.3,140.7 M253.9,146.8c-0.1,0.5-0.1,0.6-0.7,0.6
			c-0.2,0-0.3,0-0.3,0.3c0,0.1,0.1,0.2,0.2,0.2c0.4,0,0.8-0.1,1.2-0.1c0.5,0,0.9,0.1,1.4,0.1c0.1,0,0.3,0,0.3-0.3
			c0-0.2-0.1-0.2-0.3-0.2c-0.7,0-0.7-0.1-0.7-0.2c0-0.2,0.6-2.4,0.7-2.8c0.2,0.4,0.6,0.9,1.3,0.9c1.6,0,3.4-2,3.4-4.1
			c0-1.3-0.8-2.2-1.9-2.2c-0.7,0-1.4,0.5-1.8,1.1c-0.1-0.8-0.7-1.1-1.3-1.1s-0.9,0.6-1,0.8c-0.2,0.5-0.4,1.3-0.4,1.4
			c0,0.1,0.1,0.1,0.2,0.1c0.1,0,0.2,0,0.2-0.3c0.2-1,0.5-1.7,1-1.7c0.2,0,0.4,0.1,0.4,0.6c0,0.3,0,0.5-0.1,0.7L253.9,146.8z"/>
	</g>
	<g>
		<defs>
			<rect id="SVGID_17_" x="252.4" y="134.3" width="24.3" height="14.9"/>
		</defs>
		<clipPath id="SVGID_18_">
			<use xlink:href="#SVGID_17_"  style="overflow:visible;"/>
		</clipPath>
		<path class="st10" d="M265,148.4c0-0.1,0-0.1-0.2-0.3c-1.7-1.8-2.2-4.4-2.2-6.5c0-2.4,0.5-4.8,2.3-6.6c0.2-0.2,0.2-0.2,0.2-0.2
			c0-0.1-0.1-0.1-0.1-0.1c-0.1,0-1.4,0.9-2.2,2.7c-0.7,1.5-0.9,3.1-0.9,4.3c0,1.1,0.2,2.8,0.9,4.3c0.8,1.7,2,2.6,2.2,2.6
			C264.9,148.5,265,148.5,265,148.4"/>
	</g>
	<g>
		<defs>
			<rect id="SVGID_19_" x="252.4" y="134.3" width="24.3" height="14.9"/>
		</defs>
		<clipPath id="SVGID_20_">
			<use xlink:href="#SVGID_19_"  style="overflow:visible;"/>
		</clipPath>
		<path class="st11" d="M268.2,144.9c-0.9,0-0.9-1.1-0.9-1.3c0-0.7,0.4-2.2,0.6-2.8c0.4-1,1.2-1.6,1.7-1.6c0.9,0,1.1,1.1,1.1,1.2
			c0,0.1-0.7,3.1-0.8,3.2C269.8,144,269,144.9,268.2,144.9 M272,139.1c0-0.1,0-0.1-0.1-0.1c-0.2,0-0.7,0.6-0.9,1
			c-0.3-0.7-0.9-1-1.3-1c-1.7,0-3.4,2.1-3.4,4.1c0,1.4,0.8,2.2,1.8,2.2c0.6,0,1.1-0.3,1.7-0.8c-0.1,0.5-0.6,2.3-0.6,2.5
			c-0.1,0.4-0.2,0.5-1,0.5c-0.2,0-0.3,0-0.3,0.3c0,0,0,0.2,0.2,0.2c0.5,0,0.9-0.1,1.4-0.1s1,0.1,1.4,0.1c0.1,0,0.3,0,0.3-0.3
			c0-0.2-0.1-0.2-0.4-0.2c-0.7,0-0.7-0.1-0.7-0.2c0-0.1,0-0.2,0.1-0.3L272,139.1z"/>
	</g>
	<g>
		<defs>
			<rect id="SVGID_21_" x="252.4" y="134.3" width="24.3" height="14.9"/>
		</defs>
		<clipPath id="SVGID_22_">
			<use xlink:href="#SVGID_21_"  style="overflow:visible;"/>
		</clipPath>
		<path class="st12" d="M276.5,141.6c0-1.1-0.2-2.8-0.9-4.3c-0.8-1.7-2-2.6-2.2-2.6c-0.1,0-0.1,0.1-0.1,0.1s0,0.1,0.3,0.3
			c1.4,1.4,2.2,3.6,2.2,6.5c0,2.4-0.5,4.8-2.3,6.6c-0.2,0.2-0.2,0.2-0.2,0.2c0,0.1,0.1,0.1,0.1,0.1c0.1,0,1.4-1,2.2-2.7
			C276.3,144.3,276.5,142.8,276.5,141.6"/>
	</g>
</g>
<g>
	<defs>
		<rect id="SVGID_23_" x="5.4" y="120.1" width="47.7" height="9.9"/>
	</defs>
	<clipPath id="SVGID_24_">
		<use xlink:href="#SVGID_23_"  style="overflow:visible;"/>
	</clipPath>
	<path class="st13" d="M10.1,121.1c0.1-0.5,0.2-0.5,0.7-0.5h1.3c1.2,0,1.9,0.4,1.9,1.4c0,0.5-0.3,1.7-0.8,2.2
		c-0.7,0.6-1.5,0.7-2.2,0.7H9.2L10.1,121.1 M9.1,125.3h2.4c2,0,3.9-1.4,3.9-3c0-1.1-0.9-2.1-2.7-2.1H8.2c-0.3,0-0.4,0-0.4,0.3
		c0,0.2,0.1,0.2,0.4,0.2c0.2,0,0.5,0,0.6,0.1c0.2,0,0.3,0.1,0.3,0.2c0,0.1,0,0.1-0.1,0.3l-1.9,7.5c-0.1,0.6-0.2,0.7-1.3,0.7
		c-0.2,0-0.4,0-0.4,0.3c0,0.2,0.2,0.2,0.2,0.2c0.4,0,1.4-0.1,1.8-0.1c0.3,0,0.6,0,0.9,0c0.3,0,0.6,0,0.9,0c0.1,0,0.3,0,0.3-0.3
		c0-0.2-0.1-0.2-0.4-0.2c-0.5,0-0.9,0-0.9-0.3c0-0.1,0-0.1,0-0.2L9.1,125.3z"/>
	<path class="st13" d="M29.3,127.8c0.2,0,0.5,0,0.5-0.3c0-0.3-0.3-0.3-0.5-0.3H21c-0.2,0-0.5,0-0.5,0.3c0,0.3,0.3,0.3,0.5,0.3H29.3
		 M29.3,125.1c0.2,0,0.5,0,0.5-0.3c0-0.3-0.3-0.3-0.5-0.3H21c-0.2,0-0.5,0-0.5,0.3c0,0.3,0.3,0.3,0.5,0.3H29.3z"/>
	<path class="st13" d="M35.7,128.8c0,0.2-0.1,0.5-0.1,0.6c0,0.2,0.2,0.4,0.4,0.4c0.2,0,0.4-0.1,0.5-0.4c0,0,0.2-0.7,0.3-1l0.3-1.3
		c0.1-0.3,0.2-0.6,0.2-0.9c0.1-0.2,0.2-0.6,0.2-0.7c0.2-0.4,0.9-1.7,2.3-1.7c0.6,0,0.7,0.5,0.7,1c0,0.3-0.1,0.7-0.2,1.2l-0.4,1.6
		l-0.3,1.1c-0.1,0.3-0.2,0.7-0.2,0.8c0,0.2,0.2,0.4,0.4,0.4c0.4,0,0.5-0.3,0.6-0.8c0.2-0.8,0.7-2.8,0.9-3.4c0-0.2,0.8-1.8,2.3-1.8
		c0.6,0,0.7,0.5,0.7,1c0,0.8-0.6,2.4-0.9,3.1c-0.1,0.3-0.2,0.5-0.2,0.8c0,0.6,0.5,1.1,1.1,1.1c1.3,0,1.8-2.1,1.8-2.2
		c0-0.1-0.1-0.1-0.2-0.1c-0.1,0-0.1,0.1-0.2,0.2c-0.2,0.7-0.7,1.7-1.4,1.7c-0.2,0-0.3-0.1-0.3-0.5c0-0.3,0.1-0.7,0.2-1
		c0.3-0.7,0.9-2.3,0.9-3.1c0-0.9-0.6-1.5-1.6-1.5c-1,0-1.8,0.6-2.3,1.4c0-0.2-0.1-0.7-0.5-1c-0.3-0.3-0.8-0.4-1.1-0.4
		c-1.3,0-1.9,0.9-2.2,1.2c-0.1-0.8-0.6-1.2-1.3-1.2c-0.6,0-0.9,0.5-1,0.8c-0.2,0.5-0.4,1.3-0.4,1.4c0,0.1,0.1,0.1,0.2,0.1
		c0.1,0,0.1,0,0.2-0.3c0.2-1,0.5-1.7,1-1.7c0.2,0,0.4,0.1,0.4,0.6c0,0.3-0.1,0.4-0.2,1.2L35.7,128.8"/>
	<path class="st13" d="M52.2,124.4c-0.2,0-0.4,0-0.6,0.2c-0.2,0.2-0.3,0.5-0.3,0.5c0,0.3,0.3,0.5,0.5,0.5c0.4,0,0.8-0.3,0.8-0.9
		c0-0.7-0.7-1.2-1.7-1.2c-1.9,0-3.7,2-3.7,3.9c0,1.3,0.8,2.4,2.3,2.4c2,0,3.2-1.5,3.2-1.7c0-0.1-0.1-0.2-0.2-0.2
		c-0.1,0-0.1,0-0.2,0.2c-1.1,1.4-2.6,1.4-2.8,1.4c-0.9,0-1.3-0.7-1.3-1.5c0-0.6,0.3-1.9,0.7-2.8c0.4-0.8,1.2-1.4,2-1.4
		C51.5,123.8,52.1,124,52.2,124.4"/>
</g>
<polyline class="st14" points="61.5,85 185.7,85 185.7,161.5 "/>
<g>
	<defs>
		<rect id="SVGID_25_" x="226.1" y="88.3" width="29.5" height="14.9"/>
	</defs>
	<clipPath id="SVGID_26_">
		<use xlink:href="#SVGID_25_"  style="overflow:visible;"/>
	</clipPath>
	<path class="st15" d="M229.9,97.4c-0.1,0.3-0.1,0.3-0.3,0.5c-0.6,0.8-1.2,1-1.6,1c-0.7,0-0.9-0.8-0.9-1.3c0-0.7,0.5-2.4,0.8-3
		c0.4-0.8,1.1-1.3,1.6-1.3c0.9,0,1.1,1.1,1.1,1.2c0,0.1,0,0.2-0.1,0.2L229.9,97.4 M230.8,93.8c-0.2-0.5-0.6-0.9-1.3-0.9
		c-1.6,0-3.4,2.1-3.4,4.1c0,1.3,0.8,2.2,1.9,2.2c0.3,0,1-0.1,1.8-1c0.1,0.6,0.6,1,1.3,1c0.5,0,0.8-0.3,1-0.8
		c0.2-0.5,0.4-1.3,0.4-1.4c0-0.2-0.1-0.2-0.2-0.2c-0.1,0-0.2,0.1-0.2,0.3c-0.2,0.9-0.5,1.7-1.1,1.7c-0.4,0-0.4-0.4-0.4-0.6
		c0-0.3,0-0.4,0.2-1c0.2-0.6,0.2-0.7,0.3-1.3l0.5-1.9c0.1-0.4,0.1-0.4,0.1-0.5c0-0.2-0.2-0.4-0.4-0.4
		C231,93.2,230.8,93.5,230.8,93.8z"/>
	<path class="st15" d="M238.5,93.8c-0.2,0-0.4,0-0.6,0.2c-0.2,0.2-0.2,0.5-0.2,0.6c0,0.3,0.2,0.5,0.5,0.5c0.4,0,0.8-0.3,0.8-0.9
		c0-0.7-0.6-1.2-1.6-1.2c-1.9,0-3.7,2-3.7,4c0,1.3,0.8,2.3,2.2,2.3c2,0,3.2-1.5,3.2-1.7c0-0.1-0.1-0.2-0.2-0.2c-0.1,0-0.1,0-0.2,0.1
		c-1.1,1.4-2.6,1.4-2.8,1.4c-0.9,0-1.3-0.7-1.3-1.5c0-0.6,0.3-1.9,0.7-2.8c0.5-0.8,1.2-1.4,2-1.4C237.8,93.2,238.3,93.4,238.5,93.8"
		/>
	<path class="st15" d="M243.7,102.4c0-0.1,0-0.1-0.2-0.3c-1.7-1.8-2.2-4.4-2.2-6.5c0-2.4,0.5-4.8,2.2-6.6c0.2-0.2,0.2-0.2,0.2-0.2
		c0-0.1-0.1-0.1-0.1-0.1c-0.1,0-1.4,0.9-2.2,2.7c-0.7,1.5-0.9,3.1-0.9,4.3c0,1.1,0.2,2.8,0.9,4.3c0.9,1.7,2.1,2.6,2.2,2.6
		C243.6,102.5,243.7,102.5,243.7,102.4"/>
	<path class="st15" d="M246.9,98.9c-0.8,0-0.9-1.1-0.9-1.3c0-0.7,0.4-2.2,0.6-2.8c0.4-1,1.1-1.6,1.7-1.6c0.9,0,1.1,1.1,1.1,1.2
		c0,0.1-0.8,3.1-0.8,3.2C248.5,98,247.7,98.9,246.9,98.9 M250.8,93.1c0-0.1,0-0.1-0.1-0.1c-0.2,0-0.7,0.6-1,1c-0.3-0.7-0.9-1-1.3-1
		c-1.7,0-3.4,2.1-3.4,4.1c0,1.4,0.8,2.2,1.8,2.2c0.6,0,1.1-0.3,1.6-0.8c-0.1,0.5-0.6,2.3-0.6,2.5c-0.1,0.4-0.2,0.5-1,0.5
		c-0.2,0-0.3,0-0.3,0.3c0,0,0,0.2,0.2,0.2c0.5,0,0.9-0.1,1.4-0.1c0.5,0,1,0.1,1.4,0.1c0.1,0,0.3,0,0.3-0.3c0-0.2-0.2-0.2-0.4-0.2
		c-0.7,0-0.7-0.1-0.7-0.2c0-0.1,0-0.2,0.1-0.3L250.8,93.1z"/>
	<path class="st15" d="M255.2,95.6c0-1.1-0.2-2.8-0.9-4.3c-0.8-1.7-2-2.6-2.2-2.6c-0.1,0-0.2,0.1-0.2,0.1c0,0,0,0.1,0.3,0.3
		c1.4,1.4,2.2,3.6,2.2,6.5c0,2.4-0.5,4.8-2.2,6.6c-0.2,0.2-0.2,0.2-0.2,0.2c0,0.1,0.1,0.1,0.2,0.1c0.1,0,1.4-1,2.2-2.7
		C255,98.3,255.2,96.8,255.2,95.6"/>
</g>
</svg>
