<?xml version="1.0" encoding="utf-8"?>
<!-- Generator: Adobe Illustrator 21.0.1, SVG Export Plug-In . SVG Version: 6.00 Build 0)  -->
<svg version="1.1" id="Layer_1" xmlns="http://www.w3.org/2000/svg" xmlns:xlink="http://www.w3.org/1999/xlink" x="0px" y="0px"
	 viewBox="0 0 267 188" style="enable-background:new 0 0 267 188;" xml:space="preserve">
<style type="text/css">
	.st0{fill:none;stroke:#000000;stroke-width:2;stroke-miterlimit:10;}
	.st1{clip-path:url(#SVGID_2_);}
	.st2{clip-path:url(#SVGID_4_);}
	.st3{clip-path:url(#SVGID_6_);}
	.st4{clip-path:url(#SVGID_8_);}
	.st5{clip-path:url(#SVGID_10_);}
	.st6{fill:none;stroke:#000000;stroke-miterlimit:10;}
	.st7{fill:none;stroke:#000000;stroke-width:2;stroke-miterlimit:10;stroke-dasharray:2;}
	.st8{clip-path:url(#SVGID_12_);}
	.st9{clip-path:url(#SVGID_14_);}
	.st10{clip-path:url(#SVGID_16_);}
	.st11{clip-path:url(#SVGID_18_);}
	.st12{clip-path:url(#SVGID_20_);}
	.st13{clip-path:url(#SVGID_22_);}
	.st14{clip-path:url(#SVGID_24_);}
	.st15{clip-path:url(#SVGID_26_);}
	.st16{clip-path:url(#SVGID_28_);}
</style>
<polyline class="st0" points="33.5,15 33.5,162.5 253,162.5 "/>
<path class="st0" d="M57.5,11.7c21.6,39.7,80.6,81.2,175.2,93.4"/>
<line class="st0" x1="33" y1="43" x2="247" y2="134"/>
<g>
	<g>
		<defs>
			<rect id="SVGID_1_" x="38.3" y="26.1" width="10" height="10.4"/>
		</defs>
		<clipPath id="SVGID_2_">
			<use xlink:href="#SVGID_1_"  style="overflow:visible;"/>
		</clipPath>
		<path class="st1" d="M42.4,32.5l2.7-4.6l0.5,4.6H42.4 M40.7,34.6c-0.6,0.9-1.1,1.1-1.7,1.2c-0.2,0-0.3,0-0.3,0.3
			c0,0.1,0.1,0.2,0.2,0.2c0.4,0,0.8,0,1.2,0c0.5,0,1,0,1.4,0c0.1,0,0.3,0,0.3-0.3c0-0.1-0.1-0.2-0.2-0.2c-0.3,0-0.7-0.1-0.7-0.5
			c0-0.2,0.1-0.3,0.2-0.5l1-1.8h3.5c0,0.3,0.2,2.2,0.2,2.3c0,0.4-0.7,0.5-1,0.5c-0.2,0-0.3,0-0.3,0.3c0,0.2,0.2,0.2,0.2,0.2
			c0.6,0,1.2,0,1.7,0c0.3,0,1.2,0,1.6,0c0.1,0,0.3,0,0.3-0.3c0-0.2-0.1-0.2-0.3-0.2c-0.9,0-0.9-0.1-0.9-0.5l-0.9-8.7
			c0-0.3,0-0.3-0.3-0.3c-0.2,0-0.3,0.1-0.3,0.2L40.7,34.6z"/>
	</g>
</g>
<g>
	<g>
		<defs>
			<rect id="SVGID_3_" x="137.1" y="101.7" width="11" height="10"/>
		</defs>
		<clipPath id="SVGID_4_">
			<use xlink:href="#SVGID_3_"  style="overflow:visible;"/>
		</clipPath>
		<path class="st2" d="M140.3,110.9c-0.2,0-0.2,0-0.3,0c-0.2,0-0.2,0-0.2-0.1s0-0.1,0.1-0.3l1-3.9h2.6c1.3,0,1.6,1,1.6,1.6
			c0,1.4-1.2,2.7-2.9,2.7H140.3 M140.9,106.3l0.9-3.5c0.1-0.5,0.2-0.5,0.7-0.5h1.8c1.2,0,1.5,0.8,1.5,1.4c0,1.2-1.2,2.6-2.9,2.6
			H140.9z M138.8,110.3c-0.1,0.5-0.2,0.7-1.3,0.7c-0.2,0-0.4,0-0.4,0.3c0,0.2,0.1,0.2,0.4,0.2h5c2.2,0,3.8-1.7,3.8-3
			c0-1-0.8-1.8-2.2-2c1.4-0.3,2.9-1.3,2.9-2.6c0-1-0.9-1.9-2.6-1.9h-4.7c-0.2,0-0.4,0-0.4,0.3c0,0.2,0.1,0.2,0.4,0.2
			c0,0,0.3,0,0.5,0s0.4,0.1,0.4,0.2c0,0.1,0,0.1-0.1,0.3L138.8,110.3z"/>
	</g>
</g>
<g>
	<g>
		<defs>
			<rect id="SVGID_5_" x="152.2" y="169.1" width="11" height="12"/>
		</defs>
		<clipPath id="SVGID_6_">
			<use xlink:href="#SVGID_5_"  style="overflow:visible;"/>
		</clipPath>
		<path class="st3" d="M162.3,170.2c0-0.1,0-0.1-0.2-0.1c0,0-0.1,0-0.2,0.2l-1,1.1c-0.1-0.2-0.8-1.2-2.3-1.2c-3.1,0-6.2,3.1-6.2,6.3
			c0,2.3,1.7,3.8,3.8,3.8c1.2,0,2.3-0.5,3-1.2c1.3-1.1,1.5-2.4,1.5-2.4c0-0.2-0.1-0.2-0.2-0.2s-0.2,0-0.2,0.2
			c-0.1,0.4-0.5,1.4-1.4,2.2c-1,0.8-1.8,1-2.6,1c-1.3,0-2.7-0.7-2.7-2.9c0-0.8,0.3-3.1,1.7-4.7c0.9-1,2.2-1.7,3.4-1.7
			c1.4,0,2.2,1.1,2.2,2.7c0,0.6-0.1,0.6-0.1,0.7c0,0.2,0.2,0.2,0.2,0.2c0.2,0,0.2,0,0.2-0.3L162.3,170.2"/>
	</g>
</g>
<g>
	<g>
		<defs>
			<rect id="SVGID_7_" x="14.2" y="166.1" width="9.9" height="11.9"/>
		</defs>
		<clipPath id="SVGID_8_">
			<use xlink:href="#SVGID_7_"  style="overflow:visible;"/>
		</clipPath>
		<path class="st4" d="M18.1,176.8c-1.4,0-2.4-1.1-2.4-3c0-0.6,0.2-2.7,1.3-4.3c1-1.4,2.3-2.2,3.4-2.2c1.1,0,2.4,0.8,2.4,2.8
			c0,1-0.4,3.2-1.8,4.9C20.3,176,19.2,176.8,18.1,176.8 M24,170.8c0-2.2-1.5-3.7-3.5-3.7c-3,0-6.1,3.1-6.1,6.4
			c0,2.3,1.5,3.7,3.6,3.7C20.9,177.2,24,174.1,24,170.8z"/>
	</g>
</g>
<g>
	<g>
		<defs>
			<rect id="SVGID_9_" x="38.1" y="70.7" width="11" height="10"/>
		</defs>
		<clipPath id="SVGID_10_">
			<use xlink:href="#SVGID_9_"  style="overflow:visible;"/>
		</clipPath>
		<path class="st5" d="M42.8,71.8c0.1-0.5,0.2-0.5,0.7-0.5H45c1.4,0,2.5,0.7,2.5,2.6c0,0.7-0.3,3-1.5,4.5c-0.4,0.5-1.5,1.6-3.2,1.6
			h-1.6c-0.2,0-0.2,0-0.3,0s-0.2,0-0.2-0.1s0-0.1,0.1-0.3L42.8,71.8 M39.8,79.3c-0.1,0.5-0.2,0.7-1.3,0.7c-0.2,0-0.4,0-0.4,0.2
			s0.1,0.2,0.4,0.2h4.6c2.9,0,5.6-2.9,5.6-6c0-1.9-1.2-3.5-3.3-3.5h-4.7c-0.3,0-0.4,0-0.4,0.3c0,0.2,0.1,0.2,0.4,0.2
			c0.2,0,0.5,0,0.6,0c0.2,0,0.3,0.1,0.3,0.2c0,0.1,0,0.1-0.1,0.3L39.8,79.3z"/>
	</g>
</g>
<circle class="st6" cx="33.5" cy="43.5" r="3.5"/>
<circle class="st6" cx="156.5" cy="96.5" r="3.5"/>
<circle class="st6" cx="156" cy="163" r="3.5"/>
<circle class="st6" cx="34" cy="163" r="3.5"/>
<circle class="st6" cx="33" cy="86" r="3.2"/>
<circle class="st6" cx="156" cy="86" r="3.2"/>
<polyline class="st7" points="34,86 156,86 156,163 "/>
<g>
	<g>
		<defs>
			<rect id="SVGID_11_" x="160.1" y="68.7" width="11" height="10"/>
		</defs>
		<clipPath id="SVGID_12_">
			<use xlink:href="#SVGID_11_"  style="overflow:visible;"/>
		</clipPath>
		<path class="st8" d="M169.4,75.1c0-0.1,0.1-0.2,0.1-0.2s0-0.2-0.2-0.2c-0.1,0-0.1,0.1-0.2,0.2c-0.9,2.1-1.4,3-3.8,3h-2
			c-0.2,0-0.2,0-0.3,0c-0.1,0-0.2,0-0.2-0.1s0-0.1,0.1-0.3l1-3.8h1.4c1.2,0,1.2,0.3,1.2,0.6c0,0.1,0,0.3-0.1,0.7
			c0,0.1-0.1,0.1-0.1,0.2s0.1,0.1,0.2,0.1s0.2-0.1,0.2-0.3l0.8-3.2c0-0.1-0.1-0.2-0.2-0.2s-0.2,0.1-0.2,0.2
			c-0.3,1.1-0.5,1.4-1.8,1.4H164l0.8-3.4c0.1-0.5,0.1-0.5,0.7-0.5h2c1.7,0,2.1,0.4,2.1,1.5c0,0.3,0,0.3-0.1,0.7c0,0.1,0,0.2,0,0.3
			s0,0.2,0.2,0.2s0.2-0.1,0.2-0.3l0.3-2.4c0-0.4,0-0.4-0.4-0.4h-7c-0.3,0-0.4,0-0.4,0.3c0,0.2,0.1,0.2,0.4,0.2c0.5,0,0.9,0,0.9,0.2
			c0,0.1,0,0.1-0.1,0.3l-1.8,7.3c-0.1,0.5-0.2,0.7-1.3,0.7c-0.2,0-0.4,0-0.4,0.2s0.1,0.2,0.4,0.2h7.2c0.3,0,0.3,0,0.4-0.2
			L169.4,75.1"/>
	</g>
</g>
<line class="st7" x1="34" y1="96" x2="156" y2="96"/>
<g>
	<g>
		<defs>
			<rect id="SVGID_13_" x="14.1" y="91.7" width="10" height="10"/>
		</defs>
		<clipPath id="SVGID_14_">
			<use xlink:href="#SVGID_13_"  style="overflow:visible;"/>
		</clipPath>
		<path class="st9" d="M18.8,92.8c0.1-0.5,0.2-0.5,0.7-0.5h1.3c1.2,0,1.9,0.4,1.9,1.3c0,0.6-0.3,1.8-0.8,2.2
			c-0.7,0.6-1.5,0.7-2.2,0.7h-1.9L18.8,92.8 M17.8,97h2.4c2,0,3.9-1.5,3.9-3c0-1.1-0.9-2.1-2.7-2.1h-4.5c-0.3,0-0.4,0-0.4,0.3
			c0,0.2,0.1,0.2,0.4,0.2c0.2,0,0.5,0,0.6,0c0.2,0,0.3,0.1,0.3,0.2c0,0.1,0,0.1-0.1,0.3l-1.9,7.5c-0.1,0.5-0.2,0.7-1.3,0.7
			c-0.2,0-0.4,0-0.4,0.2s0.2,0.2,0.2,0.2c0.4,0,1.4-0.1,1.8-0.1c0.3,0,0.6,0,0.9,0c0.3,0,0.6,0,0.9,0c0.1,0,0.3,0,0.3-0.3
			c0-0.1-0.1-0.1-0.4-0.1c-0.5,0-0.9,0-0.9-0.3c0-0.1,0-0.2,0-0.2L17.8,97z"/>
	</g>
</g>
<g>
	<g>
		<defs>
			<rect id="SVGID_15_" x="246.1" y="168.7" width="6" height="10"/>
		</defs>
		<clipPath id="SVGID_16_">
			<use xlink:href="#SVGID_15_"  style="overflow:visible;"/>
		</clipPath>
		<path class="st10" d="M248,175.5c-0.9,0-0.9-1.1-0.9-1.3c0-0.7,0.4-2.2,0.6-2.7c0.4-1,1.2-1.6,1.7-1.6c0.9,0,1.1,1.1,1.1,1.2
			c0,0.1-0.7,3.1-0.8,3.2C249.6,174.6,248.8,175.5,248,175.5 M251.9,169.7c0-0.1,0-0.1-0.1-0.1c-0.2,0-0.7,0.6-0.9,1
			c-0.3-0.7-0.9-1-1.3-1c-1.7,0-3.4,2.1-3.4,4.1c0,1.4,0.8,2.2,1.8,2.2c0.6,0,1.1-0.3,1.7-0.8c-0.1,0.5-0.6,2.4-0.6,2.5
			c-0.1,0.4-0.2,0.5-1,0.5c-0.2,0-0.3,0-0.3,0.3c0,0,0,0.2,0.2,0.2c0.5,0,0.9-0.1,1.4-0.1s1,0.1,1.4,0.1c0.1,0,0.3,0,0.3-0.3
			c0-0.2-0.1-0.2-0.4-0.2c-0.7,0-0.7-0.1-0.7-0.2c0-0.1,0-0.2,0.1-0.3L251.9,169.7z"/>
	</g>
</g>
<g>
	<g>
		<defs>
			<rect id="SVGID_17_" x="19.3" y="18.5" width="5.8" height="11.9"/>
		</defs>
		<clipPath id="SVGID_18_">
			<use xlink:href="#SVGID_17_"  style="overflow:visible;"/>
		</clipPath>
		<path class="st11" d="M22,23.5c-1.7-0.4-1.8-1.6-1.8-1.8c0-0.9,0.7-1.7,1.8-1.8V23.5 M22,24.7v4.1c-1.2-0.1-1.9-0.8-2.1-1.6
			c0.1,0,0.2,0,0.2,0c0.4,0,0.6-0.3,0.6-0.6c0-0.4-0.3-0.6-0.6-0.6c-0.1,0-0.7,0-0.7,0.7c0,1.3,0.7,2.5,2.5,2.6v0.6h0.5v-0.6
			c1.4-0.1,2.5-1.4,2.5-2.8c0-1.1-0.6-1.9-0.8-2c-0.6-0.6-1-0.7-1.7-0.9v-3.8c1.2,0.1,1.8,0.7,2.1,1.4c-0.1,0-0.1,0-0.2,0
			c-0.4,0-0.6,0.2-0.6,0.6s0.3,0.6,0.6,0.6c0,0,0.6,0,0.6-0.7c0-1.4-0.9-2.4-2.5-2.4v-0.6H22v0.6c-1.5,0.2-2.5,1.4-2.5,2.7
			c0,1,0.5,1.6,0.8,1.9C20.8,24.4,21.3,24.5,22,24.7z M22.4,24.8c1.7,0.3,1.8,1.7,1.8,2c0,0.9-0.7,1.9-1.8,2V24.8z"/>
	</g>
</g>
<g>
	<g>
		<defs>
			<rect id="SVGID_19_" x="225.7" y="111.7" width="24.3" height="14.9"/>
		</defs>
		<clipPath id="SVGID_20_">
			<use xlink:href="#SVGID_19_"  style="overflow:visible;"/>
		</clipPath>
		<path class="st12" d="M229.6,118.1c0.1-0.4,0.5-0.7,0.7-1c0.5-0.4,0.9-0.5,1.1-0.5c0.6,0,0.9,0.5,0.9,1.3s-0.5,2.4-0.7,3
			c-0.5,1-1.1,1.4-1.7,1.4c-0.9,0-1.1-1.2-1.1-1.3c0,0,0-0.1,0.1-0.2L229.6,118.1 M227.2,124.2c-0.1,0.5-0.1,0.6-0.7,0.6
			c-0.2,0-0.3,0-0.3,0.3c0,0.1,0.1,0.2,0.2,0.2c0.4,0,0.8-0.1,1.2-0.1c0.5,0,0.9,0.1,1.4,0.1c0.1,0,0.3,0,0.3-0.3
			c0-0.2-0.1-0.2-0.3-0.2c-0.7,0-0.7-0.1-0.7-0.2c0-0.2,0.6-2.4,0.7-2.8c0.2,0.4,0.6,0.9,1.3,0.9c1.6,0,3.4-2,3.4-4.1
			c0-1.3-0.8-2.2-1.9-2.2c-0.7,0-1.4,0.5-1.8,1.1c-0.1-0.8-0.7-1.1-1.3-1.1s-0.9,0.6-1,0.8c-0.2,0.5-0.4,1.3-0.4,1.4
			s0.1,0.1,0.2,0.1c0.1,0,0.2,0,0.2-0.3c0.2-1,0.5-1.7,1-1.7c0.2,0,0.4,0.1,0.4,0.6c0,0.3,0,0.5-0.1,0.7L227.2,124.2z"/>
	</g>
	<g>
		<defs>
			<rect id="SVGID_21_" x="225.7" y="111.7" width="24.3" height="14.9"/>
		</defs>
		<clipPath id="SVGID_22_">
			<use xlink:href="#SVGID_21_"  style="overflow:visible;"/>
		</clipPath>
		<path class="st13" d="M238.3,125.8c0-0.1,0-0.1-0.2-0.3c-1.7-1.8-2.2-4.4-2.2-6.5c0-2.4,0.5-4.8,2.3-6.6c0.2-0.2,0.2-0.2,0.2-0.2
			c0-0.1-0.1-0.1-0.1-0.1c-0.1,0-1.4,0.9-2.2,2.7c-0.7,1.5-0.9,3.1-0.9,4.3c0,1.1,0.2,2.8,0.9,4.3c0.8,1.7,2,2.6,2.2,2.6
			C238.2,125.9,238.3,125.9,238.3,125.8"/>
	</g>
	<g>
		<defs>
			<rect id="SVGID_23_" x="225.7" y="111.7" width="24.3" height="14.9"/>
		</defs>
		<clipPath id="SVGID_24_">
			<use xlink:href="#SVGID_23_"  style="overflow:visible;"/>
		</clipPath>
		<path class="st14" d="M241.5,122.3c-0.9,0-0.9-1.1-0.9-1.3c0-0.7,0.4-2.2,0.6-2.8c0.4-1,1.2-1.6,1.7-1.6c0.9,0,1.1,1.1,1.1,1.2
			s-0.7,3.1-0.8,3.2C243.1,121.4,242.3,122.3,241.5,122.3 M245.3,116.5c0-0.1,0-0.1-0.1-0.1c-0.2,0-0.7,0.6-0.9,1
			c-0.3-0.7-0.9-1-1.3-1c-1.7,0-3.4,2.1-3.4,4.1c0,1.4,0.8,2.2,1.8,2.2c0.6,0,1.1-0.3,1.7-0.8c-0.1,0.5-0.6,2.3-0.6,2.5
			c-0.1,0.4-0.2,0.5-1,0.5c-0.2,0-0.3,0-0.3,0.3c0,0,0,0.2,0.2,0.2c0.5,0,0.9-0.1,1.4-0.1s1,0.1,1.4,0.1c0.1,0,0.3,0,0.3-0.3
			c0-0.2-0.1-0.2-0.4-0.2c-0.7,0-0.7-0.1-0.7-0.2s0-0.2,0.1-0.3L245.3,116.5z"/>
	</g>
	<g>
		<defs>
			<rect id="SVGID_25_" x="225.7" y="111.7" width="24.3" height="14.9"/>
		</defs>
		<clipPath id="SVGID_26_">
			<use xlink:href="#SVGID_25_"  style="overflow:visible;"/>
		</clipPath>
		<path class="st15" d="M249.8,119c0-1.1-0.2-2.8-0.9-4.3c-0.8-1.7-2-2.6-2.2-2.6c-0.1,0-0.1,0.1-0.1,0.1s0,0.1,0.3,0.3
			c1.4,1.4,2.2,3.6,2.2,6.5c0,2.4-0.5,4.8-2.3,6.6c-0.2,0.2-0.2,0.2-0.2,0.2c0,0.1,0.1,0.1,0.1,0.1c0.1,0,1.4-1,2.2-2.7
			C249.6,121.7,249.8,120.2,249.8,119"/>
	</g>
</g>
<g>
	<defs>
		<rect id="SVGID_27_" x="208.4" y="85.5" width="29.5" height="14.9"/>
	</defs>
	<clipPath id="SVGID_28_">
		<use xlink:href="#SVGID_27_"  style="overflow:visible;"/>
	</clipPath>
	<path class="st16" d="M212.2,94.7c-0.1,0.3-0.1,0.3-0.3,0.5c-0.6,0.8-1.2,1-1.6,1c-0.7,0-0.9-0.8-0.9-1.3c0-0.7,0.5-2.4,0.8-3
		c0.4-0.8,1.1-1.3,1.6-1.3c0.9,0,1.1,1.1,1.1,1.2c0,0.1,0,0.2-0.1,0.2L212.2,94.7 M213.1,91.1c-0.2-0.5-0.6-0.9-1.3-0.9
		c-1.6,0-3.4,2.1-3.4,4.1c0,1.3,0.8,2.2,1.9,2.2c0.3,0,1-0.1,1.8-1c0.1,0.6,0.6,1,1.3,1c0.5,0,0.8-0.3,1-0.8
		c0.2-0.5,0.4-1.3,0.4-1.4c0-0.2-0.1-0.2-0.2-0.2c-0.1,0-0.2,0.1-0.2,0.3c-0.2,0.9-0.5,1.7-1.1,1.7c-0.4,0-0.4-0.4-0.4-0.6
		c0-0.3,0-0.4,0.2-1c0.2-0.6,0.2-0.7,0.3-1.3l0.5-1.9c0.1-0.4,0.1-0.4,0.1-0.5c0-0.2-0.2-0.4-0.4-0.4
		C213.3,90.5,213.1,90.8,213.1,91.1z"/>
	<path class="st16" d="M220.8,91.1c-0.2,0-0.4,0-0.6,0.2c-0.2,0.2-0.2,0.5-0.2,0.6c0,0.3,0.2,0.5,0.5,0.5c0.4,0,0.8-0.3,0.8-0.9
		c0-0.7-0.6-1.2-1.6-1.2c-1.9,0-3.7,2-3.7,4c0,1.3,0.8,2.3,2.2,2.3c2,0,3.2-1.5,3.2-1.7c0-0.1-0.1-0.2-0.2-0.2c-0.1,0-0.1,0-0.2,0.1
		c-1.1,1.4-2.6,1.4-2.8,1.4c-0.9,0-1.3-0.7-1.3-1.5c0-0.6,0.3-1.9,0.7-2.8c0.5-0.8,1.2-1.4,2-1.4C220.1,90.5,220.6,90.7,220.8,91.1"
		/>
	<path class="st16" d="M226,99.7c0-0.1,0-0.1-0.2-0.3c-1.7-1.8-2.2-4.4-2.2-6.5c0-2.4,0.5-4.8,2.2-6.6c0.2-0.2,0.2-0.2,0.2-0.2
		c0-0.1-0.1-0.1-0.1-0.1c-0.1,0-1.4,0.9-2.2,2.7c-0.7,1.5-0.9,3.1-0.9,4.3c0,1.1,0.2,2.8,0.9,4.3c0.9,1.7,2.1,2.6,2.2,2.6
		C225.9,99.8,226,99.8,226,99.7"/>
	<path class="st16" d="M229.2,96.2c-0.8,0-0.9-1.1-0.9-1.3c0-0.7,0.4-2.2,0.6-2.8c0.4-1,1.1-1.6,1.7-1.6c0.9,0,1.1,1.1,1.1,1.2
		c0,0.1-0.8,3.1-0.8,3.2C230.8,95.3,230,96.2,229.2,96.2 M233.1,90.3c0-0.1,0-0.1-0.1-0.1c-0.2,0-0.7,0.6-1,1c-0.3-0.7-0.9-1-1.3-1
		c-1.7,0-3.4,2.1-3.4,4.1c0,1.4,0.8,2.2,1.8,2.2c0.6,0,1.1-0.3,1.6-0.8c-0.1,0.5-0.6,2.3-0.6,2.5c-0.1,0.4-0.2,0.5-1,0.5
		c-0.2,0-0.3,0-0.3,0.3c0,0,0,0.2,0.2,0.2c0.5,0,0.9-0.1,1.4-0.1c0.5,0,1,0.1,1.4,0.1c0.1,0,0.3,0,0.3-0.3c0-0.2-0.2-0.2-0.4-0.2
		c-0.7,0-0.7-0.1-0.7-0.2c0-0.1,0-0.2,0.1-0.3L233.1,90.3z"/>
	<path class="st16" d="M237.5,92.9c0-1.1-0.2-2.8-0.9-4.3c-0.8-1.7-2-2.6-2.2-2.6c-0.1,0-0.2,0.1-0.2,0.1c0,0,0,0.1,0.3,0.3
		c1.4,1.4,2.2,3.6,2.2,6.5c0,2.4-0.5,4.8-2.2,6.6c-0.2,0.2-0.2,0.2-0.2,0.2c0,0.1,0.1,0.1,0.2,0.1c0.1,0,1.4-1,2.2-2.7
		C237.3,95.6,237.5,94,237.5,92.9"/>
</g>
</svg>
