<?xml version="1.0" encoding="utf-8"?>
<!-- Generator: Adobe Illustrator 21.0.1, SVG Export Plug-In . SVG Version: 6.00 Build 0)  -->
<svg version="1.1" id="Layer_1" xmlns="http://www.w3.org/2000/svg" xmlns:xlink="http://www.w3.org/1999/xlink" x="0px" y="0px"
	 viewBox="0 0 306 188" style="enable-background:new 0 0 306 188;" xml:space="preserve">
<style type="text/css">
	.st0{fill:#00FFFF;fill-opacity:0.28;}
	.st1{fill:none;stroke:#000000;stroke-width:2;stroke-miterlimit:10;}
	.st2{clip-path:url(#SVGID_2_);}
	.st3{fill:none;stroke:#000000;stroke-miterlimit:10;}
	.st4{clip-path:url(#SVGID_4_);}
	.st5{clip-path:url(#SVGID_6_);}
	.st6{clip-path:url(#SVGID_8_);}
	.st7{clip-path:url(#SVGID_10_);}
	.st8{clip-path:url(#SVGID_12_);}
	.st9{clip-path:url(#SVGID_14_);}
	.st10{clip-path:url(#SVGID_16_);}
	.st11{clip-path:url(#SVGID_18_);}
	.st12{clip-path:url(#SVGID_20_);}
	.st13{clip-path:url(#SVGID_20_);fill:none;stroke:#000000;stroke-width:0.5174;stroke-miterlimit:10;}
	.st14{fill:none;stroke:#000000;stroke-miterlimit:10;stroke-dasharray:2;}
	.st15{clip-path:url(#SVGID_22_);}
	.st16{fill:#00FFFF;}
	.st17{opacity:0.33;fill:#ED1E79;}
	.st18{clip-path:url(#SVGID_24_);}
</style>
<polygon class="st0" points="175.6,113.5 175.6,131.4 213.8,131.4 "/>
<polyline class="st1" points="33.5,15 33.5,162.5 253,162.5 "/>
<line class="st1" x1="33" y1="43" x2="225.7" y2="137"/>
<g>
	<g>
		<g>
			<defs>
				<rect id="SVGID_1_" x="14.2" y="166.1" width="9.9" height="11.9"/>
			</defs>
			<clipPath id="SVGID_2_">
				<use xlink:href="#SVGID_1_"  style="overflow:visible;"/>
			</clipPath>
			<path class="st2" d="M18.1,176.8c-1.4,0-2.4-1.1-2.4-3c0-0.6,0.2-2.7,1.3-4.3c1-1.4,2.3-2.2,3.4-2.2s2.4,0.8,2.4,2.8
				c0,1-0.4,3.2-1.8,4.9C20.3,176,19.2,176.8,18.1,176.8 M24,170.8c0-2.2-1.5-3.7-3.5-3.7c-3,0-6.1,3.1-6.1,6.4
				c0,2.3,1.5,3.7,3.6,3.7C20.9,177.2,24,174.1,24,170.8z"/>
		</g>
	</g>
</g>
<circle class="st3" cx="34" cy="163" r="3.5"/>
<g>
	<g>
		<g>
			<defs>
				<rect id="SVGID_3_" x="11.8" y="107" width="10" height="10"/>
			</defs>
			<clipPath id="SVGID_4_">
				<use xlink:href="#SVGID_3_"  style="overflow:visible;"/>
			</clipPath>
			<path class="st4" d="M16.5,108.1c0.1-0.5,0.2-0.5,0.7-0.5h1.3c1.2,0,1.9,0.4,1.9,1.3c0,0.6-0.3,1.8-0.8,2.2
				c-0.7,0.6-1.5,0.7-2.2,0.7h-1.9L16.5,108.1 M15.5,112.3h2.4c2,0,3.9-1.5,3.9-3c0-1.1-0.9-2.1-2.7-2.1h-4.5c-0.3,0-0.4,0-0.4,0.3
				c0,0.2,0.1,0.2,0.4,0.2c0.2,0,0.5,0,0.6,0c0.2,0,0.3,0.1,0.3,0.2s0,0.1-0.1,0.3l-1.9,7.5c-0.1,0.5-0.2,0.7-1.3,0.7
				c-0.2,0-0.4,0-0.4,0.2s0.2,0.2,0.2,0.2c0.4,0,1.4-0.1,1.8-0.1c0.3,0,0.6,0,0.9,0s0.6,0,0.9,0c0.1,0,0.3,0,0.3-0.3
				c0-0.1-0.1-0.1-0.4-0.1c-0.5,0-0.9,0-0.9-0.3c0-0.1,0-0.2,0-0.2L15.5,112.3z"/>
		</g>
	</g>
</g>
<g>
	<g>
		<g>
			<defs>
				<rect id="SVGID_5_" x="246.1" y="168.7" width="6" height="10"/>
			</defs>
			<clipPath id="SVGID_6_">
				<use xlink:href="#SVGID_5_"  style="overflow:visible;"/>
			</clipPath>
			<path class="st5" d="M248,175.5c-0.9,0-0.9-1.1-0.9-1.3c0-0.7,0.4-2.2,0.6-2.7c0.4-1,1.2-1.6,1.7-1.6c0.9,0,1.1,1.1,1.1,1.2
				c0,0.1-0.7,3.1-0.8,3.2C249.6,174.6,248.8,175.5,248,175.5 M251.9,169.7c0-0.1,0-0.1-0.1-0.1c-0.2,0-0.7,0.6-0.9,1
				c-0.3-0.7-0.9-1-1.3-1c-1.7,0-3.4,2.1-3.4,4.1c0,1.4,0.8,2.2,1.8,2.2c0.6,0,1.1-0.3,1.7-0.8c-0.1,0.5-0.6,2.4-0.6,2.5
				c-0.1,0.4-0.2,0.5-1,0.5c-0.2,0-0.3,0-0.3,0.3c0,0,0,0.2,0.2,0.2c0.5,0,0.9-0.1,1.4-0.1s1,0.1,1.4,0.1c0.1,0,0.3,0,0.3-0.3
				c0-0.2-0.1-0.2-0.4-0.2c-0.7,0-0.7-0.1-0.7-0.2c0-0.1,0-0.2,0.1-0.3L251.9,169.7z"/>
		</g>
	</g>
</g>
<g>
	<g>
		<g>
			<defs>
				<rect id="SVGID_7_" x="19.3" y="18.5" width="5.8" height="11.9"/>
			</defs>
			<clipPath id="SVGID_8_">
				<use xlink:href="#SVGID_7_"  style="overflow:visible;"/>
			</clipPath>
			<path class="st6" d="M22,23.5c-1.7-0.4-1.8-1.6-1.8-1.8c0-0.9,0.7-1.7,1.8-1.8V23.5 M22,24.7v4.1c-1.2-0.1-1.9-0.8-2.1-1.6
				c0.1,0,0.2,0,0.2,0c0.4,0,0.6-0.3,0.6-0.6c0-0.4-0.3-0.6-0.6-0.6c-0.1,0-0.7,0-0.7,0.7c0,1.3,0.7,2.5,2.5,2.6v0.6h0.5v-0.6
				c1.4-0.1,2.5-1.4,2.5-2.8c0-1.1-0.6-1.9-0.8-2c-0.6-0.6-1-0.7-1.7-0.9v-3.8c1.2,0.1,1.8,0.7,2.1,1.4c-0.1,0-0.1,0-0.2,0
				c-0.4,0-0.6,0.2-0.6,0.6s0.3,0.6,0.6,0.6c0,0,0.6,0,0.6-0.7c0-1.4-0.9-2.4-2.5-2.4v-0.6H22v0.6c-1.5,0.2-2.5,1.4-2.5,2.7
				c0,1,0.5,1.6,0.8,1.9C20.8,24.4,21.3,24.5,22,24.7z M22.4,24.8c1.7,0.3,1.8,1.7,1.8,2c0,0.9-0.7,1.9-1.8,2V24.8z"/>
		</g>
	</g>
</g>
<g>
	<g>
		<g>
			<defs>
				<rect id="SVGID_9_" x="40.5" y="30.5" width="24.3" height="14.9"/>
			</defs>
			<clipPath id="SVGID_10_">
				<use xlink:href="#SVGID_9_"  style="overflow:visible;"/>
			</clipPath>
			<path class="st7" d="M44.4,37c0.1-0.4,0.5-0.7,0.7-1c0.5-0.4,0.9-0.5,1.1-0.5c0.6,0,0.9,0.5,0.9,1.3s-0.5,2.4-0.7,3
				c-0.5,1-1.1,1.4-1.7,1.4c-0.9,0-1.1-1.2-1.1-1.3c0,0,0-0.1,0.1-0.2L44.4,37 M42,43c-0.1,0.5-0.1,0.6-0.7,0.6
				c-0.2,0-0.3,0-0.3,0.3c0,0.1,0.1,0.2,0.2,0.2c0.4,0,0.8-0.1,1.2-0.1c0.5,0,0.9,0.1,1.4,0.1c0.1,0,0.3,0,0.3-0.3
				c0-0.2-0.1-0.2-0.3-0.2c-0.7,0-0.7-0.1-0.7-0.2c0-0.2,0.6-2.4,0.7-2.8c0.2,0.4,0.6,0.9,1.3,0.9c1.6,0,3.4-2,3.4-4.1
				c0-1.3-0.8-2.2-1.9-2.2c-0.7,0-1.4,0.5-1.8,1.1c-0.1-0.8-0.7-1.1-1.3-1.1s-0.9,0.6-1,0.8c-0.2,0.5-0.4,1.3-0.4,1.4
				s0.1,0.1,0.2,0.1c0.1,0,0.2,0,0.2-0.3c0.2-1,0.5-1.7,1-1.7c0.2,0,0.4,0.1,0.4,0.6c0,0.3,0,0.5-0.1,0.7L42,43z"/>
		</g>
	</g>
	<g>
		<g>
			<defs>
				<rect id="SVGID_11_" x="40.5" y="30.5" width="24.3" height="14.9"/>
			</defs>
			<clipPath id="SVGID_12_">
				<use xlink:href="#SVGID_11_"  style="overflow:visible;"/>
			</clipPath>
			<path class="st8" d="M53.1,44.7c0-0.1,0-0.1-0.2-0.3c-1.7-1.8-2.2-4.4-2.2-6.5c0-2.4,0.5-4.8,2.3-6.6c0.2-0.2,0.2-0.2,0.2-0.2
				c0-0.1-0.1-0.1-0.1-0.1c-0.1,0-1.4,0.9-2.2,2.7C50.2,35.2,50,36.8,50,38c0,1.1,0.2,2.8,0.9,4.3c0.8,1.7,2,2.6,2.2,2.6
				C53,44.8,53.1,44.8,53.1,44.7"/>
		</g>
	</g>
	<g>
		<g>
			<defs>
				<rect id="SVGID_13_" x="40.5" y="30.5" width="24.3" height="14.9"/>
			</defs>
			<clipPath id="SVGID_14_">
				<use xlink:href="#SVGID_13_"  style="overflow:visible;"/>
			</clipPath>
			<path class="st9" d="M56.3,41.2c-0.9,0-0.9-1.1-0.9-1.3c0-0.7,0.4-2.2,0.6-2.8c0.4-1,1.2-1.6,1.7-1.6c0.9,0,1.1,1.1,1.1,1.2
				s-0.7,3.1-0.8,3.2C57.9,40.3,57.1,41.2,56.3,41.2 M60.1,35.4c0-0.1,0-0.1-0.1-0.1c-0.2,0-0.7,0.6-0.9,1c-0.3-0.7-0.9-1-1.3-1
				c-1.7,0-3.4,2.1-3.4,4.1c0,1.4,0.8,2.2,1.8,2.2c0.6,0,1.1-0.3,1.7-0.8c-0.1,0.5-0.6,2.3-0.6,2.5c-0.1,0.4-0.2,0.5-1,0.5
				c-0.2,0-0.3,0-0.3,0.3c0,0,0,0.2,0.2,0.2c0.5,0,0.9-0.1,1.4-0.1s1,0.1,1.4,0.1c0.1,0,0.3,0,0.3-0.3c0-0.2-0.1-0.2-0.4-0.2
				c-0.7,0-0.7-0.1-0.7-0.2s0-0.2,0.1-0.3L60.1,35.4z"/>
		</g>
	</g>
	<g>
		<g>
			<defs>
				<rect id="SVGID_15_" x="40.5" y="30.5" width="24.3" height="14.9"/>
			</defs>
			<clipPath id="SVGID_16_">
				<use xlink:href="#SVGID_15_"  style="overflow:visible;"/>
			</clipPath>
			<path class="st10" d="M64.6,37.9c0-1.1-0.2-2.8-0.9-4.3c-0.8-1.7-2-2.6-2.2-2.6c-0.1,0-0.1,0.1-0.1,0.1s0,0.1,0.3,0.3
				c1.4,1.4,2.2,3.6,2.2,6.5c0,2.4-0.5,4.8-2.3,6.6c-0.2,0.2-0.2,0.2-0.2,0.2c0,0.1,0.1,0.1,0.1,0.1c0.1,0,1.4-1,2.2-2.7
				C64.4,40.5,64.6,39,64.6,37.9"/>
		</g>
	</g>
</g>
<path class="st1" d="M67.5,20.3c0,22.5,44,96.7,151.5,96.7"/>
<line class="st1" x1="34.6" y1="131.7" x2="250.6" y2="131.7"/>
<g>
	<defs>
		<rect id="SVGID_17_" x="255.9" y="127.7" width="17" height="7"/>
	</defs>
	<clipPath id="SVGID_18_">
		<use xlink:href="#SVGID_17_"  style="overflow:visible;"/>
	</clipPath>
	<path class="st11" d="M257.1,133.4c-0.1,0.2-0.1,0.5-0.1,0.6c0,0.2,0.2,0.4,0.4,0.4c0.2,0,0.4-0.1,0.5-0.4c0,0,0.2-0.6,0.3-1
		l0.3-1.2c0.1-0.3,0.2-0.6,0.2-0.9c0.1-0.2,0.2-0.6,0.2-0.6c0.2-0.4,0.9-1.6,2.1-1.6c0.6,0,0.7,0.5,0.7,0.9c0,0.3-0.1,0.7-0.2,1.1
		l-0.4,1.5l-0.3,1c-0.1,0.2-0.2,0.7-0.2,0.7c0,0.2,0.2,0.4,0.4,0.4c0.4,0,0.5-0.3,0.6-0.7c0.2-0.7,0.7-2.6,0.8-3.1
		c0.1-0.2,0.7-1.7,2.2-1.7c0.6,0,0.7,0.5,0.7,0.9c0,0.7-0.5,2.2-0.8,2.9c-0.1,0.3-0.2,0.5-0.2,0.7c0,0.6,0.5,1.1,1.1,1.1
		c1.2,0,1.7-1.9,1.7-2s-0.1-0.1-0.1-0.1c-0.1,0-0.1,0-0.2,0.2c-0.2,0.7-0.6,1.6-1.3,1.6c-0.2,0-0.3-0.1-0.3-0.4
		c0-0.3,0.1-0.6,0.2-0.9c0.2-0.7,0.8-2.1,0.8-2.8c0-0.9-0.5-1.4-1.5-1.4c-1,0-1.6,0.6-2.1,1.3c0-0.2-0.1-0.6-0.4-0.9
		c-0.3-0.3-0.7-0.3-1.1-0.3c-1.2,0-1.8,0.8-2,1.1c-0.1-0.7-0.6-1.1-1.2-1.1c-0.6,0-0.9,0.5-1,0.7c-0.2,0.5-0.4,1.2-0.4,1.3
		c0,0.1,0.1,0.1,0.2,0.1c0.1,0,0.1,0,0.2-0.3c0.2-0.9,0.5-1.5,1-1.5c0.2,0,0.4,0.1,0.4,0.6c0,0.3-0.1,0.4-0.2,1.1L257.1,133.4"/>
	<path class="st11" d="M272.4,129.3c-0.2,0-0.4,0-0.6,0.2c-0.2,0.2-0.2,0.4-0.2,0.5c0,0.3,0.2,0.5,0.5,0.5c0.4,0,0.7-0.3,0.7-0.8
		c0-0.6-0.6-1.1-1.5-1.1c-1.8,0-3.5,1.8-3.5,3.7c0,1.2,0.7,2.2,2.1,2.2c1.9,0,3-1.4,3-1.5c0-0.1-0.1-0.2-0.2-0.2
		c-0.1,0-0.1,0-0.2,0.1c-1,1.3-2.4,1.3-2.6,1.3c-0.8,0-1.2-0.6-1.2-1.4c0-0.5,0.3-1.8,0.7-2.6c0.4-0.7,1.1-1.3,1.8-1.3
		C271.7,128.7,272.2,128.9,272.4,129.3"/>
</g>
<g>
	<defs>
		<rect id="SVGID_19_" x="202.2" y="86.2" width="93.8" height="31"/>
	</defs>
	<clipPath id="SVGID_20_">
		<use xlink:href="#SVGID_19_"  style="overflow:visible;"/>
	</clipPath>
	<path class="st12" d="M205.7,103.4c-0.1,0.2-0.1,0.3-0.3,0.5c-0.6,0.7-1.1,0.9-1.5,0.9c-0.6,0-0.8-0.7-0.8-1.2
		c0-0.7,0.4-2.3,0.7-2.8c0.4-0.8,1-1.3,1.5-1.3c0.9,0,1,1.1,1,1.1c0,0.1,0,0.2-0.1,0.2L205.7,103.4 M206.5,100
		c-0.2-0.5-0.6-0.9-1.2-0.9c-1.5,0-3.1,1.9-3.1,3.8c0,1.2,0.7,2.1,1.7,2.1c0.3,0,0.9-0.1,1.7-1c0.1,0.5,0.6,1,1.2,1
		c0.5,0,0.7-0.3,1-0.7c0.2-0.5,0.4-1.3,0.4-1.3c0-0.1-0.1-0.1-0.2-0.1c-0.1,0-0.1,0.1-0.2,0.2c-0.2,0.9-0.5,1.6-1,1.6
		c-0.3,0-0.4-0.3-0.4-0.6c0-0.3,0-0.4,0.2-1c0.1-0.5,0.2-0.7,0.3-1.2l0.5-1.8c0.1-0.4,0.1-0.4,0.1-0.5c0-0.2-0.1-0.3-0.4-0.3
		C206.8,99.4,206.6,99.7,206.5,100z"/>
	<path class="st12" d="M213.7,100c-0.2,0-0.4,0-0.6,0.2c-0.2,0.2-0.2,0.4-0.2,0.5c0,0.3,0.2,0.5,0.5,0.5c0.4,0,0.7-0.3,0.7-0.9
		c0-0.6-0.6-1.1-1.5-1.1c-1.8,0-3.5,1.9-3.5,3.7c0,1.2,0.7,2.2,2.1,2.2c1.9,0,3-1.4,3-1.5c0-0.1-0.1-0.2-0.2-0.2
		c-0.1,0-0.1,0-0.2,0.1c-1,1.3-2.4,1.3-2.6,1.3c-0.8,0-1.2-0.6-1.2-1.4c0-0.6,0.3-1.8,0.7-2.6c0.4-0.7,1.1-1.3,1.8-1.3
		C213.1,99.4,213.5,99.6,213.7,100"/>
	<path class="st12" d="M218.5,108c0,0,0-0.1-0.2-0.3c-1.6-1.6-2-4.1-2-6.1c0-2.3,0.5-4.5,2.1-6.2c0.2-0.2,0.2-0.2,0.2-0.2
		c0-0.1-0.1-0.1-0.1-0.1c-0.1,0-1.3,0.9-2.1,2.5c-0.7,1.4-0.8,2.9-0.8,4c0,1,0.1,2.6,0.9,4c0.8,1.6,1.9,2.4,2,2.4
		C218.4,108.1,218.5,108.1,218.5,108"/>
	<path class="st12" d="M221.4,104.8c-0.8,0-0.8-1-0.8-1.2c0-0.6,0.4-2.1,0.6-2.6c0.4-1,1.1-1.5,1.6-1.5c0.9,0,1,1.1,1,1.1
		c0,0.1-0.7,2.9-0.8,3C222.9,103.9,222.2,104.8,221.4,104.8 M225.1,99.3c0-0.1-0.1-0.1-0.1-0.1c-0.2,0-0.7,0.5-0.9,0.9
		c-0.3-0.7-0.8-0.9-1.2-0.9c-1.5,0-3.1,1.9-3.1,3.8c0,1.3,0.7,2.1,1.7,2.1c0.6,0,1.1-0.3,1.5-0.8c-0.1,0.5-0.5,2.2-0.6,2.3
		c-0.1,0.3-0.2,0.4-1,0.4c-0.2,0-0.3,0-0.3,0.2c0,0,0,0.2,0.2,0.2c0.4,0,0.9-0.1,1.3-0.1c0.5,0,0.9,0.1,1.4,0.1c0.1,0,0.2,0,0.2-0.3
		c0-0.1-0.1-0.1-0.3-0.1c-0.6,0-0.6-0.1-0.6-0.2c0-0.1,0-0.2,0.1-0.3L225.1,99.3z"/>
	<path class="st12" d="M229.1,101.6c0-1-0.2-2.6-0.9-4c-0.8-1.6-1.9-2.4-2-2.4c-0.1,0-0.1,0.1-0.1,0.1c0,0.1,0,0.1,0.2,0.3
		c1.3,1.3,2,3.4,2,6.1c0,2.2-0.5,4.5-2.1,6.2c-0.2,0.2-0.2,0.2-0.2,0.2c0,0.1,0.1,0.1,0.1,0.1c0.1,0,1.3-0.9,2.1-2.5
		C229,104.2,229.1,102.7,229.1,101.6"/>
	<path class="st12" d="M243,103.2c0.2,0,0.4,0,0.4-0.3c0-0.2-0.2-0.2-0.4-0.2h-7.8c-0.2,0-0.4,0-0.4,0.2c0,0.3,0.2,0.3,0.4,0.3H243
		 M243,100.7c0.2,0,0.4,0,0.4-0.3c0-0.3-0.2-0.3-0.4-0.3h-7.8c-0.2,0-0.4,0-0.4,0.3c0,0.3,0.2,0.3,0.4,0.3H243z"/>
	<path class="st12" d="M254,90.9h1.1c0.3,0,0.4,0,0.4-0.2c0-0.2-0.1-0.2-0.3-0.2h-1.1l0.3-1.5c0.1-0.3,0.2-1.2,0.3-1.4
		c0.1-0.2,0.3-0.5,0.6-0.5c0.1,0,0.4,0,0.6,0.2c-0.6,0.1-0.7,0.5-0.7,0.7c0,0.3,0.2,0.5,0.5,0.5c0.3,0,0.7-0.3,0.7-0.8
		c0-0.6-0.6-0.9-1.1-0.9c-0.4,0-1.3,0.2-1.7,1.5c-0.1,0.3-0.1,0.4-0.4,2h-0.9c-0.3,0-0.4,0-0.4,0.3c0,0.1,0.1,0.1,0.4,0.1h0.9
		l-1,5.1c-0.2,1.3-0.5,2.4-1.1,2.4c-0.1,0-0.4,0-0.6-0.2c0.6,0,0.7-0.5,0.7-0.7c0-0.3-0.2-0.5-0.5-0.5c-0.3,0-0.7,0.3-0.7,0.8
		c0,0.6,0.6,0.9,1.1,0.9c0.7,0,1.2-0.8,1.5-1.3c0.4-0.8,0.7-2.4,0.7-2.5L254,90.9"/>
	<path class="st12" d="M258.1,98c-0.4,0-1-0.2-1.1-1c-0.1-0.5-0.1-1.3-0.1-1.9c0-0.6,0-1.3,0.2-1.8c0.2-0.7,0.7-0.9,1.1-0.9
		c0.5,0,1,0.3,1.1,0.8c0.2,0.5,0.2,1.1,0.2,1.9c0,0.7,0,1.3-0.1,1.9C259.1,97.8,258.5,98,258.1,98 M260.2,95.2c0-1-0.1-1.7-0.5-2.3
		c-0.3-0.4-0.9-0.8-1.6-0.8c-2.1,0-2.1,2.4-2.1,3.1c0,0.6,0,3,2.1,3C260.2,98.3,260.2,95.9,260.2,95.2z"/>
	<line class="st13" x1="249.3" y1="101.6" x2="261.4" y2="101.6"/>
	<path class="st12" d="M254.5,113.7c-0.8,0-0.9-1-0.9-1.2c0-0.6,0.4-2,0.6-2.6c0.4-1,1.1-1.5,1.6-1.5c0.9,0,1,1.1,1,1.1
		s-0.7,2.9-0.7,3C255.9,112.8,255.2,113.7,254.5,113.7 M258.1,108.2c0-0.1-0.1-0.1-0.1-0.1c-0.1,0-0.7,0.5-0.9,0.9
		c-0.3-0.7-0.8-0.9-1.2-0.9c-1.5,0-3.1,1.9-3.1,3.8c0,1.3,0.8,2.1,1.7,2.1c0.6,0,1.1-0.3,1.5-0.8c-0.1,0.5-0.6,2.2-0.6,2.3
		c-0.1,0.3-0.2,0.4-0.9,0.4c-0.2,0-0.3,0-0.3,0.3c0,0,0,0.1,0.2,0.1c0.4,0,0.9-0.1,1.3-0.1c0.4,0,0.9,0.1,1.3,0.1
		c0.1,0,0.2,0,0.2-0.3c0-0.1-0.1-0.1-0.3-0.1c-0.6,0-0.6-0.1-0.6-0.2c0-0.1,0-0.2,0.1-0.3L258.1,108.2z"/>
	<path class="st12" d="M271.2,101.9h3.6c0.2,0,0.5,0,0.5-0.3c0-0.3-0.3-0.3-0.5-0.3h-3.6v-3.6c0-0.2,0-0.4-0.2-0.4
		c-0.3,0-0.3,0.2-0.3,0.4v3.6H267c-0.2,0-0.4,0-0.4,0.3c0,0.3,0.2,0.3,0.4,0.3h3.6v3.6c0,0.2,0,0.5,0.3,0.5c0.2,0,0.2-0.3,0.2-0.5
		V101.9"/>
	<path class="st12" d="M279.9,104.1c0,0.2-0.1,0.5-0.1,0.6c0,0.2,0.2,0.3,0.4,0.3c0.2,0,0.4-0.1,0.5-0.3c0,0,0.2-0.6,0.2-1l0.3-1.2
		c0.1-0.3,0.2-0.6,0.2-0.9c0.1-0.2,0.2-0.6,0.2-0.6c0.2-0.4,0.9-1.6,2.1-1.6c0.6,0,0.7,0.5,0.7,0.9c0,0.3-0.1,0.7-0.2,1.1l-0.3,1.5
		l-0.3,1c-0.1,0.3-0.2,0.7-0.2,0.8c0,0.2,0.2,0.3,0.4,0.3c0.4,0,0.5-0.3,0.6-0.7c0.2-0.7,0.6-2.6,0.8-3.1c0-0.2,0.7-1.7,2.1-1.7
		c0.6,0,0.7,0.5,0.7,0.9c0,0.7-0.6,2.2-0.8,2.9c-0.1,0.3-0.2,0.5-0.2,0.7c0,0.6,0.5,1.1,1.1,1.1c1.2,0,1.7-1.9,1.7-2
		c0-0.1-0.1-0.1-0.2-0.1c-0.1,0-0.1,0.1-0.2,0.2c-0.2,0.7-0.6,1.6-1.3,1.6c-0.2,0-0.3-0.1-0.3-0.4c0-0.3,0.1-0.6,0.2-0.9
		c0.2-0.7,0.8-2.1,0.8-2.8c0-0.9-0.5-1.4-1.5-1.4c-1,0-1.7,0.6-2.1,1.3c0-0.2-0.1-0.6-0.4-0.9c-0.3-0.3-0.7-0.3-1.1-0.3
		c-1.2,0-1.8,0.9-2,1.1c-0.1-0.7-0.6-1.1-1.2-1.1c-0.6,0-0.9,0.5-1,0.7c-0.2,0.5-0.4,1.2-0.4,1.3c0,0.1,0.1,0.1,0.2,0.1
		c0.1,0,0.2,0,0.2-0.3c0.2-0.9,0.5-1.5,0.9-1.5c0.2,0,0.4,0.1,0.4,0.6c0,0.3,0,0.4-0.2,1.1L279.9,104.1"/>
	<path class="st12" d="M295.3,100c-0.2,0-0.4,0-0.6,0.2c-0.2,0.2-0.2,0.4-0.2,0.5c0,0.3,0.2,0.5,0.5,0.5c0.4,0,0.7-0.3,0.7-0.9
		c0-0.6-0.6-1.1-1.5-1.1c-1.8,0-3.5,1.9-3.5,3.7c0,1.2,0.8,2.2,2.1,2.2c1.9,0,3-1.4,3-1.5c0-0.1-0.1-0.2-0.2-0.2
		c-0.1,0-0.1,0-0.2,0.1c-1,1.3-2.4,1.3-2.6,1.3c-0.8,0-1.1-0.6-1.1-1.4c0-0.6,0.2-1.8,0.7-2.6c0.4-0.7,1.1-1.3,1.8-1.3
		C294.6,99.4,295.1,99.6,295.3,100"/>
</g>
<polyline class="st14" points="34,113.5 175.6,113.5 175.6,161.5 "/>
<g>
	<defs>
		<rect id="SVGID_21_" x="175" y="58.8" width="88" height="12"/>
	</defs>
	<clipPath id="SVGID_22_">
		<use xlink:href="#SVGID_21_"  style="overflow:visible;"/>
	</clipPath>
	<path class="st15" d="M179.6,63.7v2.7c0,0.2,0,0.2-0.1,0.5c-0.4,0.6-1,0.9-1.5,0.9c-0.6,0-1.1-0.3-1.4-0.9
		c-0.3-0.5-0.4-1.3-0.4-1.8c0-0.5,0-1.3,0.4-1.9c0.3-0.4,0.8-0.8,1.5-0.8c0.5,0,1,0.2,1.4,0.8C179.6,63.4,179.6,63.4,179.6,63.7
		 M179.6,67.1V68l1.9-0.1v-0.4c-0.9,0-1-0.1-1-0.7v-7.9l-1.9,0.1v0.4c0.9,0,1,0.1,1,0.7v2.8c-0.4-0.5-0.9-0.8-1.6-0.8
		c-1.5,0-2.9,1.3-2.9,3c0,1.7,1.3,2.9,2.8,2.9C178.7,68,179.3,67.6,179.6,67.1z"/>
	<path class="st15" d="M183.3,64.9h3.6c0.3,0,0.3,0,0.3-0.3c0-1.3-0.7-2.5-2.3-2.5c-1.5,0-2.7,1.3-2.7,3c0,1.7,1.4,3,2.8,3
		c1.6,0,2.2-1.4,2.2-1.7c0-0.1-0.1-0.2-0.2-0.2c-0.1,0-0.1,0.1-0.2,0.2c-0.5,1.3-1.6,1.3-1.8,1.3c-0.7,0-1.2-0.4-1.5-0.9
		C183.3,66.2,183.3,65.3,183.3,64.9 M183.3,64.6c0.1-1.9,1.1-2.3,1.6-2.3c1.3,0,1.5,1.8,1.5,2.3H183.3z"/>
	<path class="st15" d="M191.8,64.7v1.3c0,1.2-0.9,1.7-1.5,1.7c-0.6,0-1.2-0.5-1.2-1.1C189.1,65.9,189.7,64.8,191.8,64.7 M191.9,66.9
		c0.1,0.5,0.4,1.1,1,1.1c0.3,0,1.1-0.2,1.1-1.2V66h-0.3v0.7c0,0.7-0.3,0.8-0.5,0.8c-0.4,0-0.5-0.6-0.5-0.7v-2.6c0-0.6,0-1.1-0.5-1.5
		c-0.5-0.5-1.1-0.7-1.8-0.7c-1.1,0-1.9,0.6-1.9,1.5c0,0.4,0.2,0.6,0.6,0.6c0.4,0,0.6-0.3,0.6-0.6c0-0.2-0.1-0.6-0.7-0.6
		c0.3-0.5,1-0.6,1.4-0.6c0.6,0,1.4,0.5,1.4,1.7v0.5c-0.7,0-1.6,0.1-2.4,0.5c-1,0.5-1.3,1.1-1.3,1.7c0,1,1.3,1.4,2.1,1.4
		C191,68,191.6,67.5,191.9,66.9z"/>
	<path class="st15" d="M199,63.7v2.7c0,0.2,0,0.2-0.1,0.5c-0.4,0.6-1,0.9-1.5,0.9c-0.6,0-1.1-0.3-1.4-0.9c-0.3-0.5-0.4-1.3-0.4-1.8
		c0-0.5,0-1.3,0.4-1.9c0.3-0.4,0.8-0.8,1.5-0.8c0.5,0,1,0.2,1.4,0.8C199,63.4,199,63.4,199,63.7 M199,67.1V68l1.9-0.1v-0.4
		c-0.9,0-1-0.1-1-0.7v-7.9L198,59v0.4c0.9,0,1,0.1,1,0.7v2.8c-0.4-0.5-0.9-0.8-1.6-0.8c-1.5,0-2.9,1.3-2.9,3c0,1.7,1.3,2.9,2.7,2.9
		C198.1,68,198.7,67.6,199,67.1z"/>
	<path class="st15" d="M209.3,63.5c0.2-0.6,0.6-0.8,1.1-0.8v-0.4c-0.3,0-0.6,0-0.9,0c-0.4,0-1,0-1.2,0v0.4c0.5,0,0.8,0.2,0.8,0.6
		c0,0.1,0,0.1-0.1,0.3l-1.2,3.3l-1.3-3.6c-0.1-0.1-0.1-0.2-0.1-0.2c0-0.3,0.5-0.3,0.8-0.3v-0.4c-0.4,0-1,0-1.4,0c-0.4,0-0.8,0-1.1,0
		v0.4c0.5,0,0.7,0,0.8,0.2c0.1,0.1,0.2,0.5,0.3,0.7l-1.1,3.1l-1.3-3.5c-0.1-0.2-0.1-0.2-0.1-0.2c0-0.3,0.5-0.3,0.8-0.3v-0.4
		c-0.4,0-1.1,0-1.4,0c-0.1,0-0.7,0-1.2,0v0.4c0.7,0,0.8,0,1,0.5l1.7,4.6c0.1,0.2,0.1,0.3,0.3,0.3c0.2,0,0.2-0.1,0.3-0.2l1.3-3.7
		l1.3,3.7c0.1,0.2,0.1,0.2,0.3,0.2c0.2,0,0.2-0.1,0.2-0.2L209.3,63.5"/>
	<path class="st15" d="M211.7,64.9h3.6c0.3,0,0.3,0,0.3-0.3c0-1.3-0.7-2.5-2.3-2.5c-1.5,0-2.7,1.3-2.7,3c0,1.7,1.4,3,2.8,3
		c1.6,0,2.2-1.4,2.2-1.7c0-0.1-0.1-0.2-0.2-0.2c-0.1,0-0.2,0.1-0.2,0.2c-0.5,1.3-1.6,1.3-1.8,1.3c-0.6,0-1.2-0.4-1.5-0.9
		C211.7,66.2,211.7,65.3,211.7,64.9 M211.7,64.6c0.1-1.9,1.2-2.3,1.6-2.3c1.3,0,1.5,1.8,1.5,2.3H211.7z"/>
	<path class="st15" d="M218.3,59.9c0-0.4-0.3-0.7-0.7-0.7c-0.4,0-0.7,0.3-0.7,0.7s0.3,0.7,0.7,0.7C218,60.5,218.3,60.3,218.3,59.9
		 M218.2,62.1l-1.8,0.2v0.4c0.8,0,1,0.1,1,0.7v3.5c0,0.6-0.2,0.6-1,0.6v0.4c0.4,0,1.1,0,1.4,0c0.5,0,0.9,0,1.4,0v-0.4
		c-0.9,0-0.9-0.1-0.9-0.6V62.1z"/>
	<path class="st15" d="M222.8,70.2c-1.3,0-2.2-0.7-2.2-1.3c0-0.6,0.5-1.1,1.1-1.1h0.8c1.1,0,2.6,0,2.6,1.1
		C225,69.6,224.1,70.2,222.8,70.2 M220.9,66.1c0-0.1,0-0.3,0.2-0.6c0.5,0.4,1,0.4,1.3,0.4c1.2,0,2.1-0.9,2.1-1.9
		c0-0.5-0.2-1-0.5-1.3c0.5-0.5,0.9-0.5,1.2-0.5c0,0,0.1,0,0.1,0c-0.1,0.1-0.2,0.2-0.2,0.4c0,0.2,0.2,0.4,0.4,0.4
		c0.1,0,0.4-0.1,0.4-0.4c0-0.2-0.2-0.6-0.7-0.6c-0.2,0-0.8,0.1-1.4,0.6c-0.6-0.4-1.1-0.5-1.4-0.5c-1.2,0-2.1,0.9-2.1,1.9
		c0,0.6,0.3,1.1,0.6,1.3c-0.2,0.2-0.4,0.6-0.4,1.1c0,0.4,0.2,0.9,0.6,1.2c-0.8,0.2-1.2,0.8-1.2,1.3c0,0.9,1.3,1.7,2.9,1.7
		c1.5,0,2.9-0.7,2.9-1.7c0-0.5-0.2-1.1-0.9-1.5c-0.7-0.4-1.4-0.4-2.2-0.4c-0.3,0-0.9,0-1,0C221.2,67,220.9,66.6,220.9,66.1z
		 M222.4,65.6c-1.1,0-1.1-1.3-1.1-1.6c0-0.3,0-0.8,0.2-1.1c0.1-0.2,0.4-0.5,0.9-0.5c1.1,0,1.1,1.3,1.1,1.6c0,0.3,0,0.7-0.2,1.1
		C223.3,65.3,223,65.6,222.4,65.6z"/>
	<path class="st15" d="M227.5,66.9c0,0.6-0.2,0.6-1,0.6v0.4c0.5,0,1.1,0,1.5,0c0.3,0,1,0,1.4,0v-0.4c-0.9,0-1,0-1-0.6v-2.4
		c0-1.3,0.9-2.1,1.8-2.1c0.8,0,1,0.7,1,1.4v3c0,0.6-0.1,0.6-1,0.6v0.4c0.5,0,1.1,0,1.5,0c0.3,0,1,0,1.5,0v-0.4c-0.7,0-1,0-1-0.4
		v-2.5c0-1.1,0-1.5-0.4-2c-0.2-0.2-0.6-0.5-1.4-0.5c-1.1,0-1.7,0.8-1.9,1.3v-4.5l-1.9,0.1v0.4c0.9,0,1,0.1,1,0.7V66.9"/>
	<path class="st15" d="M235.1,62.7h1.8v-0.4h-1.8v-2.4h-0.3c0,1.1-0.4,2.4-1.7,2.5v0.3h1.1v3.6c0,1.6,1.2,1.7,1.7,1.7
		c0.9,0,1.3-0.9,1.3-1.7v-0.7h-0.3v0.7c0,1-0.4,1.4-0.9,1.4c-0.9,0-0.9-1.2-0.9-1.4V62.7"/>
	<path class="st15" d="M244.6,58.9l-1.9,0.1v0.4c0.9,0,1,0.1,1,0.7v6.8c0,0.6-0.1,0.6-1,0.6v0.4c0.4,0,1.1,0,1.5,0c0.3,0,1,0,1.4,0
		v-0.4c-0.9,0-1,0-1-0.6V58.9"/>
	<path class="st15" d="M249.1,67.7c-0.6,0-1.1-0.3-1.5-0.9c-0.3-0.6-0.3-1.4-0.3-1.8c0-0.5,0-1.2,0.3-1.8c0.4-0.6,1-0.9,1.5-0.9
		c0.6,0,1.1,0.3,1.5,0.9c0.3,0.6,0.3,1.3,0.3,1.8c0,0.5,0,1.2-0.3,1.7C250.3,67.3,249.7,67.7,249.1,67.7 M252,65.1
		c0-1.7-1.3-3-2.9-3c-1.6,0-2.9,1.4-2.9,3c0,1.7,1.4,2.9,2.9,2.9C250.7,68,252,66.7,252,65.1z"/>
	<path class="st15" d="M255,65.3c0.3,0.1,1.4,0.3,1.4,1.2c0,0.7-0.5,1.2-1.5,1.2c-1.1,0-1.6-0.7-1.8-1.9c-0.1-0.2-0.1-0.2-0.2-0.2
		c-0.2,0-0.2,0.1-0.2,0.3v1.7c0,0.2,0,0.3,0.1,0.3c0.1,0,0.1,0,0.3-0.2c0,0,0-0.1,0.3-0.3c0.6,0.6,1.1,0.6,1.4,0.6
		c1.5,0,2.1-0.9,2.1-1.8c0-0.7-0.4-1.1-0.5-1.3c-0.4-0.4-0.9-0.5-1.5-0.6c-0.7-0.1-1.6-0.3-1.6-1.1c0-0.5,0.3-1,1.5-1
		c1.4,0,1.5,1.2,1.5,1.6c0,0.1,0.1,0.1,0.2,0.1c0.2,0,0.2-0.1,0.2-0.3v-1.3c0-0.2,0-0.3-0.1-0.3c-0.1,0-0.1,0-0.3,0.1
		c-0.1,0.1-0.2,0.2-0.2,0.2c-0.5-0.3-1-0.3-1.2-0.3c-1.6,0-2.1,0.9-2.1,1.6c0,0.5,0.2,0.8,0.6,1.1C253.7,65.1,254.1,65.2,255,65.3"
		/>
	<path class="st15" d="M260.2,65.3c0.3,0.1,1.3,0.3,1.3,1.2c0,0.7-0.5,1.2-1.5,1.2c-1.1,0-1.5-0.7-1.8-1.9c0-0.2-0.1-0.2-0.2-0.2
		c-0.2,0-0.2,0.1-0.2,0.3v1.7c0,0.2,0,0.3,0.2,0.3c0.1,0,0.1,0,0.3-0.2c0,0,0-0.1,0.3-0.3c0.6,0.6,1.1,0.6,1.4,0.6
		c1.5,0,2.1-0.9,2.1-1.8c0-0.7-0.4-1.1-0.6-1.3c-0.4-0.4-0.9-0.5-1.5-0.6c-0.7-0.1-1.6-0.3-1.6-1.1c0-0.5,0.3-1,1.4-1
		c1.4,0,1.5,1.2,1.5,1.6c0,0.1,0.1,0.1,0.2,0.1c0.2,0,0.2-0.1,0.2-0.3v-1.3c0-0.2,0-0.3-0.2-0.3c-0.1,0-0.1,0-0.3,0.1
		c0,0.1-0.2,0.2-0.2,0.2c-0.5-0.3-1-0.3-1.2-0.3c-1.6,0-2.1,0.9-2.1,1.6c0,0.5,0.2,0.8,0.6,1.1C258.9,65.1,259.2,65.2,260.2,65.3"/>
</g>
<g>
	<line class="st16" x1="200.5" y1="72.2" x2="181.5" y2="122.4"/>
	<g>
		<line class="st3" x1="200.5" y1="72.2" x2="182.6" y2="119.6"/>
		<g>
			<path d="M181.5,122.4c0-1.5-0.2-3.5-0.7-4.8l1.9,1.6l2.5,0C184,120,182.5,121.3,181.5,122.4z"/>
		</g>
	</g>
</g>
<g>
	<line class="st16" x1="133.5" y1="56.5" x2="114.5" y2="122.4"/>
	<g>
		<line class="st3" x1="133.5" y1="56.5" x2="115.4" y2="119.5"/>
		<g>
			<path d="M114.5,122.4c-0.1-1.5-0.5-3.5-1.1-4.8l2,1.5l2.5-0.2C116.8,119.8,115.4,121.2,114.5,122.4z"/>
		</g>
	</g>
</g>
<rect x="34.6" y="113.5" class="st17" width="141" height="18.2"/>
<g>
	<defs>
		<rect id="SVGID_23_" x="84.2" y="37.5" width="126" height="9.7"/>
	</defs>
	<clipPath id="SVGID_24_">
		<use xlink:href="#SVGID_23_"  style="overflow:visible;"/>
	</clipPath>
	<path class="st18" d="M86.3,42.6v-1.4l-1.8,0.1v0.4c0.9,0,1,0.1,1,0.7v3.5c0,0.6-0.1,0.6-1,0.6v0.4c0.5,0,1.1,0,1.5,0
		c0.5,0,1.1,0,1.6,0v-0.4h-0.3c-1,0-1-0.1-1-0.6v-2c0-1.3,0.6-2.4,1.5-2.4c0.1,0,0.1,0,0.1,0c0,0-0.3,0.2-0.3,0.5
		c0,0.4,0.3,0.6,0.6,0.6c0.2,0,0.6-0.2,0.6-0.6c0-0.4-0.4-0.8-1-0.8C86.9,41.2,86.5,42.1,86.3,42.6"/>
	<path class="st18" d="M90.5,43.9h3.6c0.3,0,0.3,0,0.3-0.3c0-1.3-0.7-2.6-2.3-2.6c-1.5,0-2.7,1.3-2.7,3c0,1.8,1.4,3,2.8,3
		c1.6,0,2.2-1.4,2.2-1.7c0-0.1-0.1-0.1-0.2-0.1c-0.1,0-0.1,0.1-0.2,0.2c-0.5,1.4-1.6,1.4-1.8,1.4c-0.6,0-1.2-0.4-1.5-0.9
		C90.5,45.3,90.5,44.4,90.5,43.9 M90.6,43.7c0.1-1.9,1.2-2.3,1.6-2.3c1.3,0,1.5,1.8,1.5,2.3H90.6z"/>
	<path class="st18" d="M100.3,42.6c0.1-0.3,0.3-0.9,1.2-0.9v-0.4c-0.3,0-0.7,0.1-1,0.1c-0.3,0-0.9,0-1.1-0.1v0.4
		c0.5,0,0.6,0.3,0.6,0.6c0,0.1,0,0.2-0.1,0.3l-1.3,3.3l-1.4-3.6c-0.1-0.2-0.1-0.2-0.1-0.2c0-0.3,0.5-0.3,0.7-0.3v-0.4
		c-0.4,0-1.1,0.1-1.4,0.1c-0.3,0-0.9,0-1.3-0.1v0.4c0.8,0,0.9,0.1,1,0.5l1.9,4.6c0.1,0.2,0.1,0.2,0.3,0.2c0.2,0,0.2-0.1,0.3-0.2
		L100.3,42.6"/>
	<path class="st18" d="M102.8,43.9h3.6c0.3,0,0.3,0,0.3-0.3c0-1.3-0.7-2.6-2.3-2.6c-1.5,0-2.7,1.3-2.7,3c0,1.8,1.4,3,2.8,3
		c1.6,0,2.2-1.4,2.2-1.7c0-0.1-0.1-0.1-0.2-0.1c-0.1,0-0.1,0.1-0.2,0.2c-0.5,1.4-1.6,1.4-1.8,1.4c-0.7,0-1.2-0.4-1.5-0.9
		C102.8,45.3,102.8,44.4,102.8,43.9 M102.9,43.7c0.1-1.9,1.1-2.3,1.6-2.3c1.3,0,1.5,1.8,1.5,2.3H102.9z"/>
	<path class="st18" d="M108.5,42.5v3.5c0,0.6-0.2,0.6-1,0.6v0.4c0.5,0,1.1,0,1.5,0c0.3,0,1,0,1.4,0v-0.4c-0.9,0-1,0-1-0.6v-2.4
		c0-1.4,0.9-2.1,1.8-2.1c0.8,0,1,0.7,1,1.4v3c0,0.6-0.1,0.6-1,0.6v0.4c0.5,0,1.1,0,1.5,0c0.3,0,1,0,1.5,0v-0.4c-0.7,0-1,0-1-0.4
		v-2.5c0-1.1,0-1.5-0.4-2c-0.2-0.2-0.6-0.5-1.4-0.5c-1,0-1.6,0.6-1.9,1.4v-1.4l-1.8,0.1v0.4C108.4,41.7,108.5,41.8,108.5,42.5"/>
	<path class="st18" d="M119.1,45.9v1.2l1.9-0.2v-0.4c-0.9,0-1-0.1-1-0.7v-4.6l-1.9,0.1v0.4c0.9,0,1,0.1,1,0.7v2.3c0,1.1-0.6,2-1.6,2
		c-1.1,0-1.1-0.6-1.1-1.3v-4.3l-1.9,0.1v0.4c1,0,1,0.1,1,1.2v1.9c0,1,0,2.2,2,2.2C118.1,47.1,118.7,46.7,119.1,45.9"/>
	<path class="st18" d="M122.6,43.9h3.6c0.3,0,0.3,0,0.3-0.3c0-1.3-0.7-2.6-2.3-2.6c-1.5,0-2.7,1.3-2.7,3c0,1.8,1.4,3,2.9,3
		c1.6,0,2.2-1.4,2.2-1.7c0-0.1-0.1-0.1-0.2-0.1c-0.1,0-0.2,0.1-0.2,0.2c-0.5,1.4-1.6,1.4-1.8,1.4c-0.6,0-1.1-0.4-1.5-0.9
		C122.6,45.3,122.6,44.4,122.6,43.9 M122.6,43.7c0.1-1.9,1.2-2.3,1.6-2.3c1.3,0,1.5,1.8,1.5,2.3H122.6z"/>
	<path class="st18" d="M133.5,41.3v-1.5c0-1.1,0.6-1.8,1.2-1.8c0.1,0,0.2,0,0.4,0.1c-0.1,0.1-0.4,0.2-0.4,0.5c0,0.3,0.2,0.6,0.6,0.6
		c0.4,0,0.6-0.3,0.6-0.6c0-0.5-0.5-0.9-1.2-0.9c-0.9,0-2,0.7-2,2.1v1.5h-1v0.4h1v4.2c0,0.6-0.2,0.6-1,0.6v0.4c0.5,0,1.1,0,1.5,0
		c0.5,0,1.1,0,1.7,0v-0.4h-0.3c-1,0-1-0.1-1-0.6v-4.2h1.5v-0.4H133.5"/>
	<path class="st18" d="M138.4,46.8c-0.6,0-1.1-0.3-1.5-0.9c-0.3-0.6-0.3-1.4-0.3-1.8c0-0.5,0-1.2,0.3-1.8c0.3-0.6,1-0.9,1.5-0.9
		c0.6,0,1.1,0.3,1.5,0.8c0.3,0.6,0.3,1.3,0.3,1.8c0,0.5,0,1.2-0.3,1.8C139.7,46.4,139.1,46.8,138.4,46.8 M141.3,44.2
		c0-1.7-1.3-3-2.9-3c-1.6,0-2.9,1.4-2.9,3c0,1.7,1.4,2.9,2.9,2.9C140,47.1,141.3,45.8,141.3,44.2z"/>
	<path class="st18" d="M143.9,42.6v-1.4l-1.8,0.1v0.4c0.9,0,1,0.1,1,0.7v3.5c0,0.6-0.1,0.6-1,0.6v0.4c0.5,0,1.1,0,1.5,0
		c0.5,0,1.1,0,1.7,0v-0.4h-0.3c-1,0-1-0.1-1-0.6v-2c0-1.3,0.6-2.4,1.5-2.4c0.1,0,0.1,0,0.1,0c0,0-0.3,0.2-0.3,0.5
		c0,0.4,0.3,0.6,0.6,0.6c0.2,0,0.6-0.2,0.6-0.6c0-0.4-0.4-0.8-1-0.8C144.5,41.2,144.1,42.1,143.9,42.6"/>
	<path class="st18" d="M155.4,41.7c0.6,0,0.7,0.2,0.7,0.7v3.5c0,0.6-0.1,0.6-1,0.6v0.4c0.4,0,1.1,0,1.4,0c0.3,0,1,0,1.5,0v-0.4
		c-0.9,0-1,0-1-0.6v-4.8l-1.6,0.1c-0.2,0-0.2,0-0.2,0s-0.1,0-0.2,0h-1.5v-1.5c0-1.3,1.1-1.8,1.9-1.8c0.4,0,0.9,0.1,1.1,0.4
		c-0.5,0-0.6,0.4-0.6,0.6c0,0.4,0.3,0.6,0.6,0.6c0.3,0,0.6-0.2,0.6-0.6c0-0.8-0.7-1.3-1.7-1.3c-1.2,0-2.8,0.6-2.8,2.1v1.5h-1v0.4h1
		v4.2c0,0.6-0.1,0.6-1,0.6v0.4c0.4,0,1.1,0,1.4,0c0.3,0,1,0,1.4,0v-0.4c-0.9,0-1,0-1-0.6v-4.2H155.4"/>
	<path class="st18" d="M162,43.9c0.4-0.5,0.9-1.1,1.2-1.5c0.4-0.5,0.9-0.7,1.5-0.7v-0.4c-0.3,0-0.7,0.1-1.1,0.1
		c-0.4,0-1.1,0-1.3-0.1v0.4c0.3,0,0.4,0.2,0.4,0.4c0,0.2-0.1,0.4-0.2,0.5l-0.8,1l-1-1.3c-0.1-0.1-0.1-0.2-0.1-0.2
		c0-0.2,0.2-0.3,0.5-0.3v-0.4c-0.3,0-1.2,0.1-1.4,0.1c-0.3,0-0.9,0-1.2-0.1v0.4c0.9,0,0.9,0,1.5,0.8l1.3,1.7l-1.2,1.5
		c-0.6,0.7-1.4,0.8-1.7,0.8v0.4c0.3,0,0.7,0,1.1,0c0.4,0,0.9,0,1.3,0v-0.4c-0.3,0-0.4-0.2-0.4-0.4c0-0.3,0.4-0.7,1.2-1.7l1,1.3
		c0.1,0.1,0.3,0.3,0.3,0.4c0,0.1-0.1,0.3-0.5,0.3v0.4c0.4,0,1.1,0,1.4,0c0.3,0,0.9,0,1.3,0v-0.4c-0.7,0-1,0-1.3-0.4L162,43.9"/>
	<path class="st18" d="M166.5,43.9h3.6c0.3,0,0.3,0,0.3-0.3c0-1.3-0.7-2.6-2.3-2.6c-1.5,0-2.7,1.3-2.7,3c0,1.8,1.4,3,2.8,3
		c1.6,0,2.2-1.4,2.2-1.7c0-0.1-0.1-0.1-0.2-0.1c-0.1,0-0.1,0.1-0.2,0.2c-0.5,1.4-1.6,1.4-1.8,1.4c-0.6,0-1.2-0.4-1.5-0.9
		C166.5,45.3,166.5,44.4,166.5,43.9 M166.6,43.7c0.1-1.9,1.2-2.3,1.6-2.3c1.4,0,1.5,1.8,1.5,2.3H166.6z"/>
	<path class="st18" d="M175.7,42.7v2.7c0,0.2,0,0.3-0.2,0.5c-0.4,0.6-1,0.9-1.5,0.9c-0.6,0-1.1-0.3-1.4-0.8
		c-0.3-0.5-0.4-1.3-0.4-1.8c0-0.5,0-1.3,0.4-1.8c0.3-0.4,0.8-0.8,1.5-0.8c0.5,0,1,0.2,1.4,0.8C175.7,42.5,175.7,42.5,175.7,42.7
		 M175.7,46.2v0.9l1.9-0.2v-0.4c-0.9,0-1-0.1-1-0.7v-7.9l-1.9,0.1v0.4c0.9,0,1,0.1,1,0.7V42c-0.4-0.5-0.9-0.8-1.6-0.8
		c-1.5,0-2.9,1.3-2.9,3c0,1.7,1.3,2.9,2.7,2.9C174.8,47.1,175.4,46.6,175.7,46.2z"/>
	<path class="st18" d="M183.9,44.1c0-2.1,1.1-2.7,1.8-2.7c0.1,0,0.9,0,1.4,0.5c-0.5,0.1-0.6,0.4-0.6,0.6c0,0.3,0.2,0.6,0.6,0.6
		c0.3,0,0.6-0.2,0.6-0.6c0-0.9-1-1.4-2-1.4c-1.6,0-2.8,1.4-2.8,3c0,1.7,1.3,3,2.8,3c1.8,0,2.2-1.6,2.2-1.7c0-0.1-0.1-0.1-0.2-0.1
		c-0.1,0-0.1,0-0.2,0.1c-0.4,1.2-1.2,1.4-1.7,1.4C185.1,46.8,183.9,46.2,183.9,44.1"/>
	<path class="st18" d="M191.3,46.8c-0.6,0-1.1-0.3-1.5-0.9c-0.3-0.6-0.3-1.4-0.3-1.8c0-0.5,0-1.2,0.3-1.8c0.3-0.6,1-0.9,1.5-0.9
		c0.6,0,1.1,0.3,1.5,0.8c0.3,0.6,0.3,1.3,0.3,1.8c0,0.5,0,1.2-0.3,1.8C192.6,46.4,192,46.8,191.3,46.8 M194.2,44.2
		c0-1.7-1.3-3-2.9-3c-1.6,0-2.9,1.4-2.9,3c0,1.7,1.3,2.9,2.8,2.9C192.9,47.1,194.2,45.8,194.2,44.2z"/>
	<path class="st18" d="M197.3,44.4c0.3,0.1,1.3,0.3,1.3,1.2c0,0.7-0.5,1.2-1.5,1.2c-1.1,0-1.5-0.7-1.8-1.8c0-0.2-0.1-0.2-0.2-0.2
		c-0.2,0-0.2,0.1-0.2,0.3v1.7c0,0.2,0,0.3,0.2,0.3c0.1,0,0.1,0,0.3-0.3c0,0,0-0.1,0.3-0.3c0.6,0.5,1.1,0.6,1.4,0.6
		c1.5,0,2.1-0.9,2.1-1.8c0-0.7-0.4-1.1-0.6-1.2c-0.4-0.4-0.9-0.5-1.5-0.6c-0.7-0.1-1.6-0.3-1.6-1.1c0-0.5,0.3-1,1.4-1
		c1.4,0,1.5,1.2,1.5,1.6c0,0.1,0.1,0.1,0.2,0.1c0.2,0,0.2-0.1,0.2-0.3v-1.3c0-0.2,0-0.3-0.2-0.3c-0.1,0-0.1,0-0.3,0.2
		c0,0.1-0.2,0.2-0.2,0.2c-0.5-0.4-1-0.4-1.2-0.4c-1.6,0-2.1,0.9-2.1,1.6c0,0.5,0.2,0.8,0.6,1.1C196,44.2,196.4,44.2,197.3,44.4"/>
	<path class="st18" d="M201.9,41.7h1.9v-0.4h-1.9v-2.4h-0.3c0,1.1-0.4,2.5-1.7,2.5v0.3h1.1v3.6c0,1.6,1.2,1.8,1.7,1.8
		c0.9,0,1.3-0.9,1.3-1.8v-0.7h-0.3v0.7c0,1-0.4,1.5-0.9,1.5c-0.9,0-0.9-1.2-0.9-1.4V41.7"/>
	<path class="st18" d="M207.4,44.4c0.3,0.1,1.4,0.3,1.4,1.2c0,0.7-0.5,1.2-1.5,1.2c-1.1,0-1.5-0.7-1.8-1.8c-0.1-0.2-0.1-0.2-0.2-0.2
		c-0.2,0-0.2,0.1-0.2,0.3v1.7c0,0.2,0,0.3,0.2,0.3c0.1,0,0.1,0,0.3-0.3c0,0,0-0.1,0.3-0.3c0.6,0.5,1.1,0.6,1.4,0.6
		c1.5,0,2.1-0.9,2.1-1.8c0-0.7-0.4-1.1-0.5-1.2c-0.5-0.4-1-0.5-1.5-0.6c-0.7-0.1-1.6-0.3-1.6-1.1c0-0.5,0.3-1,1.5-1
		c1.4,0,1.5,1.2,1.5,1.6c0,0.1,0.1,0.1,0.1,0.1c0.2,0,0.2-0.1,0.2-0.3v-1.3c0-0.2,0-0.3-0.2-0.3c-0.1,0-0.1,0-0.2,0.2
		c-0.1,0.1-0.2,0.2-0.2,0.2c-0.5-0.4-1-0.4-1.2-0.4c-1.6,0-2.1,0.9-2.1,1.6c0,0.5,0.2,0.8,0.6,1.1C206.1,44.2,206.5,44.2,207.4,44.4
		"/>
</g>
</svg>
