<?xml version="1.0" encoding="utf-8"?>
<!-- Generator: Adobe Illustrator 21.0.1, SVG Export Plug-In . SVG Version: 6.00 Build 0)  -->
<svg version="1.1" id="Layer_1" xmlns="http://www.w3.org/2000/svg" xmlns:xlink="http://www.w3.org/1999/xlink" x="0px" y="0px"
	 viewBox="0 0 321 227" style="enable-background:new 0 0 321 227;" xml:space="preserve">
<style type="text/css">
	.st0{fill:none;stroke:#000000;stroke-miterlimit:10;}
	.st1{clip-path:url(#SVGID_2_);}
	.st2{clip-path:url(#SVGID_4_);}
	.st3{clip-path:url(#SVGID_6_);}
	.st4{fill:none;stroke:#000000;stroke-miterlimit:10;stroke-dasharray:2.0196,2.0196;}
	.st5{fill:none;stroke:#000000;stroke-miterlimit:10;stroke-dasharray:2,2;}
	.st6{fill:none;stroke:#000000;stroke-miterlimit:10;stroke-dasharray:2.0098,2.0098;}
	.st7{fill:none;stroke:#000000;stroke-miterlimit:10;stroke-dasharray:2.0294,2.0294;}
	.st8{opacity:0.33;fill:#ED1E79;enable-background:new    ;}
	.st9{clip-path:url(#SVGID_8_);}
	.st10{clip-path:url(#SVGID_10_);}
	.st11{clip-path:url(#SVGID_12_);}
	.st12{clip-path:url(#SVGID_14_);}
	.st13{clip-path:url(#SVGID_16_);}
	.st14{clip-path:url(#SVGID_18_);}
	.st15{clip-path:url(#SVGID_20_);}
	.st16{clip-path:url(#SVGID_22_);}
	.st17{clip-path:url(#SVGID_24_);}
	.st18{clip-path:url(#SVGID_26_);}
	.st19{clip-path:url(#SVGID_28_);}
	.st20{clip-path:url(#SVGID_30_);}
	.st21{clip-path:url(#SVGID_32_);}
	.st22{clip-path:url(#SVGID_34_);}
	.st23{clip-path:url(#SVGID_36_);}
	.st24{clip-path:url(#SVGID_38_);}
	.st25{clip-path:url(#SVGID_40_);}
	.st26{clip-path:url(#SVGID_42_);}
	.st27{clip-path:url(#SVGID_44_);}
	.st28{clip-path:url(#SVGID_46_);}
	.st29{clip-path:url(#SVGID_48_);}
	.st30{clip-path:url(#SVGID_50_);}
	.st31{clip-path:url(#SVGID_52_);}
	.st32{clip-path:url(#SVGID_54_);}
	.st33{fill:none;}
	.st34{clip-path:url(#SVGID_56_);}
</style>
<polyline class="st0" points="49.5,20.5 49.5,202.5 292,202.5 "/>
<g>
	<g>
		<g>
			<g>
				<defs>
					<rect id="SVGID_1_" x="35.3" y="20.5" width="5.8" height="11.9"/>
				</defs>
				<clipPath id="SVGID_2_">
					<use xlink:href="#SVGID_1_"  style="overflow:visible;"/>
				</clipPath>
				<path class="st1" d="M38,25.5c-1.7-0.4-1.8-1.6-1.8-1.8c0-0.9,0.7-1.7,1.8-1.8V25.5 M38,26.7v4.1c-1.2-0.1-1.9-0.8-2.1-1.6
					c0.1,0,0.2,0,0.2,0c0.4,0,0.6-0.3,0.6-0.6c0-0.4-0.3-0.6-0.6-0.6c-0.1,0-0.7,0-0.7,0.7c0,1.3,0.7,2.5,2.5,2.6v0.6h0.5v-0.6
					c1.4-0.1,2.5-1.4,2.5-2.8c0-1.1-0.6-1.9-0.8-2c-0.6-0.6-1-0.7-1.7-0.9v-3.8c1.2,0.1,1.8,0.7,2.1,1.4c-0.1,0-0.1,0-0.2,0
					c-0.4,0-0.6,0.2-0.6,0.6s0.3,0.6,0.6,0.6c0,0,0.6,0,0.6-0.7c0-1.4-0.9-2.4-2.5-2.4v-0.6H38v0.6c-1.5,0.2-2.5,1.4-2.5,2.7
					c0,1,0.5,1.6,0.8,1.9C36.8,26.4,37.3,26.5,38,26.7z M38.4,26.8c1.7,0.3,1.8,1.7,1.8,2c0,0.9-0.7,1.9-1.8,2V26.8z"/>
			</g>
		</g>
	</g>
</g>
<g>
	<g>
		<g>
			<g>
				<defs>
					<rect id="SVGID_3_" x="283" y="208" width="6" height="10"/>
				</defs>
				<clipPath id="SVGID_4_">
					<use xlink:href="#SVGID_3_"  style="overflow:visible;"/>
				</clipPath>
				<path class="st2" d="M284.9,214.8c-0.9,0-0.9-1.1-0.9-1.3c0-0.7,0.4-2.2,0.6-2.7c0.4-1,1.2-1.6,1.7-1.6c0.9,0,1.1,1.1,1.1,1.2
					c0,0.1-0.7,3.1-0.8,3.2C286.5,213.9,285.7,214.8,284.9,214.8 M288.8,209c0-0.1,0-0.1-0.1-0.1c-0.2,0-0.7,0.6-0.9,1
					c-0.3-0.7-0.9-1-1.3-1c-1.7,0-3.4,2.1-3.4,4.1c0,1.4,0.8,2.2,1.8,2.2c0.6,0,1.1-0.3,1.7-0.8c-0.1,0.5-0.6,2.4-0.6,2.5
					c-0.1,0.4-0.2,0.5-1,0.5c-0.2,0-0.3,0-0.3,0.3c0,0,0,0.2,0.2,0.2c0.5,0,0.9-0.1,1.4-0.1s1,0.1,1.4,0.1c0.1,0,0.3,0,0.3-0.3
					c0-0.2-0.1-0.2-0.4-0.2c-0.7,0-0.7-0.1-0.7-0.2c0-0.1,0-0.2,0.1-0.3L288.8,209z"/>
			</g>
		</g>
	</g>
</g>
<line class="st0" x1="49.5" y1="75.5" x2="238.5" y2="202.5"/>
<line class="st0" x1="49.5" y1="25.5" x2="199.5" y2="129.5"/>
<line class="st0" x1="49.5" y1="106.5" x2="205.5" y2="202.5"/>
<g>
	<defs>
		<rect id="SVGID_5_" x="38" y="175.7" width="5.4" height="7"/>
	</defs>
	<clipPath id="SVGID_6_">
		<use xlink:href="#SVGID_5_"  style="overflow:visible;"/>
	</clipPath>
	<path class="st3" d="M42.7,177.3c-0.2,0-0.4,0-0.6,0.2c-0.2,0.2-0.2,0.4-0.2,0.5c0,0.3,0.2,0.5,0.5,0.5c0.4,0,0.7-0.3,0.7-0.8
		c0-0.6-0.6-1.1-1.5-1.1c-1.8,0-3.5,1.8-3.5,3.7c0,1.2,0.7,2.2,2.1,2.2c1.8,0,2.9-1.4,2.9-1.5c0-0.1-0.1-0.2-0.2-0.2
		c-0.1,0-0.1,0-0.2,0.1c-1,1.3-2.4,1.3-2.6,1.3c-0.8,0-1.2-0.6-1.2-1.4c0-0.5,0.2-1.8,0.7-2.6c0.4-0.7,1.1-1.3,1.8-1.3
		C42,176.7,42.5,176.9,42.7,177.3"/>
</g>
<line class="st0" x1="49" y1="178.5" x2="261" y2="178.5"/>
<g>
	<g>
		<line class="st0" x1="49" y1="145.5" x2="50" y2="145.5"/>
		<line class="st4" x1="52" y1="145.5" x2="152" y2="145.5"/>
		<line class="st0" x1="153" y1="145.5" x2="154" y2="145.5"/>
	</g>
</g>
<g>
	<g>
		<line class="st0" x1="49" y1="170.5" x2="50" y2="170.5"/>
		<line class="st5" x1="52" y1="170.5" x2="151" y2="170.5"/>
		<line class="st0" x1="152" y1="170.5" x2="153" y2="170.5"/>
	</g>
</g>
<g>
	<g>
		<line class="st0" x1="49" y1="96.5" x2="50" y2="96.5"/>
		<line class="st6" x1="52" y1="96.5" x2="151.5" y2="96.5"/>
		<line class="st0" x1="152.5" y1="96.5" x2="153.5" y2="96.5"/>
	</g>
</g>
<g>
	<g>
		<line class="st0" x1="153" y1="97" x2="153" y2="98"/>
		<line class="st7" x1="153" y1="100" x2="153" y2="200.5"/>
		<line class="st0" x1="153" y1="201.5" x2="153" y2="202.5"/>
	</g>
</g>
<rect x="49" y="145.5" class="st8" width="104" height="33.5"/>
<rect x="49" y="170" class="st8" width="104" height="9"/>
<g>
	<g>
		<defs>
			<rect id="SVGID_7_" x="175.2" y="136.5" width="126" height="9.7"/>
		</defs>
		<clipPath id="SVGID_8_">
			<use xlink:href="#SVGID_7_"  style="overflow:visible;"/>
		</clipPath>
		<path class="st9" d="M177.3,141.6v-1.4l-1.8,0.1v0.4c0.9,0,1,0.1,1,0.7v3.5c0,0.6-0.1,0.6-1,0.6v0.4c0.5,0,1.1,0,1.5,0
			c0.5,0,1.1,0,1.6,0v-0.4h-0.3c-1,0-1-0.1-1-0.6v-2c0-1.3,0.6-2.4,1.5-2.4c0.1,0,0.1,0,0.1,0s-0.3,0.2-0.3,0.5
			c0,0.4,0.3,0.6,0.6,0.6c0.2,0,0.6-0.2,0.6-0.6c0-0.4-0.4-0.8-1-0.8C177.9,140.2,177.5,141.1,177.3,141.6"/>
	</g>
	<g>
		<defs>
			<rect id="SVGID_9_" x="175.2" y="136.5" width="126" height="9.7"/>
		</defs>
		<clipPath id="SVGID_10_">
			<use xlink:href="#SVGID_9_"  style="overflow:visible;"/>
		</clipPath>
		<path class="st10" d="M181.5,142.9h3.6c0.3,0,0.3,0,0.3-0.3c0-1.3-0.7-2.6-2.3-2.6c-1.5,0-2.7,1.3-2.7,3c0,1.8,1.4,3,2.8,3
			c1.6,0,2.2-1.4,2.2-1.7c0-0.1-0.1-0.1-0.2-0.1c-0.1,0-0.1,0.1-0.2,0.2c-0.5,1.4-1.6,1.4-1.8,1.4c-0.6,0-1.2-0.4-1.5-0.9
			C181.5,144.3,181.5,143.4,181.5,142.9 M181.6,142.7c0.1-1.9,1.2-2.3,1.6-2.3c1.3,0,1.5,1.8,1.5,2.3H181.6z"/>
	</g>
	<g>
		<defs>
			<rect id="SVGID_11_" x="175.2" y="136.5" width="126" height="9.7"/>
		</defs>
		<clipPath id="SVGID_12_">
			<use xlink:href="#SVGID_11_"  style="overflow:visible;"/>
		</clipPath>
		<path class="st11" d="M191.3,141.6c0.1-0.3,0.3-0.9,1.2-0.9v-0.4c-0.3,0-0.7,0.1-1,0.1s-0.9,0-1.1-0.1v0.4c0.5,0,0.6,0.3,0.6,0.6
			c0,0.1,0,0.2-0.1,0.3l-1.3,3.3l-1.4-3.6c-0.1-0.2-0.1-0.2-0.1-0.2c0-0.3,0.5-0.3,0.7-0.3v-0.4c-0.4,0-1.1,0.1-1.4,0.1
			s-0.9,0-1.3-0.1v0.4c0.8,0,0.9,0.1,1,0.5l1.9,4.6c0.1,0.2,0.1,0.2,0.3,0.2c0.2,0,0.2-0.1,0.3-0.2L191.3,141.6"/>
	</g>
	<g>
		<defs>
			<rect id="SVGID_13_" x="175.2" y="136.5" width="126" height="9.7"/>
		</defs>
		<clipPath id="SVGID_14_">
			<use xlink:href="#SVGID_13_"  style="overflow:visible;"/>
		</clipPath>
		<path class="st12" d="M193.8,142.9h3.6c0.3,0,0.3,0,0.3-0.3c0-1.3-0.7-2.6-2.3-2.6c-1.5,0-2.7,1.3-2.7,3c0,1.8,1.4,3,2.8,3
			c1.6,0,2.2-1.4,2.2-1.7c0-0.1-0.1-0.1-0.2-0.1c-0.1,0-0.1,0.1-0.2,0.2c-0.5,1.4-1.6,1.4-1.8,1.4c-0.7,0-1.2-0.4-1.5-0.9
			C193.8,144.3,193.8,143.4,193.8,142.9 M193.9,142.7c0.1-1.9,1.1-2.3,1.6-2.3c1.3,0,1.5,1.8,1.5,2.3H193.9z"/>
	</g>
	<g>
		<defs>
			<rect id="SVGID_15_" x="175.2" y="136.5" width="126" height="9.7"/>
		</defs>
		<clipPath id="SVGID_16_">
			<use xlink:href="#SVGID_15_"  style="overflow:visible;"/>
		</clipPath>
		<path class="st13" d="M199.5,141.5v3.5c0,0.6-0.2,0.6-1,0.6v0.4c0.5,0,1.1,0,1.5,0c0.3,0,1,0,1.4,0v-0.4c-0.9,0-1,0-1-0.6v-2.4
			c0-1.4,0.9-2.1,1.8-2.1c0.8,0,1,0.7,1,1.4v3c0,0.6-0.1,0.6-1,0.6v0.4c0.5,0,1.1,0,1.5,0c0.3,0,1,0,1.5,0v-0.4c-0.7,0-1,0-1-0.4
			v-2.5c0-1.1,0-1.5-0.4-2c-0.2-0.2-0.6-0.5-1.4-0.5c-1,0-1.6,0.6-1.9,1.4v-1.4l-1.8,0.1v0.4C199.4,140.7,199.5,140.8,199.5,141.5"
			/>
	</g>
	<g>
		<defs>
			<rect id="SVGID_17_" x="175.2" y="136.5" width="126" height="9.7"/>
		</defs>
		<clipPath id="SVGID_18_">
			<use xlink:href="#SVGID_17_"  style="overflow:visible;"/>
		</clipPath>
		<path class="st14" d="M210.1,144.9v1.2l1.9-0.2v-0.4c-0.9,0-1-0.1-1-0.7v-4.6l-1.9,0.1v0.4c0.9,0,1,0.1,1,0.7v2.3
			c0,1.1-0.6,2-1.6,2c-1.1,0-1.1-0.6-1.1-1.3v-4.3l-1.9,0.1v0.4c1,0,1,0.1,1,1.2v1.9c0,1,0,2.2,2,2.2
			C209.1,146.1,209.7,145.7,210.1,144.9"/>
	</g>
	<g>
		<defs>
			<rect id="SVGID_19_" x="175.2" y="136.5" width="126" height="9.7"/>
		</defs>
		<clipPath id="SVGID_20_">
			<use xlink:href="#SVGID_19_"  style="overflow:visible;"/>
		</clipPath>
		<path class="st15" d="M213.6,142.9h3.6c0.3,0,0.3,0,0.3-0.3c0-1.3-0.7-2.6-2.3-2.6c-1.5,0-2.7,1.3-2.7,3c0,1.8,1.4,3,2.9,3
			c1.6,0,2.2-1.4,2.2-1.7c0-0.1-0.1-0.1-0.2-0.1c-0.1,0-0.2,0.1-0.2,0.2c-0.5,1.4-1.6,1.4-1.8,1.4c-0.6,0-1.1-0.4-1.5-0.9
			C213.6,144.3,213.6,143.4,213.6,142.9 M213.6,142.7c0.1-1.9,1.2-2.3,1.6-2.3c1.3,0,1.5,1.8,1.5,2.3H213.6z"/>
	</g>
	<g>
		<defs>
			<rect id="SVGID_21_" x="175.2" y="136.5" width="126" height="9.7"/>
		</defs>
		<clipPath id="SVGID_22_">
			<use xlink:href="#SVGID_21_"  style="overflow:visible;"/>
		</clipPath>
		<path class="st16" d="M224.5,140.3v-1.5c0-1.1,0.6-1.8,1.2-1.8c0.1,0,0.2,0,0.4,0.1c-0.1,0.1-0.4,0.2-0.4,0.5
			c0,0.3,0.2,0.6,0.6,0.6c0.4,0,0.6-0.3,0.6-0.6c0-0.5-0.5-0.9-1.2-0.9c-0.9,0-2,0.7-2,2.1v1.5h-1v0.4h1v4.2c0,0.6-0.2,0.6-1,0.6
			v0.4c0.5,0,1.1,0,1.5,0c0.5,0,1.1,0,1.7,0v-0.4h-0.3c-1,0-1-0.1-1-0.6v-4.2h1.5v-0.4L224.5,140.3"/>
	</g>
	<g>
		<defs>
			<rect id="SVGID_23_" x="175.2" y="136.5" width="126" height="9.7"/>
		</defs>
		<clipPath id="SVGID_24_">
			<use xlink:href="#SVGID_23_"  style="overflow:visible;"/>
		</clipPath>
		<path class="st17" d="M229.4,145.8c-0.6,0-1.1-0.3-1.5-0.9c-0.3-0.6-0.3-1.4-0.3-1.8c0-0.5,0-1.2,0.3-1.8c0.3-0.6,1-0.9,1.5-0.9
			c0.6,0,1.1,0.3,1.5,0.8c0.3,0.6,0.3,1.3,0.3,1.8s0,1.2-0.3,1.8C230.7,145.4,230.1,145.8,229.4,145.8 M232.3,143.2
			c0-1.7-1.3-3-2.9-3c-1.6,0-2.9,1.4-2.9,3c0,1.7,1.4,2.9,2.9,2.9C231,146.1,232.3,144.8,232.3,143.2z"/>
	</g>
	<g>
		<defs>
			<rect id="SVGID_25_" x="175.2" y="136.5" width="126" height="9.7"/>
		</defs>
		<clipPath id="SVGID_26_">
			<use xlink:href="#SVGID_25_"  style="overflow:visible;"/>
		</clipPath>
		<path class="st18" d="M234.9,141.6v-1.4l-1.8,0.1v0.4c0.9,0,1,0.1,1,0.7v3.5c0,0.6-0.1,0.6-1,0.6v0.4c0.5,0,1.1,0,1.5,0
			c0.5,0,1.1,0,1.7,0v-0.4H236c-1,0-1-0.1-1-0.6v-2c0-1.3,0.6-2.4,1.5-2.4c0.1,0,0.1,0,0.1,0s-0.3,0.2-0.3,0.5
			c0,0.4,0.3,0.6,0.6,0.6c0.2,0,0.6-0.2,0.6-0.6c0-0.4-0.4-0.8-1-0.8C235.5,140.2,235.1,141.1,234.9,141.6"/>
	</g>
	<g>
		<defs>
			<rect id="SVGID_27_" x="175.2" y="136.5" width="126" height="9.7"/>
		</defs>
		<clipPath id="SVGID_28_">
			<use xlink:href="#SVGID_27_"  style="overflow:visible;"/>
		</clipPath>
		<path class="st19" d="M246.4,140.7c0.6,0,0.7,0.2,0.7,0.7v3.5c0,0.6-0.1,0.6-1,0.6v0.4c0.4,0,1.1,0,1.4,0c0.3,0,1,0,1.5,0v-0.4
			c-0.9,0-1,0-1-0.6v-4.8l-1.6,0.1c-0.2,0-0.2,0-0.2,0s-0.1,0-0.2,0h-1.5v-1.5c0-1.3,1.1-1.8,1.9-1.8c0.4,0,0.9,0.1,1.1,0.4
			c-0.5,0-0.6,0.4-0.6,0.6c0,0.4,0.3,0.6,0.6,0.6s0.6-0.2,0.6-0.6c0-0.8-0.7-1.3-1.7-1.3c-1.2,0-2.8,0.6-2.8,2.1v1.5h-1v0.4h1v4.2
			c0,0.6-0.1,0.6-1,0.6v0.4c0.4,0,1.1,0,1.4,0c0.3,0,1,0,1.4,0v-0.4c-0.9,0-1,0-1-0.6v-4.2L246.4,140.7"/>
	</g>
	<g>
		<defs>
			<rect id="SVGID_29_" x="175.2" y="136.5" width="126" height="9.7"/>
		</defs>
		<clipPath id="SVGID_30_">
			<use xlink:href="#SVGID_29_"  style="overflow:visible;"/>
		</clipPath>
		<path class="st20" d="M253,142.9c0.4-0.5,0.9-1.1,1.2-1.5c0.4-0.5,0.9-0.7,1.5-0.7v-0.4c-0.3,0-0.7,0.1-1.1,0.1
			c-0.4,0-1.1,0-1.3-0.1v0.4c0.3,0,0.4,0.2,0.4,0.4c0,0.2-0.1,0.4-0.2,0.5l-0.8,1l-1-1.3c-0.1-0.1-0.1-0.2-0.1-0.2
			c0-0.2,0.2-0.3,0.5-0.3v-0.4c-0.3,0-1.2,0.1-1.4,0.1c-0.3,0-0.9,0-1.2-0.1v0.4c0.9,0,0.9,0,1.5,0.8l1.3,1.7l-1.2,1.5
			c-0.6,0.7-1.4,0.8-1.7,0.8v0.4c0.3,0,0.7,0,1.1,0c0.4,0,0.9,0,1.3,0v-0.4c-0.3,0-0.4-0.2-0.4-0.4c0-0.3,0.4-0.7,1.2-1.7l1,1.3
			c0.1,0.1,0.3,0.3,0.3,0.4c0,0.1-0.1,0.3-0.5,0.3v0.4c0.4,0,1.1,0,1.4,0c0.3,0,0.9,0,1.3,0v-0.4c-0.7,0-1,0-1.3-0.4L253,142.9"/>
	</g>
	<g>
		<defs>
			<rect id="SVGID_31_" x="175.2" y="136.5" width="126" height="9.7"/>
		</defs>
		<clipPath id="SVGID_32_">
			<use xlink:href="#SVGID_31_"  style="overflow:visible;"/>
		</clipPath>
		<path class="st21" d="M257.5,142.9h3.6c0.3,0,0.3,0,0.3-0.3c0-1.3-0.7-2.6-2.3-2.6c-1.5,0-2.7,1.3-2.7,3c0,1.8,1.4,3,2.8,3
			c1.6,0,2.2-1.4,2.2-1.7c0-0.1-0.1-0.1-0.2-0.1c-0.1,0-0.1,0.1-0.2,0.2c-0.5,1.4-1.6,1.4-1.8,1.4c-0.6,0-1.2-0.4-1.5-0.9
			C257.5,144.3,257.5,143.4,257.5,142.9 M257.6,142.7c0.1-1.9,1.2-2.3,1.6-2.3c1.4,0,1.5,1.8,1.5,2.3H257.6z"/>
	</g>
	<g>
		<defs>
			<rect id="SVGID_33_" x="175.2" y="136.5" width="126" height="9.7"/>
		</defs>
		<clipPath id="SVGID_34_">
			<use xlink:href="#SVGID_33_"  style="overflow:visible;"/>
		</clipPath>
		<path class="st22" d="M266.7,141.7v2.7c0,0.2,0,0.3-0.2,0.5c-0.4,0.6-1,0.9-1.5,0.9c-0.6,0-1.1-0.3-1.4-0.8
			c-0.3-0.5-0.4-1.3-0.4-1.8s0-1.3,0.4-1.8c0.3-0.4,0.8-0.8,1.5-0.8c0.5,0,1,0.2,1.4,0.8C266.7,141.5,266.7,141.5,266.7,141.7
			 M266.7,145.2v0.9l1.9-0.2v-0.4c-0.9,0-1-0.1-1-0.7v-7.9l-1.9,0.1v0.4c0.9,0,1,0.1,1,0.7v2.9c-0.4-0.5-0.9-0.8-1.6-0.8
			c-1.5,0-2.9,1.3-2.9,3s1.3,2.9,2.7,2.9C265.8,146.1,266.4,145.6,266.7,145.2z"/>
	</g>
	<g>
		<defs>
			<rect id="SVGID_35_" x="175.2" y="136.5" width="126" height="9.7"/>
		</defs>
		<clipPath id="SVGID_36_">
			<use xlink:href="#SVGID_35_"  style="overflow:visible;"/>
		</clipPath>
		<path class="st23" d="M274.9,143.1c0-2.1,1.1-2.7,1.8-2.7c0.1,0,0.9,0,1.4,0.5c-0.5,0.1-0.6,0.4-0.6,0.6c0,0.3,0.2,0.6,0.6,0.6
			c0.3,0,0.6-0.2,0.6-0.6c0-0.9-1-1.4-2-1.4c-1.6,0-2.8,1.4-2.8,3c0,1.7,1.3,3,2.8,3c1.8,0,2.2-1.6,2.2-1.7s-0.1-0.1-0.2-0.1
			c-0.1,0-0.1,0-0.2,0.1c-0.4,1.2-1.2,1.4-1.7,1.4C276.1,145.8,274.9,145.2,274.9,143.1"/>
	</g>
	<g>
		<defs>
			<rect id="SVGID_37_" x="175.2" y="136.5" width="126" height="9.7"/>
		</defs>
		<clipPath id="SVGID_38_">
			<use xlink:href="#SVGID_37_"  style="overflow:visible;"/>
		</clipPath>
		<path class="st24" d="M282.3,145.8c-0.6,0-1.1-0.3-1.5-0.9c-0.3-0.6-0.3-1.4-0.3-1.8c0-0.5,0-1.2,0.3-1.8c0.3-0.6,1-0.9,1.5-0.9
			c0.6,0,1.1,0.3,1.5,0.8c0.3,0.6,0.3,1.3,0.3,1.8s0,1.2-0.3,1.8C283.6,145.4,283,145.8,282.3,145.8 M285.2,143.2c0-1.7-1.3-3-2.9-3
			c-1.6,0-2.9,1.4-2.9,3c0,1.7,1.3,2.9,2.8,2.9C283.9,146.1,285.2,144.8,285.2,143.2z"/>
	</g>
	<g>
		<defs>
			<rect id="SVGID_39_" x="175.2" y="136.5" width="126" height="9.7"/>
		</defs>
		<clipPath id="SVGID_40_">
			<use xlink:href="#SVGID_39_"  style="overflow:visible;"/>
		</clipPath>
		<path class="st25" d="M288.3,143.4c0.3,0.1,1.3,0.3,1.3,1.2c0,0.7-0.5,1.2-1.5,1.2c-1.1,0-1.5-0.7-1.8-1.8c0-0.2-0.1-0.2-0.2-0.2
			c-0.2,0-0.2,0.1-0.2,0.3v1.7c0,0.2,0,0.3,0.2,0.3c0.1,0,0.1,0,0.3-0.3c0,0,0-0.1,0.3-0.3c0.6,0.5,1.1,0.6,1.4,0.6
			c1.5,0,2.1-0.9,2.1-1.8c0-0.7-0.4-1.1-0.6-1.2c-0.4-0.4-0.9-0.5-1.5-0.6c-0.7-0.1-1.6-0.3-1.6-1.1c0-0.5,0.3-1,1.4-1
			c1.4,0,1.5,1.2,1.5,1.6c0,0.1,0.1,0.1,0.2,0.1c0.2,0,0.2-0.1,0.2-0.3v-1.3c0-0.2,0-0.3-0.2-0.3c-0.1,0-0.1,0-0.3,0.2
			c0,0.1-0.2,0.2-0.2,0.2c-0.5-0.4-1-0.4-1.2-0.4c-1.6,0-2.1,0.9-2.1,1.6c0,0.5,0.2,0.8,0.6,1.1C287,143.2,287.4,143.2,288.3,143.4"
			/>
	</g>
	<g>
		<defs>
			<rect id="SVGID_41_" x="175.2" y="136.5" width="126" height="9.7"/>
		</defs>
		<clipPath id="SVGID_42_">
			<use xlink:href="#SVGID_41_"  style="overflow:visible;"/>
		</clipPath>
		<path class="st26" d="M292.9,140.7h1.9v-0.4h-1.9v-2.4h-0.3c0,1.1-0.4,2.5-1.7,2.5v0.3h1.1v3.6c0,1.6,1.2,1.8,1.7,1.8
			c0.9,0,1.3-0.9,1.3-1.8v-0.7h-0.3v0.7c0,1-0.4,1.5-0.9,1.5c-0.9,0-0.9-1.2-0.9-1.4L292.9,140.7"/>
	</g>
	<g>
		<defs>
			<rect id="SVGID_43_" x="175.2" y="136.5" width="126" height="9.7"/>
		</defs>
		<clipPath id="SVGID_44_">
			<use xlink:href="#SVGID_43_"  style="overflow:visible;"/>
		</clipPath>
		<path class="st27" d="M298.4,143.4c0.3,0.1,1.4,0.3,1.4,1.2c0,0.7-0.5,1.2-1.5,1.2c-1.1,0-1.5-0.7-1.8-1.8
			c-0.1-0.2-0.1-0.2-0.2-0.2c-0.2,0-0.2,0.1-0.2,0.3v1.7c0,0.2,0,0.3,0.2,0.3c0.1,0,0.1,0,0.3-0.3c0,0,0-0.1,0.3-0.3
			c0.6,0.5,1.1,0.6,1.4,0.6c1.5,0,2.1-0.9,2.1-1.8c0-0.7-0.4-1.1-0.5-1.2c-0.5-0.4-1-0.5-1.5-0.6c-0.7-0.1-1.6-0.3-1.6-1.1
			c0-0.5,0.3-1,1.5-1c1.4,0,1.5,1.2,1.5,1.6c0,0.1,0.1,0.1,0.1,0.1c0.2,0,0.2-0.1,0.2-0.3v-1.3c0-0.2,0-0.3-0.2-0.3
			c-0.1,0-0.1,0-0.2,0.2c-0.1,0.1-0.2,0.2-0.2,0.2c-0.5-0.4-1-0.4-1.2-0.4c-1.6,0-2.1,0.9-2.1,1.6c0,0.5,0.2,0.8,0.6,1.1
			C297.1,143.2,297.5,143.2,298.4,143.4"/>
	</g>
</g>
<g>
	<defs>
		<rect id="SVGID_45_" x="103.4" y="41.2" width="48" height="14"/>
	</defs>
	<clipPath id="SVGID_46_">
		<use xlink:href="#SVGID_45_"  style="overflow:visible;"/>
	</clipPath>
	<path class="st28" d="M107.2,47c0.1-0.3,0.4-0.7,0.7-0.9c0.5-0.4,0.8-0.5,1-0.5c0.5,0,0.9,0.5,0.9,1.2c0,0.8-0.4,2.3-0.7,2.7
		c-0.5,0.9-1.1,1.4-1.5,1.4c-0.9,0-1-1.1-1-1.2c0,0,0-0.1,0.1-0.2L107.2,47 M104.9,52.7c-0.1,0.4-0.1,0.5-0.7,0.5
		c-0.1,0-0.3,0-0.3,0.2c0,0.1,0.1,0.2,0.2,0.2c0.3,0,0.7-0.1,1.1-0.1c0.5,0,0.9,0.1,1.3,0.1c0.1,0,0.2,0,0.2-0.3
		c0-0.1-0.1-0.1-0.3-0.1c-0.7,0-0.7-0.1-0.7-0.2c0-0.2,0.6-2.3,0.6-2.6c0.2,0.4,0.5,0.8,1.2,0.8c1.5,0,3.1-1.9,3.1-3.8
		c0-1.2-0.7-2.1-1.7-2.1c-0.6,0-1.3,0.5-1.7,1c-0.1-0.7-0.7-1-1.2-1c-0.6,0-0.9,0.5-1,0.7c-0.2,0.5-0.4,1.2-0.4,1.3
		c0,0.1,0.1,0.1,0.2,0.1c0.1,0,0.1,0,0.2-0.3c0.2-0.9,0.5-1.5,1-1.5c0.2,0,0.4,0.1,0.4,0.6c0,0.3-0.1,0.4-0.1,0.6L104.9,52.7z"/>
	<path class="st28" d="M118.4,47.6c0.1-0.3,0.1-0.4,0.7-0.4c0.2,0,0.3,0,0.3-0.2c0-0.1,0-0.1-0.1-0.1c-0.3,0-0.9,0-1.2,0
		c-0.2,0-0.5,0-0.6,0c-0.2,0-0.4,0-0.6,0c-0.1,0-0.2,0-0.2,0.2c0,0.1,0.1,0.1,0.3,0.1c0,0,0.2,0,0.3,0c0.2,0,0.2,0,0.2,0.1
		c0,0,0,0.1,0,0.2l-0.5,2.1h-3l0.5-2.1c0.1-0.3,0.1-0.4,0.8-0.4c0.1,0,0.3,0,0.3-0.2c0-0.1,0-0.1-0.2-0.1c-0.2,0-0.9,0-1.2,0
		c-0.2,0-0.5,0-0.6,0c-0.2,0-0.4,0-0.6,0c-0.1,0-0.2,0-0.2,0.2c0,0.1,0.1,0.1,0.3,0.1c0,0,0.2,0,0.3,0c0.2,0,0.2,0,0.2,0.1
		c0,0,0,0.1-0.1,0.2l-1.2,4.8c-0.1,0.3-0.1,0.4-0.8,0.4c-0.1,0-0.3,0-0.3,0.2c0,0.1,0.1,0.1,0.2,0.1c0.3,0,0.9,0,1.2,0
		c0.1,0,0.5,0,0.6,0c0.2,0,0.4,0,0.6,0c0,0,0.2,0,0.2-0.2c0-0.1-0.1-0.1-0.3-0.1c-0.2,0-0.2,0-0.3,0c-0.2,0-0.2,0-0.2-0.1
		c0,0,0-0.1,0.1-0.2l0.6-2.4h3l-0.6,2.3c-0.1,0.3-0.1,0.4-0.8,0.4c-0.2,0-0.3,0-0.3,0.2c0,0.1,0.1,0.1,0.1,0.1c0.3,0,0.9,0,1.2,0
		c0.2,0,0.5,0,0.6,0c0.2,0,0.4,0,0.6,0c0.1,0,0.2,0,0.2-0.2c0-0.1-0.1-0.1-0.3-0.1c-0.1,0-0.2,0-0.3,0c-0.2,0-0.2,0-0.2-0.1
		c0-0.1,0-0.1,0-0.2L118.4,47.6"/>
	<path class="st28" d="M124.2,51h2.8c0.1,0,0.3,0,0.3-0.2c0-0.2-0.2-0.2-0.3-0.2h-2.8v-2.8c0-0.1,0-0.3-0.2-0.3s-0.2,0.2-0.2,0.3
		v2.8H121c-0.1,0-0.3,0-0.3,0.2c0,0.2,0.2,0.2,0.3,0.2h2.8v2.8c0,0.1,0,0.3,0.2,0.3s0.2-0.2,0.2-0.3V51"/>
	<path class="st28" d="M131.6,47.7c0.1-0.3,0.1-0.4,0.9-0.4c0.3,0,0.4,0,0.4-0.2c0,0,0-0.1-0.2-0.1c-0.2,0-0.5,0-0.7,0
		c-0.2,0-0.5,0-0.7,0c-0.2,0-0.4,0-0.6,0c-0.2,0-0.4,0-0.6,0c-0.1,0-0.2,0-0.2,0.2c0,0.1,0.1,0.1,0.3,0.1c0,0,0.2,0,0.3,0
		c0.2,0,0.2,0,0.2,0.1c0,0,0,0.1-0.1,0.2l-1.2,4.8c-0.1,0.3-0.1,0.4-0.8,0.4c-0.2,0-0.3,0-0.3,0.2c0,0.1,0.1,0.1,0.3,0.1h4.5
		c0.2,0,0.2,0,0.3-0.2c0.1-0.2,0.8-2,0.8-2.1c0,0,0-0.1-0.1-0.1c-0.1,0-0.1,0.1-0.2,0.2c-0.3,0.9-0.7,1.9-2.4,1.9h-1
		c-0.3,0-0.3,0-0.3-0.1c0,0,0-0.1,0-0.2L131.6,47.7"/>
	<path class="st28" d="M140,54.2c0,0,0-0.1-0.2-0.3c-1.6-1.6-2-4.1-2-6.1c0-2.3,0.5-4.5,2.1-6.2c0.2-0.2,0.2-0.2,0.2-0.2
		c0-0.1-0.1-0.1-0.1-0.1c-0.1,0-1.3,0.9-2.1,2.5c-0.7,1.4-0.8,2.9-0.8,4c0,1,0.2,2.6,0.9,4c0.8,1.6,1.9,2.4,2,2.4
		C140,54.3,140,54.3,140,54.2"/>
	<path class="st28" d="M143,50.9c-0.8,0-0.8-1-0.8-1.2c0-0.6,0.4-2.1,0.6-2.6c0.4-1,1.1-1.5,1.6-1.5c0.9,0,1,1.1,1,1.1
		c0,0.1-0.7,2.9-0.7,3C144.4,50.1,143.7,50.9,143,50.9 M146.6,45.5c0-0.1,0-0.1-0.1-0.1c-0.1,0-0.6,0.5-0.9,0.9
		c-0.3-0.7-0.8-0.9-1.2-0.9c-1.5,0-3.1,1.9-3.1,3.8c0,1.3,0.8,2.1,1.7,2.1c0.6,0,1.1-0.3,1.5-0.8c-0.1,0.5-0.5,2.2-0.6,2.3
		c-0.1,0.4-0.2,0.4-0.9,0.5c-0.2,0-0.3,0-0.3,0.2c0,0,0,0.2,0.2,0.2c0.4,0,0.9-0.1,1.3-0.1c0.5,0,0.9,0.1,1.3,0.1
		c0.1,0,0.2,0,0.2-0.3c0-0.1-0.1-0.1-0.3-0.1c-0.6,0-0.6-0.1-0.6-0.2s0-0.2,0.1-0.3L146.6,45.5z"/>
	<path class="st28" d="M150.7,47.8c0-1-0.2-2.6-0.9-4c-0.8-1.6-1.9-2.4-2-2.4c-0.1,0-0.1,0.1-0.1,0.1c0,0,0,0.1,0.3,0.3
		c1.3,1.3,2,3.4,2,6.1c0,2.2-0.5,4.5-2.1,6.2c-0.2,0.2-0.2,0.2-0.2,0.2c0,0.1,0.1,0.1,0.1,0.1c0.1,0,1.3-0.9,2.1-2.5
		C150.5,50.4,150.7,48.9,150.7,47.8"/>
</g>
<g>
	<defs>
		<rect id="SVGID_47_" x="113" y="206.9" width="80" height="12.9"/>
	</defs>
	<clipPath id="SVGID_48_">
		<use xlink:href="#SVGID_47_"  style="overflow:visible;"/>
	</clipPath>
	<path class="st29" d="M119.2,210.9c0-0.1-0.1-0.1-0.1-0.2c0,0,0.2-0.2,0.4-0.3l2.3-1.8c1.2-0.9,1.7-1,2.1-1c0.1,0,0.2,0,0.2-0.3
		c0-0.1,0-0.1-0.1-0.1c-0.3,0-0.6,0-0.9,0c-0.5,0-1,0-1.4,0c-0.1,0-0.2,0-0.2,0.3c0,0.1,0.1,0.1,0.2,0.1c0.3,0,0.4,0.1,0.4,0.3
		c0,0.2-0.4,0.5-0.5,0.6l-5.1,3.9l1-4.2c0.1-0.5,0.1-0.6,1.1-0.6c0.3,0,0.5,0,0.5-0.3c0-0.1-0.1-0.1-0.2-0.1c-0.4,0-1.3,0-1.7,0
		c-0.4,0-1.3,0-1.7,0c-0.1,0-0.2,0-0.2,0.2c0,0.2,0.1,0.2,0.4,0.2c0.2,0,0.4,0,0.6,0c0.2,0,0.3,0.1,0.3,0.2c0,0.1,0,0.1-0.1,0.2
		l-1.7,7c-0.1,0.5-0.2,0.6-1.2,0.6c-0.2,0-0.4,0-0.4,0.2c0,0.2,0.2,0.2,0.2,0.2c0.4,0,1.3,0,1.7,0c0.3,0,0.6,0,0.9,0
		c0.3,0,0.6,0,0.8,0c0.1,0,0.3,0,0.3-0.3c0-0.1-0.1-0.1-0.4-0.1c-0.5,0-0.8,0-0.8-0.2c0-0.1,0.1-0.4,0.1-0.6
		c0.2-0.7,0.3-1.4,0.5-2.1l1.9-1.5l1.5,3.5c0.2,0.3,0.2,0.4,0.2,0.5c0,0.4-0.6,0.4-0.7,0.4c-0.1,0-0.3,0-0.3,0.3
		c0,0.1,0.1,0.1,0.2,0.1c0.5,0,1.1,0,1.6,0c0.3,0,1,0,1.3,0c0.1,0,0.2,0,0.2-0.3c0-0.1-0.2-0.1-0.3-0.1c-0.5,0-0.7-0.1-0.9-0.6
		L119.2,210.9"/>
	<path class="st29" d="M127.4,209.2c0.7-0.3,1.1-0.5,1.3-0.6c0.2-0.1,0.2-0.1,0.2-0.3c0-0.2-0.1-0.3-0.3-0.3c-0.1,0-0.1,0-0.2,0.1
		l-1.2,0.8l0.1-1.3c0-0.2,0-0.4-0.3-0.4c-0.1,0-0.3,0.1-0.3,0.3c0,0.1,0,0.3,0.1,0.5c0,0.2,0.1,0.8,0.1,1l-1.2-0.8
		c-0.1-0.1-0.1-0.1-0.2-0.1c-0.2,0-0.3,0.1-0.3,0.3c0,0.2,0.1,0.2,0.2,0.3l1.4,0.6c-0.7,0.3-1.1,0.5-1.3,0.6
		c-0.2,0.1-0.2,0.1-0.2,0.3c0,0.2,0.1,0.3,0.3,0.3c0.1,0,0.1,0,0.2-0.1l1.2-0.8l-0.1,1.5c0,0.2,0.2,0.3,0.3,0.3
		c0.1,0,0.3-0.1,0.3-0.3c0-0.1-0.1-0.3-0.1-0.5c0-0.1-0.1-0.8-0.1-1l1.1,0.7c0.2,0.2,0.3,0.2,0.3,0.2c0.2,0,0.3-0.1,0.3-0.3
		c0-0.2-0.1-0.2-0.2-0.2L127.4,209.2"/>
	<path class="st29" d="M142.9,214.4c0.2,0,0.4,0,0.4-0.3c0-0.2-0.2-0.2-0.5-0.2h-7.7c-0.2,0-0.4,0-0.4,0.2c0,0.3,0.2,0.3,0.4,0.3
		H142.9 M142.9,211.9c0.2,0,0.5,0,0.5-0.2c0-0.3-0.2-0.3-0.4-0.3h-7.8c-0.2,0-0.4,0-0.4,0.3c0,0.2,0.2,0.2,0.4,0.2H142.9z"/>
	<path class="st29" d="M150,216c-0.8,0-0.8-1-0.8-1.2c0-0.6,0.4-2.1,0.6-2.6c0.4-1,1.1-1.5,1.6-1.5c0.9,0,1,1.1,1,1.1
		s-0.7,2.9-0.7,3C151.4,215.2,150.7,216,150,216 M153.6,210.6c0-0.1,0-0.1-0.1-0.1c-0.1,0-0.7,0.5-0.9,0.9c-0.3-0.7-0.8-0.9-1.2-0.9
		c-1.5,0-3.1,1.9-3.1,3.8c0,1.3,0.8,2.1,1.7,2.1c0.6,0,1.1-0.3,1.5-0.8c-0.1,0.5-0.5,2.2-0.6,2.3c-0.1,0.4-0.2,0.4-0.9,0.5
		c-0.2,0-0.3,0-0.3,0.2c0,0,0,0.2,0.2,0.2c0.4,0,0.9-0.1,1.3-0.1c0.5,0,0.9,0.1,1.3,0.1c0.1,0,0.2,0,0.2-0.3c0-0.1-0.1-0.1-0.3-0.1
		c-0.6,0-0.6-0.1-0.6-0.2c0-0.1,0-0.2,0.1-0.3L153.6,210.6z"/>
	<path class="st29" d="M156.9,209.2c0.7-0.3,1.1-0.5,1.3-0.6c0.2-0.1,0.3-0.1,0.3-0.3c0-0.2-0.1-0.3-0.3-0.3c-0.1,0-0.1,0-0.2,0.1
		l-1.2,0.8l0.1-1.3c0-0.2,0-0.4-0.3-0.4c-0.1,0-0.3,0.1-0.3,0.3c0,0.1,0,0.3,0,0.5c0,0.2,0.1,0.8,0.1,1l-1.2-0.8
		c-0.1-0.1-0.1-0.1-0.2-0.1c-0.2,0-0.3,0.1-0.3,0.3c0,0.2,0.1,0.2,0.2,0.3l1.4,0.6c-0.7,0.3-1.1,0.5-1.3,0.6
		c-0.2,0.1-0.3,0.1-0.3,0.3c0,0.2,0.1,0.3,0.3,0.3c0.1,0,0.1,0,0.2-0.1l1.2-0.8l-0.1,1.5c0,0.2,0.2,0.3,0.3,0.3
		c0.1,0,0.3-0.1,0.3-0.3c0-0.1-0.1-0.3-0.1-0.5c0-0.1-0.1-0.8-0.1-1l1.1,0.7c0.2,0.2,0.2,0.2,0.3,0.2c0.2,0,0.3-0.1,0.3-0.3
		c0-0.2-0.1-0.2-0.2-0.2L156.9,209.2"/>
	<path class="st29" d="M161.1,214.3c0.1-0.3,0.1-0.4,0.8-0.4c0.2,0,0.3,0,0.3-0.2c0-0.1,0-0.1-0.2-0.1c-0.3,0-0.9,0-1.2,0
		c-0.2,0-0.5,0-0.6,0c-0.2,0-0.4,0-0.6,0c-0.1,0-0.2,0-0.2,0.2c0,0.1,0.1,0.1,0.3,0.1c0,0,0.2,0,0.3,0c0.2,0,0.2,0,0.2,0.1
		c0,0,0,0.1-0.1,0.2l-0.5,2.1h-3l0.5-2.1c0.1-0.3,0.1-0.4,0.8-0.4c0.2,0,0.3,0,0.3-0.2c0-0.1,0-0.1-0.1-0.1c-0.3,0-0.9,0-1.2,0
		c-0.2,0-0.5,0-0.6,0c-0.2,0-0.4,0-0.6,0c-0.1,0-0.2,0-0.2,0.2c0,0.1,0.1,0.1,0.3,0.1c0,0,0.2,0,0.3,0c0.2,0,0.2,0,0.2,0.1
		c0,0,0,0.1,0,0.2l-1.2,4.8c-0.1,0.3-0.1,0.4-0.8,0.4c-0.2,0-0.3,0-0.3,0.2c0,0.1,0.1,0.1,0.1,0.1c0.3,0,0.9,0,1.2,0
		c0.2,0,0.5,0,0.6,0c0.2,0,0.4,0,0.6,0c0.1,0,0.2,0,0.2-0.2c0-0.1-0.1-0.1-0.3-0.1c-0.1,0-0.2,0-0.3,0c-0.2,0-0.2,0-0.2-0.1
		c0,0,0-0.1,0-0.2l0.6-2.4h3l-0.6,2.3c-0.1,0.3-0.1,0.4-0.8,0.4c-0.1,0-0.3,0-0.3,0.2c0,0.1,0.1,0.1,0.2,0.1c0.2,0,0.9,0,1.2,0
		c0.1,0,0.5,0,0.6,0c0.2,0,0.4,0,0.6,0c0,0,0.2,0,0.2-0.2c0-0.1-0.1-0.1-0.3-0.1c-0.2,0-0.2,0-0.3,0c-0.2,0-0.2,0-0.2-0.1
		c0-0.1,0-0.1,0.1-0.2L161.1,214.3"/>
	<path class="st29" d="M175.8,214.4c0.2,0,0.5,0,0.5-0.3c0-0.2-0.3-0.2-0.5-0.2h-7.7c-0.2,0-0.5,0-0.5,0.2c0,0.3,0.2,0.3,0.4,0.3
		H175.8 M175.8,211.9c0.2,0,0.5,0,0.5-0.2c0-0.3-0.3-0.3-0.5-0.3H168c-0.2,0-0.4,0-0.4,0.3c0,0.2,0.2,0.2,0.5,0.2H175.8z"/>
	<path class="st29" d="M182.9,216c-0.8,0-0.9-1-0.9-1.2c0-0.6,0.4-2.1,0.6-2.6c0.4-1,1.1-1.5,1.6-1.5c0.9,0,1,1.1,1,1.1
		s-0.7,2.9-0.7,3C184.3,215.2,183.6,216,182.9,216 M186.5,210.6c0-0.1-0.1-0.1-0.1-0.1c-0.1,0-0.7,0.5-0.9,0.9
		c-0.3-0.7-0.8-0.9-1.2-0.9c-1.5,0-3.1,1.9-3.1,3.8c0,1.3,0.8,2.1,1.7,2.1c0.6,0,1.1-0.3,1.5-0.8c-0.1,0.5-0.6,2.2-0.6,2.3
		c-0.1,0.4-0.2,0.4-0.9,0.5c-0.2,0-0.3,0-0.3,0.2c0,0,0,0.2,0.2,0.2c0.4,0,0.9-0.1,1.3-0.1c0.4,0,0.9,0.1,1.3,0.1
		c0.1,0,0.2,0,0.2-0.3c0-0.1-0.1-0.1-0.3-0.1c-0.6,0-0.6-0.1-0.6-0.2c0-0.1,0-0.2,0.1-0.3L186.5,210.6z"/>
	<path class="st29" d="M189.7,209.2c0.7-0.3,1.1-0.5,1.3-0.6c0.2-0.1,0.3-0.1,0.3-0.3c0-0.2-0.1-0.3-0.3-0.3c-0.1,0-0.1,0-0.2,0.1
		l-1.2,0.8l0.1-1.3c0-0.2,0-0.4-0.3-0.4c-0.1,0-0.3,0.1-0.3,0.3c0,0.1,0,0.3,0,0.5c0,0.2,0.1,0.8,0.1,1l-1.2-0.8
		c-0.1-0.1-0.1-0.1-0.2-0.1c-0.2,0-0.3,0.1-0.3,0.3c0,0.2,0.1,0.2,0.2,0.3l1.4,0.6c-0.7,0.3-1.1,0.5-1.3,0.6
		c-0.2,0.1-0.3,0.1-0.3,0.3c0,0.2,0.1,0.3,0.3,0.3c0.1,0,0.1,0,0.2-0.1l1.2-0.8l-0.1,1.5c0,0.2,0.2,0.3,0.3,0.3
		c0.1,0,0.3-0.1,0.3-0.3c0-0.1-0.1-0.3-0.1-0.5c0-0.1-0.1-0.8-0.1-1l1.1,0.7c0.2,0.2,0.2,0.2,0.3,0.2c0.2,0,0.3-0.1,0.3-0.3
		c0-0.2-0.1-0.2-0.2-0.2L189.7,209.2"/>
	<path class="st29" d="M190.1,214.4c0.1-0.3,0.1-0.4,0.9-0.4c0.3,0,0.4,0,0.4-0.2c0,0,0-0.1-0.2-0.1c-0.2,0-0.5,0-0.7,0
		c-0.2,0-0.5,0-0.7,0c-0.2,0-0.4,0-0.6,0c-0.2,0-0.4,0-0.6,0c-0.1,0-0.2,0-0.2,0.2c0,0.1,0.1,0.1,0.3,0.1c0,0,0.2,0,0.3,0
		c0.2,0,0.2,0,0.2,0.1c0,0,0,0.1-0.1,0.2l-1.2,4.8c-0.1,0.3-0.1,0.4-0.8,0.4c-0.2,0-0.3,0-0.3,0.2c0,0.1,0.1,0.1,0.3,0.1h4.5
		c0.2,0,0.2,0,0.3-0.2c0.1-0.2,0.8-2,0.8-2.1c0,0,0-0.1-0.1-0.1c-0.1,0-0.1,0.1-0.2,0.2c-0.3,0.9-0.7,1.9-2.4,1.9h-1
		c-0.3,0-0.3,0-0.3-0.1c0,0,0-0.1,0-0.2L190.1,214.4"/>
</g>
<g>
	<defs>
		<rect id="SVGID_49_" x="8.1" y="89.9" width="36" height="12"/>
	</defs>
	<clipPath id="SVGID_50_">
		<use xlink:href="#SVGID_49_"  style="overflow:visible;"/>
	</clipPath>
	<path class="st30" d="M14.8,91.6c0,0.9-0.5,1.8-1.1,2.2c-0.4-0.1-0.6-0.2-1-0.2c-0.3,0-1,0-1,0.4c0,0.3,0.7,0.3,0.9,0.3
		c0.5,0,0.7,0,1.1-0.2c0.5,0.5,0.6,0.9,0.6,1.5c0,0.7-0.3,1.7-0.7,2.2c-0.5,0.7-1.4,1.1-2.1,1.1c-1,0-1.5-0.7-1.5-1.7
		c0-0.1,0-0.3,0.1-0.6l0.9-3.3c0.3-1.1,1.2-3.2,2.8-3.2C14.3,90.4,14.8,90.8,14.8,91.6 M13.2,94c-0.2,0.1-0.3,0.1-0.6,0.1
		c-0.2,0-0.5,0-0.6-0.1c0-0.1,0.5-0.1,0.6-0.1C12.9,94,13,94,13.2,94z M15.5,91.9c0-1-0.7-1.8-1.8-1.8c-0.7,0-1.1,0.2-1.6,0.5
		c-0.7,0.5-1.4,1.8-1.7,2.8l-2.1,8.3c0,0.1,0.1,0.1,0.2,0.1c0.1,0,0.1,0,0.2-0.1l0.9-3.6c0.2,0.8,0.8,1.3,1.8,1.3s1.9-0.5,2.5-1
		c0.6-0.6,1-1.4,1-2.4c0-0.9-0.5-1.6-0.9-1.9C14.8,93.6,15.5,92.8,15.5,91.9z"/>
	<path class="st30" d="M24.3,96.3h3.6c0.2,0,0.4,0,0.4-0.3c0-0.2-0.2-0.2-0.4-0.2h-3.6v-3.6c0-0.2,0-0.4-0.3-0.4
		c-0.2,0-0.2,0.2-0.2,0.4v3.6h-3.6c-0.2,0-0.4,0-0.4,0.2c0,0.3,0.2,0.3,0.4,0.3h3.6v3.6c0,0.2,0,0.4,0.2,0.4c0.3,0,0.3-0.2,0.3-0.4
		V96.3"/>
	<path class="st30" d="M33.5,98.3l1.4-1.3c2-1.8,2.8-2.5,2.8-3.8c0-1.5-1.2-2.5-2.7-2.5c-1.5,0-2.4,1.2-2.4,2.4
		c0,0.7,0.7,0.7,0.7,0.7c0.2,0,0.7-0.2,0.7-0.7c0-0.3-0.2-0.7-0.7-0.7c-0.1,0-0.1,0-0.2,0c0.3-0.8,1-1.3,1.8-1.3
		c1.2,0,1.8,1,1.8,2.1c0,1-0.7,2.1-1.4,2.9l-2.5,2.8c-0.2,0.2-0.2,0.2-0.2,0.5h4.8l0.4-2.3h-0.3c-0.1,0.4-0.2,1-0.3,1.2
		c-0.1,0.1-0.9,0.1-1.2,0.1H33.5"/>
	<path class="st30" d="M43.5,94.3c-0.2,0-0.4,0-0.6,0.2c-0.2,0.2-0.2,0.4-0.2,0.5c0,0.3,0.2,0.5,0.5,0.5c0.4,0,0.7-0.3,0.7-0.8
		c0-0.6-0.6-1.1-1.5-1.1c-1.8,0-3.5,1.8-3.5,3.7c0,1.2,0.7,2.2,2.1,2.2c1.9,0,3-1.4,3-1.5c0-0.1-0.1-0.2-0.2-0.2
		c-0.1,0-0.1,0-0.2,0.1c-1,1.3-2.4,1.3-2.6,1.3c-0.8,0-1.2-0.6-1.2-1.4c0-0.5,0.3-1.8,0.7-2.6c0.4-0.7,1.1-1.3,1.8-1.3
		C42.8,93.8,43.3,94,43.5,94.3"/>
</g>
<g>
	<defs>
		<rect id="SVGID_51_" x="31.4" y="158.9" width="14" height="13"/>
	</defs>
	<clipPath id="SVGID_52_">
		<use xlink:href="#SVGID_51_"  style="overflow:visible;"/>
	</clipPath>
	<path class="st31" d="M35.2,164.1c0.1-0.3,0.4-0.7,0.7-0.9c0.5-0.4,0.8-0.5,1-0.5c0.5,0,0.9,0.5,0.9,1.2c0,0.8-0.4,2.3-0.7,2.7
		c-0.5,0.9-1.1,1.4-1.5,1.4c-0.9,0-1-1.1-1-1.2c0,0,0-0.1,0.1-0.2L35.2,164.1 M32.9,169.8c-0.1,0.4-0.1,0.5-0.7,0.5
		c-0.1,0-0.3,0-0.3,0.2c0,0.1,0.1,0.2,0.2,0.2c0.3,0,0.7-0.1,1.1-0.1c0.5,0,0.9,0.1,1.3,0.1c0.1,0,0.2,0,0.2-0.3
		c0-0.1-0.1-0.1-0.3-0.1c-0.7,0-0.7-0.1-0.7-0.2c0-0.2,0.6-2.3,0.6-2.6c0.2,0.4,0.5,0.8,1.2,0.8c1.5,0,3.1-1.9,3.1-3.8
		c0-1.2-0.7-2.1-1.7-2.1c-0.6,0-1.3,0.5-1.7,1c-0.1-0.7-0.7-1-1.2-1c-0.6,0-0.9,0.5-1,0.7c-0.2,0.5-0.4,1.2-0.4,1.3
		c0,0.1,0.1,0.1,0.2,0.1c0.1,0,0.1,0,0.2-0.3c0.2-0.9,0.5-1.5,1-1.5c0.2,0,0.4,0.1,0.4,0.6c0,0.3-0.1,0.4-0.1,0.6L32.9,169.8z"/>
	<path class="st31" d="M41.7,161.2c0.7-0.3,1.1-0.5,1.3-0.6c0.2-0.1,0.3-0.1,0.3-0.3c0-0.2-0.1-0.3-0.3-0.3c-0.1,0-0.1,0-0.2,0.1
		l-1.2,0.8l0.1-1.3c0-0.2,0-0.4-0.3-0.4c-0.1,0-0.3,0.1-0.3,0.3c0,0.1,0.1,0.3,0.1,0.5c0,0.2,0.1,0.8,0.1,1l-1.2-0.8
		c-0.1-0.1-0.1-0.1-0.2-0.1c-0.2,0-0.3,0.1-0.3,0.3c0,0.2,0.1,0.2,0.2,0.3l1.4,0.6c-0.7,0.3-1.1,0.5-1.3,0.6
		c-0.2,0.1-0.3,0.1-0.3,0.3c0,0.2,0.1,0.3,0.3,0.3c0.1,0,0.1,0,0.2-0.1l1.2-0.8l-0.2,1.5c0,0.2,0.2,0.3,0.3,0.3
		c0.1,0,0.3-0.1,0.3-0.3c0-0.1,0-0.3,0-0.5c0-0.1-0.1-0.8-0.1-1l1.1,0.7c0.2,0.2,0.3,0.2,0.3,0.2c0.2,0,0.3-0.1,0.3-0.3
		c0-0.2-0.1-0.2-0.2-0.2L41.7,161.2"/>
	<path class="st31" d="M42.5,166.4c0.1-0.3,0.1-0.4,1-0.4c0.3,0,0.4,0,0.4-0.2c0,0,0-0.1-0.2-0.1c-0.2,0-0.5,0-0.7,0
		c-0.2,0-0.5,0-0.7,0s-0.5,0-0.6,0c-0.2,0-0.4,0-0.6,0c-0.1,0-0.2,0-0.2,0.2c0,0.1,0.1,0.1,0.3,0.1c0,0,0.2,0,0.3,0
		c0.2,0,0.2,0,0.2,0.1c0,0,0,0.1-0.1,0.2l-1.2,4.8c-0.1,0.3-0.1,0.4-0.8,0.4c-0.1,0-0.3,0-0.3,0.2c0,0.1,0.1,0.1,0.3,0.1h4.6
		c0.2,0,0.2,0,0.3-0.2c0.1-0.2,0.8-2,0.8-2.1c0,0,0-0.1-0.2-0.1c-0.1,0-0.1,0.1-0.2,0.2c-0.3,0.9-0.7,1.9-2.4,1.9h-1
		c-0.3,0-0.3,0-0.3-0.1c0,0,0-0.1,0-0.2L42.5,166.4"/>
</g>
<g>
	<defs>
		<rect id="SVGID_53_" x="29.4" y="136.9" width="17" height="13"/>
	</defs>
	<clipPath id="SVGID_54_">
		<use xlink:href="#SVGID_53_"  style="overflow:visible;"/>
	</clipPath>
	<path class="st32" d="M33.2,142.1c0.1-0.3,0.4-0.7,0.7-0.9c0.5-0.4,0.8-0.5,1-0.5c0.5,0,0.9,0.5,0.9,1.2c0,0.8-0.4,2.3-0.7,2.7
		c-0.5,0.9-1.1,1.4-1.5,1.4c-0.9,0-1-1.1-1-1.2c0,0,0-0.1,0.1-0.2L33.2,142.1 M30.9,147.8c-0.1,0.4-0.1,0.5-0.7,0.5
		c-0.1,0-0.3,0-0.3,0.2c0,0.1,0.1,0.2,0.2,0.2c0.3,0,0.7-0.1,1.1-0.1c0.5,0,0.9,0.1,1.3,0.1c0.1,0,0.2,0,0.2-0.3
		c0-0.1-0.1-0.1-0.3-0.1c-0.7,0-0.7-0.1-0.7-0.2c0-0.2,0.6-2.3,0.6-2.6c0.2,0.4,0.5,0.8,1.2,0.8c1.5,0,3.1-1.9,3.1-3.8
		c0-1.2-0.7-2.1-1.7-2.1c-0.6,0-1.3,0.5-1.7,1c-0.1-0.7-0.7-1-1.2-1c-0.6,0-0.9,0.5-1,0.7c-0.2,0.5-0.4,1.2-0.4,1.3
		c0,0.1,0.1,0.1,0.2,0.1c0.1,0,0.1,0,0.2-0.3c0.2-0.9,0.5-1.5,1-1.5c0.2,0,0.4,0.1,0.4,0.6c0,0.3-0.1,0.4-0.1,0.6L30.9,147.8z"/>
	<path class="st32" d="M39.7,139.2c0.7-0.3,1.1-0.5,1.3-0.6c0.2-0.1,0.3-0.1,0.3-0.3c0-0.2-0.1-0.3-0.3-0.3c-0.1,0-0.1,0-0.2,0.1
		l-1.2,0.8l0.1-1.3c0-0.2,0-0.4-0.3-0.4c-0.1,0-0.3,0.1-0.3,0.3c0,0.1,0.1,0.3,0.1,0.5c0,0.2,0.1,0.8,0.1,1l-1.2-0.8
		c-0.1-0.1-0.1-0.1-0.2-0.1c-0.2,0-0.3,0.1-0.3,0.3c0,0.2,0.1,0.2,0.2,0.3l1.4,0.6c-0.7,0.3-1.1,0.5-1.3,0.6
		c-0.2,0.1-0.3,0.1-0.3,0.3c0,0.2,0.1,0.3,0.3,0.3c0.1,0,0.1,0,0.2-0.1l1.2-0.8l-0.2,1.5c0,0.2,0.2,0.3,0.3,0.3
		c0.1,0,0.3-0.1,0.3-0.3c0-0.1,0-0.3,0-0.5c0-0.1-0.1-0.8-0.1-1l1.1,0.7c0.2,0.2,0.3,0.2,0.3,0.2c0.2,0,0.3-0.1,0.3-0.3
		c0-0.2-0.1-0.2-0.2-0.2L39.7,139.2"/>
	<path class="st32" d="M44.4,144.3c0.1-0.3,0.1-0.4,0.7-0.4c0.2,0,0.3,0,0.3-0.2c0-0.1,0-0.1-0.1-0.1c-0.3,0-0.9,0-1.2,0
		c-0.2,0-0.5,0-0.6,0c-0.2,0-0.4,0-0.6,0c-0.1,0-0.2,0-0.2,0.2c0,0.1,0.1,0.1,0.3,0.1c0,0,0.2,0,0.3,0c0.2,0,0.2,0,0.2,0.1
		c0,0,0,0.1,0,0.2l-0.5,2.1h-3l0.5-2.1c0.1-0.3,0.1-0.4,0.8-0.4c0.1,0,0.3,0,0.3-0.2c0-0.1,0-0.1-0.2-0.1c-0.2,0-0.9,0-1.2,0
		c-0.2,0-0.5,0-0.6,0c-0.2,0-0.4,0-0.6,0c-0.1,0-0.2,0-0.2,0.2c0,0.1,0.1,0.1,0.3,0.1c0,0,0.2,0,0.3,0c0.2,0,0.2,0,0.2,0.1
		c0,0,0,0.1-0.1,0.2l-1.2,4.8c-0.1,0.3-0.1,0.4-0.8,0.4c-0.1,0-0.3,0-0.3,0.2c0,0.1,0.1,0.1,0.2,0.1c0.3,0,0.9,0,1.2,0
		c0.1,0,0.5,0,0.6,0c0.2,0,0.4,0,0.6,0c0,0,0.2,0,0.2-0.2c0-0.1-0.1-0.1-0.3-0.1c-0.2,0-0.2,0-0.3,0c-0.2,0-0.2,0-0.2-0.1
		c0,0,0-0.1,0.1-0.2l0.6-2.4h3l-0.6,2.3c-0.1,0.3-0.1,0.4-0.8,0.4c-0.2,0-0.3,0-0.3,0.2c0,0.1,0.1,0.1,0.1,0.1c0.3,0,0.9,0,1.2,0
		c0.2,0,0.5,0,0.6,0c0.2,0,0.4,0,0.6,0c0.1,0,0.2,0,0.2-0.2c0-0.1-0.1-0.1-0.3-0.1c-0.1,0-0.2,0-0.3,0c-0.2,0-0.2,0-0.2-0.1
		c0-0.1,0-0.1,0-0.2L44.4,144.3"/>
</g>
<g>
	<line class="st33" x1="170.5" y1="143.8" x2="105" y2="164.1"/>
	<g>
		<line class="st0" x1="170.5" y1="143.8" x2="107.9" y2="163.2"/>
		<g>
			<path d="M105,164.1c1.2-0.9,2.7-2.3,3.4-3.6l-0.2,2.5l1.5,2C108.4,164.6,106.5,164.2,105,164.1z"/>
		</g>
	</g>
</g>
<g>
	<line class="st33" x1="172.9" y1="146.7" x2="119.9" y2="176.9"/>
	<g>
		<line class="st0" x1="172.9" y1="146.7" x2="122.3" y2="175.1"/>
		<g>
			<path d="M119.9,176.9c0.8-1.3,1.6-3.1,1.9-4.5l0.7,2.4l2.1,1.3C123.3,176.1,121.3,176.4,119.9,176.9z"/>
		</g>
	</g>
</g>
<g>
	<defs>
		<rect id="SVGID_55_" x="119.2" y="11.1" width="102" height="12.3"/>
	</defs>
	<clipPath id="SVGID_56_">
		<use xlink:href="#SVGID_55_"  style="overflow:visible;"/>
	</clipPath>
	<path class="st34" d="M123.3,15.4l-1.7-0.4c-0.8-0.2-1.3-0.9-1.3-1.7c0-0.9,0.7-1.7,1.7-1.7c2.2,0,2.4,2.1,2.5,2.7
		c0,0.1,0,0.2,0.2,0.2c0.2,0,0.2-0.1,0.2-0.3v-2.6c0-0.2,0-0.3-0.1-0.3c-0.1,0-0.1,0-0.2,0.2l-0.5,0.7c-0.4-0.4-0.9-0.9-2.1-0.9
		c-1.4,0-2.5,1.1-2.5,2.5c0,1.1,0.7,2,1.7,2.4c0.2,0.1,0.8,0.2,1.7,0.4c0.3,0.1,0.7,0.2,1.1,0.7c0.3,0.3,0.4,0.8,0.4,1.2
		c0,0.9-0.6,1.8-1.7,1.8c-0.4,0-1.4-0.1-2.1-0.7c-0.8-0.7-0.8-1.5-0.8-2c0-0.1-0.1-0.1-0.1-0.1c-0.2,0-0.2,0.1-0.2,0.3v2.6
		c0,0.2,0,0.3,0.2,0.3c0.1,0,0.1,0,0.2-0.2c0,0,0-0.1,0.5-0.7c0.4,0.5,1.2,0.9,2.4,0.9c1.5,0,2.6-1.3,2.6-2.7
		C125.3,16.8,124.4,15.7,123.3,15.4"/>
	<path class="st34" d="M127.4,19.5c0,0.6-0.1,0.6-1,0.6v0.4c0.5,0,1.1-0.1,1.5-0.1c0.3,0,1,0,1.5,0.1v-0.4c-0.9,0-1,0-1-0.6v-2.4
		c0-1.4,0.9-2.1,1.8-2.1c0.8,0,1,0.7,1,1.4v3c0,0.6-0.2,0.6-1,0.6v0.4c0.5,0,1.1-0.1,1.5-0.1c0.3,0,1,0,1.4,0.1v-0.4
		c-0.7,0-1,0-1-0.4v-2.5c0-1.1,0-1.5-0.4-2c-0.2-0.2-0.6-0.5-1.4-0.5c-1.1,0-1.7,0.8-1.9,1.3v-4.6l-1.9,0.2V12c0.9,0,1,0.1,1,0.7
		V19.5"/>
	<path class="st34" d="M135.5,12.5c0-0.4-0.3-0.7-0.7-0.7c-0.4,0-0.7,0.4-0.7,0.7c0,0.3,0.3,0.7,0.7,0.7
		C135.2,13.2,135.5,12.9,135.5,12.5 M135.5,14.7l-1.8,0.2v0.4c0.9,0,1,0.1,1,0.7v3.5c0,0.6-0.1,0.6-1,0.6v0.4c0.4,0,1.1-0.1,1.4-0.1
		c0.5,0,0.9,0,1.3,0.1v-0.4c-0.9,0-0.9-0.1-0.9-0.6V14.7z"/>
	<path class="st34" d="M139,14.9v-1.5c0-1.1,0.6-1.8,1.2-1.8c0.1,0,0.2,0,0.4,0.1c-0.2,0.1-0.4,0.2-0.4,0.6c0,0.3,0.2,0.6,0.6,0.6
		c0.4,0,0.6-0.3,0.6-0.6c0-0.5-0.5-0.9-1.2-0.9c-0.9,0-2,0.7-2,2.1v1.5h-1v0.4h1v4.2c0,0.6-0.2,0.6-1,0.6v0.4c0.5,0,1.1-0.1,1.5-0.1
		c0.5,0,1.1,0,1.7,0.1v-0.4h-0.3c-1,0-1-0.2-1-0.6v-4.2h1.5v-0.4H139"/>
	<path class="st34" d="M142.9,15.3h1.9v-0.4h-1.9v-2.4h-0.3c0,1.1-0.4,2.4-1.7,2.5v0.3h1.1v3.6c0,1.6,1.2,1.8,1.7,1.8
		c0.9,0,1.3-0.9,1.3-1.8v-0.7h-0.3v0.7c0,1-0.4,1.5-0.9,1.5c-0.9,0-0.9-1.2-0.9-1.4V15.3"/>
	<path class="st34" d="M148.1,12.5c0-0.4-0.3-0.7-0.7-0.7c-0.4,0-0.7,0.4-0.7,0.7c0,0.3,0.3,0.7,0.7,0.7
		C147.8,13.2,148.1,12.9,148.1,12.5 M148.1,14.7l-1.8,0.2v0.4c0.9,0,1,0.1,1,0.7v3.5c0,0.6-0.1,0.6-1,0.6v0.4c0.4,0,1.1-0.1,1.4-0.1
		c0.5,0,0.9,0,1.3,0.1v-0.4c-0.9,0-0.9-0.1-0.9-0.6V14.7z"/>
	<path class="st34" d="M150.8,16v3.5c0,0.6-0.2,0.6-1,0.6v0.4c0.5,0,1.1-0.1,1.5-0.1c0.3,0,1,0,1.5,0.1v-0.4c-0.9,0-1,0-1-0.6v-2.4
		c0-1.4,0.9-2.1,1.8-2.1c0.8,0,1,0.7,1,1.4v3c0,0.6-0.1,0.6-1,0.6v0.4c0.5,0,1.1-0.1,1.5-0.1c0.3,0,1,0,1.4,0.1v-0.4
		c-0.7,0-1,0-1-0.4v-2.5c0-1.1,0-1.5-0.4-2c-0.2-0.2-0.6-0.5-1.4-0.5c-1,0-1.6,0.6-1.9,1.4v-1.4l-1.8,0.2v0.4
		C150.7,15.3,150.8,15.4,150.8,16"/>
	<path class="st34" d="M159.7,22.9c-1.3,0-2.2-0.7-2.2-1.4c0-0.6,0.5-1.1,1.1-1.1h0.8c1.1,0,2.6,0,2.6,1.1
		C161.9,22.2,161,22.9,159.7,22.9 M157.9,18.8c0-0.1,0-0.3,0.2-0.6c0.5,0.4,1,0.4,1.3,0.4c1.2,0,2.1-0.9,2.1-1.9
		c0-0.5-0.2-1-0.5-1.3c0.5-0.5,0.9-0.5,1.2-0.5c0,0,0.1,0,0.1,0c-0.1,0.1-0.2,0.2-0.2,0.3c0,0.2,0.2,0.4,0.4,0.4
		c0.1,0,0.4-0.1,0.4-0.4c0-0.2-0.1-0.6-0.6-0.6c-0.3,0-0.9,0.1-1.4,0.6c-0.6-0.4-1.1-0.5-1.4-0.5c-1.2,0-2.1,0.9-2.1,1.9
		c0,0.6,0.3,1.1,0.6,1.4c-0.2,0.2-0.4,0.6-0.4,1.1c0,0.4,0.2,0.9,0.6,1.2c-0.8,0.2-1.2,0.8-1.2,1.3c0,0.9,1.3,1.7,2.9,1.7
		c1.5,0,2.9-0.7,2.9-1.7c0-0.5-0.2-1.1-0.9-1.5c-0.7-0.4-1.4-0.4-2.2-0.4c-0.3,0-0.9,0-1,0C158.1,19.6,157.9,19.2,157.9,18.8z
		 M159.4,18.3c-1.1,0-1.1-1.3-1.1-1.6c0-0.3,0-0.8,0.2-1.1c0.1-0.2,0.4-0.5,0.9-0.5c1.1,0,1.1,1.3,1.1,1.6c0,0.4,0,0.8-0.2,1.1
		C160.2,17.9,159.9,18.3,159.4,18.3z"/>
	<path class="st34" d="M169.6,19v-2.9c0.4-0.7,1-1,1.7-1c0.9,0,1.7,1.1,1.7,2.6c0,1.6-0.9,2.7-1.9,2.7c-0.5,0-1-0.2-1.4-0.8
		C169.6,19.3,169.6,19.3,169.6,19 M169.5,15.6v-0.9l-1.9,0.2v0.4c0.9,0,1,0.1,1,0.6V22c0,0.6-0.1,0.6-1,0.6V23c0.5,0,1.1,0,1.5,0
		c0.3,0,1,0,1.5,0v-0.4c-0.9,0-1,0-1-0.6v-2.3c0.1,0.2,0.6,0.9,1.6,0.9c1.5,0,2.9-1.3,2.9-3c0-1.7-1.3-2.9-2.7-2.9
		C170.3,14.7,169.8,15.3,169.5,15.6z"/>
	<path class="st34" d="M176.3,17.5h3.6c0.3,0,0.3,0,0.3-0.3c0-1.3-0.7-2.6-2.3-2.6c-1.5,0-2.7,1.4-2.7,3c0,1.8,1.4,3,2.9,3
		c1.6,0,2.2-1.4,2.2-1.7c0-0.1-0.1-0.2-0.2-0.2c-0.1,0-0.1,0.1-0.2,0.2c-0.5,1.3-1.6,1.3-1.8,1.3c-0.7,0-1.2-0.4-1.5-0.9
		C176.3,18.8,176.3,18,176.3,17.5 M176.3,17.2c0.1-1.9,1.2-2.3,1.6-2.3c1.3,0,1.5,1.8,1.5,2.3H176.3z"/>
	<path class="st34" d="M184.8,17.4v1.3c0,1.3-0.9,1.7-1.5,1.7c-0.6,0-1.2-0.5-1.2-1.1C182.1,18.5,182.7,17.5,184.8,17.4 M184.9,19.5
		c0.1,0.5,0.4,1.1,1,1.1c0.3,0,1.1-0.2,1.1-1.3v-0.7h-0.3v0.7c0,0.8-0.3,0.9-0.5,0.9c-0.4,0-0.5-0.6-0.5-0.7v-2.6
		c0-0.6,0-1.1-0.5-1.5c-0.5-0.5-1.1-0.7-1.8-0.7c-1.1,0-1.9,0.6-1.9,1.5c0,0.4,0.2,0.6,0.6,0.6c0.4,0,0.6-0.2,0.6-0.6
		c0-0.2-0.1-0.6-0.6-0.6c0.3-0.5,1-0.6,1.4-0.6c0.6,0,1.4,0.5,1.4,1.7v0.5c-0.7,0.1-1.6,0.1-2.4,0.5c-1,0.5-1.3,1.1-1.3,1.7
		c0,1.1,1.3,1.4,2.1,1.4C184.1,20.6,184.7,20.1,184.9,19.5z"/>
	<path class="st34" d="M188.5,19.5c0,0.6-0.2,0.6-1,0.6v0.4c0.4,0,1-0.1,1.4-0.1c0.4,0,0.9,0,1.4,0.1v-0.4c-0.9,0-1,0-1-0.6v-1.4
		l0.9-0.7c1,1.4,1.5,2.1,1.5,2.3c0,0.3-0.2,0.3-0.5,0.3v0.4c0.4,0,1.1-0.1,1.4-0.1c0.4,0,0.7,0,1.1,0.1v-0.4c-0.5,0-0.7,0-1.3-0.7
		l-1.7-2.3c0,0-0.1-0.1-0.1-0.1c0-0.1,0.9-0.8,1.1-0.9c0.8-0.7,1.4-0.7,1.6-0.7v-0.4c-0.4,0-0.5,0-0.9,0c-0.5,0-1.3,0-1.5,0v0.4
		c0.3,0,0.4,0.1,0.4,0.3c0,0.3-0.2,0.4-0.3,0.5l-1.8,1.6v-6.2l-1.9,0.2V12c0.9,0,1,0.1,1,0.7V19.5"/>
	<path class="st34" d="M199.8,17.6c0-2.1,1.1-2.7,1.8-2.7c0.1,0,0.9,0,1.4,0.5c-0.5,0.1-0.6,0.5-0.6,0.6c0,0.3,0.2,0.6,0.6,0.6
		c0.3,0,0.6-0.2,0.6-0.6c0-0.9-1-1.4-2-1.4c-1.6,0-2.8,1.4-2.8,3c0,1.7,1.3,3,2.8,3c1.7,0,2.2-1.5,2.2-1.7c0-0.1-0.1-0.1-0.2-0.1
		c-0.1,0-0.2,0.1-0.2,0.1c-0.4,1.2-1.2,1.4-1.7,1.4C201,20.3,199.8,19.7,199.8,17.6"/>
	<path class="st34" d="M208.2,17.4v1.3c0,1.3-0.9,1.7-1.5,1.7c-0.6,0-1.2-0.5-1.2-1.1C205.5,18.5,206.1,17.5,208.2,17.4 M208.3,19.5
		c0.1,0.5,0.4,1.1,1,1.1c0.3,0,1.1-0.2,1.1-1.3v-0.7h-0.3v0.7c0,0.8-0.3,0.9-0.5,0.9c-0.4,0-0.5-0.6-0.5-0.7v-2.6
		c0-0.6,0-1.1-0.5-1.5c-0.5-0.5-1.2-0.7-1.8-0.7c-1.1,0-2,0.6-2,1.5c0,0.4,0.3,0.6,0.6,0.6c0.3,0,0.6-0.2,0.6-0.6
		c0-0.2-0.1-0.6-0.7-0.6c0.4-0.5,1-0.6,1.4-0.6c0.6,0,1.4,0.5,1.4,1.7v0.5c-0.7,0.1-1.6,0.1-2.4,0.5c-1,0.5-1.3,1.1-1.3,1.7
		c0,1.1,1.3,1.4,2.1,1.4C207.4,20.6,208.1,20.1,208.3,19.5z"/>
	<path class="st34" d="M213.2,18c0.3,0.1,1.4,0.3,1.4,1.2c0,0.7-0.5,1.2-1.5,1.2c-1.1,0-1.6-0.7-1.8-1.8c0-0.2-0.1-0.2-0.2-0.2
		c-0.2,0-0.2,0.1-0.2,0.3v1.7c0,0.2,0,0.3,0.1,0.3c0.1,0,0.1,0,0.3-0.3c0,0,0-0.1,0.3-0.3c0.6,0.6,1.2,0.6,1.4,0.6
		c1.5,0,2.1-0.9,2.1-1.8c0-0.7-0.4-1.1-0.5-1.2c-0.4-0.4-0.9-0.5-1.5-0.6c-0.7-0.2-1.6-0.3-1.6-1.1c0-0.5,0.3-1,1.5-1
		c1.4,0,1.5,1.2,1.5,1.6c0,0.1,0.1,0.1,0.2,0.1c0.2,0,0.2-0.1,0.2-0.3V15c0-0.2,0-0.3-0.1-0.3c-0.1,0-0.1,0-0.3,0.2
		c0,0.1-0.2,0.2-0.2,0.2c-0.5-0.4-1-0.4-1.2-0.4c-1.6,0-2.1,0.9-2.1,1.6c0,0.5,0.2,0.8,0.6,1.1C211.9,17.7,212.2,17.8,213.2,18"/>
	<path class="st34" d="M217,17.5h3.6c0.3,0,0.3,0,0.3-0.3c0-1.3-0.7-2.6-2.3-2.6c-1.5,0-2.7,1.4-2.7,3c0,1.8,1.4,3,2.8,3
		c1.6,0,2.2-1.4,2.2-1.7c0-0.1-0.1-0.2-0.2-0.2c-0.1,0-0.1,0.1-0.2,0.2c-0.5,1.3-1.6,1.3-1.8,1.3c-0.6,0-1.2-0.4-1.5-0.9
		C217,18.8,217,18,217,17.5 M217,17.2c0.1-1.9,1.2-2.3,1.6-2.3c1.4,0,1.5,1.8,1.5,2.3H217z"/>
</g>
</svg>
