<?xml version="1.0" encoding="utf-8"?>
<!-- Generator: Adobe Illustrator 21.0.1, SVG Export Plug-In . SVG Version: 6.00 Build 0)  -->
<svg version="1.1" id="Layer_1" xmlns="http://www.w3.org/2000/svg" xmlns:xlink="http://www.w3.org/1999/xlink" x="0px" y="0px"
	 viewBox="0 0 237 183" style="enable-background:new 0 0 237 183;" xml:space="preserve">
<style type="text/css">
	.st0{fill:none;}
	.st1{fill:none;stroke:#231F20;stroke-width:1.44;}
	.st2{opacity:0.59;fill:url(#_x31_0_lpi_20_x25_);}
	.st3{fill:#29ABE2;fill-opacity:0.5;}
	.st4{fill:none;stroke:#000000;stroke-miterlimit:10;}
	.st5{clip-path:url(#SVGID_2_);}
	.st6{clip-path:url(#SVGID_4_);}
	.st7{clip-path:url(#SVGID_6_);}
	.st8{clip-path:url(#SVGID_8_);}
	.st9{clip-path:url(#SVGID_10_);}
	.st10{clip-path:url(#SVGID_12_);}
</style>
<pattern  x="10" y="-56" width="72" height="72" patternUnits="userSpaceOnUse" id="_x31_0_lpi_20_x25_" viewBox="72.2 -72 72 72" style="overflow:visible;">
	<g>
		<rect x="72.2" y="-72" class="st0" width="72" height="72"/>
		<g>
			<line class="st1" x1="144" y1="-3.6" x2="216.5" y2="-3.6"/>
			<line class="st1" x1="144" y1="-18" x2="216.5" y2="-18"/>
			<line class="st1" x1="144" y1="-32.4" x2="216.5" y2="-32.4"/>
			<line class="st1" x1="144" y1="-46.8" x2="216.5" y2="-46.8"/>
			<line class="st1" x1="144" y1="-61.2" x2="216.5" y2="-61.2"/>
			<line class="st1" x1="144" y1="-10.8" x2="216.5" y2="-10.8"/>
			<line class="st1" x1="144" y1="-25.2" x2="216.5" y2="-25.2"/>
			<line class="st1" x1="144" y1="-39.6" x2="216.5" y2="-39.6"/>
			<line class="st1" x1="144" y1="-54" x2="216.5" y2="-54"/>
			<line class="st1" x1="144" y1="-68.4" x2="216.5" y2="-68.4"/>
		</g>
		<g>
			<line class="st1" x1="72" y1="-3.6" x2="144.5" y2="-3.6"/>
			<line class="st1" x1="72" y1="-18" x2="144.5" y2="-18"/>
			<line class="st1" x1="72" y1="-32.4" x2="144.5" y2="-32.4"/>
			<line class="st1" x1="72" y1="-46.8" x2="144.5" y2="-46.8"/>
			<line class="st1" x1="72" y1="-61.2" x2="144.5" y2="-61.2"/>
			<line class="st1" x1="72" y1="-10.8" x2="144.5" y2="-10.8"/>
			<line class="st1" x1="72" y1="-25.2" x2="144.5" y2="-25.2"/>
			<line class="st1" x1="72" y1="-39.6" x2="144.5" y2="-39.6"/>
			<line class="st1" x1="72" y1="-54" x2="144.5" y2="-54"/>
			<line class="st1" x1="72" y1="-68.4" x2="144.5" y2="-68.4"/>
		</g>
		<g>
			<line class="st1" x1="0" y1="-3.6" x2="72.5" y2="-3.6"/>
			<line class="st1" x1="0" y1="-18" x2="72.5" y2="-18"/>
			<line class="st1" x1="0" y1="-32.4" x2="72.5" y2="-32.4"/>
			<line class="st1" x1="0" y1="-46.8" x2="72.5" y2="-46.8"/>
			<line class="st1" x1="0" y1="-61.2" x2="72.5" y2="-61.2"/>
			<line class="st1" x1="0" y1="-10.8" x2="72.5" y2="-10.8"/>
			<line class="st1" x1="0" y1="-25.2" x2="72.5" y2="-25.2"/>
			<line class="st1" x1="0" y1="-39.6" x2="72.5" y2="-39.6"/>
			<line class="st1" x1="0" y1="-54" x2="72.5" y2="-54"/>
			<line class="st1" x1="0" y1="-68.4" x2="72.5" y2="-68.4"/>
		</g>
	</g>
</pattern>
<polygon class="st2" points="52,30 52,150 199,150 "/>
<polygon class="st3" points="132,95 51,95 51,149 199,149 "/>
<polyline class="st4" points="51.5,8.5 51.5,165.5 227.5,165.5 "/>
<line class="st4" x1="52" y1="149.5" x2="226" y2="149.5"/>
<line class="st4" x1="219" y1="165.5" x2="51.5" y2="29.5"/>
<rect x="151" y="40" class="st2" width="21" height="21"/>
<rect x="151" y="74" class="st3" width="21" height="21"/>
<g>
	<defs>
		<rect id="SVGID_1_" x="4.1" y="144.1" width="44" height="9.4"/>
	</defs>
	<clipPath id="SVGID_2_">
		<use xlink:href="#SVGID_1_"  style="overflow:visible;"/>
	</clipPath>
	<path class="st5" d="M8.7,145.2c0.1-0.5,0.1-0.5,0.7-0.5h1.3c1.1,0,1.8,0.4,1.8,1.3c0,0.5-0.3,1.6-0.8,2.1c-0.6,0.6-1.4,0.7-2,0.7
		H7.8L8.7,145.2 M7.7,149h2.2c1.9,0,3.7-1.3,3.7-2.8c0-1-0.9-2-2.6-2H6.8c-0.2,0-0.4,0-0.4,0.3c0,0.1,0.1,0.1,0.4,0.1
		c0.2,0,0.4,0,0.6,0c0.2,0,0.3,0.1,0.3,0.2c0,0.1,0,0.1-0.1,0.2l-1.8,7c-0.1,0.5-0.2,0.6-1.2,0.6c-0.2,0-0.4,0-0.4,0.3
		c0,0.1,0.2,0.1,0.2,0.1c0.3,0,1.3,0,1.7,0c0.3,0,0.6,0,0.8,0c0.3,0,0.6,0,0.8,0c0.1,0,0.3,0,0.3-0.2c0-0.2-0.1-0.2-0.3-0.2
		c-0.5,0-0.9,0-0.9-0.2c0-0.1,0-0.2,0-0.2L7.7,149z"/>
	<path class="st5" d="M26.4,151.4c0.2,0,0.4,0,0.4-0.3c0-0.3-0.2-0.3-0.5-0.3h-7.7c-0.2,0-0.4,0-0.4,0.3c0,0.3,0.2,0.3,0.4,0.3H26.4
		 M26.4,148.9c0.2,0,0.5,0,0.5-0.3c0-0.3-0.2-0.3-0.4-0.3h-7.8c-0.2,0-0.4,0-0.4,0.3c0,0.3,0.2,0.3,0.4,0.3H26.4z"/>
	<path class="st5" d="M32.3,152.4c-0.1,0.2-0.1,0.5-0.1,0.6c0,0.2,0.2,0.3,0.4,0.3c0.2,0,0.4-0.1,0.5-0.4c0,0,0.2-0.6,0.3-1l0.3-1.2
		c0.1-0.3,0.2-0.6,0.2-0.9c0.1-0.2,0.2-0.6,0.2-0.6c0.2-0.4,0.9-1.6,2.1-1.6c0.6,0,0.7,0.5,0.7,0.9c0,0.3-0.1,0.7-0.2,1.1l-0.4,1.5
		l-0.3,1c-0.1,0.3-0.2,0.7-0.2,0.8c0,0.2,0.2,0.3,0.4,0.3c0.4,0,0.5-0.3,0.6-0.7c0.2-0.7,0.7-2.6,0.8-3.1c0.1-0.2,0.7-1.7,2.2-1.7
		c0.6,0,0.7,0.4,0.7,0.9c0,0.7-0.5,2.2-0.8,2.9c-0.1,0.3-0.2,0.5-0.2,0.7c0,0.6,0.5,1.1,1.1,1.1c1.2,0,1.7-1.9,1.7-2
		c0-0.1-0.1-0.1-0.1-0.1c-0.1,0-0.1,0-0.2,0.2c-0.2,0.7-0.6,1.6-1.3,1.6c-0.2,0-0.3-0.1-0.3-0.4c0-0.3,0.1-0.6,0.2-0.9
		c0.2-0.7,0.8-2.1,0.8-2.8c0-0.9-0.5-1.4-1.5-1.4c-1,0-1.6,0.6-2.1,1.3c0-0.2-0.1-0.6-0.4-0.9c-0.3-0.3-0.7-0.3-1.1-0.3
		c-1.2,0-1.8,0.8-2,1.1c-0.1-0.7-0.6-1.1-1.2-1.1c-0.6,0-0.9,0.5-1,0.7c-0.2,0.5-0.4,1.2-0.4,1.3c0,0.1,0.1,0.1,0.2,0.1
		c0.1,0,0.1,0,0.2-0.3c0.2-0.9,0.5-1.5,1-1.5c0.2,0,0.4,0.1,0.4,0.6c0,0.3-0.1,0.4-0.2,1.1L32.3,152.4"/>
	<path class="st5" d="M47.6,148.2c-0.2,0-0.4,0-0.6,0.2c-0.2,0.2-0.2,0.4-0.2,0.5c0,0.3,0.2,0.5,0.5,0.5c0.4,0,0.7-0.3,0.7-0.8
		c0-0.6-0.6-1.1-1.5-1.1c-1.8,0-3.5,1.9-3.5,3.7c0,1.2,0.7,2.2,2.1,2.2c1.9,0,3-1.4,3-1.5c0-0.1-0.1-0.2-0.2-0.2
		c-0.1,0-0.1,0-0.2,0.1c-1,1.3-2.4,1.3-2.6,1.3c-0.8,0-1.2-0.6-1.2-1.4c0-0.5,0.3-1.8,0.7-2.6c0.4-0.7,1.1-1.3,1.8-1.3
		C47,147.7,47.4,147.9,47.6,148.2"/>
</g>
<g>
	<defs>
		<rect id="SVGID_3_" x="40.7" y="11" width="6" height="11"/>
	</defs>
	<clipPath id="SVGID_4_">
		<use xlink:href="#SVGID_3_"  style="overflow:visible;"/>
	</clipPath>
	<path class="st6" d="M43.9,16c-1.6-0.3-1.7-1.4-1.7-1.7c0-0.8,0.6-1.6,1.7-1.7V16 M43.9,17.2V21c-1.1-0.1-1.8-0.7-1.9-1.5
		c0.1,0,0.2,0,0.2,0c0.3,0,0.6-0.2,0.6-0.6c0-0.3-0.3-0.6-0.6-0.6c-0.1,0-0.6,0-0.6,0.7c0,1.1,0.7,2.3,2.3,2.4V22h0.4v-0.6
		c1.4-0.1,2.3-1.3,2.3-2.7c0-1.1-0.6-1.8-0.7-1.9c-0.5-0.6-1-0.7-1.6-0.9v-3.5c1.1,0.1,1.7,0.6,1.9,1.4c-0.1,0-0.1,0-0.2,0
		c-0.3,0-0.6,0.2-0.6,0.6c0,0.4,0.3,0.6,0.6,0.6c0.1,0,0.6,0,0.6-0.6c0-1.3-0.9-2.2-2.3-2.3v-0.6h-0.4v0.6c-1.4,0.1-2.3,1.3-2.3,2.5
		c0,0.9,0.5,1.5,0.7,1.8C42.8,16.9,43.2,17,43.9,17.2z M44.3,17.3c1.6,0.3,1.7,1.6,1.7,1.9c0,0.9-0.6,1.8-1.7,1.9V17.3z"/>
</g>
<g>
	<defs>
		<rect id="SVGID_5_" x="215" y="169" width="7" height="9"/>
	</defs>
	<clipPath id="SVGID_6_">
		<use xlink:href="#SVGID_5_"  style="overflow:visible;"/>
	</clipPath>
	<path class="st7" d="M217.5,175.3c-0.8,0-0.8-1-0.8-1.2c0-0.6,0.4-2,0.6-2.6c0.4-1,1.1-1.5,1.6-1.5c0.8,0,1,1.1,1,1.1
		c0,0.1-0.7,2.9-0.7,3C218.9,174.4,218.2,175.3,217.5,175.3 M221.1,169.8c0-0.1,0-0.1-0.1-0.1c-0.1,0-0.7,0.5-0.9,0.9
		c-0.3-0.7-0.8-0.9-1.2-0.9c-1.5,0-3.1,1.9-3.1,3.8c0,1.3,0.8,2.1,1.7,2.1c0.6,0,1.1-0.3,1.5-0.8c-0.1,0.5-0.5,2.2-0.6,2.3
		c-0.1,0.3-0.2,0.4-0.9,0.4c-0.2,0-0.3,0-0.3,0.3c0,0,0,0.1,0.2,0.1c0.4,0,0.9,0,1.3,0s0.9,0,1.3,0c0.1,0,0.2,0,0.2-0.3
		c0-0.1-0.1-0.1-0.3-0.1c-0.6,0-0.6-0.1-0.6-0.2c0-0.1,0-0.2,0.1-0.3L221.1,169.8z"/>
</g>
<g>
	<defs>
		<rect id="SVGID_7_" x="78" y="33" width="27" height="14"/>
	</defs>
	<clipPath id="SVGID_8_">
		<use xlink:href="#SVGID_7_"  style="overflow:visible;"/>
	</clipPath>
	<path class="st8" d="M81.4,39c0.1-0.4,0.4-0.7,0.7-0.9c0.5-0.4,0.8-0.5,1-0.5c0.5,0,0.9,0.5,0.9,1.2c0,0.8-0.4,2.3-0.7,2.7
		c-0.5,0.9-1.1,1.3-1.5,1.3c-0.9,0-1-1.1-1-1.1c0,0,0-0.1,0.1-0.2L81.4,39 M79.1,44.6C79,45,79,45.1,78.4,45.1c-0.1,0-0.3,0-0.3,0.3
		c0,0.1,0.1,0.1,0.2,0.1c0.3,0,0.7,0,1.1,0c0.5,0,0.9,0,1.3,0c0.1,0,0.2,0,0.2-0.2c0-0.2-0.1-0.2-0.3-0.2c-0.7,0-0.7-0.1-0.7-0.2
		c0-0.1,0.6-2.3,0.6-2.6c0.2,0.4,0.5,0.8,1.2,0.8c1.5,0,3.1-1.9,3.1-3.8c0-1.2-0.7-2.1-1.7-2.1c-0.6,0-1.3,0.5-1.7,1
		c-0.1-0.7-0.7-1-1.2-1c-0.6,0-0.9,0.5-1,0.7c-0.2,0.5-0.4,1.2-0.4,1.3c0,0.1,0.1,0.1,0.2,0.1c0.1,0,0.1,0,0.2-0.3
		c0.2-0.9,0.5-1.5,1-1.5c0.2,0,0.4,0.1,0.4,0.6c0,0.3-0.1,0.5-0.1,0.7L79.1,44.6z"/>
	<path class="st8" d="M86.1,43.9c0,0.1-0.1,0.2-0.1,0.4c0,0.4,0.3,0.8,0.9,0.8c0.9,0,1.3-1.3,1.3-1.4c0-0.1-0.1-0.1-0.1-0.1
		c-0.1,0-0.1,0.1-0.2,0.2c-0.2,0.7-0.6,1.1-1,1.1c-0.2,0-0.2-0.1-0.2-0.3s0.1-0.4,0.2-0.6c0.1-0.3,0.2-0.5,0.3-0.7
		c0.1-0.2,0.4-1,0.5-1.1c0-0.1,0.1-0.2,0.1-0.3c0-0.4-0.3-0.8-0.9-0.8c-0.9,0-1.3,1.2-1.3,1.4c0,0.1,0.1,0.1,0.2,0.1
		c0.1,0,0.1-0.1,0.2-0.1c0.2-0.8,0.6-1.1,1-1.1c0.1,0,0.2,0.1,0.2,0.3c0,0.2-0.1,0.3-0.3,0.9L86.1,43.9 M87.9,39.3
		c0-0.1-0.1-0.3-0.4-0.3c-0.2,0-0.5,0.2-0.5,0.5c0,0.2,0.1,0.3,0.4,0.3C87.7,39.8,87.9,39.5,87.9,39.3z"/>
	<path class="st8" d="M93.6,46.1c0-0.1,0-0.1-0.2-0.3c-1.6-1.6-2.1-4.1-2.1-6.1c0-2.3,0.5-4.5,2.1-6.2c0.2-0.2,0.2-0.2,0.2-0.2
		c0-0.1-0.1-0.1-0.1-0.1c-0.1,0-1.3,0.9-2.1,2.5c-0.6,1.4-0.8,2.9-0.8,4c0,1,0.1,2.6,0.9,4c0.8,1.6,1.9,2.4,2,2.4
		C93.6,46.3,93.6,46.2,93.6,46.1"/>
	<path class="st8" d="M96.6,42.8c-0.8,0-0.9-1-0.9-1.2c0-0.6,0.4-2.1,0.6-2.6c0.4-1,1.1-1.5,1.6-1.5c0.9,0,1,1,1,1.1
		c0,0.1-0.7,2.9-0.8,3C98,42,97.3,42.8,96.6,42.8 M100.2,37.4c0-0.1-0.1-0.1-0.1-0.1c-0.2,0-0.7,0.5-0.9,0.9
		c-0.3-0.7-0.8-0.9-1.2-0.9c-1.5,0-3.1,1.9-3.1,3.8c0,1.3,0.7,2.1,1.7,2.1c0.6,0,1.1-0.3,1.5-0.8c-0.1,0.5-0.6,2.2-0.6,2.3
		c-0.1,0.4-0.2,0.4-0.9,0.4c-0.2,0-0.3,0-0.3,0.3c0,0,0,0.1,0.2,0.1c0.4,0,0.9,0,1.3,0c0.5,0,0.9,0,1.4,0c0.1,0,0.2,0,0.2-0.2
		c0-0.2-0.1-0.2-0.3-0.2c-0.6,0-0.6-0.1-0.6-0.2c0-0.1,0-0.2,0.1-0.3L100.2,37.4z"/>
	<path class="st8" d="M104.4,39.8c0-1-0.2-2.6-0.9-4c-0.8-1.6-1.9-2.4-2.1-2.4c-0.1,0-0.1,0.1-0.1,0.1c0,0,0,0.1,0.2,0.3
		c1.3,1.3,2,3.4,2,6.1c0,2.2-0.5,4.5-2.1,6.2c-0.2,0.1-0.2,0.2-0.2,0.2c0,0.1,0,0.1,0.1,0.1c0.1,0,1.3-0.9,2.1-2.5
		C104.2,42.3,104.4,40.8,104.4,39.8"/>
</g>
<g>
	<defs>
		<rect id="SVGID_9_" x="176" y="42" width="11" height="12"/>
	</defs>
	<clipPath id="SVGID_10_">
		<use xlink:href="#SVGID_9_"  style="overflow:visible;"/>
	</clipPath>
	<path class="st9" d="M184.2,43c0,0,0-0.1-0.1-0.1c-0.1,0-0.1,0-0.2,0.2l-0.6,0.7c-0.3-0.6-1-1-1.9-1c-1.7,0-3.2,1.5-3.2,3.1
		c0,1,0.7,1.7,1.4,1.8l1.4,0.3c0.5,0.1,1.2,0.3,1.2,1.4c0,1.2-1.1,2.4-2.3,2.4c-0.8,0-2.3-0.3-2.3-1.9c0-0.3,0.1-0.6,0.1-0.7
		c0-0.1,0-0.1,0-0.1c0-0.1-0.1-0.1-0.2-0.1s-0.1,0-0.1,0.1c-0.1,0-0.8,3-0.8,3c0,0.1,0.1,0.1,0.1,0.1c0.1,0,0.1,0,0.2-0.2l0.6-0.7
		c0.6,0.7,1.4,0.9,2.2,0.9c1.8,0,3.3-1.7,3.3-3.3c0-0.9-0.4-1.4-0.6-1.5c-0.3-0.3-0.5-0.4-1.7-0.7c-0.3-0.1-0.7-0.2-0.9-0.2
		c-0.3-0.1-0.8-0.5-0.8-1.2c0-1,1-2.2,2.3-2.2c1.1,0,1.9,0.6,1.9,2c0,0.4-0.1,0.6-0.1,0.7c0,0,0,0.1,0.2,0.1c0.1,0,0.1-0.1,0.2-0.3
		L184.2,43"/>
	<path class="st9" d="M184.9,52.8c-0.1,0.1-0.1,0.2-0.1,0.4c0,0.4,0.3,0.8,0.9,0.8c0.9,0,1.3-1.3,1.3-1.4c0-0.1-0.1-0.1-0.1-0.1
		c-0.1,0-0.1,0.1-0.2,0.2c-0.2,0.7-0.6,1.1-1,1.1c-0.2,0-0.2-0.1-0.2-0.3c0-0.2,0.1-0.4,0.2-0.6c0.1-0.2,0.2-0.5,0.3-0.7
		c0.1-0.2,0.4-1,0.4-1.1c0-0.1,0.1-0.2,0.1-0.3c0-0.4-0.3-0.8-0.9-0.8c-0.9,0-1.3,1.2-1.3,1.4c0,0.1,0.1,0.1,0.2,0.1
		c0.1,0,0.1-0.1,0.2-0.2c0.2-0.8,0.6-1.1,1-1.1c0.1,0,0.2,0.1,0.2,0.3c0,0.2-0.1,0.3-0.3,0.9L184.9,52.8 M186.7,48.3
		c0-0.1-0.1-0.3-0.4-0.3c-0.2,0-0.5,0.2-0.5,0.5c0,0.2,0.1,0.3,0.4,0.3C186.5,48.8,186.7,48.5,186.7,48.3z"/>
</g>
<g>
	<defs>
		<rect id="SVGID_11_" x="175.8" y="78.2" width="29.8" height="14"/>
	</defs>
	<clipPath id="SVGID_12_">
		<use xlink:href="#SVGID_11_"  style="overflow:visible;"/>
	</clipPath>
	<path class="st10" d="M180.7,83h1.1c0.2,0,0.4,0,0.4-0.3c0-0.1-0.1-0.1-0.3-0.1h-1.1l0.3-1.5c0.1-0.3,0.2-1.2,0.3-1.4
		c0.1-0.2,0.3-0.4,0.6-0.4c0.1,0,0.4,0,0.6,0.2c-0.6,0.1-0.7,0.5-0.7,0.7c0,0.3,0.2,0.5,0.5,0.5c0.3,0,0.7-0.3,0.7-0.8
		c0-0.6-0.6-0.9-1.1-0.9c-0.4,0-1.3,0.2-1.7,1.5c-0.1,0.3-0.1,0.4-0.4,2.1H179c-0.3,0-0.4,0-0.4,0.2c0,0.2,0.1,0.2,0.4,0.2h0.9
		l-1,5.1c-0.2,1.3-0.5,2.4-1.1,2.4c-0.1,0-0.4,0-0.6-0.2c0.6,0,0.7-0.5,0.7-0.7c0-0.3-0.2-0.5-0.5-0.5c-0.3,0-0.7,0.3-0.7,0.8
		c0,0.6,0.6,0.9,1.1,0.9c0.7,0,1.2-0.8,1.5-1.3c0.4-0.8,0.7-2.4,0.7-2.5L180.7,83"/>
	<path class="st10" d="M184.8,90c-0.4,0-1-0.2-1.1-1c-0.1-0.5-0.1-1.3-0.1-1.9c0-0.7,0-1.4,0.1-1.8c0.2-0.7,0.7-0.9,1.1-0.9
		c0.5,0,1,0.3,1.1,0.8c0.2,0.5,0.2,1.1,0.2,1.9c0,0.7,0,1.3-0.1,1.9C185.8,89.9,185.2,90,184.8,90 M186.9,87.2c0-1-0.1-1.7-0.5-2.3
		c-0.3-0.4-0.9-0.8-1.6-0.8c-2.1,0-2.1,2.5-2.1,3.1c0,0.7,0,3.1,2.1,3.1C186.9,90.3,186.9,87.9,186.9,87.2z"/>
	<path class="st10" d="M193.8,79c0.1-0.2,0.1-0.2,0.1-0.2c0-0.2-0.1-0.3-0.3-0.3c-0.1,0-0.2,0-0.2,0.1L188.8,91
		c-0.1,0.2-0.1,0.2-0.1,0.2c0,0.1,0.1,0.3,0.3,0.3c0.2,0,0.2-0.1,0.3-0.3L193.8,79"/>
	<path class="st10" d="M203.7,80.7c0.1-0.5,0.3-0.9,1.4-1c0.1,0,0.2,0,0.2-0.3c0,0,0-0.1-0.2-0.1c-0.4,0-0.9,0-1.3,0
		c-0.5,0-0.9,0-1.3,0c-0.1,0-0.2,0-0.2,0.2c0,0.2,0.1,0.2,0.2,0.2c0.7,0,0.9,0.3,0.9,0.6c0,0.1,0,0.2,0,0.3l-1.5,5.8l-2.9-6.8
		c-0.1-0.2-0.1-0.2-0.4-0.2h-1.8c-0.2,0-0.4,0-0.4,0.2c0,0.2,0.1,0.2,0.4,0.2c0.1,0,0.9,0,0.9,0.1l-1.7,7c-0.1,0.5-0.3,0.9-1.4,1
		c-0.1,0-0.2,0-0.2,0.2c0,0.1,0.1,0.2,0.2,0.2c0.4,0,0.9-0.1,1.3-0.1s0.9,0.1,1.3,0.1c0.1,0,0.2,0,0.2-0.3c0-0.1-0.1-0.1-0.3-0.1
		c-0.7,0-0.9-0.3-0.9-0.6c0-0.1,0-0.2,0.1-0.3l1.7-6.9c0.1,0.1,0.1,0.1,0.1,0.2l3.2,7.7c0.1,0.2,0.1,0.2,0.2,0.2
		c0.2,0,0.2-0.1,0.2-0.3L203.7,80.7"/>
</g>
</svg>
