<?xml version="1.0" encoding="utf-8"?>
<!-- Generator: Adobe Illustrator 21.0.1, SVG Export Plug-In . SVG Version: 6.00 Build 0)  -->
<svg version="1.1" id="Layer_1" xmlns="http://www.w3.org/2000/svg" xmlns:xlink="http://www.w3.org/1999/xlink" x="0px" y="0px"
	 viewBox="0 0 237 183" style="enable-background:new 0 0 237 183;" xml:space="preserve">
<style type="text/css">
	.st0{fill:none;stroke:#000000;stroke-miterlimit:10;}
	.st1{clip-path:url(#SVGID_2_);}
	.st2{clip-path:url(#SVGID_4_);}
	.st3{clip-path:url(#SVGID_6_);}
	.st4{clip-path:url(#SVGID_8_);}
	.st5{clip-path:url(#SVGID_10_);}
	.st6{clip-path:url(#SVGID_12_);}
	.st7{clip-path:url(#SVGID_14_);}
	.st8{clip-path:url(#SVGID_16_);}
	.st9{clip-path:url(#SVGID_18_);}
	.st10{clip-path:url(#SVGID_20_);}
	.st11{clip-path:url(#SVGID_22_);}
	.st12{clip-path:url(#SVGID_24_);}
</style>
<polyline class="st0" points="51.5,8.5 51.5,165.5 227.5,165.5 "/>
<line class="st0" x1="52" y1="149.5" x2="226" y2="149.5"/>
<line class="st0" x1="219" y1="165.5" x2="51.5" y2="29.5"/>
<line class="st0" x1="138.5" y1="165.5" x2="51.5" y2="72.5"/>
<g>
	<defs>
		<rect id="SVGID_1_" x="40.7" y="11" width="6" height="11"/>
	</defs>
	<clipPath id="SVGID_2_">
		<use xlink:href="#SVGID_1_"  style="overflow:visible;"/>
	</clipPath>
	<path class="st1" d="M43.9,16c-1.6-0.3-1.7-1.4-1.7-1.7c0-0.8,0.6-1.6,1.7-1.7V16 M43.9,17.2V21c-1.1-0.1-1.8-0.7-1.9-1.5
		c0.1,0,0.2,0,0.2,0c0.3,0,0.6-0.2,0.6-0.6c0-0.3-0.3-0.6-0.6-0.6c-0.1,0-0.6,0-0.6,0.7c0,1.1,0.7,2.3,2.3,2.4V22h0.4v-0.6
		c1.4-0.1,2.3-1.3,2.3-2.7c0-1.1-0.6-1.8-0.7-1.9c-0.5-0.6-1-0.7-1.6-0.9v-3.5c1.1,0.1,1.7,0.6,1.9,1.4c-0.1,0-0.1,0-0.2,0
		c-0.3,0-0.6,0.2-0.6,0.6c0,0.4,0.3,0.6,0.6,0.6c0.1,0,0.6,0,0.6-0.6c0-1.3-0.9-2.2-2.3-2.3v-0.6h-0.4v0.6c-1.4,0.1-2.3,1.3-2.3,2.5
		c0,0.9,0.5,1.5,0.7,1.8C42.8,16.9,43.2,17,43.9,17.2z M44.3,17.3c1.6,0.3,1.7,1.6,1.7,1.9c0,0.9-0.6,1.8-1.7,1.9V17.3z"/>
</g>
<g>
	<defs>
		<rect id="SVGID_3_" x="215" y="169" width="7" height="9"/>
	</defs>
	<clipPath id="SVGID_4_">
		<use xlink:href="#SVGID_3_"  style="overflow:visible;"/>
	</clipPath>
	<path class="st2" d="M217.5,175.3c-0.8,0-0.8-1-0.8-1.2c0-0.6,0.4-2,0.6-2.6c0.4-1,1.1-1.5,1.6-1.5c0.8,0,1,1.1,1,1.1
		c0,0.1-0.7,2.9-0.7,3C218.9,174.4,218.2,175.3,217.5,175.3 M221.1,169.8c0-0.1,0-0.1-0.1-0.1c-0.1,0-0.7,0.5-0.9,0.9
		c-0.3-0.7-0.8-0.9-1.2-0.9c-1.5,0-3.1,1.9-3.1,3.8c0,1.3,0.8,2.1,1.7,2.1c0.6,0,1.1-0.3,1.5-0.8c-0.1,0.5-0.5,2.2-0.6,2.3
		c-0.1,0.3-0.2,0.4-0.9,0.4c-0.2,0-0.3,0-0.3,0.3c0,0,0,0.1,0.2,0.1c0.4,0,0.9,0,1.3,0s0.9,0,1.3,0c0.1,0,0.2,0,0.2-0.3
		c0-0.1-0.1-0.1-0.3-0.1c-0.6,0-0.6-0.1-0.6-0.2c0-0.1,0-0.2,0.1-0.3L221.1,169.8z"/>
</g>
<g>
	<defs>
		<rect id="SVGID_5_" x="10.3" y="144.1" width="33" height="9.4"/>
	</defs>
	<clipPath id="SVGID_6_">
		<use xlink:href="#SVGID_5_"  style="overflow:visible;"/>
	</clipPath>
	<path class="st3" d="M15,145.2c0.1-0.5,0.2-0.5,0.7-0.5H17c1.1,0,1.8,0.4,1.8,1.3c0,0.5-0.3,1.6-0.8,2.1c-0.6,0.6-1.4,0.7-2,0.7
		h-1.8L15,145.2 M14.1,149h2.2c1.8,0,3.6-1.3,3.6-2.8c0-1-0.9-2-2.6-2h-4.2c-0.2,0-0.4,0-0.4,0.3c0,0.1,0.1,0.1,0.4,0.1
		c0.2,0,0.4,0,0.6,0c0.2,0,0.3,0.1,0.3,0.2c0,0.1,0,0.1-0.1,0.2l-1.7,7c-0.1,0.5-0.2,0.6-1.2,0.6c-0.2,0-0.3,0-0.3,0.3
		c0,0.1,0.2,0.1,0.2,0.1c0.4,0,1.3,0,1.7,0c0.3,0,0.6,0,0.8,0c0.3,0,0.6,0,0.9,0c0.1,0,0.3,0,0.3-0.2c0-0.2-0.1-0.2-0.4-0.2
		c-0.5,0-0.9,0-0.9-0.2c0-0.1,0-0.2,0.1-0.2L14.1,149z"/>
	<path class="st3" d="M32.8,151.4c0.2,0,0.4,0,0.4-0.3c0-0.3-0.2-0.3-0.4-0.3H25c-0.2,0-0.5,0-0.5,0.3c0,0.3,0.2,0.3,0.4,0.3H32.8
		 M32.8,148.9c0.2,0,0.4,0,0.4-0.3c0-0.3-0.2-0.3-0.4-0.3H25c-0.2,0-0.4,0-0.4,0.3c0,0.3,0.2,0.3,0.5,0.3H32.8z"/>
	<path class="st3" d="M42.6,148.2c-0.2,0-0.4,0-0.6,0.2c-0.2,0.2-0.2,0.4-0.2,0.5c0,0.3,0.2,0.5,0.5,0.5c0.4,0,0.7-0.3,0.7-0.8
		c0-0.6-0.6-1.1-1.5-1.1c-1.8,0-3.5,1.9-3.5,3.7c0,1.2,0.7,2.2,2.1,2.2c1.8,0,2.9-1.4,2.9-1.5c0-0.1-0.1-0.2-0.2-0.2
		c-0.1,0-0.1,0-0.2,0.1c-1,1.3-2.4,1.3-2.6,1.3c-0.8,0-1.1-0.6-1.1-1.4c0-0.5,0.2-1.8,0.7-2.6c0.4-0.7,1.1-1.3,1.8-1.3
		C41.9,147.7,42.4,147.9,42.6,148.2"/>
</g>
<g>
	<defs>
		<rect id="SVGID_7_" x="103.6" y="113.2" width="31" height="14"/>
	</defs>
	<clipPath id="SVGID_8_">
		<use xlink:href="#SVGID_7_"  style="overflow:visible;"/>
	</clipPath>
	<path class="st4" d="M107.6,119.2c0.1-0.4,0.5-0.7,0.7-0.9c0.5-0.4,0.8-0.5,1-0.5c0.5,0,0.8,0.5,0.8,1.2s-0.4,2.3-0.7,2.7
		c-0.4,0.9-1.1,1.3-1.5,1.3c-0.9,0-1-1.1-1-1.1c0,0,0-0.1,0-0.2L107.6,119.2 M105.3,124.8c-0.1,0.5-0.1,0.5-0.7,0.5
		c-0.2,0-0.3,0-0.3,0.3c0,0.1,0.1,0.1,0.2,0.1c0.3,0,0.7,0,1.1,0c0.4,0,0.9,0,1.3,0c0.1,0,0.2,0,0.2-0.2c0-0.2-0.1-0.2-0.3-0.2
		c-0.6,0-0.6-0.1-0.6-0.2s0.5-2.3,0.6-2.6c0.2,0.4,0.5,0.8,1.2,0.8c1.5,0,3.1-1.9,3.1-3.8c0-1.2-0.7-2.1-1.7-2.1
		c-0.6,0-1.3,0.5-1.7,1c-0.1-0.7-0.7-1-1.2-1c-0.6,0-0.9,0.5-1,0.7c-0.2,0.5-0.4,1.2-0.4,1.3c0,0.1,0.1,0.1,0.2,0.1
		c0.1,0,0.2,0,0.2-0.3c0.2-0.9,0.5-1.5,0.9-1.5c0.2,0,0.4,0.1,0.4,0.6c0,0.3,0,0.5-0.1,0.7L105.3,124.8z"/>
	<path class="st4" d="M114.9,119.7c0.1-0.3,0.1-0.4,0.9-0.4c0.3,0,0.4,0,0.4-0.2c0,0,0-0.1-0.2-0.1c-0.2,0-0.5,0-0.7,0
		c-0.2,0-0.5,0-0.7,0c-0.2,0-0.4,0-0.6,0c-0.2,0-0.4,0-0.6,0c-0.1,0-0.2,0-0.2,0.2c0,0.1,0.1,0.1,0.3,0.1c0,0,0.2,0,0.3,0
		c0.2,0,0.2,0,0.2,0.1c0,0,0,0.1,0,0.2l-1.2,4.8c-0.1,0.3-0.1,0.4-0.8,0.4c-0.2,0-0.3,0-0.3,0.2c0,0.1,0.1,0.1,0.3,0.1h4.5
		c0.2,0,0.2,0,0.3-0.2c0.1-0.2,0.8-2,0.8-2.1c0,0,0-0.1-0.2-0.1c-0.1,0-0.1,0.1-0.2,0.2c-0.3,0.9-0.7,1.9-2.4,1.9h-1
		c-0.3,0-0.3,0-0.3-0.1c0,0,0-0.1,0.1-0.2L114.9,119.7"/>
	<path class="st4" d="M123.2,126.3c0-0.1,0-0.1-0.2-0.3c-1.6-1.6-2.1-4.1-2.1-6.1c0-2.3,0.5-4.5,2.1-6.2c0.2-0.2,0.2-0.2,0.2-0.2
		c0-0.1-0.1-0.1-0.1-0.1c-0.1,0-1.3,0.9-2.1,2.5c-0.7,1.4-0.8,2.9-0.8,4c0,1,0.1,2.6,0.9,4c0.8,1.6,1.9,2.4,2,2.4
		C123.2,126.5,123.2,126.4,123.2,126.3"/>
	<path class="st4" d="M126.3,123.1c-0.8,0-0.9-1-0.9-1.2c0-0.6,0.4-2.1,0.6-2.6c0.4-1,1.1-1.5,1.6-1.5c0.9,0,1,1,1,1.1
		c0,0.1-0.7,2.9-0.8,3C127.7,122.2,127,123.1,126.3,123.1 M129.9,117.6c0-0.1-0.1-0.1-0.1-0.1c-0.2,0-0.7,0.5-0.9,0.9
		c-0.3-0.7-0.8-0.9-1.2-0.9c-1.5,0-3.1,1.9-3.1,3.8c0,1.3,0.7,2.1,1.7,2.1c0.6,0,1.1-0.3,1.5-0.8c-0.1,0.5-0.6,2.2-0.6,2.3
		c-0.1,0.4-0.2,0.4-0.9,0.4c-0.2,0-0.3,0-0.3,0.3c0,0,0,0.1,0.2,0.1c0.4,0,0.9,0,1.3,0c0.5,0,0.9,0,1.4,0c0.1,0,0.2,0,0.2-0.2
		c0-0.2-0.1-0.2-0.3-0.2c-0.6,0-0.6-0.1-0.6-0.2c0-0.1,0-0.2,0.1-0.3L129.9,117.6z"/>
	<path class="st4" d="M134,120c0-1-0.1-2.6-0.9-4c-0.8-1.6-1.9-2.4-2-2.4c-0.1,0-0.1,0.1-0.1,0.1c0,0,0,0.1,0.2,0.3
		c1.3,1.3,2,3.4,2,6.1c0,2.2-0.5,4.5-2.1,6.2c-0.2,0.1-0.2,0.2-0.2,0.2c0,0.1,0.1,0.1,0.1,0.1c0.1,0,1.3-0.9,2.1-2.5
		C133.8,122.5,134,121.1,134,120"/>
</g>
<g>
	<defs>
		<rect id="SVGID_9_" x="102.9" y="58.2" width="33" height="14"/>
	</defs>
	<clipPath id="SVGID_10_">
		<use xlink:href="#SVGID_9_"  style="overflow:visible;"/>
	</clipPath>
	<path class="st5" d="M107.1,64.2c0.1-0.4,0.4-0.7,0.7-0.9c0.5-0.4,0.8-0.5,1.1-0.5c0.5,0,0.8,0.5,0.8,1.2s-0.4,2.3-0.7,2.7
		c-0.5,0.9-1.1,1.3-1.5,1.3c-0.9,0-1-1.1-1-1.1c0,0,0-0.1,0.1-0.2L107.1,64.2 M104.8,69.8c-0.1,0.5-0.1,0.5-0.7,0.5
		c-0.1,0-0.3,0-0.3,0.3c0,0.1,0.1,0.1,0.2,0.1c0.3,0,0.7,0,1.1,0c0.4,0,0.9,0,1.3,0c0.1,0,0.2,0,0.2-0.2c0-0.2-0.1-0.2-0.3-0.2
		c-0.6,0-0.6-0.1-0.6-0.2s0.5-2.3,0.6-2.6c0.2,0.4,0.5,0.8,1.2,0.8c1.5,0,3.1-1.9,3.1-3.8c0-1.2-0.7-2.1-1.7-2.1
		c-0.6,0-1.3,0.5-1.7,1c-0.1-0.7-0.7-1-1.2-1c-0.6,0-0.9,0.5-1,0.7c-0.2,0.5-0.4,1.2-0.4,1.3c0,0.1,0.1,0.1,0.2,0.1
		c0.1,0,0.1,0,0.2-0.3c0.2-0.9,0.5-1.5,1-1.5c0.2,0,0.4,0.1,0.4,0.6c0,0.3-0.1,0.5-0.1,0.7L104.8,69.8z"/>
	<path class="st5" d="M118.3,64.7c0.1-0.3,0.1-0.4,0.8-0.4c0.2,0,0.3,0,0.3-0.2c0-0.1,0-0.1-0.1-0.1c-0.3,0-0.9,0-1.2,0
		c-0.2,0-0.5,0-0.6,0c-0.2,0-0.4,0-0.6,0c-0.1,0-0.2,0-0.2,0.2c0,0.1,0.1,0.1,0.3,0.1c0,0,0.2,0,0.3,0c0.2,0,0.2,0,0.2,0.1
		c0,0,0,0.1,0,0.2l-0.5,2.1h-3l0.5-2.1c0.1-0.3,0.1-0.4,0.8-0.4c0.1,0,0.3,0,0.3-0.2c0-0.1,0-0.1-0.2-0.1c-0.2,0-0.9,0-1.2,0
		c-0.2,0-0.5,0-0.6,0c-0.2,0-0.4,0-0.6,0c-0.1,0-0.2,0-0.2,0.2c0,0.1,0.1,0.1,0.3,0.1c0,0,0.2,0,0.3,0c0.2,0,0.2,0,0.2,0.1
		c0,0,0,0.1-0.1,0.2l-1.2,4.8c-0.1,0.3-0.1,0.4-0.8,0.4c-0.1,0-0.3,0-0.3,0.2c0,0.1,0.1,0.1,0.2,0.1c0.3,0,0.9,0,1.2,0
		c0.2,0,0.5,0,0.6,0c0.2,0,0.4,0,0.6,0c0,0,0.2,0,0.2-0.2c0-0.1-0.1-0.1-0.3-0.1c-0.2,0-0.2,0-0.3,0c-0.2,0-0.2,0-0.2-0.1
		c0,0,0-0.1,0.1-0.2l0.6-2.4h3l-0.6,2.3c-0.1,0.3-0.1,0.4-0.8,0.4c-0.2,0-0.3,0-0.3,0.2c0,0.1,0.1,0.1,0.1,0.1c0.3,0,0.9,0,1.2,0
		c0.2,0,0.5,0,0.6,0c0.2,0,0.4,0,0.6,0c0.1,0,0.2,0,0.2-0.2c0-0.1-0.1-0.1-0.3-0.1c-0.1,0-0.2,0-0.3,0c-0.2,0-0.2,0-0.2-0.1
		c0-0.1,0-0.1,0-0.2L118.3,64.7"/>
	<path class="st5" d="M124.9,71.3c0-0.1,0-0.1-0.2-0.3c-1.6-1.6-2.1-4.1-2.1-6.1c0-2.3,0.5-4.5,2.1-6.2c0.2-0.2,0.2-0.2,0.2-0.2
		c0-0.1-0.1-0.1-0.1-0.1c-0.1,0-1.3,0.9-2.1,2.5c-0.7,1.4-0.8,2.9-0.8,4c0,1,0.1,2.6,0.9,4c0.8,1.6,1.9,2.4,2,2.4
		C124.8,71.5,124.9,71.4,124.9,71.3"/>
	<path class="st5" d="M127.9,68.1c-0.8,0-0.8-1-0.8-1.2c0-0.6,0.4-2.1,0.6-2.6c0.4-1,1.1-1.5,1.6-1.5c0.8,0,1,1,1,1.1
		c0,0.1-0.7,2.9-0.7,3C129.3,67.2,128.6,68.1,127.9,68.1 M131.5,62.6c0-0.1,0-0.1-0.1-0.1c-0.1,0-0.7,0.5-0.9,0.9
		c-0.3-0.7-0.8-0.9-1.2-0.9c-1.5,0-3.1,1.9-3.1,3.8c0,1.3,0.8,2.1,1.7,2.1c0.6,0,1.1-0.3,1.5-0.8c-0.1,0.5-0.5,2.2-0.6,2.3
		c-0.1,0.4-0.2,0.4-0.9,0.4c-0.2,0-0.3,0-0.3,0.3c0,0,0,0.1,0.2,0.1c0.4,0,0.9,0,1.3,0s0.9,0,1.3,0c0.1,0,0.2,0,0.2-0.2
		c0-0.2-0.1-0.2-0.3-0.2c-0.6,0-0.6-0.1-0.6-0.2c0-0.1,0-0.2,0.1-0.3L131.5,62.6z"/>
	<path class="st5" d="M135.5,65c0-1-0.1-2.6-0.9-4c-0.8-1.6-1.9-2.4-2-2.4c-0.1,0-0.1,0.1-0.1,0.1c0,0,0,0.1,0.2,0.3
		c1.3,1.3,2,3.4,2,6.1c0,2.2-0.5,4.5-2.1,6.2c-0.2,0.1-0.2,0.2-0.2,0.2c0,0.1,0.1,0.1,0.1,0.1c0.1,0,1.3-0.9,2.1-2.5
		C135.4,67.5,135.5,66.1,135.5,65"/>
</g>
<g>
	<defs>
		<rect id="SVGID_11_" x="40" y="28" width="7" height="7"/>
	</defs>
	<clipPath id="SVGID_12_">
		<use xlink:href="#SVGID_11_"  style="overflow:visible;"/>
	</clipPath>
	<path class="st6" d="M43.9,32.9c-0.1,0.2-0.1,0.3-0.3,0.5c-0.6,0.7-1.1,0.9-1.5,0.9c-0.7,0-0.9-0.7-0.9-1.2c0-0.6,0.4-2.2,0.7-2.8
		c0.4-0.8,1-1.3,1.5-1.3c0.9,0,1,1.1,1,1.1c0,0.1,0,0.2,0,0.2L43.9,32.9 M44.7,29.6c-0.2-0.5-0.6-0.8-1.2-0.8
		c-1.5,0-3.1,1.9-3.1,3.8c0,1.2,0.7,2.1,1.7,2.1c0.2,0,0.9-0.1,1.7-1c0.1,0.5,0.6,1,1.2,1c0.5,0,0.8-0.3,1-0.7
		c0.2-0.5,0.4-1.3,0.4-1.3c0-0.1-0.1-0.1-0.2-0.1c-0.1,0-0.1,0.1-0.2,0.2c-0.2,0.9-0.5,1.6-1,1.6c-0.3,0-0.4-0.3-0.4-0.6
		c0-0.3,0-0.4,0.2-1c0.1-0.5,0.2-0.7,0.3-1.2l0.5-1.8c0.1-0.4,0.1-0.4,0.1-0.4c0-0.2-0.2-0.4-0.4-0.4C45,29,44.8,29.3,44.7,29.6z"/>
</g>
<g>
	<defs>
		<rect id="SVGID_13_" x="200.1" y="136.4" width="5" height="9.7"/>
	</defs>
	<clipPath id="SVGID_14_">
		<use xlink:href="#SVGID_13_"  style="overflow:visible;"/>
	</clipPath>
	<path class="st7" d="M201.6,141.8c0.1-0.3,0.1-0.3,0.2-0.5c0.6-0.9,1.2-1,1.6-1c0.5,0,0.8,0.4,0.8,1.2c0,0.7-0.4,2.3-0.7,2.7
		c-0.4,0.9-1,1.3-1.5,1.3c-0.5,0-0.9-0.3-0.9-1.3c0-0.2,0-0.5,0.2-1.3L201.6,141.8 M202.9,136.9c0,0,0-0.2-0.2-0.2
		c-0.3,0-1.3,0.1-1.6,0.1c-0.1,0-0.3,0-0.3,0.3c0,0.2,0.1,0.2,0.3,0.2c0.6,0,0.7,0.1,0.7,0.2c0,0.1-0.1,0.5-0.2,0.8l-1.1,4.2
		c-0.2,0.7-0.2,0.9-0.2,1.3c0,1.3,0.7,2.1,1.7,2.1c1.5,0,3.1-1.9,3.1-3.8c0-1.2-0.7-2.1-1.7-2.1c-0.6,0-1.1,0.4-1.5,0.8L202.9,136.9
		z"/>
</g>
<g>
	<defs>
		<rect id="SVGID_15_" x="39.9" y="68.7" width="6" height="7"/>
	</defs>
	<clipPath id="SVGID_16_">
		<use xlink:href="#SVGID_15_"  style="overflow:visible;"/>
	</clipPath>
	<path class="st8" d="M42,71.9c0.5-2,1.8-2.2,2.2-2.2c0.6,0,1,0.4,1,0.8c0,1.4-2.1,1.4-2.6,1.4H42 M42.6,72.2c0.4,0,1.3,0,2-0.3
		c0.9-0.4,1-1.1,1-1.3c0-0.6-0.5-1.1-1.4-1.1c-1.5,0-3.4,1.3-3.4,3.5c0,1.3,0.7,2.4,2,2.4c1.9,0,3-1.4,3-1.5c0-0.1-0.1-0.2-0.2-0.2
		c-0.1,0-0.1,0-0.2,0.1c-1,1.3-2.4,1.3-2.6,1.3c-1,0-1.1-1.1-1.1-1.5c0-0.2,0-0.6,0.2-1.3H42.6z"/>
</g>
<g>
	<defs>
		<rect id="SVGID_17_" x="125.1" y="134.9" width="7" height="12"/>
	</defs>
	<clipPath id="SVGID_18_">
		<use xlink:href="#SVGID_17_"  style="overflow:visible;"/>
	</clipPath>
	<path class="st9" d="M129.3,139h1.1c0.3,0,0.4,0,0.4-0.2c0-0.2-0.1-0.2-0.3-0.2h-1.1l0.3-1.5c0.1-0.3,0.2-1.2,0.3-1.4
		c0.1-0.2,0.3-0.5,0.6-0.5c0.1,0,0.4,0,0.6,0.2c-0.6,0.1-0.7,0.5-0.7,0.7c0,0.3,0.2,0.5,0.5,0.5c0.3,0,0.7-0.3,0.7-0.8
		c0-0.6-0.6-0.9-1.1-0.9c-0.5,0-1.3,0.2-1.7,1.5c-0.1,0.3-0.1,0.4-0.4,2h-0.9c-0.2,0-0.4,0-0.4,0.3c0,0.1,0.1,0.1,0.3,0.1h0.9
		l-1,5.1c-0.2,1.3-0.5,2.4-1.1,2.4c-0.1,0-0.4,0-0.6-0.2c0.6,0,0.7-0.5,0.7-0.7c0-0.3-0.2-0.5-0.5-0.5c-0.3,0-0.7,0.3-0.7,0.8
		c0,0.6,0.6,0.9,1.1,0.9c0.7,0,1.2-0.8,1.5-1.3c0.4-0.8,0.7-2.4,0.7-2.5L129.3,139"/>
</g>
<g>
	<defs>
		<rect id="SVGID_19_" x="139.4" y="17.9" width="91" height="12"/>
	</defs>
	<clipPath id="SVGID_20_">
		<use xlink:href="#SVGID_19_"  style="overflow:visible;"/>
	</clipPath>
	<path class="st10" d="M149,18.9c0-0.1,0-0.1-0.1-0.1c-0.1,0-0.1,0-0.2,0.2l-0.9,1c-0.1-0.2-0.7-1.1-2.2-1.1c-2.9,0-5.8,2.9-5.8,5.9
		c0,2.1,1.5,3.6,3.5,3.6c1.1,0,2.1-0.5,2.8-1.1c1.2-1.1,1.4-2.3,1.4-2.3c0-0.1-0.1-0.1-0.2-0.1c-0.1,0-0.1,0-0.2,0.1
		c-0.1,0.4-0.4,1.3-1.3,2.1c-0.9,0.7-1.7,0.9-2.4,0.9c-1.2,0-2.6-0.7-2.6-2.7c0-0.7,0.3-2.8,1.6-4.4c0.8-0.9,2-1.6,3.2-1.6
		c1.3,0,2.1,1,2.1,2.5c0,0.5-0.1,0.5-0.1,0.7s0.2,0.1,0.2,0.1c0.2,0,0.2,0,0.2-0.3L149,18.9"/>
	<path class="st10" d="M157.7,18.9c0-0.1,0-0.1-0.1-0.1c-0.1,0-0.1,0-0.2,0.2l-0.6,0.7c-0.3-0.6-1-0.9-1.9-0.9
		c-1.7,0-3.2,1.5-3.2,3.1c0,1.1,0.7,1.7,1.4,1.8l1.4,0.4c0.5,0.1,1.2,0.3,1.2,1.4c0,1.2-1.1,2.4-2.3,2.4c-0.8,0-2.3-0.3-2.3-1.9
		c0-0.3,0.1-0.6,0.1-0.7c0-0.1,0-0.1,0-0.1c0-0.1-0.1-0.2-0.2-0.2c-0.1,0-0.1,0-0.1,0.1c-0.1,0.1-0.8,3-0.8,3.1
		c0,0.1,0.1,0.1,0.1,0.1c0.1,0,0.1,0,0.2-0.2l0.6-0.7c0.6,0.8,1.4,1,2.2,1c1.8,0,3.3-1.7,3.3-3.4c0-0.9-0.4-1.3-0.6-1.5
		c-0.3-0.3-0.5-0.3-1.7-0.6c-0.3-0.1-0.7-0.2-0.9-0.2c-0.3-0.1-0.8-0.5-0.8-1.2c0-1.1,1-2.2,2.3-2.2c1.1,0,1.9,0.6,1.9,2
		c0,0.4-0.1,0.7-0.1,0.7c0,0,0,0.1,0.2,0.1c0.1,0,0.1,0,0.2-0.2L157.7,18.9"/>
	<path class="st10" d="M164.8,24.4c0.1-0.3,0.1-0.4,0.8-0.4c0.2,0,0.3,0,0.3-0.2c0-0.1,0-0.1-0.1-0.1c-0.3,0-0.9,0-1.2,0
		c-0.2,0-0.5,0-0.6,0c-0.2,0-0.4,0-0.6,0c-0.1,0-0.2,0-0.2,0.2c0,0.1,0.1,0.1,0.3,0.1c0,0,0.2,0,0.3,0c0.2,0,0.2,0,0.2,0.1
		c0,0,0,0.1,0,0.2l-0.5,2.1h-3l0.5-2.1c0.1-0.3,0.1-0.4,0.8-0.4c0.2,0,0.3,0,0.3-0.2c0-0.1,0-0.1-0.1-0.1c-0.3,0-0.9,0-1.2,0
		c-0.1,0-0.5,0-0.6,0c-0.2,0-0.4,0-0.6,0c-0.1,0-0.2,0-0.2,0.2c0,0.1,0.1,0.1,0.3,0.1c0,0,0.2,0,0.3,0c0.2,0,0.2,0,0.2,0.1
		c0,0,0,0.1,0,0.2l-1.2,4.8c-0.1,0.3-0.1,0.4-0.8,0.4c-0.2,0-0.3,0-0.3,0.2c0,0.1,0.1,0.1,0.1,0.1c0.3,0,0.9,0,1.2,0
		c0.2,0,0.5,0,0.6,0c0.2,0,0.4,0,0.6,0c0.1,0,0.2,0,0.2-0.2c0-0.1-0.1-0.1-0.3-0.1c-0.1,0-0.2,0-0.3,0c-0.2,0-0.2,0-0.2-0.1
		c0,0,0-0.1,0-0.2l0.6-2.4h3l-0.6,2.3c-0.1,0.3-0.1,0.4-0.8,0.4c-0.2,0-0.3,0-0.3,0.2c0,0.1,0.1,0.1,0.1,0.1c0.3,0,0.9,0,1.2,0
		c0.2,0,0.5,0,0.6,0c0.2,0,0.4,0,0.6,0c0.1,0,0.2,0,0.2-0.2c0-0.1-0.1-0.1-0.3-0.1c-0.1,0-0.2,0-0.3,0c-0.2,0-0.2,0-0.2-0.1
		c0-0.1,0-0.1,0-0.2L164.8,24.4"/>
	<path class="st10" d="M179.7,26.2c0.2,0,0.4,0,0.4-0.3c0-0.2-0.2-0.2-0.5-0.2h-7.7c-0.2,0-0.4,0-0.4,0.2c0,0.3,0.2,0.3,0.4,0.3
		H179.7 M179.7,23.7c0.2,0,0.5,0,0.5-0.2c0-0.3-0.2-0.3-0.4-0.3h-7.8c-0.2,0-0.4,0-0.4,0.3c0,0.2,0.2,0.2,0.4,0.2H179.7z"/>
	<path class="st10" d="M188.6,24.8v1.3c0,1.2-0.9,1.7-1.5,1.7c-0.6,0-1.2-0.5-1.2-1.1C185.9,26,186.5,24.9,188.6,24.8 M188.7,26.9
		c0.1,0.5,0.4,1.1,1,1.1c0.3,0,1.1-0.2,1.1-1.3V26h-0.3v0.7c0,0.8-0.3,0.9-0.5,0.9c-0.4,0-0.5-0.6-0.5-0.7v-2.6c0-0.6,0-1.1-0.5-1.5
		c-0.5-0.5-1.1-0.7-1.8-0.7c-1.1,0-1.9,0.6-1.9,1.5c0,0.4,0.2,0.6,0.6,0.6c0.4,0,0.6-0.2,0.6-0.6c0-0.2-0.1-0.6-0.6-0.6
		c0.3-0.5,1-0.6,1.4-0.6c0.6,0,1.4,0.5,1.4,1.7v0.5c-0.7,0-1.6,0.1-2.4,0.5c-1,0.5-1.3,1.1-1.3,1.7c0,1,1.3,1.4,2.1,1.4
		C187.8,28.1,188.4,27.6,188.7,26.9z"/>
	<path class="st10" d="M193,23.6v-1.4l-1.8,0.2v0.4c0.9,0,1,0.1,1,0.7v3.5c0,0.6-0.2,0.6-1,0.6v0.4c0.5,0,1.1-0.1,1.5-0.1
		c0.5,0,1.1,0,1.7,0.1v-0.4h-0.3c-1,0-1-0.2-1-0.6v-2c0-1.3,0.5-2.4,1.5-2.4c0.1,0,0.1,0,0.1,0c-0.1,0-0.3,0.2-0.3,0.5
		c0,0.3,0.3,0.5,0.6,0.5c0.2,0,0.6-0.1,0.6-0.6c0-0.4-0.4-0.8-1-0.8C193.7,22.2,193.2,23.1,193,23.6"/>
	<path class="st10" d="M197.4,24.9h3.6c0.3,0,0.3,0,0.3-0.3c0-1.3-0.7-2.6-2.3-2.6c-1.5,0-2.7,1.4-2.7,3c0,1.7,1.4,3,2.9,3
		c1.6,0,2.2-1.4,2.2-1.7c0-0.1-0.1-0.2-0.2-0.2c-0.1,0-0.2,0.1-0.2,0.2c-0.5,1.3-1.6,1.3-1.7,1.3c-0.7,0-1.2-0.4-1.5-0.9
		C197.4,26.3,197.4,25.4,197.4,24.9 M197.4,24.7c0.1-1.9,1.2-2.3,1.6-2.3c1.3,0,1.5,1.8,1.5,2.3H197.4z"/>
	<path class="st10" d="M205.9,24.8v1.3c0,1.2-0.9,1.7-1.5,1.7c-0.6,0-1.2-0.5-1.2-1.1C203.2,26,203.7,24.9,205.9,24.8 M206,26.9
		c0.1,0.5,0.4,1.1,1,1.1c0.3,0,1.1-0.2,1.1-1.3V26h-0.3v0.7c0,0.8-0.3,0.9-0.5,0.9c-0.4,0-0.5-0.6-0.5-0.7v-2.6c0-0.6,0-1.1-0.5-1.5
		c-0.5-0.5-1.2-0.7-1.8-0.7c-1.1,0-2,0.6-2,1.5c0,0.4,0.3,0.6,0.6,0.6s0.6-0.2,0.6-0.6c0-0.2-0.1-0.6-0.7-0.6c0.4-0.5,1-0.6,1.4-0.6
		c0.6,0,1.4,0.5,1.4,1.7v0.5c-0.7,0-1.6,0.1-2.4,0.5c-1,0.5-1.3,1.1-1.3,1.7c0,1,1.3,1.4,2.1,1.4C205.1,28.1,205.7,27.6,206,26.9z"
		/>
	<path class="st10" d="M214.4,26.4c-0.1,0.2-0.1,0.3-0.3,0.5c-0.6,0.7-1.1,0.9-1.5,0.9c-0.7,0-0.8-0.7-0.8-1.2
		c0-0.7,0.4-2.3,0.7-2.8c0.4-0.8,1-1.3,1.5-1.3c0.9,0,1,1.1,1,1.1c0,0.1,0,0.2-0.1,0.2L214.4,26.4 M215.2,23
		c-0.2-0.5-0.6-0.8-1.2-0.8c-1.5,0-3.1,1.9-3.1,3.8c0,1.2,0.7,2.1,1.7,2.1c0.3,0,0.9-0.1,1.7-1c0.1,0.5,0.6,1,1.2,1
		c0.5,0,0.7-0.3,1-0.7c0.2-0.5,0.4-1.3,0.4-1.3c0-0.1-0.1-0.1-0.2-0.1c-0.1,0-0.1,0.1-0.2,0.2c-0.2,0.9-0.5,1.6-1,1.6
		c-0.4,0-0.4-0.3-0.4-0.6c0-0.3,0-0.4,0.2-1c0.2-0.5,0.2-0.7,0.3-1.2l0.5-1.8c0.1-0.4,0.1-0.4,0.1-0.5c0-0.2-0.2-0.3-0.4-0.3
		C215.4,22.4,215.2,22.7,215.2,23z"/>
	<path class="st10" d="M219.1,24c0.1-0.3,0.1-0.3,0.2-0.5c0.6-0.9,1.2-1,1.5-1c0.5,0,0.8,0.4,0.8,1.2c0,0.8-0.4,2.3-0.7,2.7
		c-0.4,0.9-1,1.4-1.5,1.4c-0.5,0-0.9-0.4-0.9-1.3c0-0.2,0-0.5,0.2-1.3L219.1,24 M220.3,19.1c0,0,0-0.2-0.2-0.2
		c-0.3,0-1.3,0.1-1.6,0.1c-0.1,0-0.3,0-0.3,0.3c0,0.2,0.1,0.2,0.3,0.2c0.6,0,0.6,0.1,0.6,0.2c0,0.1-0.1,0.5-0.2,0.8l-1.1,4.2
		c-0.2,0.7-0.2,0.9-0.2,1.3c0,1.2,0.7,2,1.7,2c1.5,0,3.1-1.9,3.1-3.8c0-1.2-0.7-2.1-1.7-2.1c-0.6,0-1.1,0.4-1.5,0.8L220.3,19.1z"/>
	<path class="st10" d="M226.8,26.4c-0.1,0.2-0.1,0.3-0.2,0.5c-0.6,0.7-1.1,0.9-1.5,0.9c-0.6,0-0.8-0.7-0.8-1.2
		c0-0.7,0.4-2.3,0.7-2.8c0.4-0.8,1-1.3,1.5-1.3c0.8,0,1,1.1,1,1.1c0,0.1,0,0.2,0,0.2L226.8,26.4 M229.5,19.1c0,0,0-0.2-0.2-0.2
		c-0.2,0-1.4,0.1-1.7,0.2c-0.1,0-0.2,0.1-0.2,0.2c0,0.2,0.1,0.2,0.3,0.2c0.6,0,0.7,0.1,0.7,0.2l-0.1,0.3l-0.8,3.1
		c-0.2-0.5-0.6-0.8-1.2-0.8c-1.5,0-3.1,1.9-3.1,3.8c0,1.2,0.7,2.1,1.7,2.1c0.3,0,0.9-0.1,1.7-1c0.1,0.5,0.6,1,1.2,1
		c0.5,0,0.8-0.3,1-0.7c0.2-0.5,0.4-1.3,0.4-1.3c0-0.1-0.1-0.1-0.2-0.1c-0.1,0-0.1,0.1-0.2,0.2c-0.2,0.9-0.5,1.6-1,1.6
		c-0.3,0-0.4-0.3-0.4-0.6c0-0.3,0-0.4,0.1-0.6L229.5,19.1z"/>
</g>
<g>
	<defs>
		<rect id="SVGID_21_" x="139.7" y="38.9" width="90" height="12"/>
	</defs>
	<clipPath id="SVGID_22_">
		<use xlink:href="#SVGID_21_"  style="overflow:visible;"/>
	</clipPath>
	<path class="st11" d="M149.8,39.2c0-0.1,0-0.1-0.1-0.1c-0.1,0-0.1,0-0.2,0.2l-0.9,1c-0.1-0.2-0.7-1.1-2.2-1.1
		c-2.9,0-5.8,2.8-5.8,5.9c0,2.1,1.5,3.5,3.5,3.5c1.1,0,2.1-0.5,2.8-1.1c1.2-1.1,1.4-2.2,1.4-2.3c0-0.1-0.1-0.1-0.2-0.1
		c-0.1,0-0.1,0-0.2,0.1c-0.1,0.4-0.4,1.3-1.3,2.1c-0.9,0.7-1.7,0.9-2.4,0.9c-1.2,0-2.6-0.7-2.6-2.7c0-0.7,0.3-2.8,1.6-4.4
		c0.8-0.9,2-1.6,3.2-1.6c1.3,0,2.1,1,2.1,2.5c0,0.5-0.1,0.5-0.1,0.7c0,0.1,0.2,0.1,0.2,0.1c0.2,0,0.2,0,0.2-0.3L149.8,39.2"/>
	<path class="st11" d="M158.4,39.2c0-0.1,0-0.1-0.1-0.1c-0.1,0-0.1,0-0.2,0.2l-0.6,0.7c-0.3-0.6-1-0.9-1.9-0.9
		c-1.7,0-3.2,1.5-3.2,3.1c0,1,0.7,1.7,1.3,1.8l1.4,0.4c0.5,0.1,1.2,0.3,1.2,1.4c0,1.2-1.1,2.4-2.3,2.4c-0.9,0-2.3-0.3-2.3-1.9
		c0-0.3,0.1-0.6,0.1-0.7c0-0.1,0-0.1,0-0.1c0-0.1-0.1-0.1-0.2-0.1c-0.1,0-0.1,0-0.1,0.1c0,0.1-0.8,3-0.8,3c0,0.1,0.1,0.1,0.2,0.1
		c0.1,0,0.1,0,0.2-0.2l0.6-0.7c0.6,0.8,1.4,0.9,2.2,0.9c1.8,0,3.3-1.7,3.3-3.3c0-0.9-0.5-1.3-0.6-1.5c-0.3-0.3-0.5-0.3-1.7-0.7
		c-0.3-0.1-0.8-0.2-0.9-0.2c-0.3-0.1-0.8-0.5-0.8-1.2c0-1,1-2.2,2.3-2.2c1.1,0,1.9,0.6,1.9,2c0,0.4-0.1,0.6-0.1,0.7
		c0,0,0,0.1,0.2,0.1c0.1,0,0.1,0,0.2-0.3L158.4,39.2"/>
	<path class="st11" d="M161.7,44.7c0.1-0.3,0.1-0.4,0.9-0.4c0.3,0,0.4,0,0.4-0.2c0,0,0-0.1-0.2-0.1c-0.2,0-0.5,0-0.7,0
		c-0.2,0-0.5,0-0.7,0c-0.2,0-0.4,0-0.6,0c-0.2,0-0.4,0-0.6,0c-0.1,0-0.2,0-0.2,0.2c0,0.1,0.1,0.1,0.3,0.1c0,0,0.2,0,0.3,0
		c0.2,0,0.2,0,0.2,0.1c0,0,0,0.1,0,0.2l-1.2,4.8c-0.1,0.3-0.1,0.4-0.8,0.4c-0.2,0-0.3,0-0.3,0.2c0,0.1,0.1,0.1,0.3,0.1h4.5
		c0.2,0,0.2,0,0.3-0.2c0.1-0.2,0.7-2,0.7-2.1c0,0,0-0.1-0.1-0.1c-0.1,0-0.1,0.1-0.2,0.2c-0.3,0.9-0.7,1.9-2.4,1.9h-1
		c-0.3,0-0.3,0-0.3-0.1c0,0,0-0.1,0-0.2L161.7,44.7"/>
	<path class="st11" d="M178.2,46.5c0.2,0,0.4,0,0.4-0.3c0-0.3-0.2-0.3-0.4-0.3h-7.7c-0.2,0-0.5,0-0.5,0.3c0,0.3,0.2,0.3,0.4,0.3
		H178.2 M178.2,44c0.2,0,0.4,0,0.4-0.3c0-0.2-0.2-0.2-0.4-0.2h-7.8c-0.2,0-0.4,0-0.4,0.2c0,0.3,0.2,0.3,0.5,0.3H178.2z"/>
	<path class="st11" d="M187.3,45.1v1.3c0,1.3-0.9,1.7-1.5,1.7c-0.6,0-1.2-0.5-1.2-1.1C184.6,46.3,185.1,45.2,187.3,45.1 M187.4,47.3
		c0.1,0.5,0.4,1.1,1,1.1c0.3,0,1.1-0.2,1.1-1.3v-0.7h-0.3v0.7c0,0.7-0.3,0.8-0.5,0.8c-0.4,0-0.5-0.6-0.5-0.6v-2.6c0-0.5,0-1-0.5-1.5
		c-0.5-0.5-1.1-0.7-1.8-0.7c-1.1,0-1.9,0.6-1.9,1.5c0,0.4,0.3,0.6,0.6,0.6c0.4,0,0.6-0.3,0.6-0.6c0-0.2-0.1-0.6-0.7-0.6
		c0.3-0.5,1-0.6,1.4-0.6c0.6,0,1.4,0.5,1.4,1.7v0.5c-0.7,0.1-1.6,0.1-2.4,0.5c-1,0.4-1.3,1.1-1.3,1.7c0,1.1,1.3,1.4,2.1,1.4
		C186.5,48.4,187.1,47.9,187.4,47.3z"/>
	<path class="st11" d="M191.7,43.9v-1.4l-1.8,0.1V43c0.9,0,1,0.1,1,0.7v3.5c0,0.6-0.1,0.6-1,0.6v0.4c0.5,0,1.1-0.1,1.5-0.1
		c0.5,0,1.1,0,1.6,0.1v-0.4h-0.3c-1,0-1-0.1-1-0.6v-2c0-1.3,0.6-2.4,1.5-2.4c0.1,0,0.1,0,0.1,0c0,0-0.3,0.2-0.3,0.5
		c0,0.4,0.3,0.6,0.6,0.6c0.2,0,0.6-0.2,0.6-0.6c0-0.4-0.4-0.8-1-0.8C192.3,42.5,191.9,43.4,191.7,43.9"/>
	<path class="st11" d="M196.1,45.2h3.6c0.3,0,0.3,0,0.3-0.3c0-1.3-0.7-2.6-2.3-2.6c-1.5,0-2.7,1.3-2.7,3c0,1.8,1.4,3,2.9,3
		c1.6,0,2.2-1.4,2.2-1.7c0-0.1-0.1-0.2-0.2-0.2c-0.1,0-0.1,0.1-0.2,0.2c-0.5,1.3-1.6,1.3-1.8,1.3c-0.7,0-1.2-0.4-1.5-0.9
		C196.1,46.6,196.1,45.7,196.1,45.2 M196.1,45c0.1-1.9,1.2-2.3,1.6-2.3c1.3,0,1.5,1.8,1.5,2.3H196.1z"/>
	<path class="st11" d="M204.6,45.1v1.3c0,1.3-0.9,1.7-1.5,1.7c-0.6,0-1.2-0.5-1.2-1.1C201.9,46.3,202.4,45.2,204.6,45.1 M204.6,47.3
		c0.1,0.5,0.4,1.1,1,1.1c0.3,0,1.1-0.2,1.1-1.3v-0.7h-0.3v0.7c0,0.7-0.3,0.8-0.5,0.8c-0.5,0-0.5-0.6-0.5-0.6v-2.6c0-0.5,0-1-0.5-1.5
		c-0.5-0.5-1.1-0.7-1.8-0.7c-1.1,0-2,0.6-2,1.5c0,0.4,0.3,0.6,0.6,0.6c0.4,0,0.6-0.3,0.6-0.6c0-0.2-0.1-0.6-0.7-0.6
		c0.4-0.5,1-0.6,1.4-0.6c0.6,0,1.4,0.5,1.4,1.7v0.5c-0.7,0.1-1.6,0.1-2.4,0.5c-1,0.4-1.3,1.1-1.3,1.7c0,1.1,1.3,1.4,2.1,1.4
		C203.8,48.4,204.4,47.9,204.6,47.3z"/>
	<path class="st11" d="M210.7,45c0.5-2,1.8-2.2,2.2-2.2c0.6,0,1,0.4,1,0.8c0,1.4-2.1,1.4-2.6,1.4H210.7 M211.3,45.2
		c0.4,0,1.3,0,2-0.3c0.9-0.4,1-1.2,1-1.4c0-0.6-0.5-1.1-1.4-1.1c-1.4,0-3.4,1.3-3.4,3.5c0,1.3,0.8,2.3,2.1,2.3c1.9,0,3-1.4,3-1.5
		c0-0.1-0.1-0.2-0.2-0.2c-0.1,0-0.1,0-0.2,0.1c-1,1.3-2.4,1.3-2.6,1.3c-1,0-1.1-1.1-1.1-1.5c0-0.2,0-0.6,0.2-1.4H211.3z"/>
	<path class="st11" d="M219.8,43h1.1c0.3,0,0.4,0,0.4-0.2c0-0.2-0.1-0.2-0.4-0.2h-1.1l0.3-1.5c0.1-0.3,0.2-1.2,0.3-1.4
		c0.1-0.2,0.3-0.5,0.6-0.5c0.1,0,0.4,0,0.6,0.2c-0.6,0.1-0.7,0.5-0.7,0.7c0,0.3,0.2,0.5,0.5,0.5c0.3,0,0.7-0.3,0.7-0.8
		c0-0.6-0.6-0.9-1.1-0.9c-0.5,0-1.3,0.2-1.7,1.5c-0.1,0.3-0.1,0.4-0.4,2h-0.9c-0.2,0-0.4,0-0.4,0.3c0,0.1,0.1,0.1,0.4,0.1h0.9
		l-1,5.1c-0.2,1.3-0.5,2.4-1.1,2.4c-0.1,0-0.4,0-0.6-0.2c0.6,0,0.7-0.5,0.7-0.7c0-0.3-0.2-0.5-0.5-0.5c-0.3,0-0.7,0.3-0.7,0.8
		c0,0.6,0.6,0.9,1.1,0.9c0.7,0,1.3-0.8,1.5-1.3c0.4-0.8,0.7-2.4,0.7-2.5L219.8,43"/>
	<path class="st11" d="M226.7,46.7c-0.1,0.2-0.1,0.2-0.2,0.5c-0.6,0.7-1.1,0.9-1.5,0.9c-0.6,0-0.8-0.7-0.8-1.2
		c0-0.6,0.4-2.2,0.7-2.8c0.4-0.8,1-1.3,1.5-1.3c0.8,0,1,1.1,1,1.1c0,0.1,0,0.2,0,0.2L226.7,46.7 M229.4,39.4c0,0,0-0.1-0.2-0.1
		c-0.2,0-1.4,0.1-1.6,0.1c-0.1,0-0.2,0.1-0.2,0.3c0,0.1,0.1,0.1,0.3,0.1c0.6,0,0.7,0.1,0.7,0.2l-0.1,0.3l-0.8,3.1
		c-0.2-0.5-0.6-0.8-1.2-0.8c-1.5,0-3.1,1.9-3.1,3.8c0,1.2,0.7,2.1,1.7,2.1c0.3,0,0.9-0.1,1.7-1c0.1,0.6,0.6,1,1.2,1
		c0.5,0,0.8-0.3,1-0.7c0.2-0.5,0.4-1.3,0.4-1.3c0-0.1-0.1-0.1-0.2-0.1c-0.1,0-0.1,0.1-0.2,0.2c-0.2,0.8-0.5,1.6-1,1.6
		c-0.3,0-0.4-0.3-0.4-0.6c0-0.3,0-0.4,0.1-0.6L229.4,39.4z"/>
</g>
<g>
	<defs>
		<rect id="SVGID_23_" x="55.4" y="135.4" width="7" height="9.7"/>
	</defs>
	<clipPath id="SVGID_24_">
		<use xlink:href="#SVGID_23_"  style="overflow:visible;"/>
	</clipPath>
	<path class="st12" d="M59.4,143.2c-0.1,0.2-0.1,0.2-0.3,0.5c-0.6,0.7-1.1,0.9-1.5,0.9c-0.6,0-0.8-0.7-0.8-1.2
		c0-0.6,0.4-2.2,0.7-2.8c0.4-0.8,1-1.3,1.5-1.3c0.8,0,1,1.1,1,1.1c0,0.1,0,0.2,0,0.2L59.4,143.2 M62.1,135.9c0,0,0-0.2-0.2-0.2
		c-0.2,0-1.4,0.1-1.7,0.2c-0.1,0-0.2,0.1-0.2,0.2c0,0.2,0.1,0.2,0.3,0.2c0.6,0,0.7,0.1,0.7,0.2l-0.1,0.3l-0.8,3.1
		c-0.2-0.5-0.6-0.8-1.2-0.8c-1.5,0-3.1,1.9-3.1,3.8c0,1.2,0.7,2.1,1.7,2.1c0.3,0,0.9-0.1,1.7-1c0.1,0.6,0.6,1,1.2,1
		c0.5,0,0.8-0.3,1-0.7c0.2-0.5,0.4-1.3,0.4-1.3c0-0.1-0.1-0.1-0.2-0.1c-0.1,0-0.1,0.1-0.2,0.2c-0.2,0.9-0.5,1.6-1,1.6
		c-0.3,0-0.4-0.3-0.4-0.6c0-0.3,0-0.4,0.1-0.6L62.1,135.9z"/>
</g>
</svg>
