<?xml version="1.0" encoding="utf-8"?>
<!-- Generator: Adobe Illustrator 21.0.2, SVG Export Plug-In . SVG Version: 6.00 Build 0)  -->
<svg version="1.1" id="Layer_1" xmlns="http://www.w3.org/2000/svg" xmlns:xlink="http://www.w3.org/1999/xlink" x="0px" y="0px"
	 viewBox="0 0 300 200.3" style="enable-background:new 0 0 300 200.3;" xml:space="preserve">
<style type="text/css">
	.st0{fill:none;stroke:#000000;stroke-miterlimit:10;}
	.st1{fill:none;stroke:#3FA9F5;stroke-width:2;stroke-miterlimit:10;}
	.st2{fill:none;stroke:#3FA9F5;stroke-width:2;stroke-miterlimit:10;stroke-dasharray:2.0127,2.0127;}
	.st3{clip-path:url(#SVGID_2_);}
	.st4{clip-path:url(#SVGID_4_);}
	.st5{clip-path:url(#SVGID_6_);}
	.st6{clip-path:url(#SVGID_8_);}
	.st7{clip-path:url(#SVGID_10_);}
	.st8{clip-path:url(#SVGID_12_);}
	.st9{clip-path:url(#SVGID_14_);}
	.st10{clip-path:url(#SVGID_16_);}
	.st11{clip-path:url(#SVGID_18_);}
	.st12{clip-path:url(#SVGID_20_);}
	.st13{clip-path:url(#SVGID_22_);}
	.st14{clip-path:url(#SVGID_24_);}
	.st15{clip-path:url(#SVGID_26_);}
	.st16{clip-path:url(#SVGID_28_);}
	.st17{clip-path:url(#SVGID_30_);}
	.st18{clip-path:url(#SVGID_32_);}
	.st19{fill:none;stroke:#000000;stroke-miterlimit:10;stroke-dasharray:3,3,1;}
	.st20{fill:none;stroke:#C1272D;stroke-miterlimit:10;}
	.st21{fill:#C1272D;}
	.st22{fill:none;stroke:#3FA9F5;stroke-miterlimit:10;}
	.st23{clip-path:url(#SVGID_34_);}
	.st24{clip-path:url(#SVGID_36_);}
	.st25{clip-path:url(#SVGID_38_);}
	.st26{clip-path:url(#SVGID_40_);}
	.st27{clip-path:url(#SVGID_42_);}
	.st28{clip-path:url(#SVGID_44_);}
	.st29{clip-path:url(#SVGID_46_);}
	.st30{clip-path:url(#SVGID_48_);}
	.st31{clip-path:url(#SVGID_50_);}
	.st32{clip-path:url(#SVGID_52_);}
	.st33{clip-path:url(#SVGID_54_);}
	.st34{clip-path:url(#SVGID_56_);}
	.st35{clip-path:url(#SVGID_58_);}
	.st36{clip-path:url(#SVGID_60_);}
	.st37{clip-path:url(#SVGID_62_);}
</style>
<polyline class="st0" points="26,2.7 26,182.3 196,182.3 "/>
<g>
	<g>
		<line class="st1" x1="31.5" y1="177.8" x2="32.2" y2="177.1"/>
		<line class="st2" x1="33.6" y1="175.7" x2="178.1" y2="31.2"/>
		<line class="st1" x1="178.8" y1="30.5" x2="179.5" y2="29.8"/>
	</g>
</g>
<line class="st0" x1="54.7" y1="182.5" x2="154.9" y2="36.1"/>
<g>
	<g>
		<defs>
			<rect id="SVGID_1_" x="27" y="2.7" width="44" height="14"/>
		</defs>
		<clipPath id="SVGID_2_">
			<use xlink:href="#SVGID_1_"  style="overflow:visible;"/>
		</clipPath>
		<path class="st3" d="M31.9,8.8c0.1-0.3,0.4-1.5,1.3-1.5c0.1,0,0.4,0,0.6,0.2c-0.3,0.1-0.6,0.4-0.6,0.7c0,0.2,0.1,0.5,0.5,0.5
			c0.3,0,0.7-0.2,0.7-0.8c0-0.7-0.8-0.9-1.2-0.9c-0.7,0-1.2,0.7-1.4,1c-0.3-0.9-1-1-1.4-1c-1.3,0-2.1,1.7-2.1,2
			c0,0.1,0.1,0.1,0.2,0.1s0.1,0,0.2-0.1c0.5-1.4,1.3-1.7,1.7-1.7c0.3,0,0.7,0.1,0.7,0.9c0,0.4-0.2,1.3-0.7,3.1
			c-0.2,0.8-0.6,1.3-1.2,1.3c-0.1,0-0.4,0-0.6-0.2c0.3-0.1,0.6-0.3,0.6-0.7s-0.3-0.5-0.5-0.5c-0.4,0-0.7,0.3-0.7,0.7
			c0,0.6,0.6,0.9,1.2,0.9c0.9,0,1.3-0.9,1.4-1c0.2,0.5,0.6,1,1.4,1c1.4,0,2.1-1.7,2.1-2c0-0.1-0.1-0.1-0.2-0.1
			c-0.1,0-0.2,0.1-0.2,0.1c-0.4,1.4-1.3,1.7-1.7,1.7c-0.5,0-0.7-0.4-0.7-0.9c0-0.3,0.1-0.6,0.2-1.1L31.9,8.8"/>
	</g>
	<g>
		<defs>
			<rect id="SVGID_3_" x="27" y="2.7" width="44" height="14"/>
		</defs>
		<clipPath id="SVGID_4_">
			<use xlink:href="#SVGID_3_"  style="overflow:visible;"/>
		</clipPath>
		<path class="st4" d="M39.3,15.8c0-0.1,0-0.1-0.2-0.3c-1.6-1.6-2.1-4.1-2.1-6.1c0-2.3,0.5-4.5,2.1-6.2C39.3,3,39.3,3,39.3,3
			c0-0.1-0.1-0.1-0.1-0.1c-0.1,0-1.3,0.9-2.1,2.5c-0.6,1.4-0.8,2.9-0.8,4c0,1,0.1,2.6,0.9,4C38,15,39.1,15.8,39.3,15.8
			C39.2,16,39.3,15.9,39.3,15.8"/>
	</g>
	<g>
		<defs>
			<rect id="SVGID_5_" x="27" y="2.7" width="44" height="14"/>
		</defs>
		<clipPath id="SVGID_6_">
			<use xlink:href="#SVGID_5_"  style="overflow:visible;"/>
		</clipPath>
		<path class="st5" d="M42.8,7.5H44c0.3,0,0.4,0,0.4-0.3c0-0.1-0.1-0.1-0.4-0.1h-1.1c0.5-1.9,0.5-2.1,0.5-2.2c0-0.2-0.1-0.4-0.4-0.4
			c0,0-0.4,0-0.5,0.5L42,7.1h-1.2c-0.3,0-0.4,0-0.4,0.2s0.1,0.2,0.4,0.2h1.1c-0.9,3.7-1,3.9-1,4.1c0,0.7,0.5,1.2,1.2,1.2
			c1.3,0,2.1-1.9,2.1-2s-0.1-0.1-0.2-0.1s-0.1,0.1-0.2,0.2c-0.6,1.4-1.3,1.7-1.7,1.7c-0.3,0-0.4-0.2-0.4-0.6c0-0.3,0-0.4,0.1-0.6
			L42.8,7.5"/>
	</g>
	<g>
		<defs>
			<rect id="SVGID_7_" x="27" y="2.7" width="44" height="14"/>
		</defs>
		<clipPath id="SVGID_8_">
			<use xlink:href="#SVGID_7_"  style="overflow:visible;"/>
		</clipPath>
		<path class="st6" d="M52.9,9.7h3.6c0.2,0,0.4,0,0.4-0.3s-0.2-0.3-0.4-0.3h-3.6V5.5c0-0.2,0-0.4-0.3-0.4c-0.2,0-0.2,0.3-0.2,0.4
			v3.6h-3.6c-0.2,0-0.4,0-0.4,0.3s0.2,0.3,0.4,0.3h3.6v3.6c0,0.2,0,0.4,0.2,0.4c0.3,0,0.3-0.2,0.3-0.4V9.7"/>
	</g>
	<g>
		<defs>
			<rect id="SVGID_9_" x="27" y="2.7" width="44" height="14"/>
		</defs>
		<clipPath id="SVGID_10_">
			<use xlink:href="#SVGID_9_"  style="overflow:visible;"/>
		</clipPath>
		<path class="st7" d="M64.4,4.4c0-0.3,0-0.3-0.3-0.3c-0.8,0.8-1.9,0.8-2.4,0.8v0.4c0.3,0,1,0,1.7-0.3v6.7c0,0.5,0,0.6-1.2,0.6h-0.4
			v0.4c0.5-0.1,1.6-0.1,2.1-0.1s1.7,0,2.1,0.1v-0.4h-0.4c-1.2,0-1.2-0.2-1.2-0.6L64.4,4.4"/>
	</g>
	<g>
		<defs>
			<rect id="SVGID_11_" x="27" y="2.7" width="44" height="14"/>
		</defs>
		<clipPath id="SVGID_12_">
			<use xlink:href="#SVGID_11_"  style="overflow:visible;"/>
		</clipPath>
		<path class="st8" d="M70.7,9.5c0-1-0.1-2.6-0.9-4c-0.8-1.6-1.9-2.4-2-2.4s-0.1,0.1-0.1,0.1s0,0.1,0.2,0.3c1.3,1.3,2,3.4,2,6.1
			c0,2.2-0.5,4.5-2.1,6.2c-0.2,0.1-0.2,0.2-0.2,0.2c0,0.1,0.1,0.1,0.1,0.1c0.1,0,1.3-0.9,2.1-2.5C70.6,12,70.7,10.6,70.7,9.5"/>
	</g>
</g>
<g>
	<g>
		<defs>
			<rect id="SVGID_13_" x="176.3" y="165.5" width="21" height="14"/>
		</defs>
		<clipPath id="SVGID_14_">
			<use xlink:href="#SVGID_13_"  style="overflow:visible;"/>
		</clipPath>
		<path class="st9" d="M180.8,171.6c0.1-0.3,0.4-1.5,1.3-1.5c0.1,0,0.4,0,0.6,0.2c-0.3,0.1-0.6,0.4-0.6,0.7c0,0.2,0.1,0.5,0.5,0.5
			c0.3,0,0.7-0.2,0.7-0.8c0-0.7-0.8-0.9-1.2-0.9c-0.7,0-1.2,0.7-1.4,1c-0.3-0.9-1-1-1.4-1c-1.4,0-2.1,1.7-2.1,2
			c0,0.1,0.1,0.1,0.2,0.1c0.1,0,0.1,0,0.2-0.1c0.5-1.4,1.3-1.7,1.8-1.7c0.2,0,0.7,0.1,0.7,0.9c0,0.4-0.2,1.3-0.7,3.1
			c-0.2,0.8-0.7,1.3-1.3,1.3c-0.1,0-0.4,0-0.6-0.2c0.3-0.1,0.6-0.3,0.6-0.7c0-0.3-0.3-0.5-0.5-0.5c-0.4,0-0.7,0.3-0.7,0.7
			c0,0.6,0.6,0.9,1.2,0.9c0.9,0,1.3-0.9,1.4-1c0.2,0.5,0.6,1,1.4,1c1.3,0,2.1-1.7,2.1-2c0-0.1-0.1-0.1-0.2-0.1
			c-0.1,0-0.2,0.1-0.2,0.1c-0.5,1.4-1.3,1.7-1.7,1.7c-0.5,0-0.7-0.4-0.7-0.9c0-0.3,0.1-0.6,0.2-1.1L180.8,171.6"/>
	</g>
	<g>
		<defs>
			<rect id="SVGID_15_" x="176.3" y="165.5" width="21" height="14"/>
		</defs>
		<clipPath id="SVGID_16_">
			<use xlink:href="#SVGID_15_"  style="overflow:visible;"/>
		</clipPath>
		<path class="st10" d="M188.1,178.6c0-0.1,0-0.1-0.2-0.3c-1.6-1.6-2.1-4.1-2.1-6.1c0-2.3,0.5-4.5,2.1-6.2c0.2-0.2,0.2-0.2,0.2-0.2
			c0-0.1-0.1-0.1-0.1-0.1c-0.1,0-1.3,0.9-2.1,2.5c-0.7,1.4-0.8,2.9-0.8,4c0,1,0.1,2.6,0.9,4c0.8,1.6,1.9,2.4,2,2.4
			C188.1,178.8,188.1,178.7,188.1,178.6"/>
	</g>
	<g>
		<defs>
			<rect id="SVGID_17_" x="176.3" y="165.5" width="21" height="14"/>
		</defs>
		<clipPath id="SVGID_18_">
			<use xlink:href="#SVGID_17_"  style="overflow:visible;"/>
		</clipPath>
		<path class="st11" d="M191.5,170.3h1.2c0.3,0,0.4,0,0.4-0.3c0-0.1-0.1-0.1-0.3-0.1h-1.1c0.5-1.9,0.5-2.1,0.5-2.2
			c0-0.2-0.2-0.4-0.4-0.4c-0.1,0-0.4,0-0.5,0.5l-0.5,2.1h-1.2c-0.2,0-0.4,0-0.4,0.2s0.1,0.2,0.3,0.2h1.1c-0.9,3.7-1,3.9-1,4.1
			c0,0.7,0.5,1.2,1.2,1.2c1.3,0,2.1-1.9,2.1-2s-0.1-0.1-0.2-0.1c-0.1,0-0.1,0.1-0.2,0.2c-0.5,1.4-1.2,1.7-1.7,1.7
			c-0.3,0-0.4-0.2-0.4-0.6c0-0.3,0-0.4,0.1-0.6L191.5,170.3"/>
	</g>
	<g>
		<defs>
			<rect id="SVGID_19_" x="176.3" y="165.5" width="21" height="14"/>
		</defs>
		<clipPath id="SVGID_20_">
			<use xlink:href="#SVGID_19_"  style="overflow:visible;"/>
		</clipPath>
		<path class="st12" d="M197.3,172.3c0-1-0.1-2.6-0.9-4c-0.8-1.6-1.9-2.4-2-2.4s-0.1,0.1-0.1,0.1s0,0.1,0.2,0.3c1.3,1.3,2,3.4,2,6.1
			c0,2.2-0.5,4.5-2.1,6.2c-0.2,0.1-0.2,0.2-0.2,0.2c0,0.1,0.1,0.1,0.1,0.1c0.1,0,1.3-0.9,2.1-2.5
			C197.1,174.8,197.3,173.4,197.3,172.3"/>
	</g>
</g>
<g>
	<g>
		<defs>
			<rect id="SVGID_21_" x="106.1" y="184.6" width="17" height="10.8"/>
		</defs>
		<clipPath id="SVGID_22_">
			<use xlink:href="#SVGID_21_"  style="overflow:visible;"/>
		</clipPath>
		<path class="st13" d="M110.4,187.2c0.1-0.3,0.4-1.5,1.3-1.5c0.1,0,0.4,0,0.7,0.2c-0.4,0.1-0.6,0.4-0.6,0.7c0,0.2,0.2,0.5,0.5,0.5
			s0.7-0.2,0.7-0.8c0-0.7-0.7-0.9-1.2-0.9c-0.7,0-1.2,0.7-1.4,1c-0.3-0.9-1-1-1.4-1c-1.4,0-2.1,1.7-2.1,2c0,0.1,0.1,0.1,0.1,0.1
			c0.1,0,0.2,0,0.2-0.1c0.4-1.4,1.3-1.7,1.7-1.7c0.2,0,0.7,0.1,0.7,0.9c0,0.4-0.2,1.3-0.7,3.1c-0.2,0.8-0.7,1.3-1.2,1.3
			c-0.1,0-0.4,0-0.7-0.2c0.3-0.1,0.6-0.3,0.6-0.7c0-0.3-0.3-0.5-0.5-0.5c-0.4,0-0.7,0.3-0.7,0.7c0,0.6,0.7,0.9,1.2,0.9
			c0.9,0,1.3-0.9,1.4-1c0.1,0.5,0.6,1,1.4,1c1.3,0,2.1-1.7,2.1-2c0-0.1-0.1-0.1-0.2-0.1s-0.1,0.1-0.2,0.1c-0.4,1.4-1.3,1.7-1.7,1.7
			c-0.5,0-0.7-0.4-0.7-0.9c0-0.3,0.1-0.6,0.2-1.1L110.4,187.2"/>
	</g>
	<g>
		<defs>
			<rect id="SVGID_23_" x="106.1" y="184.6" width="17" height="10.8"/>
		</defs>
		<clipPath id="SVGID_24_">
			<use xlink:href="#SVGID_23_"  style="overflow:visible;"/>
		</clipPath>
		<path class="st14" d="M115,190.8c0.4-1.3,1.4-1.4,1.6-1.4c0.4,0,0.7,0.2,0.7,0.6c0,0.9-1.5,0.9-1.9,0.9H115 M115.5,191
			c0.2,0,1,0,1.5-0.2c0.7-0.2,0.8-0.7,0.8-0.9c0-0.5-0.5-0.8-1.1-0.8c-1.1,0-2.5,0.8-2.5,2.4c0,0.9,0.6,1.7,1.6,1.7
			c1.5,0,2.2-0.9,2.2-1s-0.1-0.1-0.2-0.1s-0.1,0-0.1,0.1c-0.7,0.8-1.8,0.8-1.9,0.8c-0.5,0-0.9-0.4-0.9-1.1c0-0.1,0-0.3,0.1-0.8
			L115.5,191L115.5,191z"/>
	</g>
	<g>
		<defs>
			<rect id="SVGID_25_" x="106.1" y="184.6" width="17" height="10.8"/>
		</defs>
		<clipPath id="SVGID_26_">
			<use xlink:href="#SVGID_25_"  style="overflow:visible;"/>
		</clipPath>
		<path class="st15" d="M121.6,191.9c0,0.2,0,0.2-0.2,0.3c-0.3,0.4-0.8,0.7-1.1,0.7c-0.3,0-0.7-0.2-0.7-0.9c0-0.5,0.3-1.5,0.5-1.8
			c0.4-0.7,0.9-0.9,1.1-0.9c0.6,0,0.8,0.7,0.8,0.8v0.1L121.6,191.9 M122.9,189.4c0-0.1,0-0.1,0-0.1c0-0.1,0-0.1-0.1-0.1
			s-0.5,0.3-0.7,0.6c-0.1-0.2-0.4-0.6-1-0.6c-1.1,0-2.3,1.3-2.3,2.6c0,0.9,0.6,1.5,1.4,1.5c0.5,0,0.9-0.3,1.1-0.5
			c0,0-0.3,1.2-0.3,1.3c-0.1,0.5-0.1,0.5-0.7,0.5c-0.1,0-0.2,0-0.2,0.2c0,0.1,0,0.1,0.1,0.1c0.3,0,0.6-0.1,0.9-0.1s0.7,0.1,1,0.1
			c0.1,0,0.2,0,0.2-0.2c0-0.1-0.1-0.1-0.2-0.1c-0.2,0-0.5,0-0.5-0.1c0,0,0-0.1,0.1-0.2L122.9,189.4z"/>
	</g>
</g>
<g>
	<g>
		<defs>
			<rect id="SVGID_27_" x="6.1" y="87.6" width="17" height="10.8"/>
		</defs>
		<clipPath id="SVGID_28_">
			<use xlink:href="#SVGID_27_"  style="overflow:visible;"/>
		</clipPath>
		<path class="st16" d="M10.4,90.2c0.1-0.3,0.4-1.5,1.3-1.5c0.1,0,0.4,0,0.7,0.2c-0.4,0.1-0.6,0.4-0.6,0.7c0,0.2,0.2,0.5,0.5,0.5
			s0.7-0.2,0.7-0.8c0-0.7-0.7-0.9-1.2-0.9c-0.7,0-1.2,0.7-1.4,1c-0.3-0.9-1-1-1.4-1c-1.4,0-2.1,1.7-2.1,2c0,0.1,0.1,0.1,0.1,0.1
			c0.1,0,0.2,0,0.2-0.1c0.4-1.4,1.3-1.7,1.7-1.7c0.2,0,0.7,0.1,0.7,0.9c0,0.4-0.2,1.3-0.7,3.1C8.7,93.5,8.2,94,7.7,94
			c-0.1,0-0.4,0-0.7-0.2c0.3-0.1,0.6-0.3,0.6-0.7c0-0.3-0.3-0.5-0.5-0.5c-0.4,0-0.7,0.3-0.7,0.7c0,0.6,0.7,0.9,1.2,0.9
			C8.5,94.3,9,93.4,9,93.3c0.1,0.5,0.6,1,1.4,1c1.3,0,2.1-1.7,2.1-2c0-0.1-0.1-0.1-0.2-0.1c-0.1,0-0.1,0.1-0.2,0.1
			c-0.4,1.4-1.3,1.7-1.7,1.7c-0.5,0-0.7-0.4-0.7-0.9c0-0.3,0.1-0.6,0.2-1.1L10.4,90.2"/>
	</g>
	<g>
		<defs>
			<rect id="SVGID_29_" x="6.1" y="87.6" width="17" height="10.8"/>
		</defs>
		<clipPath id="SVGID_30_">
			<use xlink:href="#SVGID_29_"  style="overflow:visible;"/>
		</clipPath>
		<path class="st17" d="M15,93.8c0.4-1.3,1.4-1.4,1.6-1.4c0.4,0,0.7,0.2,0.7,0.6c0,0.9-1.5,0.9-1.9,0.9L15,93.8 M15.5,94
			c0.2,0,1,0,1.5-0.2c0.7-0.2,0.8-0.7,0.8-0.9c0-0.5-0.5-0.8-1.1-0.8c-1.1,0-2.5,0.8-2.5,2.4c0,0.9,0.6,1.7,1.6,1.7
			c1.5,0,2.2-0.9,2.2-1s-0.1-0.1-0.2-0.1s-0.1,0-0.1,0.1C17,96,15.9,96,15.8,96c-0.5,0-0.9-0.4-0.9-1.1c0-0.1,0-0.3,0.1-0.8L15.5,94
			L15.5,94z"/>
	</g>
	<g>
		<defs>
			<rect id="SVGID_31_" x="6.1" y="87.6" width="17" height="10.8"/>
		</defs>
		<clipPath id="SVGID_32_">
			<use xlink:href="#SVGID_31_"  style="overflow:visible;"/>
		</clipPath>
		<path class="st18" d="M21.6,94.9c0,0.2,0,0.2-0.2,0.3c-0.3,0.4-0.8,0.7-1.1,0.7c-0.3,0-0.7-0.2-0.7-0.9c0-0.5,0.3-1.5,0.5-1.8
			c0.4-0.7,0.9-0.9,1.1-0.9c0.6,0,0.8,0.7,0.8,0.8v0.1L21.6,94.9 M22.9,92.4C22.9,92.3,22.9,92.3,22.9,92.4c0-0.2,0-0.2-0.1-0.2
			s-0.5,0.3-0.7,0.6c-0.1-0.2-0.4-0.6-1-0.6c-1.1,0-2.3,1.3-2.3,2.6c0,0.9,0.6,1.5,1.4,1.5c0.5,0,0.9-0.3,1.1-0.5
			c0,0-0.3,1.2-0.3,1.3c-0.1,0.5-0.1,0.5-0.7,0.5c-0.1,0-0.2,0-0.2,0.2c0,0.1,0,0.1,0.1,0.1c0.3,0,0.6-0.1,0.9-0.1s0.7,0.1,1,0.1
			c0.1,0,0.2,0,0.2-0.2c0-0.1-0.1-0.1-0.2-0.1c-0.2,0-0.5,0-0.5-0.1c0,0,0-0.1,0.1-0.2L22.9,92.4z"/>
	</g>
</g>
<polyline class="st19" points="27,91.3 117,91.3 117,182.3 "/>
<g>
	<g>
		<line class="st20" x1="76.9" y1="132.5" x2="76.9" y2="146.4"/>
		<g>
			<path class="st21" d="M76.9,149.6c-0.5-1.4-1.4-3.2-2.4-4.3l2.4,0.9l2.4-0.9C78.3,146.3,77.4,148.1,76.9,149.6z"/>
		</g>
	</g>
</g>
<g>
	<g>
		<line class="st20" x1="87.8" y1="133.3" x2="79.8" y2="133.3"/>
		<g>
			<path class="st21" d="M76.7,133.3c1.4-0.5,3.2-1.4,4.3-2.4l-0.9,2.4l0.9,2.4C79.9,134.7,78.2,133.8,76.7,133.3z"/>
		</g>
	</g>
</g>
<g>
	<g>
		<line class="st20" x1="76.9" y1="149.6" x2="62.2" y2="149.6"/>
		<g>
			<path class="st21" d="M59.1,149.6c1.4-0.5,3.2-1.4,4.3-2.4l-0.9,2.4l0.9,2.4C62.3,150.9,60.6,150.1,59.1,149.6z"/>
		</g>
	</g>
</g>
<g>
	<g>
		<line class="st20" x1="142.5" y1="66.1" x2="142.5" y2="57.1"/>
		<g>
			<path class="st21" d="M142.5,54.1c0.5,1.4,1.4,3.2,2.4,4.3l-2.4-0.9l-2.4,0.9C141,57.3,141.9,55.5,142.5,54.1z"/>
		</g>
	</g>
</g>
<g>
	<g>
		<line class="st20" x1="155.7" y1="54.1" x2="155.7" y2="38.4"/>
		<g>
			<path class="st21" d="M155.7,35.4c0.5,1.4,1.4,3.2,2.4,4.3l-2.4-0.9l-2.4,0.9C154.2,38.6,155.1,36.8,155.7,35.4z"/>
		</g>
	</g>
</g>
<g>
	<g>
		<line class="st20" x1="133.5" y1="66.4" x2="140.2" y2="66.4"/>
		<g>
			<path class="st21" d="M142.5,66.4c-1,0.5-2.4,1.4-3.2,2.4l0.7-2.4l-0.7-2.4C140.1,65,141.4,65.9,142.5,66.4z"/>
		</g>
	</g>
</g>
<g>
	<g>
		<line class="st20" x1="142.8" y1="54.1" x2="152.5" y2="54.1"/>
		<g>
			<path class="st21" d="M155.7,54.1c-1.5,0.5-3.4,1.4-4.6,2.4l1-2.4l-1-2.4C152.3,52.7,154.2,53.6,155.7,54.1z"/>
		</g>
	</g>
</g>
<circle class="st22" cx="116.5" cy="91.8" r="3"/>
<g>
	<g>
		<path class="st0" d="M159.6,99.6c6.1-9.1-4.5-17.8-9.6-21.2"/>
		<g>
			<path d="M147.5,76.8c1.5,0.3,3.5,0.5,4.9,0.3l-2,1.5l-0.5,2.5C149.4,79.7,148.4,78,147.5,76.8z"/>
		</g>
	</g>
</g>
<g>
	<g>
		<path class="st0" d="M108,48.9c-3.5,10.4,8.9,16,14.7,18"/>
		<g>
			<path d="M125.6,67.8c-1.5,0.1-3.5,0.4-4.8,1l1.5-2l-0.1-2.5C123,65.5,124.4,66.9,125.6,67.8z"/>
		</g>
	</g>
</g>
<g>
	<g>
		<defs>
			<rect id="SVGID_33_" x="23" y="186.3" width="6" height="9"/>
		</defs>
		<clipPath id="SVGID_34_">
			<use xlink:href="#SVGID_33_"  style="overflow:visible;"/>
		</clipPath>
		<path class="st23" d="M25.9,195c-0.5,0-1.3-0.3-1.5-1.6c-0.2-0.8-0.2-2-0.2-2.7c0-0.8,0-1.7,0.1-2.4c0.3-1.5,1.2-1.7,1.5-1.7
			c0.5,0,1.3,0.2,1.5,1.5c0.1,0.7,0.1,1.7,0.1,2.5c0,1,0,1.9-0.1,2.7C27.2,194.6,26.4,195,25.9,195 M28.6,190.8c0-1-0.1-2.1-0.5-3
			c-0.6-1.3-1.7-1.5-2.2-1.5c-0.8,0-1.7,0.3-2.3,1.5c-0.4,0.9-0.5,1.9-0.5,3c0,1,0.1,2.2,0.6,3.1c0.6,1,1.5,1.3,2.1,1.3
			c0.7,0,1.7-0.3,2.3-1.5C28.5,192.9,28.6,191.9,28.6,190.8z"/>
	</g>
</g>
<g>
	<g>
		<defs>
			<rect id="SVGID_35_" x="10" y="177.3" width="6" height="9"/>
		</defs>
		<clipPath id="SVGID_36_">
			<use xlink:href="#SVGID_35_"  style="overflow:visible;"/>
		</clipPath>
		<path class="st24" d="M12.8,186c-0.5,0-1.3-0.3-1.5-1.6c-0.2-0.8-0.2-2-0.2-2.7c0-0.8,0-1.7,0.1-2.4c0.3-1.5,1.2-1.7,1.5-1.7
			c0.5,0,1.3,0.2,1.5,1.5c0.1,0.7,0.1,1.7,0.1,2.5c0,1,0,1.9-0.1,2.7C14.2,185.6,13.4,186,12.8,186 M15.6,181.8c0-1-0.1-2.1-0.5-3
			c-0.6-1.3-1.7-1.5-2.2-1.5c-0.8,0-1.7,0.3-2.3,1.5c-0.4,0.9-0.5,1.9-0.5,3c0,1,0.1,2.2,0.6,3.1c0.6,1,1.5,1.3,2.1,1.3
			c0.7,0,1.7-0.3,2.3-1.5C15.5,183.9,15.6,182.9,15.6,181.8z"/>
	</g>
</g>
<g>
	<g>
		<defs>
			<rect id="SVGID_37_" x="131.7" y="103.5" width="83" height="14"/>
		</defs>
		<clipPath id="SVGID_38_">
			<use xlink:href="#SVGID_37_"  style="overflow:visible;"/>
		</clipPath>
		<path class="st25" d="M136,109.5c0.1-0.3,0.4-1.5,1.3-1.5c0.1,0,0.4,0,0.7,0.2c-0.4,0.1-0.6,0.4-0.6,0.7c0,0.2,0.2,0.5,0.5,0.5
			s0.7-0.2,0.7-0.7c0-0.7-0.7-0.9-1.2-0.9c-0.7,0-1.2,0.7-1.4,1c-0.3-0.9-1-1-1.4-1c-1.4,0-2.1,1.7-2.1,2c0,0.1,0.1,0.1,0.1,0.1
			c0.1,0,0.2,0,0.2-0.1c0.4-1.4,1.3-1.7,1.7-1.7c0.2,0,0.7,0.1,0.7,0.9c0,0.4-0.2,1.3-0.7,3.1c-0.2,0.8-0.7,1.4-1.2,1.4
			c-0.1,0-0.4,0-0.7-0.2c0.3-0.1,0.6-0.3,0.6-0.7c0-0.3-0.3-0.5-0.5-0.5c-0.4,0-0.7,0.3-0.7,0.7c0,0.6,0.7,0.9,1.2,0.9
			c0.9,0,1.3-0.9,1.4-1c0.1,0.5,0.6,1,1.4,1c1.3,0,2.1-1.7,2.1-2c0-0.1-0.1-0.1-0.2-0.1c-0.1,0-0.1,0.1-0.2,0.2
			c-0.4,1.4-1.3,1.7-1.7,1.7c-0.5,0-0.7-0.4-0.7-0.9c0-0.3,0.1-0.6,0.2-1.1L136,109.5"/>
	</g>
	<g>
		<defs>
			<rect id="SVGID_39_" x="131.7" y="103.5" width="83" height="14"/>
		</defs>
		<clipPath id="SVGID_40_">
			<use xlink:href="#SVGID_39_"  style="overflow:visible;"/>
		</clipPath>
		<path class="st26" d="M143.4,116.5c0,0,0-0.1-0.2-0.3c-1.6-1.6-2-4.1-2-6.1c0-2.3,0.5-4.5,2.1-6.2c0.2-0.2,0.2-0.2,0.2-0.2
			c0-0.1-0.1-0.1-0.1-0.1c-0.1,0-1.3,0.9-2.1,2.5c-0.7,1.4-0.8,2.9-0.8,4c0,1,0.2,2.6,0.9,4C142.2,115.7,143.3,116.5,143.4,116.5
			C143.3,116.6,143.4,116.6,143.4,116.5"/>
	</g>
	<g>
		<defs>
			<rect id="SVGID_41_" x="131.7" y="103.5" width="83" height="14"/>
		</defs>
		<clipPath id="SVGID_42_">
			<use xlink:href="#SVGID_41_"  style="overflow:visible;"/>
		</clipPath>
		<path class="st27" d="M146.7,108.2h1.2c0.3,0,0.4,0,0.4-0.3c0-0.1-0.1-0.1-0.4-0.1h-1.1c0.5-1.9,0.5-2.1,0.5-2.2
			c0-0.2-0.2-0.3-0.4-0.3c0,0-0.4,0-0.5,0.5l-0.5,2.1h-1.2c-0.3,0-0.4,0-0.4,0.2c0,0.2,0.1,0.2,0.4,0.2h1.1c-0.9,3.7-1,3.9-1,4.2
			c0,0.7,0.5,1.2,1.2,1.2c1.3,0,2.1-1.9,2.1-2c0-0.1-0.1-0.1-0.2-0.1c-0.1,0-0.1,0.1-0.2,0.2c-0.6,1.4-1.3,1.7-1.7,1.7
			c-0.3,0-0.4-0.2-0.4-0.6c0-0.3,0-0.4,0.1-0.6L146.7,108.2"/>
	</g>
	<g>
		<defs>
			<rect id="SVGID_43_" x="131.7" y="103.5" width="83" height="14"/>
		</defs>
		<clipPath id="SVGID_44_">
			<use xlink:href="#SVGID_43_"  style="overflow:visible;"/>
		</clipPath>
		<path class="st28" d="M157,110.4h3.6c0.2,0,0.4,0,0.4-0.3c0-0.3-0.2-0.3-0.4-0.3H157v-3.6c0-0.2,0-0.4-0.3-0.4s-0.3,0.2-0.3,0.4
			v3.6h-3.6c-0.2,0-0.4,0-0.4,0.3c0,0.3,0.2,0.3,0.4,0.3h3.6v3.6c0,0.2,0,0.5,0.3,0.5s0.3-0.3,0.3-0.5V110.4"/>
	</g>
	<g>
		<defs>
			<rect id="SVGID_45_" x="131.7" y="103.5" width="83" height="14"/>
		</defs>
		<clipPath id="SVGID_46_">
			<use xlink:href="#SVGID_45_"  style="overflow:visible;"/>
		</clipPath>
		<path class="st29" d="M168.4,105.1c0-0.3,0-0.3-0.3-0.3c-0.8,0.8-1.9,0.8-2.4,0.8v0.4c0.3,0,1,0,1.7-0.3v6.6c0,0.5,0,0.6-1.2,0.6
			h-0.4v0.4c0.5,0,1.6,0,2.1,0s1.7,0,2.1,0v-0.4h-0.4c-1.2,0-1.2-0.1-1.2-0.6V105.1"/>
	</g>
	<g>
		<defs>
			<rect id="SVGID_47_" x="131.7" y="103.5" width="83" height="14"/>
		</defs>
		<clipPath id="SVGID_48_">
			<use xlink:href="#SVGID_47_"  style="overflow:visible;"/>
		</clipPath>
		<path class="st30" d="M174.8,110.1c0-1-0.1-2.6-0.9-4c-0.8-1.6-1.9-2.4-2-2.4s-0.1,0.1-0.1,0.1s0,0.1,0.2,0.3c1.3,1.3,2,3.4,2,6.1
			c0,2.2-0.5,4.5-2.1,6.2c-0.2,0.2-0.2,0.2-0.2,0.2c0,0.1,0.1,0.1,0.1,0.1c0.1,0,1.3-0.9,2.1-2.5
			C174.6,112.7,174.8,111.2,174.8,110.1"/>
	</g>
	<g>
		<defs>
			<rect id="SVGID_49_" x="131.7" y="103.5" width="83" height="14"/>
		</defs>
		<clipPath id="SVGID_50_">
			<use xlink:href="#SVGID_49_"  style="overflow:visible;"/>
		</clipPath>
		<path class="st31" d="M188.6,111.6c0.2,0,0.4,0,0.4-0.3c0-0.2-0.3-0.2-0.5-0.2h-7.7c-0.2,0-0.5,0-0.5,0.2c0,0.3,0.3,0.3,0.4,0.3
			H188.6 M188.6,109.1c0.2,0,0.5,0,0.5-0.2c0-0.3-0.3-0.3-0.4-0.3h-7.8c-0.2,0-0.4,0-0.4,0.3c0,0.2,0.3,0.2,0.5,0.2H188.6z"/>
	</g>
	<g>
		<defs>
			<rect id="SVGID_51_" x="131.7" y="103.5" width="83" height="14"/>
		</defs>
		<clipPath id="SVGID_52_">
			<use xlink:href="#SVGID_51_"  style="overflow:visible;"/>
		</clipPath>
		<path class="st32" d="M197.7,109.5c0.1-0.3,0.4-1.5,1.3-1.5c0.1,0,0.4,0,0.6,0.2c-0.4,0.1-0.6,0.4-0.6,0.7c0,0.2,0.1,0.5,0.5,0.5
			c0.3,0,0.7-0.2,0.7-0.7c0-0.7-0.7-0.9-1.2-0.9c-0.7,0-1.2,0.7-1.4,1c-0.3-0.9-1-1-1.4-1c-1.4,0-2.1,1.7-2.1,2
			c0,0.1,0.1,0.1,0.2,0.1c0.1,0,0.1,0,0.2-0.1c0.4-1.4,1.3-1.7,1.7-1.7c0.3,0,0.7,0.1,0.7,0.9c0,0.4-0.2,1.3-0.7,3.1
			c-0.2,0.8-0.7,1.4-1.2,1.4c-0.1,0-0.4,0-0.7-0.2c0.3-0.1,0.6-0.3,0.6-0.7c0-0.3-0.3-0.5-0.5-0.5c-0.4,0-0.7,0.3-0.7,0.7
			c0,0.6,0.6,0.9,1.2,0.9c0.9,0,1.3-0.9,1.4-1c0.1,0.5,0.6,1,1.4,1c1.4,0,2.1-1.7,2.1-2c0-0.1-0.1-0.1-0.1-0.1
			c-0.1,0-0.2,0.1-0.2,0.2c-0.4,1.4-1.3,1.7-1.7,1.7c-0.5,0-0.7-0.4-0.7-0.9c0-0.3,0.1-0.6,0.2-1.1L197.7,109.5"/>
	</g>
	<g>
		<defs>
			<rect id="SVGID_53_" x="131.7" y="103.5" width="83" height="14"/>
		</defs>
		<clipPath id="SVGID_54_">
			<use xlink:href="#SVGID_53_"  style="overflow:visible;"/>
		</clipPath>
		<path class="st33" d="M205,116.5c0,0,0-0.1-0.2-0.3c-1.7-1.6-2.1-4.1-2.1-6.1c0-2.3,0.5-4.5,2.1-6.2c0.2-0.2,0.2-0.2,0.2-0.2
			c0-0.1-0.1-0.1-0.1-0.1c-0.1,0-1.3,0.9-2.1,2.5c-0.7,1.4-0.8,2.9-0.8,4c0,1,0.1,2.6,0.9,4c0.8,1.6,1.9,2.4,2,2.4
			C205,116.6,205,116.6,205,116.5"/>
	</g>
	<g>
		<defs>
			<rect id="SVGID_55_" x="131.7" y="103.5" width="83" height="14"/>
		</defs>
		<clipPath id="SVGID_56_">
			<use xlink:href="#SVGID_55_"  style="overflow:visible;"/>
		</clipPath>
		<path class="st34" d="M208.4,108.2h1.2c0.3,0,0.4,0,0.4-0.3c0-0.1-0.1-0.1-0.4-0.1h-1.1c0.5-1.9,0.5-2.1,0.5-2.2
			c0-0.2-0.1-0.3-0.4-0.3c0,0-0.4,0-0.5,0.5l-0.5,2.1h-1.2c-0.3,0-0.4,0-0.4,0.2c0,0.2,0.1,0.2,0.4,0.2h1.1c-0.9,3.7-1,3.9-1,4.2
			c0,0.7,0.5,1.2,1.2,1.2c1.3,0,2.1-1.9,2.1-2c0-0.1-0.1-0.1-0.2-0.1c-0.1,0-0.1,0.1-0.2,0.2c-0.6,1.4-1.3,1.7-1.7,1.7
			c-0.3,0-0.4-0.2-0.4-0.6c0-0.3,0-0.4,0.1-0.6L208.4,108.2"/>
	</g>
	<g>
		<defs>
			<rect id="SVGID_57_" x="131.7" y="103.5" width="83" height="14"/>
		</defs>
		<clipPath id="SVGID_58_">
			<use xlink:href="#SVGID_57_"  style="overflow:visible;"/>
		</clipPath>
		<path class="st35" d="M214.2,110.1c0-1-0.2-2.6-0.9-4c-0.8-1.6-1.9-2.4-2-2.4s-0.1,0.1-0.1,0.1s0,0.1,0.3,0.3c1.3,1.3,2,3.4,2,6.1
			c0,2.2-0.5,4.5-2.1,6.2c-0.2,0.2-0.2,0.2-0.2,0.2c0,0.1,0.1,0.1,0.1,0.1c0.1,0,1.3-0.9,2.1-2.5C214,112.7,214.2,111.2,214.2,110.1
			"/>
	</g>
</g>
<g>
	<defs>
		<rect id="SVGID_59_" x="31.3" y="29.9" width="117" height="14"/>
	</defs>
	<clipPath id="SVGID_60_">
		<use xlink:href="#SVGID_59_"  style="overflow:visible;"/>
	</clipPath>
	<path class="st36" d="M35.5,35.9c0.1-0.3,0.4-1.5,1.3-1.5c0.1,0,0.4,0,0.7,0.2c-0.4,0.1-0.6,0.4-0.6,0.7c0,0.2,0.2,0.5,0.5,0.5
		c0.3,0,0.7-0.2,0.7-0.7c0-0.7-0.7-0.9-1.2-0.9c-0.7,0-1.2,0.7-1.4,1c-0.3-0.9-1-1-1.4-1c-1.4,0-2.1,1.7-2.1,2
		c0,0.1,0.1,0.1,0.1,0.1c0.1,0,0.2,0,0.2-0.1c0.4-1.4,1.3-1.7,1.7-1.7c0.2,0,0.7,0.1,0.7,0.9c0,0.4-0.2,1.3-0.7,3.1
		c-0.2,0.8-0.7,1.4-1.2,1.4c-0.1,0-0.4,0-0.7-0.2c0.3-0.1,0.6-0.3,0.6-0.7c0-0.3-0.3-0.5-0.5-0.5c-0.4,0-0.7,0.3-0.7,0.7
		c0,0.6,0.7,0.9,1.2,0.9c0.9,0,1.3-0.9,1.4-1c0.1,0.5,0.6,1,1.4,1c1.3,0,2.1-1.7,2.1-2c0-0.1-0.1-0.1-0.2-0.1
		c-0.1,0-0.1,0.1-0.2,0.2c-0.4,1.4-1.3,1.7-1.7,1.7c-0.5,0-0.7-0.4-0.7-0.9c0-0.3,0.1-0.6,0.2-1.1L35.5,35.9"/>
	<path class="st36" d="M42.9,42.9c0,0,0-0.1-0.2-0.3c-1.6-1.6-2-4.1-2-6.1c0-2.3,0.5-4.5,2.1-6.2c0.2-0.2,0.2-0.2,0.2-0.2
		c0-0.1-0.1-0.1-0.1-0.1c-0.1,0-1.3,0.9-2.1,2.5c-0.7,1.4-0.8,2.9-0.8,4c0,1,0.2,2.6,0.9,4c0.8,1.6,1.9,2.4,2,2.4
		C42.9,43.1,42.9,43,42.9,42.9"/>
	<path class="st36" d="M46.3,34.6h1.2c0.3,0,0.4,0,0.4-0.3c0-0.1-0.1-0.1-0.4-0.1h-1.1c0.5-1.9,0.5-2.1,0.5-2.2
		c0-0.2-0.2-0.3-0.4-0.3c0,0-0.4,0-0.5,0.5l-0.5,2.1h-1.2c-0.3,0-0.4,0-0.4,0.2c0,0.2,0.1,0.2,0.4,0.2h1.1c-0.9,3.7-1,3.9-1,4.2
		c0,0.7,0.5,1.2,1.2,1.2c1.3,0,2.1-1.9,2.1-2c0-0.1-0.1-0.1-0.2-0.1c-0.1,0-0.1,0.1-0.2,0.2c-0.6,1.4-1.3,1.7-1.7,1.7
		c-0.3,0-0.4-0.2-0.4-0.6c0-0.3,0-0.4,0.1-0.6L46.3,34.6"/>
	<path class="st36" d="M52,36.6c0-1-0.1-2.6-0.9-4c-0.8-1.6-1.9-2.4-2-2.4c-0.1,0-0.1,0.1-0.1,0.1c0,0,0,0.1,0.3,0.3
		c1.3,1.3,2,3.4,2,6.1c0,2.2-0.5,4.5-2.1,6.2C49,42.9,49,42.9,49,42.9c0,0.1,0.1,0.1,0.1,0.1c0.1,0,1.3-0.9,2.1-2.5
		C51.9,39.1,52,37.7,52,36.6"/>
	<path class="st36" d="M57.6,42.9c0,0,0-0.1-0.2-0.3c-1.6-1.6-2-4.1-2-6.1c0-2.3,0.5-4.5,2.1-6.2c0.2-0.2,0.2-0.2,0.2-0.2
		c0-0.1-0.1-0.1-0.1-0.1c-0.1,0-1.3,0.9-2.1,2.5c-0.7,1.4-0.8,2.9-0.8,4c0,1,0.1,2.6,0.9,4c0.8,1.6,1.9,2.4,2,2.4
		C57.6,43.1,57.6,43,57.6,42.9"/>
	<path class="st36" d="M62.2,31.5c0-0.3,0-0.3-0.3-0.3C61.1,32,60,32,59.6,32v0.4c0.3,0,1,0,1.7-0.3v6.7c0,0.5,0,0.6-1.2,0.6h-0.4
		v0.4c0.5,0,1.6,0,2.1,0c0.5,0,1.7,0,2.1,0v-0.4h-0.4c-1.2,0-1.2-0.1-1.2-0.6V31.5"/>
	<path class="st36" d="M73,36.9h3.6c0.2,0,0.4,0,0.4-0.3c0-0.3-0.3-0.3-0.4-0.3H73v-3.6c0-0.2,0-0.4-0.3-0.4c-0.3,0-0.3,0.2-0.3,0.4
		v3.6h-3.6c-0.2,0-0.4,0-0.4,0.3c0,0.3,0.3,0.3,0.4,0.3h3.6v3.6c0,0.2,0,0.5,0.3,0.5c0.3,0,0.3-0.3,0.3-0.5V36.9"/>
	<path class="st36" d="M84,39.7c-0.9,0-1.1-1-1.1-1.2c0-0.1,0.1-0.3,0.1-0.5c0.3-1.4,0.5-1.9,0.8-2.4c0.6-0.9,1.2-1.2,1.6-1.2
		c0.5,0,0.9,0.4,0.9,1.3c0,0.7-0.4,2.2-0.7,2.8C85.1,39.3,84.5,39.7,84,39.7 M81.1,42.1c0,0.2,0,0.2,0,0.2c0,0.2,0.1,0.3,0.4,0.3
		c0.3,0,0.4-0.2,0.5-0.3c0.1-0.1,0.5-1.9,0.8-3.2C83,39.6,83.4,40,84,40c1.5,0,3.2-1.8,3.2-3.8c0-1.4-0.9-2.1-1.8-2.1
		c-1.3,0-2.6,1.3-3,2.9L81.1,42.1z"/>
	<path class="st36" d="M91.2,36.6c0-1-0.2-2.6-0.9-4c-0.8-1.6-1.9-2.4-2-2.4c-0.1,0-0.1,0.1-0.1,0.1c0,0,0,0.1,0.2,0.3
		c1.3,1.3,2,3.4,2,6.1c0,2.2-0.5,4.5-2.1,6.2c-0.2,0.2-0.2,0.2-0.2,0.2c0,0.1,0.1,0.1,0.1,0.1c0.1,0,1.3-0.9,2.1-2.5
		C91,39.1,91.2,37.7,91.2,36.6"/>
	<path class="st36" d="M103.9,36.9c0.2,0,0.5,0,0.5-0.3c0-0.3-0.2-0.3-0.5-0.3h-7c-0.2,0-0.5,0-0.5,0.3c0,0.3,0.2,0.3,0.5,0.3H103.9
		"/>
	<path class="st36" d="M112.5,42.9c0,0,0-0.1-0.2-0.3c-1.6-1.6-2-4.1-2-6.1c0-2.3,0.5-4.5,2.1-6.2c0.2-0.2,0.2-0.2,0.2-0.2
		c0-0.1,0-0.1-0.1-0.1c-0.1,0-1.3,0.9-2.1,2.5c-0.7,1.4-0.8,2.9-0.8,4c0,1,0.2,2.6,0.9,4c0.8,1.6,1.9,2.4,2,2.4
		C112.5,43.1,112.5,43,112.5,42.9"/>
	<path class="st36" d="M113.8,36.5c0.5-1.5,1.9-1.5,2.1-1.5c2,0,2.1,2.3,2.1,3.3c0,0.8-0.1,1-0.2,1.3c-0.3,1-0.7,2.4-0.7,2.8
		c0,0.1,0.1,0.2,0.2,0.2c0.2,0,0.3-0.3,0.4-0.8c0.3-1.1,0.4-1.8,0.5-2.2c0-0.2,0.1-0.3,0.1-0.5c0.4-1.3,1.3-3.2,1.8-4.3
		c0.1-0.2,0.2-0.4,0.2-0.5c0-0.1-0.1-0.1-0.1-0.1c-0.1,0-0.1,0-0.2,0.1c-0.7,1.3-1.2,2.5-1.7,3.9c0-0.4,0-1.4-0.5-2.7
		c-0.3-0.8-0.8-1.4-1.7-1.4c-1.6,0-2.5,2-2.5,2.4C113.5,36.6,113.7,36.6,113.8,36.5L113.8,36.5"/>
	<path class="st36" d="M132.2,36.9c0.2,0,0.5,0,0.5-0.3c0-0.3-0.2-0.3-0.5-0.3h-7c-0.2,0-0.5,0-0.5,0.3c0,0.3,0.2,0.3,0.5,0.3H132.2
		"/>
	<path class="st36" d="M141.1,36.1c0.5,1.4,1.1,3.3,1.4,3.6c0.2,0.3,0.3,0.3,0.7,0.3h0.3c0.1,0,0.1-0.1,0.1-0.1c0,0,0-0.1-0.1-0.1
		c-0.1-0.1-0.2-0.3-0.3-0.6l-2.6-7.4c-0.3-0.7-1-0.9-1.6-0.9c-0.1,0-0.2,0-0.2,0.2c0,0.1,0.1,0.1,0.1,0.1c0.4,0.1,0.5,0.2,0.9,1
		l1.3,3.5l-3.6,3.6c-0.1,0.2-0.2,0.2-0.2,0.4c0,0.2,0.2,0.4,0.4,0.4c0.2,0,0.3-0.1,0.4-0.3L141.1,36.1"/>
	<path class="st36" d="M147.8,36.6c0-1-0.1-2.6-0.9-4c-0.8-1.6-1.9-2.4-2-2.4c-0.1,0-0.1,0.1-0.1,0.1c0,0,0,0.1,0.2,0.3
		c1.3,1.3,2,3.4,2,6.1c0,2.2-0.5,4.5-2.1,6.2c-0.2,0.2-0.2,0.2-0.2,0.2c0,0.1,0.1,0.1,0.1,0.1c0.1,0,1.3-0.9,2.1-2.5
		C147.7,39.1,147.8,37.7,147.8,36.6"/>
</g>
<g>
	<defs>
		<rect id="SVGID_61_" x="34.8" y="186.2" width="39.7" height="13.9"/>
	</defs>
	<clipPath id="SVGID_62_">
		<use xlink:href="#SVGID_61_"  style="overflow:visible;"/>
	</clipPath>
	<path class="st37" d="M38.6,199.2c0,0,0-0.1-0.2-0.3c-1.6-1.6-2-4.1-2-6.1c0-2.3,0.5-4.5,2.1-6.2c0.2-0.2,0.2-0.2,0.2-0.2
		c0-0.1,0-0.1-0.1-0.1c-0.1,0-1.3,0.9-2.1,2.5c-0.7,1.4-0.8,2.9-0.8,4c0,1,0.2,2.6,0.9,4c0.8,1.6,1.9,2.4,2.1,2.4
		C38.6,199.3,38.6,199.3,38.6,199.2"/>
	<path class="st37" d="M39.9,192.8c0.5-1.5,1.9-1.5,2.1-1.5c2,0,2.1,2.3,2.1,3.3c0,0.8-0.1,1-0.1,1.3c-0.3,1-0.7,2.4-0.7,2.8
		c0,0.1,0.1,0.2,0.2,0.2c0.2,0,0.3-0.3,0.4-0.8c0.3-1.1,0.4-1.8,0.5-2.2c0-0.2,0.1-0.3,0.1-0.5c0.4-1.3,1.3-3.2,1.8-4.3
		c0.1-0.2,0.3-0.4,0.3-0.5c0-0.1-0.1-0.1-0.2-0.1c-0.1,0-0.1,0-0.2,0.1c-0.7,1.3-1.2,2.5-1.7,3.9c0-0.4,0-1.4-0.5-2.7
		c-0.3-0.8-0.9-1.4-1.7-1.4c-1.6,0-2.5,2-2.5,2.4C39.6,192.8,39.7,192.8,39.9,192.8L39.9,192.8"/>
	<path class="st37" d="M58.2,193.1c0.2,0,0.5,0,0.5-0.3c0-0.3-0.2-0.3-0.5-0.3h-7c-0.2,0-0.5,0-0.5,0.3c0,0.3,0.2,0.3,0.5,0.3H58.2"
		/>
	<path class="st37" d="M67.3,192.3c0.5,1.4,1.1,3.3,1.4,3.6c0.2,0.3,0.3,0.3,0.7,0.3h0.3c0.1,0,0.1-0.1,0.1-0.1c0,0,0-0.1-0.1-0.1
		c-0.1-0.1-0.2-0.3-0.3-0.6l-2.6-7.4c-0.3-0.7-1-0.9-1.6-0.9c-0.1,0-0.2,0-0.2,0.2c0,0.1,0.1,0.1,0.1,0.1c0.4,0.1,0.5,0.2,0.9,1
		l1.3,3.5l-3.6,3.6c-0.1,0.2-0.2,0.2-0.2,0.4c0,0.2,0.2,0.4,0.4,0.4c0.2,0,0.3-0.1,0.4-0.3L67.3,192.3"/>
	<path class="st37" d="M73.9,192.8c0-1-0.1-2.6-0.9-4c-0.8-1.6-1.9-2.4-2-2.4c-0.1,0-0.1,0.1-0.1,0.1c0,0,0,0.1,0.3,0.3
		c1.3,1.3,2,3.4,2,6.1c0,2.2-0.5,4.5-2.1,6.2c-0.2,0.2-0.2,0.2-0.2,0.2c0,0.1,0.1,0.1,0.1,0.1c0.1,0,1.3-0.9,2.1-2.5
		C73.8,195.4,73.9,193.9,73.9,192.8"/>
</g>
</svg>
